<?xml version="1.0" standalone="no"?>
<!DOCTYPE svg PUBLIC "-//W3C//DTD SVG 20010904//EN"
 "http://www.w3.org/TR/2001/REC-SVG-20010904/DTD/svg10.dtd">
<svg version="1.0" xmlns="http://www.w3.org/2000/svg"
 width="600.000000pt" height="400.000000pt" viewBox="0 0 600.000000 400.000000"
 preserveAspectRatio="xMidYMid meet">
<metadata>
Created by potrace 1.16, written by Peter Selinger 2001-2019
</metadata>
<g transform="translate(0.000000,400.000000) scale(0.100000,-0.100000)"
fill="#000000" stroke="none">
<path d="M1210 2148 c-62 -32 -84 -66 -84 -132 -1 -83 53 -144 136 -153 44 -5
117 21 133 47 3 5 11 10 16 10 13 0 3 -84 -13 -109 -32 -52 -132 -67 -203 -31
-46 23 -55 25 -55 7 0 -19 65 -47 122 -54 68 -8 130 17 160 65 21 34 23 52 27
190 2 107 0 157 -8 165 -14 14 -32 -8 -24 -30 6 -16 -13 -18 -23 -2 -10 16
-85 49 -114 49 -14 0 -46 -10 -70 -22z m122 -19 c45 -12 88 -68 88 -114 0 -96
-121 -158 -207 -105 -41 24 -56 54 -55 106 0 51 26 92 67 110 37 16 59 17 107
3z"/>
<path d="M1624 2151 c-17 -10 -40 -31 -52 -45 l-21 -27 -3 37 c-2 21 -9 39
-15 42 -10 3 -13 -34 -13 -163 0 -129 3 -166 13 -163 8 3 14 38 17 109 7 136
22 160 123 193 9 3 17 12 17 21 0 20 -28 19 -66 -4z"/>
<path d="M1814 2151 c-164 -75 -114 -321 66 -321 113 0 195 110 160 215 -24
73 -93 125 -165 125 -11 0 -38 -9 -61 -19z m133 -31 c79 -48 90 -167 22 -231
-41 -38 -90 -45 -142 -20 -51 25 -80 71 -80 126 0 111 110 181 200 125z"/>
<path d="M2575 2156 c-16 -7 -39 -23 -49 -35 -26 -29 -36 -26 -36 9 0 20 -5
30 -15 30 -13 0 -15 -28 -13 -212 2 -158 6 -212 16 -216 9 -3 12 17 12 77 0
45 3 81 7 81 4 0 19 -12 34 -26 53 -51 164 -42 213 17 76 90 44 230 -61 275
-40 17 -69 17 -108 0z m100 -30 c47 -20 75 -68 75 -132 0 -69 -30 -114 -89
-133 -40 -13 -47 -12 -87 8 -80 38 -106 124 -62 202 35 62 96 83 163 55z"/>
<path d="M2932 2149 c-102 -51 -114 -224 -20 -292 56 -42 194 -28 212 20 9 24
1 26 -27 8 -36 -23 -85 -35 -119 -28 -45 9 -98 64 -98 102 l0 31 136 0 137 0
-7 42 c-12 75 -80 138 -148 138 -13 0 -42 -10 -66 -21z m126 -29 c32 -20 52
-54 52 -91 0 -18 -8 -19 -115 -19 -110 0 -115 1 -115 21 0 29 28 73 59 92 35
22 79 21 119 -3z"/>
<path d="M3297 2163 c-4 -3 -7 -95 -7 -203 0 -182 1 -198 19 -214 36 -33 56
-17 59 47 3 51 5 58 20 52 9 -4 40 -10 69 -12 180 -17 262 204 112 304 -34 23
-53 28 -100 28 -31 -1 -64 -6 -72 -14 -13 -11 -20 -10 -39 3 -23 17 -50 21
-61 9z m232 -79 c83 -59 40 -194 -62 -194 -41 0 -97 58 -97 99 0 38 23 86 47
100 27 16 86 13 112 -5z"/>
<path d="M3807 2156 c-48 -18 -71 -38 -92 -82 -22 -47 -25 -83 -10 -128 59
-170 312 -148 341 30 19 121 -118 225 -239 180z m134 -85 c63 -64 17 -181 -71
-181 -31 0 -76 29 -89 57 -34 75 11 153 89 153 33 0 48 -6 71 -29z"/>
<path d="M4097 2164 c-11 -11 -8 -293 3 -315 7 -12 21 -19 40 -19 l30 0 0 113
c0 135 10 157 69 157 61 0 73 -22 78 -143 2 -56 6 -108 8 -114 3 -7 18 -13 35
-13 l30 0 0 109 c0 94 3 112 21 135 28 36 80 36 108 0 18 -23 21 -41 21 -129
0 -109 3 -115 51 -115 18 0 19 8 19 121 0 143 -13 176 -80 203 -54 21 -88 20
-134 -4 l-38 -21 -45 22 c-35 17 -54 20 -86 14 -51 -8 -65 -8 -97 0 -14 4 -29
3 -33 -1z"/>
<path d="M4765 2152 c-46 -21 -92 -71 -101 -108 -11 -44 2 -112 29 -148 69
-90 222 -87 288 5 31 43 36 122 12 168 -44 85 -146 121 -228 83z m139 -79 c49
-48 47 -106 -6 -155 -51 -47 -119 -33 -153 32 -19 38 -19 65 2 100 33 56 112
68 157 23z"/>
<path d="M5062 2004 l3 -169 33 -3 32 -3 0 109 c0 95 3 113 21 136 24 30 71
35 104 10 17 -13 20 -29 23 -127 4 -116 8 -127 50 -127 22 0 22 2 22 120 0
193 -34 227 -210 211 -14 -2 -37 1 -53 4 l-27 7 2 -168z"/>
<path d="M5511 2157 c-44 -17 -99 -80 -107 -124 -15 -78 22 -155 89 -187 40
-18 112 -21 153 -6 19 8 30 8 38 0 5 -5 23 -10 38 -10 l28 0 0 164 0 164 -31
7 c-24 6 -34 3 -41 -9 -7 -13 -13 -14 -23 -6 -20 17 -106 21 -144 7z m132 -83
c67 -67 23 -184 -68 -184 -60 0 -113 65 -101 124 16 81 114 115 169 60z"/>
<path d="M2110 2040 c0 -135 10 -169 60 -195 46 -24 113 -19 148 10 36 30 40
31 44 5 2 -12 8 -21 13 -20 6 0 11 62 13 160 2 138 0 160 -13 160 -12 0 -15
-18 -15 -105 0 -109 -9 -144 -46 -176 -44 -38 -131 -30 -157 14 -7 13 -14 74
-17 141 -3 83 -9 121 -17 124 -10 3 -13 -25 -13 -118z"/>
<path d="M2860 1748 c1 -18 98 -118 162 -166 64 -49 168 -99 223 -107 l40 -6
-42 18 c-49 21 -66 36 -38 33 11 -1 38 -1 60 0 36 2 34 3 -20 11 -92 13 -191
68 -279 155 -70 69 -106 90 -106 62z"/>
<path d="M3385 1540 c-3 -6 1 -7 9 -4 18 7 21 14 7 14 -6 0 -13 -4 -16 -10z"/>
</g>
</svg>
