<?xml version="1.0" standalone="no"?>
<!DOCTYPE svg PUBLIC "-//W3C//DTD SVG 20010904//EN"
 "http://www.w3.org/TR/2001/REC-SVG-20010904/DTD/svg10.dtd">
<svg version="1.0" xmlns="http://www.w3.org/2000/svg"
 width="2209.000000pt" height="589.000000pt" viewBox="0 0 2209.000000 589.000000"
 preserveAspectRatio="xMidYMid meet">
<metadata>
Created by potrace 1.16, written by Peter Selinger 2001-2019
</metadata>
<g transform="translate(0.000000,589.000000) scale(0.100000,-0.100000)"
fill="#000000" stroke="none">
<path d="M11041 3458 c1 -266 3 -472 6 -458 73 468 418 828 876 915 113 21
329 20 442 -4 282 -58 521 -218 673 -448 119 -182 171 -353 179 -595 l6 -158
-888 0 -888 0 6 -57 c29 -317 334 -568 687 -567 161 1 296 44 409 131 60 47
128 124 157 179 l19 34 212 0 c117 0 213 -2 213 -5 0 -3 -14 -34 -31 -68 -158
-315 -424 -528 -749 -597 -83 -18 7 -19 3405 -18 2894 0 3478 2 3418 13 -208
38 -390 133 -535 281 -111 113 -176 214 -233 362 -60 156 -77 270 -72 472 5
209 28 313 105 473 150 314 429 522 774 577 114 18 353 8 446 -19 198 -58 353
-162 453 -304 l49 -70 0 171 0 172 150 0 150 0 0 35 0 35 -1957 -1 c-1077 -1
-1917 -5 -1868 -9 163 -14 285 -58 403 -144 105 -78 208 -225 246 -356 42
-140 46 -215 46 -937 l0 -693 -199 0 -200 0 -3 658 c-4 640 -4 659 -26 735
-29 107 -66 171 -137 243 -77 78 -142 104 -275 111 -55 3 -119 0 -152 -6 -131
-28 -238 -109 -302 -231 -69 -130 -68 -122 -73 -852 l-5 -658 -198 0 -198 0
-5 663 c-4 728 -4 722 -68 848 -79 157 -220 239 -410 239 -187 0 -330 -91
-414 -264 -71 -145 -69 -120 -73 -838 l-3 -648 -200 0 -199 0 0 1035 0 1035
190 0 190 0 0 -131 0 -131 45 61 c105 138 302 242 495 261 41 4 -862 8 -2007
9 l-2083 1 1 -482z"/>
<path d="M15295 3930 c226 -19 420 -138 529 -324 22 -37 42 -69 47 -71 4 -3
18 14 32 38 117 200 335 334 577 356 49 5 -200 8 -595 8 -374 0 -639 -3 -590
-7z"/>
<path d="M1280 3900 l0 -30 158 0 157 0 279 -768 c153 -422 281 -770 285 -774
3 -3 132 341 287 765 l281 772 211 3 c117 1 212 -1 212 -5 0 -5 -176 -470
-392 -1035 l-392 -1028 -206 0 -205 0 -300 788 c-165 433 -316 830 -337 882
l-37 95 0 -912 -1 -913 2548 1 c2122 1 2535 3 2475 14 -208 38 -390 133 -535
281 -111 113 -176 214 -233 362 -60 156 -77 270 -72 472 5 209 28 313 105 473
145 303 407 506 738 571 59 12 -296 14 -2478 15 l-2548 1 0 -30z m3180 -1065
l0 -1035 -200 0 -200 0 0 1035 0 1035 200 0 200 0 0 -1035z"/>
<path d="M6730 3914 c136 -29 264 -87 369 -169 69 -53 97 -83 150 -159 l41
-59 0 171 0 172 200 0 200 0 0 -1035 0 -1035 -200 0 -200 0 0 172 0 172 -30
-48 c-108 -170 -294 -289 -531 -341 -56 -12 107 -13 1256 -13 1136 0 1311 2
1258 14 -156 34 -312 120 -403 222 -85 95 -160 281 -160 397 l0 25 199 0 199
0 7 -42 c30 -180 186 -298 379 -286 127 8 225 68 275 170 62 124 33 258 -73
338 -70 53 -145 86 -377 165 -229 79 -325 126 -408 202 -108 97 -151 200 -151
362 0 182 49 302 174 426 93 92 184 143 313 174 l78 20 -1315 -1 c-1149 0
-1307 -1 -1250 -14z"/>
<path d="M9635 3909 c44 -11 114 -36 155 -56 99 -49 214 -161 258 -253 l31
-65 1 198 0 197 -262 -1 -263 0 80 -20z"/>
<path d="M9330 3591 c-124 -38 -194 -125 -194 -241 0 -152 94 -223 424 -320
273 -80 360 -122 466 -222 l54 -51 0 281 0 282 -182 2 -183 3 -6 50 c-13 102
-78 182 -173 210 -52 16 -163 19 -206 6z"/>
<path d="M12020 3579 c-151 -23 -274 -85 -385 -194 -96 -94 -157 -208 -179
-332 l-5 -33 679 0 c772 0 694 -11 664 91 -48 164 -182 323 -334 397 -47 23
-112 49 -145 57 -78 20 -213 26 -295 14z"/>
<path d="M6465 3549 c-232 -33 -431 -181 -531 -394 -54 -116 -68 -185 -68
-325 0 -115 3 -133 33 -220 109 -320 348 -494 676 -493 179 0 319 47 447 148
185 148 300 454 259 690 -24 138 -98 288 -192 390 -93 101 -258 183 -413 204
-87 12 -125 12 -211 0z"/>
<path d="M19355 3549 c-232 -33 -431 -181 -531 -394 -54 -116 -68 -185 -68
-325 0 -115 3 -133 33 -220 109 -320 348 -494 676 -493 179 0 319 47 447 148
185 148 300 454 259 690 -24 138 -98 288 -192 390 -93 101 -258 183 -413 204
-87 12 -125 12 -211 0z"/>
<path d="M11041 2213 l-1 -473 473 1 472 0 -93 20 c-426 89 -750 421 -837 859
-12 57 -13 8 -14 -407z"/>
<path d="M20153 2100 c-30 -51 -123 -151 -181 -194 -91 -67 -220 -122 -353
-151 -58 -12 -21 -13 399 -14 l462 -1 0 30 0 30 -150 0 -150 0 -2 170 -3 169
-22 -39z"/>
<path d="M10015 1973 c-97 -107 -233 -184 -390 -218 -55 -12 -41 -13 198 -14
l257 -1 0 150 c0 83 -1 150 -2 150 -2 -1 -30 -31 -63 -67z"/>
</g>
</svg>
