<svg id="svg" version="1.1" xmlns="http://www.w3.org/2000/svg" xmlns:xlink="http://www.w3.org/1999/xlink" width="400" height="106.6545948392938" viewBox="0, 0, 400,106.6545948392938"><g id="svgg"><path id="path0" d="M167.000 35.657 C 166.313 35.819,165.525 36.066,165.250 36.206 C 164.975 36.346,164.231 36.711,163.597 37.017 C 162.279 37.653,160.262 39.547,159.390 40.969 C 157.615 43.859,157.518 49.415,159.205 51.570 C 160.750 53.542,161.196 53.914,163.444 55.101 C 164.782 55.808,165.340 56.021,168.167 56.904 C 168.946 57.148,169.808 57.454,170.083 57.585 C 170.358 57.716,171.380 58.132,172.354 58.509 C 173.327 58.887,174.347 59.395,174.620 59.639 C 174.892 59.884,175.349 60.287,175.634 60.537 C 177.332 62.021,177.229 65.508,175.439 67.109 C 174.177 68.239,173.948 68.384,172.950 68.695 C 169.133 69.883,165.128 67.534,164.593 63.792 L 164.480 63.000 160.823 63.000 L 157.167 63.000 157.167 63.569 C 157.167 65.418,158.154 68.524,159.079 69.584 C 159.399 69.950,159.662 70.306,159.663 70.375 C 159.669 70.594,160.865 71.833,161.072 71.833 C 161.181 71.833,161.491 72.069,161.760 72.357 C 162.269 72.900,164.515 74.047,165.458 74.246 C 165.756 74.309,166.000 74.420,166.000 74.493 C 166.000 74.566,166.678 74.757,167.506 74.918 C 169.902 75.383,175.667 75.074,175.667 74.480 C 175.667 74.399,175.785 74.333,175.929 74.333 C 176.447 74.333,179.034 73.108,179.499 72.642 C 179.761 72.380,180.044 72.167,180.130 72.167 C 180.274 72.167,181.393 71.007,182.318 69.898 C 183.105 68.955,184.167 66.176,184.167 65.058 C 184.167 64.854,184.242 64.640,184.333 64.583 C 184.425 64.527,184.500 63.814,184.500 63.000 C 184.500 62.186,184.425 61.473,184.333 61.417 C 184.242 61.360,184.167 61.146,184.167 60.942 C 184.167 56.645,180.105 53.353,172.500 51.486 C 171.996 51.362,171.546 51.217,171.500 51.163 C 171.454 51.109,170.905 50.899,170.279 50.696 C 166.865 49.590,164.573 46.967,165.483 45.206 C 165.565 45.047,165.758 44.617,165.911 44.250 C 166.697 42.370,168.079 41.597,170.667 41.589 C 173.641 41.579,175.658 43.146,175.665 45.470 C 175.668 46.476,175.762 46.500,179.750 46.500 L 183.357 46.500 183.249 45.542 C 183.075 44.010,182.520 42.146,181.990 41.319 C 181.720 40.898,181.500 40.468,181.500 40.362 C 181.500 40.257,180.902 39.571,180.172 38.839 C 178.867 37.530,178.511 37.307,175.813 36.106 C 174.004 35.302,169.484 35.071,167.000 35.657 M216.167 35.500 C 214.260 35.877,213.667 36.034,213.667 36.160 C 213.667 36.235,213.423 36.343,213.125 36.400 C 211.171 36.775,207.430 39.096,205.500 41.131 C 203.668 43.063,201.682 45.910,201.670 46.621 C 201.668 46.734,201.409 47.375,201.095 48.047 C 199.412 51.643,199.423 58.843,201.118 62.692 C 202.529 65.895,203.674 67.637,205.667 69.614 C 206.889 70.826,208.903 72.333,209.300 72.333 C 209.410 72.333,209.500 72.407,209.500 72.497 C 209.500 72.817,213.125 74.333,213.889 74.333 C 214.026 74.333,214.164 74.403,214.194 74.488 C 214.519 75.394,223.671 75.340,225.432 74.421 C 225.699 74.282,226.010 74.168,226.124 74.168 C 226.497 74.166,229.281 72.990,229.603 72.698 C 229.775 72.541,230.363 72.152,230.908 71.832 C 232.167 71.093,234.879 68.413,235.798 67.000 C 236.186 66.404,236.623 65.767,236.771 65.583 C 237.067 65.214,238.167 62.907,238.167 62.654 C 238.167 62.555,236.668 62.511,234.216 62.539 L 230.266 62.583 229.678 63.574 C 228.602 65.388,225.529 67.833,224.325 67.833 C 224.238 67.833,224.167 67.896,224.167 67.972 C 224.167 68.049,224.073 68.120,223.958 68.131 C 223.844 68.142,223.338 68.273,222.833 68.423 C 221.178 68.913,216.635 68.742,215.917 68.163 C 215.825 68.089,215.695 68.020,215.627 68.009 C 215.442 67.980,214.011 67.359,213.198 66.955 C 212.472 66.594,210.167 64.751,210.167 64.532 C 210.167 64.467,209.989 64.221,209.771 63.986 C 208.693 62.824,207.755 60.565,207.555 58.648 L 207.453 57.668 223.435 57.626 L 239.417 57.583 239.463 55.467 C 239.512 53.233,239.185 50.387,238.772 49.448 C 238.643 49.156,238.288 48.204,237.983 47.333 C 236.822 44.015,234.053 40.626,230.750 38.479 C 228.855 37.247,227.083 36.486,224.333 35.721 C 223.258 35.422,217.365 35.262,216.167 35.500 M272.211 35.576 C 271.640 35.706,270.965 35.916,270.711 36.044 C 270.457 36.172,269.607 36.589,268.822 36.971 C 267.329 37.697,264.991 39.654,264.606 40.500 C 264.451 40.841,264.408 40.517,264.370 38.708 L 264.324 36.500 260.745 36.500 L 257.167 36.500 257.167 55.250 L 257.167 74.000 260.908 74.000 L 264.650 74.000 264.709 62.292 C 264.765 51.136,264.784 50.523,265.109 49.303 C 265.884 46.387,268.081 43.709,270.291 42.989 C 270.635 42.877,270.970 42.702,271.036 42.601 C 271.213 42.326,275.700 42.349,275.792 42.625 C 275.830 42.740,275.991 42.833,276.149 42.833 C 276.307 42.833,276.973 43.098,277.629 43.421 C 278.803 43.999,278.974 44.164,280.654 46.322 C 281.794 47.788,281.988 50.234,281.994 63.292 L 282.000 74.000 285.750 74.000 L 289.500 74.000 289.506 63.792 C 289.514 50.037,289.795 47.033,291.169 46.000 C 291.230 45.954,291.511 45.594,291.794 45.200 C 292.552 44.145,294.620 42.834,295.528 42.833 C 295.681 42.833,295.837 42.740,295.875 42.625 C 295.992 42.274,300.446 42.348,301.083 42.712 C 301.358 42.869,301.665 42.998,301.766 42.999 C 302.228 43.002,303.985 44.356,304.555 45.149 C 306.748 48.202,306.714 47.947,306.789 62.125 L 306.852 74.000 310.595 74.000 L 314.337 74.000 314.282 61.292 C 314.224 47.978,314.192 47.342,313.435 44.500 C 313.137 43.380,312.234 41.333,312.038 41.333 C 311.959 41.333,311.734 41.052,311.538 40.708 C 310.532 38.945,307.082 36.333,305.758 36.333 C 305.616 36.333,305.500 36.254,305.500 36.157 C 305.500 36.060,305.417 36.032,305.315 36.095 C 305.213 36.158,305.076 36.123,305.011 36.018 C 304.571 35.307,297.852 35.109,295.833 35.748 C 295.329 35.907,294.888 36.023,294.852 36.005 C 294.816 35.986,294.741 36.037,294.685 36.117 C 294.629 36.198,294.096 36.476,293.500 36.736 C 291.507 37.606,289.539 39.332,288.132 41.444 L 287.448 42.472 287.070 41.944 C 286.862 41.654,286.470 41.042,286.198 40.583 C 285.245 38.978,282.146 36.527,280.500 36.077 C 280.454 36.065,280.304 36.011,280.167 35.959 C 279.040 35.526,278.457 35.448,276.000 35.397 C 274.053 35.358,272.946 35.410,272.211 35.576 M347.524 35.592 C 346.759 35.725,345.896 35.943,345.608 36.076 C 345.319 36.209,344.593 36.499,343.994 36.721 C 339.305 38.458,335.184 42.696,333.511 47.500 C 333.304 48.096,333.067 48.733,332.985 48.917 C 331.900 51.350,331.906 58.966,332.995 61.583 C 333.072 61.767,333.304 62.404,333.511 63.000 C 334.816 66.747,339.371 72.330,341.125 72.333 C 341.240 72.333,341.333 72.407,341.333 72.497 C 341.333 72.728,342.682 73.382,344.250 73.911 C 344.983 74.159,345.713 74.430,345.872 74.513 C 347.457 75.350,355.630 75.335,356.750 74.493 C 356.842 74.424,357.292 74.256,357.750 74.119 C 358.756 73.819,361.167 72.673,361.167 72.494 C 361.167 72.423,361.575 72.094,362.075 71.763 C 362.574 71.431,363.268 70.805,363.617 70.372 C 363.965 69.938,364.337 69.508,364.444 69.417 C 364.550 69.325,364.794 68.987,364.985 68.667 L 365.332 68.083 365.333 71.042 L 365.333 74.000 369.000 74.000 L 372.667 74.000 372.667 55.250 L 372.667 36.500 369.000 36.500 L 365.333 36.500 365.325 39.375 C 365.316 42.133,365.304 42.233,365.033 41.833 C 364.877 41.604,364.556 41.229,364.319 41.000 C 364.083 40.771,363.718 40.335,363.510 40.032 C 363.301 39.729,362.858 39.308,362.524 39.095 C 362.190 38.882,361.704 38.509,361.444 38.266 C 360.897 37.753,359.068 36.800,358.042 36.493 C 357.652 36.376,357.333 36.226,357.333 36.158 C 357.333 35.530,350.238 35.120,347.524 35.592 M223.264 42.170 C 223.980 42.353,224.607 42.570,224.658 42.652 C 224.709 42.734,225.261 43.045,225.887 43.344 C 227.131 43.938,229.228 45.763,229.858 46.801 C 230.064 47.139,230.276 47.454,230.328 47.500 C 230.767 47.881,231.570 49.922,231.768 51.157 L 231.876 51.833 219.692 51.833 L 207.508 51.833 207.605 51.292 C 208.000 49.091,208.858 47.343,210.292 45.820 C 210.819 45.260,211.310 44.696,211.383 44.567 C 211.457 44.439,211.595 44.333,211.691 44.333 C 211.787 44.333,212.084 44.177,212.352 43.987 C 215.288 41.896,219.471 41.200,223.264 42.170 M354.166 42.343 C 354.940 42.440,355.650 42.578,355.745 42.649 C 355.839 42.720,356.442 42.949,357.083 43.158 C 359.713 44.015,362.446 46.367,363.588 48.757 C 363.937 49.486,364.280 50.123,364.351 50.170 C 365.457 50.916,365.439 59.456,364.330 60.167 C 364.258 60.212,363.996 60.700,363.747 61.250 C 361.624 65.937,355.848 68.998,350.812 68.104 C 344.654 67.011,340.752 63.122,339.817 57.145 C 339.413 54.564,340.334 49.487,341.354 48.667 C 341.411 48.621,341.800 48.052,342.219 47.403 C 342.682 46.685,343.343 45.943,343.907 45.508 C 344.416 45.115,344.833 44.741,344.833 44.677 C 344.833 44.477,347.035 43.386,348.083 43.065 C 348.633 42.897,349.121 42.708,349.167 42.645 C 349.258 42.521,351.221 42.222,352.171 42.188 C 352.494 42.176,353.392 42.246,354.166 42.343 " stroke="none" fill="#848484" fill-rule="evenodd"></path><path id="path1" d="M113.753 35.693 C 112.837 35.875,112.050 36.080,112.003 36.150 C 111.955 36.219,111.508 36.408,111.008 36.569 C 109.895 36.928,107.870 37.915,107.417 38.319 C 107.233 38.483,106.731 38.854,106.300 39.144 C 105.469 39.704,102.833 42.271,102.833 42.521 C 102.833 42.603,102.625 42.887,102.371 43.154 C 98.936 46.748,97.750 56.723,100.013 62.987 C 100.375 63.987,102.002 67.074,102.304 67.333 C 102.465 67.471,102.830 67.921,103.115 68.333 C 103.675 69.142,106.267 71.667,106.537 71.667 C 106.628 71.667,106.983 71.889,107.326 72.161 C 110.683 74.820,119.572 76.128,123.250 74.504 C 123.433 74.423,123.883 74.265,124.250 74.153 C 125.180 73.870,127.204 72.936,127.504 72.652 C 127.640 72.523,128.049 72.212,128.412 71.961 C 129.400 71.279,130.609 70.052,131.213 69.120 L 131.750 68.290 131.796 71.145 L 131.841 74.000 135.587 74.000 L 139.333 74.000 139.333 55.247 L 139.333 36.494 135.625 36.538 L 131.917 36.583 131.833 39.376 L 131.750 42.168 130.957 41.096 C 130.520 40.506,129.733 39.662,129.207 39.220 C 128.681 38.778,128.212 38.377,128.167 38.328 C 125.991 36.010,118.784 34.692,113.753 35.693 M21.167 36.637 C 21.167 36.713,21.362 37.332,21.601 38.012 C 21.840 38.693,22.217 39.770,22.439 40.406 C 22.661 41.041,22.916 41.649,23.005 41.757 C 23.095 41.864,23.542 43.024,24.000 44.333 C 24.458 45.643,24.917 46.816,25.020 46.941 C 25.123 47.065,25.152 47.167,25.083 47.167 C 25.015 47.167,25.035 47.260,25.127 47.375 C 25.219 47.490,25.646 48.558,26.075 49.750 C 26.504 50.942,26.995 52.217,27.166 52.583 C 27.336 52.950,27.830 54.262,28.262 55.500 C 28.694 56.737,29.114 57.835,29.194 57.938 C 29.328 58.110,29.993 59.888,30.869 62.417 C 31.060 62.967,31.266 63.454,31.328 63.500 C 31.389 63.546,31.879 64.821,32.417 66.333 C 32.954 67.846,33.439 69.121,33.495 69.167 C 33.551 69.212,33.974 70.300,34.434 71.583 L 35.271 73.917 39.121 73.961 L 42.971 74.006 43.427 72.628 C 43.678 71.870,43.933 71.212,43.994 71.167 C 44.056 71.121,44.465 70.071,44.905 68.833 C 45.344 67.596,45.891 66.171,46.121 65.667 C 46.350 65.162,46.838 63.887,47.204 62.833 C 47.570 61.779,48.041 60.540,48.249 60.079 C 48.458 59.618,48.745 58.905,48.887 58.495 C 49.907 55.553,50.214 54.728,50.345 54.570 C 50.427 54.471,50.827 53.451,51.234 52.304 C 51.641 51.158,52.173 49.746,52.417 49.167 C 52.660 48.588,53.193 47.176,53.599 46.029 C 54.006 44.882,54.411 43.857,54.499 43.751 C 54.587 43.645,54.967 42.664,55.343 41.571 C 55.719 40.478,56.283 38.998,56.597 38.284 C 57.455 36.327,57.765 36.487,53.220 36.539 L 49.273 36.583 48.798 37.988 C 48.538 38.761,48.260 39.474,48.182 39.572 C 48.104 39.670,47.607 41.063,47.078 42.667 C 46.549 44.271,46.026 45.696,45.915 45.833 C 45.805 45.971,45.466 46.871,45.162 47.833 C 44.859 48.796,44.354 50.221,44.040 51.000 C 43.726 51.779,43.126 53.429,42.707 54.667 C 42.287 55.904,41.894 56.954,41.832 57.000 C 41.771 57.046,41.301 58.321,40.789 59.833 C 40.276 61.346,39.751 62.808,39.622 63.083 C 39.493 63.358,39.318 63.754,39.235 63.963 C 39.103 64.292,39.016 64.145,38.594 62.880 C 38.325 62.075,37.941 61.042,37.741 60.583 C 37.540 60.125,37.093 58.887,36.747 57.833 C 36.401 56.779,35.950 55.542,35.744 55.083 C 35.539 54.625,34.977 53.087,34.496 51.667 C 34.015 50.246,33.566 49.008,33.499 48.917 C 33.375 48.746,31.833 44.449,31.833 44.274 C 31.833 44.220,31.655 43.781,31.438 43.297 C 31.220 42.813,30.730 41.471,30.349 40.315 C 29.967 39.159,29.507 37.925,29.327 37.572 C 29.147 37.218,29.000 36.833,29.000 36.715 C 29.000 36.546,28.168 36.500,25.083 36.500 C 22.929 36.500,21.167 36.562,21.167 36.637 M73.500 55.250 L 73.500 74.000 77.167 74.000 L 80.833 74.000 80.833 55.250 L 80.833 36.500 77.167 36.500 L 73.500 36.500 73.500 55.250 M120.832 42.343 C 121.606 42.440,122.317 42.580,122.411 42.653 C 122.506 42.727,122.808 42.841,123.083 42.906 C 123.978 43.119,126.234 44.265,126.906 44.848 C 128.481 46.213,129.000 46.721,129.001 46.896 C 129.001 46.999,129.226 47.323,129.501 47.616 C 130.178 48.338,131.066 50.340,131.417 51.937 C 131.577 52.659,131.743 53.362,131.786 53.500 C 131.921 53.923,131.926 56.193,131.792 56.275 C 131.723 56.318,131.665 56.592,131.664 56.885 C 131.656 58.282,130.363 61.783,129.481 62.794 C 129.220 63.093,128.894 63.555,128.757 63.821 C 127.888 65.500,123.330 67.941,120.891 68.033 C 120.577 68.045,120.281 68.117,120.233 68.194 C 120.115 68.385,118.210 68.371,118.090 68.178 C 118.037 68.092,117.789 68.024,117.539 68.027 C 116.237 68.039,113.191 67.060,112.086 66.275 C 109.754 64.618,108.091 62.526,107.232 60.167 C 107.082 59.754,106.860 59.189,106.739 58.912 C 106.022 57.266,106.062 52.213,106.799 51.282 C 106.886 51.173,107.052 50.786,107.169 50.424 C 108.212 47.191,111.314 44.117,114.583 43.075 C 115.042 42.929,115.567 42.737,115.750 42.649 C 116.584 42.247,118.939 42.106,120.832 42.343 " stroke="none" fill="#4cb4d4" fill-rule="evenodd"></path><path id="path2" d="" stroke="none" fill="#88a098" fill-rule="evenodd"></path><path id="path3" d="" stroke="none" fill="#88a098" fill-rule="evenodd"></path><path id="path4" d="" stroke="none" fill="#88a098" fill-rule="evenodd"></path></g></svg>