<?xml version="1.0" standalone="no"?>
<!DOCTYPE svg PUBLIC "-//W3C//DTD SVG 20010904//EN"
 "http://www.w3.org/TR/2001/REC-SVG-20010904/DTD/svg10.dtd">
<svg version="1.0" xmlns="http://www.w3.org/2000/svg"
 width="286.000000pt" height="176.000000pt" viewBox="0 0 286.000000 176.000000"
 preserveAspectRatio="xMidYMid meet">
<metadata>
Created by potrace 1.16, written by Peter Selinger 2001-2019
</metadata>
<g transform="translate(0.000000,176.000000) scale(0.100000,-0.100000)"
fill="#000000" stroke="none">
<path d="M1332 1669 c-154 -30 -289 -152 -342 -310 -29 -85 -25 -224 10 -312
41 -108 149 -215 260 -259 77 -30 217 -36 296 -13 341 97 448 522 195 772
-107 106 -266 152 -419 122z m203 -55 c116 -30 212 -110 268 -223 30 -61 32
-73 32 -171 0 -97 -2 -110 -31 -170 -38 -80 -83 -133 -149 -175 -82 -52 -144
-68 -249 -63 -115 5 -186 37 -267 117 -125 126 -156 304 -81 464 84 180 283
272 477 221z"/>
<path d="M1157 1394 c-4 -4 -7 -83 -7 -176 0 -210 1 -211 106 -107 l74 73 74
-73 c51 -51 79 -72 90 -68 29 11 17 32 -73 121 l-90 89 -65 -63 -65 -63 -3
134 c-3 111 -6 134 -18 137 -9 1 -19 0 -23 -4z"/>
<path d="M1355 1390 c-3 -6 1 -7 9 -4 18 7 21 14 7 14 -6 0 -13 -4 -16 -10z"/>
<path d="M1605 1328 l-70 -73 75 70 c41 39 76 71 79 73 2 1 0 2 -5 2 -5 0 -41
-33 -79 -72z"/>
<path d="M1700 1213 c-3 -95 -2 -169 3 -164 4 4 6 81 5 172 l-3 164 -5 -172z"/>
<path d="M1430 1278 c46 -49 91 -88 100 -87 13 0 13 1 0 6 -8 3 -53 42 -100
87 l-85 81 85 -87z"/>
<path d="M1624 466 c-9 -24 4 -48 23 -44 24 4 24 52 0 56 -9 2 -20 -4 -23 -12z"/>
<path d="M2404 465 c-8 -21 2 -45 19 -45 8 0 20 7 27 15 10 12 10 18 0 30 -7
8 -19 15 -27 15 -7 0 -16 -7 -19 -15z"/>
<path d="M133 445 c2 -5 24 -88 48 -182 l44 -173 45 0 45 0 29 110 c16 60 32
108 36 105 4 -2 19 -52 35 -110 l28 -105 43 0 c39 0 43 2 53 33 17 55 81 304
81 316 0 6 -18 11 -44 11 l-44 0 -23 -120 c-13 -66 -26 -117 -30 -113 -3 5
-19 59 -34 121 l-27 112 -38 0 c-44 0 -39 9 -71 -130 -11 -52 -24 -98 -28
-103 -4 -4 -17 47 -30 112 l-23 119 -49 4 c-30 2 -48 -1 -46 -7z"/>
<path d="M940 273 c0 -175 1 -183 20 -183 18 0 20 8 22 143 l3 142 59 -143
c77 -186 79 -186 155 -4 30 72 57 132 60 132 4 0 5 -61 3 -135 -3 -131 -2
-135 17 -135 20 0 21 5 21 181 l0 180 -26 -3 c-23 -3 -32 -18 -86 -151 -34
-81 -64 -144 -68 -140 -5 4 -35 73 -68 152 -54 133 -61 144 -86 146 l-26 1 0
-183z"/>
<path d="M2010 395 c0 -31 -3 -35 -25 -35 -16 0 -25 -6 -25 -15 0 -9 9 -15 25
-15 l25 0 0 -104 c0 -119 8 -136 66 -136 24 0 34 5 34 15 0 8 -8 15 -18 15
-34 0 -42 21 -42 117 l0 93 30 0 c20 0 30 5 30 15 0 10 -10 15 -30 15 -28 0
-30 3 -30 35 0 28 -4 35 -20 35 -16 0 -20 -7 -20 -35z"/>
<path d="M713 369 c-84 -25 -121 -155 -68 -236 50 -75 217 -65 246 15 8 20 5
22 -26 22 -18 0 -47 -8 -64 -17 -28 -16 -33 -17 -58 -3 -16 9 -29 26 -31 38
-3 21 -1 22 92 22 l96 0 0 30 c0 43 -24 96 -52 114 -30 20 -95 27 -135 15z
m76 -59 c4 0 13 -11 19 -25 l12 -25 -55 0 c-41 0 -55 4 -55 14 0 19 41 48 58
41 8 -3 17 -5 21 -5z"/>
<path d="M1430 359 c-19 -4 -43 -18 -53 -31 -19 -23 -19 -23 3 -26 12 -2 30 4
39 12 23 20 75 21 95 0 9 -8 16 -26 16 -39 0 -22 -5 -24 -67 -31 -50 -5 -72
-12 -90 -30 -70 -70 33 -168 122 -116 28 17 35 18 35 7 0 -8 9 -15 20 -15 19
0 20 7 20 113 0 105 -2 115 -22 134 -28 25 -71 33 -118 22z m100 -166 c0 -59
-84 -97 -124 -57 -35 34 -5 71 64 77 25 2 48 4 53 5 4 1 7 -10 7 -25z"/>
<path d="M1817 360 c-16 -5 -35 -17 -43 -27 -13 -17 -13 -17 -14 5 0 15 -6 22
-20 22 -19 0 -20 -7 -20 -135 0 -128 1 -135 20 -135 19 0 20 7 20 95 0 88 2
98 25 120 28 29 61 32 93 9 20 -14 22 -23 22 -120 0 -97 1 -104 20 -104 19 0
20 7 20 113 0 105 -2 115 -22 134 -28 25 -64 33 -101 23z"/>
<path d="M2216 360 c-30 -9 -66 -37 -66 -52 0 -13 33 -9 54 7 42 32 116 4 116
-44 0 -15 -10 -20 -57 -25 -82 -10 -110 -23 -122 -58 -30 -85 86 -142 155 -77
l24 22 0 -21 c0 -15 6 -22 20 -22 19 0 20 7 20 100 0 122 -13 154 -68 169 -42
12 -37 12 -76 1z m98 -184 c-8 -34 -40 -56 -79 -56 -37 0 -55 16 -55 46 0 29
14 37 75 44 59 7 68 2 59 -34z"/>
<path d="M2605 363 c-11 -3 -30 -14 -42 -26 l-23 -20 0 21 c0 15 -6 22 -20 22
-19 0 -20 -7 -20 -135 l0 -135 25 0 25 0 0 100 c0 112 14 140 68 140 57 0 72
-32 72 -149 0 -84 1 -91 20 -91 19 0 20 7 20 100 0 117 -13 152 -61 169 -18 6
-35 10 -38 10 -3 -1 -15 -3 -26 -6z"/>
<path d="M1620 225 l0 -135 25 0 25 0 0 135 0 135 -25 0 -25 0 0 -135z"/>
<path d="M2410 225 c0 -128 1 -135 20 -135 19 0 20 7 20 135 0 128 -1 135 -20
135 -19 0 -20 -7 -20 -135z"/>
</g>
</svg>
