<svg id="svg" version="1.1" xmlns="http://www.w3.org/2000/svg" xmlns:xlink="http://www.w3.org/1999/xlink" width="400" height="399.2766726943943" viewBox="0, 0, 400,399.2766726943943"><g id="svgg"><path id="path0" d="M89.510 120.229 C 89.510 120.421,88.574 120.668,87.429 120.778 C 86.285 120.888,85.281 121.180,85.198 121.428 C 85.116 121.675,84.776 121.878,84.443 121.878 C 83.823 121.878,81.518 124.095,81.518 124.691 C 81.518 124.872,81.159 125.135,80.719 125.275 C 80.280 125.414,79.920 125.713,79.920 125.939 C 79.920 126.165,79.515 126.917,79.021 127.611 L 78.122 128.871 78.004 199.201 C 77.880 272.974,77.844 271.409,79.710 273.409 C 80.265 274.004,80.719 274.590,80.719 274.711 C 80.719 275.385,83.159 277.498,84.712 278.170 C 85.703 278.598,86.826 279.123,87.207 279.335 C 88.079 279.819,94.079 279.842,95.010 279.365 C 95.392 279.169,96.466 278.674,97.398 278.266 C 98.330 277.857,99.094 277.388,99.096 277.223 C 99.099 277.058,99.371 276.923,99.700 276.923 C 100.030 276.923,100.300 276.750,100.300 276.539 C 100.300 276.328,113.310 263.141,129.212 247.235 L 158.124 218.314 159.392 219.647 C 160.089 220.379,160.811 220.979,160.996 220.979 C 161.181 220.979,162.211 221.990,163.284 223.226 C 165.414 225.680,166.855 227.125,170.807 230.769 C 172.237 232.088,173.411 233.312,173.417 233.489 C 173.432 233.994,175.944 236.164,176.513 236.164 C 176.793 236.164,177.023 236.338,177.023 236.550 C 177.023 236.763,177.652 237.566,178.422 238.335 C 179.191 239.104,179.820 239.930,179.820 240.170 C 179.820 240.410,180.000 240.495,180.220 240.360 C 180.440 240.224,180.619 240.363,180.619 240.668 C 180.619 240.974,181.063 241.461,181.605 241.751 C 182.147 242.041,182.496 242.431,182.380 242.618 C 182.265 242.804,182.355 242.957,182.581 242.957 C 183.147 242.957,187.013 246.748,187.013 247.303 C 187.013 247.550,187.148 247.707,187.313 247.652 C 187.478 247.597,187.642 247.710,187.679 247.902 C 187.716 248.095,188.212 248.558,188.781 248.932 C 189.351 249.305,189.695 249.732,189.547 249.880 C 189.399 250.029,189.503 250.150,189.778 250.150 C 190.299 250.150,193.815 253.601,195.200 255.471 C 195.637 256.061,196.232 256.543,196.522 256.543 C 196.813 256.543,196.939 256.723,196.803 256.943 C 196.667 257.163,196.755 257.343,196.998 257.343 C 197.378 257.343,198.418 258.174,199.888 259.652 C 201.730 261.506,202.997 262.963,202.997 263.228 C 202.997 263.403,203.481 263.904,204.072 264.341 C 205.844 265.649,210.190 270.043,210.190 270.527 C 210.190 270.774,210.370 270.865,210.589 270.729 C 210.809 270.593,210.989 270.763,210.989 271.105 C 210.989 271.448,211.175 271.728,211.402 271.728 C 211.629 271.728,212.432 272.313,213.187 273.027 C 213.941 273.741,214.749 274.505,214.982 274.725 C 215.214 274.945,215.715 275.493,216.094 275.943 C 217.106 277.145,220.364 278.921,221.555 278.921 C 222.123 278.921,222.939 279.140,223.367 279.408 C 223.979 279.790,224.536 279.790,225.965 279.408 C 226.965 279.140,228.141 278.921,228.579 278.921 C 230.169 278.921,233.562 276.619,234.938 274.606 C 235.253 274.146,235.657 273.860,235.837 273.971 C 236.017 274.082,236.164 273.893,236.164 273.550 C 236.164 273.207,236.324 272.927,236.519 272.927 C 237.895 272.927,238.680 262.097,237.397 260.814 C 237.158 260.575,236.963 260.056,236.963 259.660 C 236.963 259.265,236.805 258.941,236.612 258.941 C 236.419 258.941,236.040 258.408,235.770 257.756 C 235.500 257.104,234.979 256.475,234.612 256.358 C 234.245 256.242,233.680 255.760,233.356 255.288 C 232.420 253.923,227.010 248.648,226.781 248.877 C 226.667 248.991,226.573 248.880,226.573 248.631 C 226.573 248.245,225.329 246.899,223.298 245.090 C 223.012 244.835,221.114 242.914,219.081 240.822 C 217.048 238.730,215.385 237.071,215.385 237.135 C 215.385 237.199,214.346 236.242,213.075 235.009 C 211.805 233.776,210.796 232.713,210.832 232.646 C 210.908 232.507,207.152 228.748,204.492 226.301 C 203.493 225.383,202.778 224.528,202.903 224.403 C 203.028 224.278,202.843 224.176,202.491 224.176 C 202.140 224.176,201.737 223.814,201.597 223.371 C 201.456 222.928,201.219 222.625,201.070 222.697 C 200.921 222.770,200.401 222.413,199.914 221.904 C 199.428 221.395,199.118 220.979,199.226 220.979 C 199.335 220.979,198.834 220.375,198.113 219.637 C 197.393 218.898,196.668 218.370,196.503 218.461 C 196.339 218.553,196.204 218.479,196.204 218.296 C 196.204 217.783,189.493 211.040,189.237 211.296 C 189.113 211.420,189.010 211.267,189.010 210.956 C 189.009 210.644,188.469 210.030,187.809 209.590 C 187.149 209.151,186.511 208.486,186.391 208.112 C 186.271 207.739,185.822 207.322,185.394 207.186 C 184.966 207.050,184.615 206.815,184.615 206.664 C 184.615 206.513,183.896 205.626,183.017 204.692 C 182.138 203.759,181.419 203.122,181.419 203.277 C 181.419 203.432,181.104 203.147,180.719 202.644 C 179.463 201.000,172.126 193.806,171.706 193.806 C 171.480 193.806,171.382 193.719,171.489 193.613 C 171.721 193.381,166.367 187.812,165.912 187.812 C 165.737 187.812,165.384 187.602,165.128 187.346 C 162.301 184.519,153.040 185.420,149.451 188.870 C 147.338 190.901,143.419 194.779,141.967 196.274 C 141.258 197.005,139.878 198.322,138.902 199.201 C 137.925 200.080,137.112 201.024,137.094 201.299 C 137.077 201.573,136.800 201.798,136.478 201.798 C 136.156 201.798,135.683 202.189,135.427 202.667 C 134.879 203.691,133.236 205.395,132.795 205.395 C 132.450 205.395,128.085 209.923,126.869 211.542 C 126.437 212.117,125.938 212.587,125.760 212.587 C 125.371 212.587,120.325 217.677,119.492 218.910 C 119.169 219.389,118.765 219.780,118.594 219.780 C 118.423 219.780,115.271 222.792,111.589 226.474 L 104.895 233.167 104.895 183.217 C 104.895 131.658,104.882 131.110,103.539 128.075 C 102.715 126.212,98.625 121.878,97.691 121.878 C 97.404 121.878,97.104 121.681,97.023 121.439 C 96.943 121.198,96.029 120.905,94.992 120.788 C 93.955 120.671,93.107 120.419,93.107 120.228 C 93.107 120.037,92.298 119.880,91.309 119.880 C 90.320 119.880,89.510 120.037,89.510 120.229 " stroke="none" fill="#0b84c4" fill-rule="evenodd"></path><path id="path1" d="M307.923 120.230 C 307.804 120.422,306.679 120.664,305.422 120.769 C 304.165 120.873,303.068 121.165,302.984 121.418 C 302.900 121.671,302.576 121.878,302.266 121.878 C 301.956 121.878,295.134 128.487,287.106 136.563 C 279.078 144.640,272.354 151.403,272.162 151.591 C 271.877 151.871,262.008 161.736,260.625 163.123 C 260.077 163.673,257.520 166.230,257.029 166.719 C 256.809 166.939,255.800 167.913,254.788 168.884 C 253.775 169.856,252.947 170.855,252.947 171.106 C 252.947 171.357,252.835 171.450,252.699 171.313 C 252.562 171.177,251.751 171.821,250.897 172.745 C 250.043 173.669,249.210 174.553,249.047 174.709 C 248.402 175.327,245.924 177.780,245.435 178.285 C 245.149 178.580,244.238 179.483,243.411 180.292 L 241.906 181.762 240.427 180.292 C 239.613 179.483,238.726 178.590,238.455 178.308 C 238.184 178.026,237.384 177.217,236.677 176.510 C 235.970 175.803,235.212 175.045,234.993 174.825 C 229.287 169.101,227.326 167.152,226.896 166.776 C 226.609 166.525,225.801 165.716,225.100 164.978 C 224.400 164.240,223.615 163.432,223.356 163.183 C 222.954 162.797,212.959 152.814,211.642 151.483 C 211.393 151.231,208.761 148.602,205.794 145.640 C 202.827 142.678,200.245 140.095,200.057 139.901 C 199.868 139.706,199.084 138.918,198.315 138.149 C 197.546 137.379,196.763 136.596,196.575 136.407 C 193.343 133.164,185.011 124.851,184.402 124.262 C 183.954 123.830,183.410 123.477,183.191 123.477 C 182.973 123.477,182.535 123.117,182.218 122.677 C 181.901 122.238,181.322 121.878,180.931 121.878 C 180.540 121.878,180.220 121.709,180.220 121.503 C 180.220 121.048,179.796 121.002,175.225 120.965 C 171.639 120.936,170.501 121.074,169.975 121.600 C 169.822 121.753,169.407 121.878,169.053 121.878 C 168.698 121.878,168.149 122.238,167.832 122.677 C 167.515 123.117,167.071 123.478,166.845 123.481 C 166.258 123.487,164.122 125.857,163.427 127.273 C 163.103 127.932,162.658 128.600,162.438 128.757 C 161.829 129.191,161.918 138.902,162.537 139.521 C 162.812 139.795,163.037 140.258,163.037 140.548 C 163.037 140.839,178.214 156.255,196.764 174.806 C 215.314 193.358,230.809 209.074,231.197 209.731 C 231.586 210.389,232.368 211.165,232.935 211.457 C 233.502 211.748,234.056 212.081,234.166 212.196 C 236.052 214.176,244.672 214.801,247.952 213.196 C 248.986 212.690,257.488 204.472,272.027 189.923 C 284.390 177.553,294.590 167.433,294.694 167.433 C 294.799 167.433,294.938 190.315,295.004 218.282 C 295.132 272.294,295.081 270.879,296.969 272.905 C 297.372 273.338,297.702 273.798,297.702 273.928 C 297.702 274.057,298.152 274.612,298.701 275.161 C 299.251 275.711,299.700 276.320,299.700 276.515 C 299.700 276.710,300.039 276.977,300.452 277.108 C 300.865 277.239,301.612 277.701,302.112 278.134 C 302.611 278.567,303.441 278.921,303.957 278.921 C 304.473 278.921,304.895 279.101,304.895 279.321 C 304.895 279.560,306.494 279.720,308.891 279.720 C 311.289 279.720,312.887 279.560,312.887 279.321 C 312.887 279.101,313.151 278.921,313.474 278.921 C 314.947 278.921,319.281 275.753,319.281 274.676 C 319.281 274.535,319.597 274.129,319.983 273.773 C 321.984 271.931,321.878 276.088,321.878 199.473 C 321.878 142.761,321.776 128.104,321.379 127.972 C 321.104 127.880,320.879 127.563,320.879 127.267 C 320.879 126.549,316.228 121.878,315.513 121.878 C 315.204 121.878,314.881 121.667,314.796 121.410 C 314.708 121.147,313.554 120.863,312.165 120.762 C 310.804 120.664,309.690 120.425,309.690 120.232 C 309.690 119.775,308.205 119.774,307.923 120.230 " stroke="none" fill="#f4643c" fill-rule="evenodd"></path><path id="path2" d="M178.422 0.799 C 178.286 1.019,176.926 1.199,175.401 1.199 C 173.876 1.199,172.627 1.346,172.627 1.526 C 172.627 1.705,170.784 2.057,168.531 2.306 C 162.555 2.968,161.039 3.238,161.039 3.638 C 161.039 3.835,160.230 3.996,159.241 3.996 C 158.252 3.996,157.443 4.176,157.443 4.396 C 157.443 4.615,156.824 4.795,156.068 4.795 C 155.311 4.795,154.581 4.975,154.446 5.195 C 154.310 5.415,153.580 5.594,152.824 5.594 C 152.067 5.594,151.449 5.761,151.449 5.965 C 151.449 6.169,150.914 6.268,150.261 6.185 C 149.607 6.102,148.967 6.205,148.839 6.414 C 148.710 6.623,147.996 6.793,147.253 6.793 C 146.509 6.793,145.790 6.973,145.654 7.193 C 145.519 7.413,144.799 7.592,144.056 7.592 C 143.313 7.592,142.593 7.772,142.458 7.992 C 142.322 8.212,141.782 8.392,141.259 8.392 C 140.735 8.392,140.196 8.571,140.060 8.791 C 139.924 9.011,139.385 9.191,138.861 9.191 C 138.338 9.191,137.796 9.374,137.658 9.597 C 137.520 9.820,137.252 9.907,137.063 9.790 C 136.874 9.673,136.606 9.760,136.468 9.983 C 136.330 10.207,135.778 10.390,135.241 10.390 C 134.705 10.390,134.266 10.569,134.266 10.789 C 134.266 11.009,133.816 11.189,133.267 11.189 C 132.717 11.189,132.268 11.369,132.268 11.588 C 132.268 11.808,131.908 11.988,131.469 11.988 C 131.029 11.988,130.669 12.168,130.669 12.388 C 130.669 12.607,130.130 12.787,129.471 12.787 C 128.811 12.787,128.272 12.967,128.272 13.187 C 128.272 13.407,127.867 13.588,127.373 13.589 C 126.878 13.590,125.958 13.860,125.329 14.188 C 124.699 14.517,123.941 14.785,123.643 14.785 C 123.345 14.785,122.461 15.145,121.678 15.584 C 120.896 16.024,119.991 16.384,119.668 16.384 C 119.345 16.384,119.081 16.543,119.081 16.739 C 119.081 16.934,118.452 17.212,117.682 17.356 C 116.913 17.501,116.284 17.790,116.284 18.000 C 116.284 18.210,115.924 18.382,115.485 18.382 C 115.045 18.382,114.685 18.528,114.685 18.707 C 114.685 18.885,114.056 19.279,113.287 19.580 C 112.517 19.882,111.888 20.275,111.888 20.454 C 111.888 20.633,111.528 20.779,111.089 20.779 C 110.649 20.779,110.290 20.970,110.290 21.202 C 110.290 21.435,110.125 21.524,109.925 21.400 C 109.724 21.276,108.780 21.621,107.827 22.167 C 106.874 22.713,105.779 23.275,105.395 23.415 C 105.010 23.555,104.695 23.828,104.695 24.023 C 104.695 24.217,104.336 24.376,103.896 24.376 C 103.457 24.376,103.097 24.536,103.097 24.732 C 103.097 24.928,102.647 25.201,102.098 25.339 C 101.548 25.477,101.099 25.766,101.099 25.982 C 101.099 26.197,100.822 26.374,100.483 26.374 C 100.144 26.374,99.481 26.733,99.009 27.173 C 98.537 27.612,97.905 27.972,97.603 27.972 C 97.302 27.972,97.167 28.152,97.303 28.372 C 97.439 28.591,97.251 28.771,96.886 28.771 C 96.096 28.771,92.309 30.838,92.308 31.269 C 92.308 31.434,92.081 31.568,91.804 31.568 C 91.527 31.568,90.816 32.018,90.223 32.567 C 89.631 33.117,88.908 33.566,88.617 33.566 C 88.326 33.566,87.829 33.926,87.512 34.366 C 87.196 34.805,86.706 35.165,86.425 35.165 C 86.144 35.165,85.914 35.332,85.914 35.536 C 85.914 35.739,85.195 36.224,84.316 36.611 C 83.437 36.999,82.717 37.462,82.717 37.639 C 82.717 37.817,82.531 37.962,82.304 37.962 C 82.077 37.962,81.262 38.591,80.493 39.361 C 79.724 40.130,78.903 40.759,78.668 40.759 C 78.434 40.759,77.739 41.299,77.123 41.958 C 76.507 42.617,75.883 43.157,75.735 43.157 C 75.588 43.157,75.230 43.382,74.941 43.656 C 74.651 43.931,73.909 44.515,73.292 44.955 C 70.940 46.630,67.133 50.223,67.133 50.767 C 67.133 50.977,66.875 51.149,66.559 51.149 C 66.063 51.149,62.657 54.117,60.140 56.743 C 59.700 57.201,58.733 58.153,57.991 58.858 C 57.249 59.563,56.260 60.568,55.793 61.091 C 55.327 61.613,54.181 62.813,53.247 63.756 C 52.313 64.700,51.548 65.665,51.548 65.903 C 51.548 66.140,51.356 66.334,51.120 66.334 C 50.660 66.334,49.550 67.315,49.550 67.722 C 49.550 67.857,49.146 68.408,48.651 68.945 C 46.380 71.412,45.954 71.915,45.954 72.132 C 45.954 72.259,45.549 72.803,45.055 73.340 C 42.783 75.808,42.358 76.310,42.358 76.527 C 42.358 76.655,41.908 77.209,41.359 77.759 C 40.809 78.308,40.360 78.947,40.360 79.179 C 40.360 79.410,39.820 80.103,39.161 80.719 C 38.501 81.335,37.962 82.083,37.962 82.382 C 37.962 82.680,37.587 83.159,37.129 83.445 C 36.671 83.731,36.385 84.196,36.494 84.478 C 36.602 84.760,36.347 85.238,35.928 85.541 C 35.508 85.843,35.165 86.239,35.165 86.420 C 35.165 86.601,34.747 87.168,34.236 87.679 C 33.725 88.190,33.074 89.171,32.789 89.858 C 32.504 90.546,32.113 91.109,31.920 91.109 C 31.726 91.109,31.568 91.379,31.568 91.708 C 31.568 92.038,31.389 92.308,31.169 92.308 C 30.949 92.308,30.769 92.667,30.769 93.107 C 30.769 93.546,30.618 93.906,30.433 93.906 C 30.247 93.906,29.757 94.535,29.343 95.305 C 28.928 96.074,28.451 96.703,28.281 96.703 C 28.111 96.703,27.972 97.063,27.972 97.502 C 27.972 97.942,27.792 98.302,27.572 98.302 C 27.353 98.302,27.173 98.571,27.173 98.901 C 27.173 99.231,27.028 99.500,26.852 99.500 C 26.432 99.500,24.376 103.314,24.376 104.093 C 24.376 104.424,24.196 104.695,23.976 104.695 C 23.756 104.695,23.576 105.055,23.576 105.495 C 23.576 105.934,23.397 106.294,23.177 106.294 C 22.957 106.294,22.777 106.563,22.777 106.893 C 22.777 107.223,22.597 107.493,22.378 107.493 C 22.158 107.493,21.978 107.810,21.978 108.199 C 21.978 108.587,21.528 109.567,20.979 110.376 C 20.430 111.184,19.980 112.035,19.980 112.267 C 19.980 112.498,19.800 112.687,19.580 112.687 C 19.361 112.687,19.181 113.047,19.181 113.487 C 19.181 113.926,19.031 114.286,18.848 114.286 C 18.665 114.286,18.171 115.365,17.749 116.683 C 17.328 118.002,16.848 119.081,16.683 119.081 C 16.519 119.081,16.384 119.405,16.384 119.800 C 16.384 120.693,15.490 122.670,15.085 122.674 C 14.920 122.676,14.785 123.217,14.785 123.876 C 14.785 124.535,14.620 125.075,14.417 125.075 C 14.215 125.075,13.931 125.612,13.787 126.269 C 13.643 126.926,13.359 127.566,13.156 127.691 C 12.953 127.817,12.787 128.358,12.787 128.895 C 12.787 129.431,12.607 129.870,12.388 129.870 C 12.168 129.870,11.988 130.142,11.988 130.475 C 11.988 130.808,11.829 131.392,11.635 131.774 C 10.437 134.129,9.191 137.941,9.191 139.251 C 9.191 139.780,9.011 140.324,8.791 140.460 C 8.571 140.595,8.392 141.225,8.392 141.858 C 8.392 142.492,8.212 143.121,7.992 143.257 C 7.772 143.393,7.592 144.033,7.592 144.679 C 7.592 145.325,7.413 145.854,7.193 145.854 C 6.973 145.854,6.793 146.383,6.793 147.029 C 6.793 147.676,6.627 148.307,6.425 148.432 C 6.222 148.557,5.932 149.827,5.779 151.253 C 5.626 152.679,5.342 153.846,5.148 153.846 C 4.954 153.846,4.795 154.476,4.795 155.245 C 4.795 156.014,4.615 156.643,4.396 156.643 C 4.176 156.643,3.996 157.363,3.996 158.242 C 3.996 159.121,3.816 159.840,3.596 159.840 C 3.377 159.840,3.197 160.619,3.197 161.572 C 3.197 162.524,3.072 163.428,2.919 163.581 C 2.536 163.964,2.424 164.697,2.133 168.731 C 1.993 170.654,1.747 172.228,1.586 172.228 C 1.424 172.228,1.262 174.246,1.225 176.712 C 1.183 179.559,0.993 181.299,0.705 181.477 C 0.031 181.894,0.040 217.862,0.715 218.087 C 1.058 218.201,1.199 219.631,1.199 222.987 C 1.199 225.593,1.355 227.822,1.546 227.940 C 1.737 228.058,2.022 229.957,2.178 232.159 C 2.334 234.362,2.627 236.164,2.829 236.164 C 3.031 236.164,3.197 236.973,3.197 237.962 C 3.197 238.951,3.377 239.760,3.596 239.760 C 3.816 239.760,3.996 240.480,3.996 241.359 C 3.996 242.238,4.176 242.957,4.396 242.957 C 4.615 242.957,4.795 243.766,4.795 244.755 C 4.795 245.744,4.952 246.553,5.143 246.553 C 5.335 246.553,5.613 247.632,5.762 248.951 C 5.912 250.270,6.205 251.349,6.413 251.349 C 6.622 251.349,6.793 251.967,6.793 252.724 C 6.793 253.480,6.973 254.210,7.193 254.346 C 7.413 254.481,7.592 255.032,7.592 255.568 C 7.592 256.105,7.772 256.543,7.992 256.543 C 8.212 256.543,8.392 257.252,8.392 258.118 C 8.392 258.984,8.571 259.804,8.791 259.940 C 9.011 260.076,9.191 260.596,9.191 261.096 C 9.191 261.596,9.326 262.140,9.491 262.304 C 9.655 262.469,9.804 262.724,9.821 262.870 C 9.992 264.335,10.550 266.134,10.834 266.134 C 11.029 266.134,11.189 266.583,11.189 267.133 C 11.189 267.682,11.369 268.132,11.588 268.132 C 11.808 268.132,11.988 268.581,11.988 269.131 C 11.988 269.680,12.124 270.130,12.290 270.130 C 12.619 270.130,13.518 272.473,13.861 274.226 C 13.980 274.830,14.236 275.325,14.431 275.325 C 14.626 275.325,14.785 275.684,14.785 276.124 C 14.785 276.563,14.965 276.923,15.185 276.923 C 15.405 276.923,15.584 277.373,15.584 277.922 C 15.584 278.472,15.764 278.921,15.984 278.921 C 16.204 278.921,16.384 279.283,16.384 279.726 C 16.384 280.168,16.552 280.843,16.758 281.224 C 16.964 281.606,17.631 282.997,18.242 284.316 C 18.852 285.634,19.493 286.773,19.666 286.846 C 19.839 286.920,19.980 287.324,19.980 287.746 C 19.980 288.167,20.160 288.511,20.380 288.511 C 20.599 288.511,20.779 288.709,20.779 288.951 C 20.779 289.552,21.962 292.078,22.848 293.368 C 23.249 293.952,23.576 294.716,23.576 295.067 C 23.576 295.417,23.711 295.705,23.876 295.706 C 24.041 295.707,24.508 296.516,24.915 297.504 C 25.321 298.492,25.816 299.301,26.014 299.301 C 26.212 299.301,26.374 299.537,26.374 299.825 C 26.374 300.113,26.733 300.735,27.173 301.207 C 27.612 301.678,27.972 302.252,27.972 302.481 C 27.972 302.710,28.117 302.897,28.295 302.897 C 28.472 302.897,28.953 303.657,29.363 304.586 C 29.773 305.515,30.436 306.628,30.838 307.059 C 31.240 307.490,31.568 308.079,31.568 308.367 C 31.568 308.655,31.729 308.891,31.925 308.891 C 32.121 308.891,32.394 309.341,32.532 309.890 C 32.670 310.440,32.959 310.889,33.174 310.889 C 33.390 310.889,33.566 311.125,33.566 311.414 C 33.566 311.702,34.106 312.455,34.765 313.087 C 35.425 313.719,35.964 314.428,35.964 314.664 C 35.964 314.900,36.414 315.578,36.963 316.170 C 37.512 316.763,37.962 317.396,37.962 317.577 C 37.962 317.758,38.322 318.165,38.761 318.482 C 39.201 318.798,39.560 319.191,39.560 319.354 C 39.560 320.001,42.600 324.086,43.236 324.295 C 43.610 324.417,44.026 324.867,44.162 325.295 C 44.298 325.723,44.577 326.074,44.782 326.074 C 44.987 326.074,45.155 326.328,45.155 326.638 C 45.155 326.948,45.694 327.656,46.354 328.210 C 47.013 328.765,47.552 329.372,47.552 329.560 C 47.552 329.951,50.600 333.371,53.526 336.264 C 54.421 337.149,57.575 340.317,58.429 341.191 C 64.148 347.032,69.365 352.048,69.723 352.048 C 69.899 352.048,70.559 352.587,71.189 353.247 C 71.819 353.906,72.534 354.446,72.779 354.446 C 73.023 354.446,73.998 355.255,74.946 356.244 C 75.893 357.233,76.816 358.045,76.996 358.050 C 77.176 358.054,78.040 358.683,78.917 359.448 C 79.793 360.213,80.723 360.839,80.981 360.839 C 81.240 360.839,81.512 360.974,81.585 361.139 C 81.807 361.638,84.630 363.636,85.114 363.636 C 85.363 363.636,86.020 364.176,86.575 364.835 C 87.130 365.495,87.837 366.034,88.147 366.034 C 88.458 366.034,88.711 366.210,88.711 366.426 C 88.711 366.642,89.161 366.931,89.710 367.069 C 90.260 367.207,90.709 367.480,90.709 367.676 C 90.709 367.872,91.029 368.032,91.420 368.032 C 91.811 368.032,92.390 368.392,92.707 368.831 C 93.024 369.271,93.436 369.630,93.623 369.630 C 93.810 369.630,94.233 369.900,94.563 370.230 C 94.892 370.559,95.509 370.829,95.933 370.829 C 96.357 370.829,96.703 371.009,96.703 371.229 C 96.703 371.449,96.933 371.628,97.214 371.628 C 97.496 371.628,97.985 371.988,98.302 372.428 C 98.619 372.867,99.198 373.227,99.589 373.227 C 99.980 373.227,100.300 373.403,100.300 373.619 C 100.300 373.834,100.749 374.124,101.299 374.261 C 101.848 374.399,102.298 374.673,102.298 374.868 C 102.298 375.064,102.532 375.225,102.817 375.225 C 103.553 375.225,105.488 376.165,105.491 376.523 C 105.493 376.688,105.764 376.823,106.094 376.823 C 106.424 376.823,106.693 377.003,106.693 377.223 C 106.693 377.443,107.008 377.628,107.393 377.635 C 107.777 377.642,108.441 377.912,108.868 378.234 C 109.294 378.557,109.969 378.821,110.366 378.821 C 110.764 378.821,111.089 378.967,111.089 379.146 C 111.089 379.325,111.718 379.718,112.488 380.020 C 113.257 380.322,113.886 380.715,113.886 380.894 C 113.886 381.073,114.246 381.219,114.685 381.219 C 115.125 381.219,115.485 381.383,115.485 381.583 C 115.485 381.784,116.249 382.075,117.183 382.232 C 118.117 382.388,118.971 382.628,119.081 382.766 C 119.503 383.296,122.790 384.815,123.514 384.815 C 123.933 384.815,124.276 384.987,124.276 385.197 C 124.276 385.406,124.905 385.696,125.674 385.841 C 126.444 385.985,127.073 386.263,127.073 386.458 C 127.073 386.653,127.522 386.813,128.072 386.813 C 128.621 386.813,129.071 386.993,129.071 387.213 C 129.071 387.433,129.343 387.612,129.676 387.612 C 130.008 387.612,130.593 387.771,130.974 387.965 C 132.876 388.933,135.888 389.888,138.162 390.245 C 139.096 390.392,139.860 390.669,139.860 390.860 C 139.860 391.052,140.400 391.209,141.059 391.209 C 141.718 391.209,142.258 391.389,142.258 391.608 C 142.258 391.828,142.887 392.008,143.656 392.008 C 144.426 392.008,145.055 392.188,145.055 392.408 C 145.055 392.627,145.494 392.807,146.030 392.807 C 146.567 392.807,147.112 392.979,147.241 393.188 C 147.371 393.398,148.550 393.691,149.862 393.839 C 151.174 393.988,152.248 394.266,152.248 394.457 C 152.248 394.649,152.867 394.805,153.623 394.805 C 154.379 394.805,155.109 394.985,155.245 395.205 C 155.381 395.425,156.100 395.604,156.843 395.604 C 157.586 395.604,158.306 395.784,158.442 396.004 C 158.577 396.224,159.319 396.404,160.090 396.404 C 160.861 396.404,161.815 396.577,162.211 396.789 C 162.607 397.001,165.113 397.298,167.779 397.448 C 170.446 397.599,172.627 397.875,172.627 398.062 C 172.627 398.249,173.871 398.402,175.391 398.402 C 177.247 398.402,178.210 398.566,178.322 398.901 C 178.452 399.292,183.146 399.401,200.000 399.401 C 216.854 399.401,221.548 399.292,221.678 398.901 C 221.790 398.566,222.753 398.402,224.609 398.402 C 226.129 398.402,227.373 398.249,227.373 398.062 C 227.373 397.875,229.554 397.599,232.221 397.448 C 234.887 397.298,237.393 397.001,237.789 396.789 C 238.185 396.577,239.139 396.404,239.910 396.404 C 240.681 396.404,241.423 396.224,241.558 396.004 C 241.694 395.784,242.414 395.604,243.157 395.604 C 243.900 395.604,244.619 395.425,244.755 395.205 C 244.891 394.985,245.621 394.805,246.377 394.805 C 247.133 394.805,247.752 394.649,247.752 394.457 C 247.752 394.266,248.826 393.988,250.138 393.839 C 251.450 393.691,252.629 393.398,252.759 393.188 C 252.888 392.979,253.433 392.807,253.970 392.807 C 254.506 392.807,254.945 392.627,254.945 392.408 C 254.945 392.188,255.574 392.008,256.344 392.008 C 257.113 392.008,257.742 391.828,257.742 391.608 C 257.742 391.389,258.282 391.209,258.941 391.209 C 259.600 391.209,260.140 391.052,260.140 390.860 C 260.140 390.669,260.904 390.392,261.838 390.245 C 264.112 389.888,267.124 388.933,269.026 387.965 C 269.407 387.771,269.992 387.612,270.324 387.612 C 270.657 387.612,270.929 387.433,270.929 387.213 C 270.929 386.993,271.379 386.813,271.928 386.813 C 272.478 386.813,272.927 386.633,272.927 386.414 C 272.927 386.194,273.215 386.014,273.566 386.014 C 273.917 386.014,274.861 385.726,275.664 385.373 C 278.466 384.142,280.721 383.026,280.919 382.772 C 281.029 382.631,281.883 382.388,282.817 382.232 C 283.751 382.075,284.515 381.784,284.515 381.583 C 284.515 381.383,284.875 381.219,285.315 381.219 C 285.754 381.219,286.114 381.073,286.114 380.894 C 286.114 380.715,286.743 380.322,287.512 380.020 C 288.282 379.718,288.911 379.345,288.911 379.191 C 288.911 379.036,289.540 378.792,290.310 378.648 C 291.079 378.503,291.708 378.214,291.708 378.004 C 291.708 377.794,292.068 377.622,292.507 377.622 C 292.947 377.622,293.307 377.443,293.307 377.223 C 293.307 377.003,293.576 376.823,293.906 376.823 C 294.236 376.823,294.507 376.688,294.509 376.523 C 294.512 376.165,296.447 375.225,297.183 375.225 C 297.468 375.225,297.702 375.064,297.702 374.868 C 297.702 374.673,298.152 374.399,298.701 374.261 C 299.251 374.124,299.700 373.834,299.700 373.619 C 299.700 373.403,300.020 373.227,300.411 373.227 C 300.802 373.227,301.381 372.867,301.698 372.428 C 302.015 371.988,302.504 371.628,302.786 371.628 C 303.067 371.628,303.297 371.449,303.297 371.229 C 303.297 371.009,303.643 370.829,304.067 370.829 C 304.491 370.829,305.108 370.559,305.437 370.230 C 305.767 369.900,306.190 369.630,306.377 369.630 C 306.564 369.630,306.976 369.271,307.293 368.831 C 307.610 368.392,308.189 368.032,308.580 368.032 C 308.971 368.032,309.291 367.852,309.291 367.632 C 309.291 367.413,309.548 367.233,309.862 367.233 C 310.176 367.233,310.670 367.008,310.960 366.733 C 311.251 366.459,311.980 365.980,312.581 365.670 C 313.182 365.360,313.778 364.776,313.906 364.372 C 314.035 363.967,314.460 363.636,314.851 363.636 C 315.242 363.636,315.934 363.322,316.389 362.937 C 318.545 361.113,318.911 360.839,319.190 360.839 C 319.354 360.839,320.207 360.213,321.083 359.448 C 321.960 358.683,322.824 358.054,323.004 358.050 C 323.184 358.045,324.107 357.233,325.054 356.244 C 326.002 355.255,326.996 354.446,327.264 354.446 C 327.532 354.446,328.255 353.906,328.871 353.247 C 329.487 352.587,330.127 352.048,330.294 352.048 C 330.636 352.048,335.966 346.916,341.571 341.191 C 342.425 340.317,345.579 337.149,346.474 336.264 C 349.400 333.371,352.448 329.951,352.448 329.560 C 352.448 329.372,352.987 328.765,353.646 328.210 C 354.306 327.656,354.845 326.948,354.845 326.638 C 354.845 326.328,355.013 326.074,355.218 326.074 C 355.423 326.074,355.702 325.723,355.838 325.295 C 355.974 324.867,356.390 324.418,356.764 324.297 C 357.137 324.176,357.892 323.403,358.441 322.578 C 358.990 321.754,359.665 320.841,359.940 320.551 C 360.215 320.260,360.440 319.806,360.440 319.540 C 360.440 319.275,360.799 318.798,361.239 318.482 C 361.678 318.165,362.038 317.758,362.038 317.577 C 362.038 317.396,362.488 316.763,363.037 316.170 C 363.586 315.578,364.036 314.900,364.036 314.664 C 364.036 314.428,364.575 313.719,365.235 313.087 C 365.894 312.455,366.434 311.702,366.434 311.414 C 366.434 311.125,366.610 310.889,366.826 310.889 C 367.041 310.889,367.330 310.440,367.468 309.890 C 367.606 309.341,367.879 308.891,368.075 308.891 C 368.271 308.891,368.432 308.655,368.432 308.367 C 368.432 308.079,368.760 307.490,369.162 307.059 C 369.564 306.628,370.227 305.515,370.637 304.586 C 371.047 303.657,371.528 302.897,371.705 302.897 C 371.883 302.897,372.028 302.710,372.028 302.481 C 372.028 302.252,372.388 301.678,372.827 301.207 C 373.267 300.735,373.626 300.113,373.626 299.825 C 373.626 299.537,373.788 299.301,373.986 299.301 C 374.184 299.301,374.679 298.492,375.085 297.504 C 375.492 296.516,375.959 295.707,376.124 295.706 C 376.289 295.705,376.424 295.417,376.424 295.067 C 376.424 294.716,376.751 293.952,377.152 293.368 C 378.038 292.078,379.221 289.552,379.221 288.951 C 379.221 288.709,379.401 288.511,379.620 288.511 C 379.840 288.511,380.020 288.167,380.020 287.746 C 380.020 287.324,380.161 286.920,380.334 286.846 C 380.507 286.773,381.148 285.634,381.758 284.316 C 382.369 282.997,383.036 281.606,383.242 281.224 C 383.448 280.843,383.616 280.168,383.616 279.726 C 383.616 279.283,383.796 278.921,384.016 278.921 C 384.236 278.921,384.416 278.472,384.416 277.922 C 384.416 277.373,384.595 276.923,384.815 276.923 C 385.035 276.923,385.215 276.563,385.215 276.124 C 385.215 275.684,385.395 275.325,385.614 275.325 C 385.834 275.325,386.014 274.875,386.014 274.326 C 386.014 273.776,386.178 273.327,386.378 273.327 C 386.579 273.327,386.864 272.607,387.013 271.728 C 387.162 270.849,387.447 270.130,387.648 270.130 C 387.848 270.130,388.012 269.680,388.012 269.131 C 388.012 268.581,388.192 268.132,388.412 268.132 C 388.631 268.132,388.811 267.682,388.811 267.133 C 388.811 266.583,388.948 266.134,389.116 266.134 C 389.283 266.134,389.746 264.920,390.144 263.437 C 390.542 261.953,391.034 260.427,391.238 260.045 C 391.442 259.664,391.608 258.720,391.608 257.947 C 391.608 257.175,391.788 256.543,392.008 256.543 C 392.228 256.543,392.408 256.105,392.408 255.568 C 392.408 255.032,392.587 254.481,392.807 254.346 C 393.027 254.210,393.207 253.580,393.207 252.947 C 393.207 252.314,393.378 251.689,393.588 251.560 C 393.798 251.430,394.091 250.251,394.239 248.939 C 394.387 247.627,394.665 246.553,394.857 246.553 C 395.048 246.553,395.205 245.744,395.205 244.755 C 395.205 243.766,395.385 242.957,395.604 242.957 C 395.824 242.957,396.004 242.238,396.004 241.359 C 396.004 240.480,396.184 239.760,396.404 239.760 C 396.623 239.760,396.803 238.951,396.803 237.962 C 396.803 236.973,396.969 236.164,397.171 236.164 C 397.373 236.164,397.666 234.362,397.822 232.159 C 397.978 229.957,398.263 228.058,398.454 227.940 C 398.645 227.822,398.801 225.593,398.801 222.987 C 398.801 219.657,398.944 218.201,399.281 218.089 C 399.970 217.859,399.965 181.740,399.276 181.510 C 398.946 181.400,398.801 179.956,398.801 176.790 C 398.801 174.281,398.648 172.228,398.462 172.228 C 398.275 172.228,398.002 170.390,397.855 168.144 C 397.707 165.898,397.411 163.884,397.195 163.669 C 396.980 163.453,396.803 162.503,396.803 161.558 C 396.803 160.613,396.623 159.840,396.404 159.840 C 396.184 159.840,396.004 159.121,396.004 158.242 C 396.004 157.363,395.824 156.643,395.604 156.643 C 395.385 156.643,395.205 156.014,395.205 155.245 C 395.205 154.476,395.046 153.846,394.852 153.846 C 394.658 153.846,394.374 152.679,394.221 151.253 C 394.068 149.827,393.778 148.557,393.575 148.432 C 393.373 148.307,393.207 147.676,393.207 147.029 C 393.207 146.383,393.027 145.854,392.807 145.854 C 392.587 145.854,392.408 145.325,392.408 144.679 C 392.408 144.033,392.228 143.393,392.008 143.257 C 391.788 143.121,391.608 142.492,391.608 141.858 C 391.608 141.225,391.429 140.595,391.209 140.460 C 390.989 140.324,390.809 139.780,390.809 139.251 C 390.809 137.941,389.563 134.129,388.365 131.774 C 388.171 131.392,388.012 130.808,388.012 130.475 C 388.012 130.142,387.832 129.870,387.612 129.870 C 387.393 129.870,387.213 129.512,387.213 129.074 C 387.213 128.089,385.937 125.075,385.520 125.075 C 385.352 125.075,385.215 124.535,385.215 123.876 C 385.215 123.217,385.080 122.676,384.915 122.674 C 384.510 122.670,383.616 120.693,383.616 119.800 C 383.616 119.405,383.482 119.079,383.317 119.078 C 383.152 119.076,382.681 117.997,382.271 116.680 C 381.860 115.363,381.366 114.286,381.172 114.286 C 380.978 114.286,380.819 113.926,380.819 113.487 C 380.819 113.047,380.680 112.687,380.509 112.687 C 380.339 112.687,379.844 111.880,379.410 110.893 C 378.976 109.906,378.487 109.097,378.322 109.095 C 378.157 109.093,378.022 108.731,378.022 108.292 C 378.022 107.852,377.842 107.493,377.622 107.493 C 377.403 107.493,377.223 107.223,377.223 106.893 C 377.223 106.563,377.043 106.294,376.823 106.294 C 376.603 106.294,376.424 105.934,376.424 105.495 C 376.424 105.055,376.244 104.695,376.024 104.695 C 375.804 104.695,375.624 104.424,375.624 104.093 C 375.624 103.314,373.568 99.500,373.148 99.500 C 372.972 99.500,372.827 99.231,372.827 98.901 C 372.827 98.571,372.647 98.302,372.428 98.302 C 372.208 98.302,372.028 97.942,372.028 97.502 C 372.028 97.063,371.889 96.703,371.719 96.703 C 371.549 96.703,371.072 96.074,370.657 95.305 C 370.243 94.535,369.753 93.906,369.567 93.906 C 369.382 93.906,369.231 93.546,369.231 93.107 C 369.231 92.667,369.051 92.308,368.831 92.308 C 368.611 92.308,368.432 92.038,368.432 91.708 C 368.432 91.379,368.274 91.109,368.080 91.109 C 367.887 91.109,367.496 90.546,367.211 89.858 C 366.926 89.171,366.275 88.190,365.764 87.679 C 365.253 87.168,364.835 86.562,364.835 86.332 C 364.835 86.102,364.673 85.914,364.475 85.914 C 364.276 85.914,363.925 85.372,363.694 84.710 C 363.464 84.048,362.996 83.399,362.656 83.269 C 362.316 83.138,362.038 82.779,362.038 82.471 C 362.038 82.163,361.499 81.346,360.839 80.656 C 360.180 79.966,359.640 79.257,359.640 79.080 C 359.640 78.903,359.191 78.308,358.641 77.759 C 358.092 77.209,357.642 76.653,357.642 76.523 C 357.642 76.394,357.238 75.848,356.743 75.311 C 354.471 72.844,354.046 72.341,354.046 72.124 C 354.046 71.996,353.641 71.452,353.147 70.915 C 350.866 68.438,350.450 67.945,350.450 67.718 C 350.450 67.314,349.337 66.334,348.880 66.334 C 348.644 66.334,348.452 66.140,348.452 65.903 C 348.452 65.665,347.687 64.700,346.753 63.756 C 345.819 62.813,344.673 61.613,344.207 61.091 C 343.740 60.568,342.751 59.564,342.009 58.860 C 341.267 58.157,340.267 57.168,339.788 56.663 C 339.308 56.158,337.820 54.755,336.480 53.546 C 335.140 52.338,333.458 50.809,332.741 50.150 C 329.766 47.413,327.790 45.708,326.720 44.955 C 326.096 44.515,325.349 43.931,325.059 43.656 C 324.770 43.382,324.412 43.157,324.265 43.157 C 324.117 43.157,323.493 42.617,322.877 41.958 C 322.261 41.299,321.566 40.759,321.332 40.759 C 321.097 40.759,320.276 40.130,319.507 39.361 C 318.738 38.591,317.923 37.962,317.696 37.962 C 317.469 37.962,317.283 37.817,317.283 37.639 C 317.283 37.462,316.563 36.999,315.684 36.611 C 314.805 36.224,314.086 35.739,314.086 35.536 C 314.086 35.332,313.856 35.165,313.575 35.165 C 313.294 35.165,312.804 34.805,312.488 34.366 C 312.171 33.926,311.691 33.566,311.421 33.566 C 311.151 33.566,310.445 33.117,309.852 32.567 C 309.259 32.018,308.531 31.568,308.233 31.568 C 307.936 31.568,307.692 31.427,307.692 31.255 C 307.692 31.082,306.658 30.408,305.395 29.756 C 304.131 29.105,303.007 28.481,302.897 28.371 C 302.787 28.261,302.203 27.916,301.598 27.604 C 300.994 27.293,300.500 26.888,300.500 26.706 C 300.500 26.523,300.140 26.374,299.700 26.374 C 299.261 26.374,298.901 26.197,298.901 25.982 C 298.901 25.766,298.452 25.477,297.902 25.339 C 297.353 25.201,296.903 24.928,296.903 24.732 C 296.903 24.536,296.543 24.376,296.104 24.376 C 295.664 24.376,295.305 24.217,295.305 24.023 C 295.305 23.828,294.990 23.555,294.605 23.415 C 294.221 23.275,293.126 22.713,292.173 22.167 C 291.220 21.621,290.276 21.276,290.075 21.400 C 289.875 21.524,289.710 21.435,289.710 21.202 C 289.710 20.970,289.351 20.779,288.911 20.779 C 288.472 20.779,288.112 20.599,288.112 20.380 C 288.112 20.160,287.842 19.980,287.512 19.980 C 287.183 19.980,286.913 19.800,286.913 19.580 C 286.913 19.361,286.553 19.181,286.114 19.181 C 285.674 19.181,285.315 19.001,285.315 18.781 C 285.315 18.561,284.955 18.382,284.515 18.382 C 284.076 18.382,283.716 18.210,283.716 18.000 C 283.716 17.790,283.087 17.501,282.318 17.356 C 281.548 17.212,280.919 16.934,280.919 16.739 C 280.919 16.543,280.655 16.384,280.332 16.384 C 280.009 16.384,279.104 16.024,278.322 15.584 C 277.539 15.145,276.655 14.785,276.357 14.785 C 276.059 14.785,275.301 14.517,274.671 14.188 C 274.042 13.860,273.122 13.590,272.627 13.589 C 272.133 13.588,271.728 13.407,271.728 13.187 C 271.728 12.967,271.189 12.787,270.529 12.787 C 269.870 12.787,269.329 12.652,269.328 12.488 C 269.323 12.082,267.347 11.189,266.454 11.189 C 266.058 11.189,265.734 11.009,265.734 10.789 C 265.734 10.569,265.295 10.390,264.759 10.390 C 264.222 10.390,263.670 10.207,263.532 9.983 C 263.394 9.760,263.126 9.673,262.937 9.790 C 262.748 9.907,262.480 9.820,262.342 9.597 C 262.204 9.374,261.662 9.191,261.139 9.191 C 260.615 9.191,260.076 9.011,259.940 8.791 C 259.804 8.571,259.265 8.392,258.741 8.392 C 258.218 8.392,257.678 8.212,257.542 7.992 C 257.407 7.772,256.687 7.592,255.944 7.592 C 255.201 7.592,254.481 7.413,254.346 7.193 C 254.210 6.973,253.491 6.793,252.747 6.793 C 252.004 6.793,251.290 6.623,251.161 6.414 C 251.033 6.205,250.393 6.102,249.739 6.185 C 249.086 6.268,248.551 6.169,248.551 5.965 C 248.551 5.761,247.933 5.594,247.176 5.594 C 246.420 5.594,245.690 5.415,245.554 5.195 C 245.419 4.975,244.689 4.795,243.932 4.795 C 243.176 4.795,242.557 4.615,242.557 4.396 C 242.557 4.176,241.748 3.996,240.759 3.996 C 239.770 3.996,238.961 3.835,238.961 3.638 C 238.961 3.238,237.445 2.968,231.469 2.306 C 229.216 2.057,227.373 1.705,227.373 1.526 C 227.373 1.346,226.124 1.199,224.599 1.199 C 223.074 1.199,221.714 1.019,221.578 0.799 C 221.239 0.250,178.761 0.250,178.422 0.799 M219.487 25.122 C 219.736 25.371,221.073 25.574,222.458 25.574 C 223.869 25.574,224.975 25.750,224.975 25.974 C 224.975 26.194,225.864 26.374,226.949 26.374 C 228.035 26.374,229.035 26.553,229.171 26.773 C 229.307 26.993,230.306 27.173,231.392 27.173 C 232.478 27.173,233.367 27.334,233.367 27.530 C 233.367 27.727,234.041 27.991,234.865 28.116 C 239.885 28.882,242.158 29.358,242.158 29.644 C 242.158 29.823,242.777 29.970,243.533 29.970 C 244.289 29.970,245.019 30.150,245.155 30.370 C 245.291 30.589,246.100 30.769,246.953 30.769 C 247.806 30.769,248.615 30.949,248.751 31.169 C 248.887 31.389,249.527 31.568,250.173 31.568 C 250.820 31.568,251.349 31.735,251.349 31.939 C 251.349 32.143,252.338 32.434,253.546 32.585 C 254.755 32.736,255.744 33.018,255.744 33.213 C 255.744 33.407,256.104 33.566,256.543 33.566 C 256.983 33.566,257.343 33.746,257.343 33.966 C 257.343 34.186,257.792 34.366,258.342 34.366 C 258.891 34.366,259.341 34.545,259.341 34.765 C 259.341 34.985,259.680 35.165,260.094 35.165 C 260.509 35.165,261.363 35.433,261.992 35.762 C 262.622 36.090,263.441 36.360,263.813 36.361 C 264.184 36.363,264.599 36.543,264.735 36.763 C 264.871 36.983,265.331 37.163,265.758 37.163 C 266.184 37.163,266.533 37.343,266.533 37.562 C 266.533 37.782,267.073 37.962,267.732 37.962 C 268.392 37.962,268.931 38.142,268.931 38.362 C 268.931 38.581,269.381 38.761,269.930 38.761 C 270.480 38.761,270.929 38.941,270.929 39.161 C 270.929 39.381,271.289 39.560,271.728 39.560 C 272.168 39.560,272.527 39.732,272.527 39.942 C 272.527 40.152,273.157 40.441,273.926 40.586 C 274.695 40.730,275.325 41.008,275.325 41.203 C 275.325 41.399,275.594 41.558,275.924 41.558 C 276.254 41.558,276.523 41.738,276.523 41.958 C 276.523 42.178,276.883 42.358,277.323 42.358 C 277.762 42.358,278.122 42.537,278.122 42.757 C 278.122 42.977,278.482 43.157,278.921 43.157 C 279.361 43.157,279.720 43.302,279.720 43.480 C 279.720 43.833,282.505 45.155,283.251 45.155 C 283.507 45.155,283.716 45.335,283.716 45.554 C 283.716 45.774,284.076 45.954,284.515 45.954 C 284.955 45.954,285.315 46.107,285.315 46.293 C 285.315 46.479,286.079 46.969,287.013 47.380 C 287.947 47.792,289.002 48.448,289.358 48.839 C 289.713 49.230,290.282 49.550,290.623 49.550 C 290.963 49.550,291.302 49.685,291.375 49.850 C 291.638 50.441,294.465 52.348,295.078 52.348 C 295.423 52.348,295.704 52.527,295.704 52.747 C 295.704 52.967,295.974 53.147,296.304 53.147 C 296.633 53.147,296.903 53.327,296.903 53.546 C 296.903 53.766,297.220 53.946,297.607 53.946 C 297.995 53.946,298.649 54.396,299.062 54.945 C 299.475 55.495,300.075 55.944,300.395 55.944 C 300.716 55.944,301.482 56.484,302.098 57.143 C 302.714 57.802,303.415 58.342,303.657 58.342 C 303.898 58.342,304.096 58.509,304.096 58.714 C 304.096 58.919,304.435 59.195,304.849 59.326 C 305.263 59.457,306.160 60.099,306.843 60.751 C 307.526 61.404,308.273 61.938,308.503 61.938 C 308.733 61.938,309.678 62.710,310.604 63.653 C 311.530 64.596,313.005 65.900,313.881 66.550 C 314.757 67.200,316.031 68.272,316.712 68.931 C 317.393 69.590,319.104 71.169,320.514 72.440 C 321.923 73.710,323.713 75.329,324.491 76.036 C 325.269 76.744,326.426 78.013,327.062 78.856 C 327.699 79.699,329.535 81.734,331.143 83.379 C 332.750 85.024,334.066 86.530,334.066 86.725 C 334.066 86.921,334.965 87.994,336.064 89.111 C 337.163 90.227,338.062 91.287,338.062 91.465 C 338.062 91.644,338.601 92.354,339.261 93.044 C 339.920 93.734,340.460 94.437,340.460 94.606 C 340.460 94.775,340.909 95.398,341.459 95.991 C 342.008 96.583,342.458 97.216,342.458 97.397 C 342.458 97.578,342.817 97.985,343.257 98.302 C 343.696 98.619,344.056 99.198,344.056 99.589 C 344.056 99.980,344.207 100.300,344.393 100.300 C 344.578 100.300,345.068 100.929,345.482 101.698 C 345.897 102.468,346.375 103.097,346.544 103.097 C 346.714 103.097,346.853 103.390,346.853 103.749 C 346.853 104.108,347.168 104.695,347.552 105.054 C 347.937 105.413,348.535 106.244,348.880 106.899 C 350.121 109.254,350.660 110.092,351.349 110.732 C 351.733 111.090,352.048 111.572,352.048 111.803 C 352.048 112.405,353.390 114.680,353.746 114.683 C 353.911 114.684,354.046 115.030,354.046 115.451 C 354.046 115.872,354.183 116.277,354.350 116.350 C 354.750 116.526,357.642 122.357,357.642 122.988 C 357.642 123.257,357.822 123.477,358.042 123.477 C 358.262 123.477,358.442 123.746,358.442 124.076 C 358.442 124.406,358.621 124.675,358.841 124.675 C 359.061 124.675,359.241 125.035,359.241 125.475 C 359.241 125.914,359.376 126.274,359.540 126.274 C 359.705 126.274,360.193 127.443,360.624 128.871 C 361.056 130.300,361.550 131.469,361.723 131.469 C 361.896 131.469,362.038 131.918,362.038 132.468 C 362.038 133.017,362.218 133.467,362.438 133.467 C 362.657 133.467,362.837 133.826,362.837 134.266 C 362.837 134.705,363.017 135.065,363.237 135.065 C 363.457 135.065,363.636 135.514,363.636 136.064 C 363.636 136.613,363.827 137.063,364.060 137.063 C 364.292 137.063,364.376 137.235,364.246 137.446 C 364.116 137.657,364.223 138.242,364.484 138.745 C 365.461 140.625,365.634 141.063,365.634 141.653 C 365.634 141.986,365.814 142.258,366.034 142.258 C 366.254 142.258,366.434 142.707,366.434 143.257 C 366.434 143.806,366.613 144.256,366.833 144.256 C 367.053 144.256,367.233 144.795,367.233 145.455 C 367.233 146.114,367.423 146.653,367.656 146.653 C 367.889 146.653,367.974 146.824,367.845 147.032 C 367.581 147.459,368.287 150.881,368.858 151.943 C 369.063 152.324,369.231 153.088,369.231 153.641 C 369.231 154.193,369.411 154.645,369.630 154.645 C 369.850 154.645,370.030 155.275,370.030 156.044 C 370.030 156.813,370.210 157.443,370.430 157.443 C 370.649 157.443,370.829 158.072,370.829 158.841 C 370.829 159.610,370.980 160.240,371.164 160.240 C 371.477 160.240,372.189 164.027,372.686 168.332 C 372.806 169.376,373.067 170.230,373.265 170.230 C 373.464 170.230,373.626 171.219,373.626 172.428 C 373.626 173.636,373.806 174.625,374.026 174.625 C 374.251 174.625,374.426 175.746,374.426 177.189 C 374.426 178.767,374.602 179.813,374.885 179.907 C 375.541 180.125,375.537 220.275,374.882 220.494 C 374.608 220.585,374.426 221.594,374.426 223.010 C 374.426 224.320,374.247 225.375,374.026 225.375 C 373.806 225.375,373.626 226.364,373.626 227.572 C 373.626 228.781,373.447 229.770,373.227 229.770 C 373.007 229.770,372.827 230.569,372.827 231.545 C 372.827 232.521,372.666 233.419,372.468 233.541 C 372.271 233.663,371.983 235.023,371.828 236.563 C 371.673 238.104,371.385 239.464,371.188 239.586 C 370.991 239.708,370.829 240.326,370.829 240.959 C 370.829 241.592,370.649 242.222,370.430 242.358 C 370.210 242.493,370.030 243.123,370.030 243.756 C 370.030 244.390,369.871 245.006,369.676 245.126 C 369.482 245.247,369.229 245.842,369.114 246.449 C 368.999 247.056,368.617 248.691,368.265 250.083 C 367.914 251.475,367.728 252.779,367.853 252.980 C 367.977 253.182,367.889 253.347,367.656 253.347 C 367.423 253.347,367.233 253.760,367.233 254.266 C 367.233 255.319,366.381 257.335,365.934 257.340 C 365.769 257.341,365.634 257.882,365.634 258.541 C 365.634 259.201,365.469 259.740,365.267 259.740 C 364.974 259.740,364.481 261.095,364.249 262.537 C 364.231 262.647,363.747 263.726,363.174 264.935 C 361.164 269.174,360.406 270.998,360.174 272.157 C 360.045 272.800,359.783 273.327,359.590 273.327 C 359.398 273.327,359.241 273.686,359.241 274.126 C 359.241 274.565,359.061 274.925,358.841 274.925 C 358.621 274.925,358.442 275.212,358.442 275.563 C 358.442 275.913,358.094 276.689,357.669 277.285 C 357.244 277.882,356.775 278.854,356.627 279.445 C 356.478 280.036,356.197 280.519,356.001 280.519 C 355.805 280.519,355.644 280.879,355.644 281.319 C 355.644 281.758,355.465 282.118,355.245 282.118 C 355.025 282.118,354.845 282.388,354.845 282.717 C 354.845 283.047,354.710 283.318,354.545 283.320 C 354.187 283.324,353.247 285.259,353.247 285.994 C 353.247 286.280,353.070 286.513,352.855 286.513 C 352.639 286.513,352.350 286.963,352.212 287.512 C 352.074 288.062,351.801 288.511,351.605 288.511 C 351.409 288.511,351.249 288.871,351.249 289.311 C 351.249 289.750,351.069 290.110,350.849 290.110 C 350.629 290.110,350.450 290.340,350.450 290.621 C 350.450 290.902,350.090 291.391,349.650 291.708 C 349.211 292.025,348.851 292.582,348.851 292.946 C 348.851 293.311,348.581 293.832,348.252 294.106 C 347.922 294.379,347.652 294.769,347.652 294.971 C 347.652 295.173,347.293 295.724,346.853 296.196 C 346.414 296.668,346.054 297.290,346.054 297.578 C 346.054 297.866,345.874 298.102,345.654 298.102 C 345.435 298.102,345.255 298.353,345.255 298.659 C 345.255 298.965,344.760 299.757,344.156 300.417 C 342.216 302.537,341.633 303.323,340.974 304.706 C 340.618 305.450,340.178 305.967,339.994 305.853 C 339.811 305.740,339.660 305.927,339.660 306.270 C 339.660 306.613,339.481 306.893,339.261 306.893 C 339.041 306.893,338.861 307.088,338.861 307.326 C 338.861 307.564,338.232 308.370,337.463 309.117 C 336.693 309.864,336.064 310.664,336.064 310.894 C 336.064 311.125,334.985 312.396,333.666 313.718 C 332.348 315.041,331.269 316.274,331.269 316.457 C 331.269 316.908,317.730 330.470,317.280 330.470 C 317.084 330.470,315.751 331.631,314.317 333.050 C 312.884 334.470,311.212 335.953,310.601 336.347 C 309.193 337.255,308.270 337.981,306.770 339.361 C 306.113 339.965,305.430 340.460,305.252 340.460 C 305.073 340.460,304.218 341.155,303.351 342.005 C 302.483 342.855,301.349 343.657,300.829 343.788 C 300.309 343.918,299.491 344.392,299.010 344.840 C 298.529 345.288,297.924 345.654,297.666 345.654 C 297.408 345.654,296.903 345.969,296.545 346.354 C 295.822 347.129,294.947 347.706,293.007 348.686 C 292.293 349.047,291.708 349.501,291.708 349.696 C 291.708 349.891,291.478 350.050,291.197 350.050 C 290.916 350.050,290.427 350.410,290.110 350.849 C 289.793 351.289,289.305 351.648,289.025 351.648 C 288.259 351.648,285.315 352.992,285.315 353.341 C 285.315 353.509,285.045 353.646,284.715 353.646 C 284.386 353.646,284.116 353.826,284.116 354.046 C 284.116 354.266,283.848 354.446,283.521 354.446 C 283.194 354.446,282.559 354.760,282.109 355.145 C 281.660 355.529,281.164 355.868,281.006 355.898 C 279.969 356.092,278.921 356.591,278.921 356.890 C 278.921 357.084,278.561 357.243,278.122 357.243 C 277.682 357.243,277.323 357.423,277.323 357.642 C 277.323 357.862,277.053 358.042,276.723 358.042 C 276.394 358.042,276.124 358.177,276.124 358.342 C 276.124 358.506,274.955 358.994,273.526 359.425 C 272.098 359.857,270.929 360.351,270.929 360.524 C 270.929 360.697,270.569 360.839,270.130 360.839 C 269.690 360.839,269.331 361.019,269.331 361.239 C 269.331 361.459,268.881 361.638,268.332 361.638 C 267.782 361.638,267.333 361.818,267.333 362.038 C 267.333 362.258,266.973 362.438,266.533 362.438 C 266.094 362.438,265.734 362.615,265.734 362.832 C 265.734 363.050,265.015 363.342,264.136 363.483 C 263.257 363.623,262.537 363.895,262.537 364.087 C 262.537 364.279,262.178 364.436,261.738 364.436 C 261.299 364.436,260.939 364.615,260.939 364.835 C 260.939 365.055,260.400 365.235,259.740 365.235 C 259.081 365.235,258.541 365.415,258.541 365.634 C 258.541 365.854,258.092 366.034,257.542 366.034 C 256.993 366.034,256.543 366.191,256.543 366.382 C 256.543 366.573,255.470 366.851,254.158 367.000 C 252.846 367.148,251.667 367.441,251.537 367.651 C 251.407 367.860,250.863 368.032,250.326 368.032 C 249.790 368.032,249.351 368.212,249.351 368.432 C 249.351 368.651,248.822 368.831,248.175 368.831 C 247.529 368.831,246.889 369.011,246.753 369.231 C 246.617 369.451,245.977 369.630,245.331 369.630 C 244.685 369.630,244.156 369.810,244.156 370.030 C 244.156 370.250,243.526 370.430,242.757 370.430 C 241.988 370.430,241.359 370.601,241.359 370.810 C 241.359 371.020,240.822 371.123,240.165 371.040 C 239.509 370.957,238.869 371.055,238.743 371.259 C 238.617 371.462,237.806 371.628,236.939 371.628 C 236.073 371.628,235.365 371.808,235.365 372.028 C 235.365 372.248,234.656 372.428,233.790 372.428 C 232.924 372.428,232.104 372.607,231.968 372.827 C 231.832 373.047,230.843 373.227,229.770 373.227 C 228.697 373.227,227.708 373.407,227.572 373.626 C 227.436 373.847,225.648 374.026,223.586 374.026 C 220.950 374.026,219.798 374.173,219.680 374.525 C 219.550 374.916,215.256 375.025,200.000 375.025 C 184.744 375.025,180.450 374.916,180.320 374.525 C 180.202 374.173,179.050 374.026,176.414 374.026 C 174.352 374.026,172.564 373.847,172.428 373.626 C 172.292 373.407,171.292 373.227,170.206 373.227 C 169.120 373.227,168.232 373.047,168.232 372.827 C 168.232 372.607,167.423 372.428,166.434 372.428 C 165.445 372.428,164.635 372.248,164.635 372.028 C 164.635 371.808,163.927 371.628,163.061 371.628 C 162.194 371.628,161.383 371.462,161.257 371.259 C 161.131 371.055,160.491 370.957,159.835 371.040 C 159.178 371.123,158.641 371.020,158.641 370.810 C 158.641 370.601,158.012 370.430,157.243 370.430 C 156.474 370.430,155.844 370.250,155.844 370.030 C 155.844 369.810,155.305 369.630,154.645 369.630 C 153.986 369.630,153.447 369.451,153.447 369.231 C 153.447 369.011,152.817 368.831,152.048 368.831 C 151.279 368.831,150.649 368.651,150.649 368.432 C 150.649 368.212,150.210 368.032,149.674 368.032 C 149.137 368.032,148.593 367.860,148.463 367.651 C 148.333 367.441,147.154 367.148,145.842 367.000 C 144.530 366.851,143.457 366.573,143.457 366.382 C 143.457 366.191,143.007 366.034,142.458 366.034 C 141.908 366.034,141.459 365.854,141.459 365.634 C 141.459 365.415,140.919 365.235,140.260 365.235 C 139.600 365.235,139.061 365.099,139.061 364.933 C 139.061 364.553,137.267 363.786,135.564 363.438 C 134.850 363.293,134.266 363.008,134.266 362.805 C 134.266 362.603,133.906 362.438,133.467 362.438 C 133.027 362.438,132.667 362.258,132.667 362.038 C 132.667 361.818,132.218 361.638,131.668 361.638 C 131.119 361.638,130.669 361.459,130.669 361.239 C 130.669 361.019,130.310 360.839,129.870 360.839 C 129.431 360.839,129.071 360.697,129.071 360.524 C 129.071 360.351,127.902 359.857,126.474 359.425 C 125.045 358.994,123.876 358.506,123.876 358.342 C 123.876 358.177,123.606 358.042,123.277 358.042 C 122.947 358.042,122.677 357.862,122.677 357.642 C 122.677 357.423,122.318 357.243,121.878 357.243 C 121.439 357.243,121.079 357.084,121.079 356.890 C 121.079 356.591,120.031 356.092,118.994 355.898 C 118.836 355.868,118.340 355.529,117.891 355.145 C 117.441 354.760,116.806 354.446,116.479 354.446 C 116.152 354.446,115.884 354.266,115.884 354.046 C 115.884 353.826,115.614 353.646,115.285 353.646 C 114.955 353.646,114.685 353.509,114.685 353.341 C 114.685 352.992,111.741 351.648,110.975 351.648 C 110.695 351.648,110.207 351.289,109.890 350.849 C 109.573 350.410,109.084 350.050,108.803 350.050 C 108.522 350.050,108.292 349.891,108.292 349.696 C 108.292 349.501,107.707 349.047,106.993 348.686 C 105.053 347.706,104.178 347.129,103.455 346.354 C 103.097 345.969,102.592 345.654,102.334 345.654 C 102.076 345.654,101.471 345.288,100.990 344.840 C 100.509 344.392,99.691 343.918,99.171 343.788 C 98.651 343.657,97.517 342.855,96.649 342.005 C 95.782 341.155,94.927 340.460,94.748 340.460 C 94.570 340.460,93.887 339.965,93.230 339.361 C 91.730 337.981,90.807 337.255,89.399 336.347 C 88.788 335.953,87.116 334.470,85.683 333.050 C 84.249 331.631,82.917 330.470,82.723 330.470 C 82.280 330.470,68.731 316.891,68.731 316.448 C 68.731 316.269,67.652 315.041,66.334 313.718 C 65.015 312.396,63.936 311.125,63.936 310.894 C 63.936 310.664,63.352 309.894,62.637 309.184 C 61.923 308.473,61.087 307.404,60.779 306.807 C 60.471 306.210,60.096 305.798,59.946 305.891 C 59.795 305.984,59.382 305.450,59.026 304.706 C 58.367 303.323,57.784 302.537,55.844 300.417 C 55.240 299.757,54.745 298.965,54.745 298.659 C 54.745 298.353,54.565 298.102,54.346 298.102 C 54.126 298.102,53.946 297.866,53.946 297.578 C 53.946 297.290,53.586 296.668,53.147 296.196 C 52.707 295.724,52.348 295.173,52.348 294.971 C 52.348 294.769,52.078 294.379,51.748 294.106 C 51.419 293.832,51.149 293.311,51.149 292.946 C 51.149 292.582,50.789 292.025,50.350 291.708 C 49.910 291.391,49.550 290.902,49.550 290.621 C 49.550 290.340,49.371 290.110,49.151 290.110 C 48.931 290.110,48.751 289.750,48.751 289.311 C 48.751 288.871,48.591 288.511,48.395 288.511 C 48.199 288.511,47.926 288.062,47.788 287.512 C 47.650 286.963,47.361 286.513,47.145 286.513 C 46.930 286.513,46.753 286.280,46.753 285.994 C 46.753 285.259,45.813 283.324,45.455 283.320 C 45.290 283.318,45.155 283.047,45.155 282.717 C 45.155 282.388,44.975 282.118,44.755 282.118 C 44.535 282.118,44.356 281.838,44.356 281.495 C 44.356 280.874,42.608 277.461,41.921 276.743 C 41.722 276.534,41.558 276.040,41.558 275.644 C 41.558 275.249,41.379 274.925,41.159 274.925 C 40.939 274.925,40.759 274.565,40.759 274.126 C 40.759 273.686,40.602 273.327,40.410 273.327 C 40.217 273.327,39.955 272.800,39.826 272.157 C 39.697 271.514,39.204 270.121,38.730 269.060 C 38.256 268.000,37.467 266.234,36.977 265.135 C 36.486 264.036,35.849 262.373,35.561 261.439 C 35.273 260.504,34.886 259.740,34.701 259.740 C 34.517 259.740,34.366 259.201,34.366 258.541 C 34.366 257.882,34.186 257.343,33.966 257.343 C 33.746 257.343,33.566 257.073,33.566 256.743 C 33.566 256.414,33.387 256.144,33.167 256.144 C 32.947 256.144,32.767 255.706,32.767 255.170 C 32.767 254.635,32.390 252.702,31.928 250.874 C 31.467 249.047,30.996 247.056,30.883 246.449 C 30.770 245.842,30.518 245.247,30.324 245.126 C 30.129 245.006,29.970 244.390,29.970 243.756 C 29.970 243.123,29.790 242.493,29.570 242.358 C 29.351 242.222,29.171 241.682,29.171 241.159 C 29.171 240.635,29.012 240.109,28.819 239.989 C 28.625 239.870,28.340 238.422,28.185 236.772 C 28.031 235.122,27.740 233.670,27.539 233.546 C 27.337 233.421,27.173 232.521,27.173 231.545 C 27.173 230.569,26.993 229.770,26.773 229.770 C 26.553 229.770,26.374 228.781,26.374 227.572 C 26.374 226.364,26.194 225.375,25.974 225.375 C 25.753 225.375,25.574 224.320,25.574 223.010 C 25.574 221.594,25.392 220.585,25.118 220.494 C 24.463 220.275,24.459 180.125,25.115 179.907 C 25.398 179.813,25.574 178.767,25.574 177.189 C 25.574 175.746,25.749 174.625,25.974 174.625 C 26.194 174.625,26.374 173.636,26.374 172.428 C 26.374 171.219,26.553 170.230,26.773 170.230 C 26.993 170.230,27.173 169.431,27.173 168.455 C 27.173 167.479,27.331 166.583,27.525 166.463 C 27.719 166.343,28.004 164.894,28.158 163.243 C 28.313 161.591,28.604 160.240,28.805 160.240 C 29.006 160.240,29.171 159.610,29.171 158.841 C 29.171 158.072,29.351 157.443,29.570 157.443 C 29.790 157.443,29.970 156.813,29.970 156.044 C 29.970 155.275,30.150 154.645,30.370 154.645 C 30.589 154.645,30.769 154.193,30.769 153.641 C 30.769 153.088,30.937 152.324,31.142 151.943 C 31.607 151.076,32.767 146.172,32.767 145.073 C 32.767 144.623,32.947 144.256,33.167 144.256 C 33.387 144.256,33.566 143.806,33.566 143.257 C 33.566 142.707,33.746 142.258,33.966 142.258 C 34.186 142.258,34.366 141.986,34.366 141.653 C 34.366 141.320,34.530 140.736,34.732 140.354 C 35.654 138.607,36.364 136.670,36.364 135.904 C 36.364 135.442,36.543 135.065,36.763 135.065 C 36.983 135.065,37.163 134.705,37.163 134.266 C 37.163 133.826,37.343 133.467,37.562 133.467 C 37.782 133.467,37.962 133.017,37.962 132.468 C 37.962 131.918,38.142 131.469,38.362 131.469 C 38.581 131.469,38.761 131.129,38.761 130.715 C 38.761 130.301,39.030 129.446,39.358 128.817 C 39.686 128.187,39.956 127.358,39.958 126.973 C 39.959 126.588,40.140 126.274,40.360 126.274 C 40.579 126.274,40.759 125.914,40.759 125.475 C 40.759 125.035,40.939 124.675,41.159 124.675 C 41.379 124.675,41.558 124.406,41.558 124.076 C 41.558 123.746,41.738 123.477,41.958 123.477 C 42.178 123.477,42.358 123.117,42.358 122.677 C 42.358 122.238,42.494 121.878,42.660 121.878 C 42.826 121.878,43.174 121.384,43.432 120.779 C 43.691 120.175,44.227 118.916,44.623 117.982 C 45.019 117.048,45.481 116.284,45.649 116.284 C 45.817 116.284,45.954 115.924,45.954 115.485 C 45.954 115.045,46.089 114.684,46.254 114.683 C 46.610 114.680,47.952 112.405,47.952 111.803 C 47.952 111.572,48.267 111.090,48.651 110.732 C 49.340 110.092,49.879 109.254,51.120 106.899 C 51.465 106.244,52.063 105.413,52.448 105.054 C 52.832 104.695,53.147 104.108,53.147 103.749 C 53.147 103.390,53.298 103.097,53.484 103.097 C 53.669 103.097,54.159 102.468,54.573 101.698 C 54.988 100.929,55.466 100.300,55.635 100.300 C 55.805 100.300,55.944 99.980,55.944 99.589 C 55.944 99.198,56.304 98.619,56.743 98.302 C 57.183 97.985,57.542 97.577,57.542 97.396 C 57.542 97.215,57.992 96.617,58.541 96.068 C 59.091 95.518,59.540 94.895,59.540 94.683 C 59.540 94.472,60.080 93.734,60.739 93.044 C 61.399 92.354,61.938 91.644,61.938 91.465 C 61.938 91.287,62.837 90.227,63.936 89.111 C 65.035 87.994,65.934 86.923,65.934 86.731 C 65.934 86.538,67.328 84.939,69.031 83.176 C 70.734 81.414,72.667 79.315,73.327 78.513 C 74.708 76.832,75.914 75.642,79.486 72.433 C 80.896 71.166,82.607 69.590,83.288 68.931 C 83.969 68.272,85.243 67.200,86.119 66.550 C 86.995 65.900,88.470 64.596,89.396 63.653 C 90.322 62.710,91.267 61.938,91.497 61.938 C 91.727 61.938,92.474 61.404,93.157 60.751 C 93.840 60.099,94.737 59.457,95.151 59.326 C 95.565 59.195,95.904 58.919,95.904 58.714 C 95.904 58.509,96.102 58.342,96.343 58.342 C 96.585 58.342,97.286 57.802,97.902 57.143 C 98.518 56.484,99.296 55.944,99.632 55.944 C 99.967 55.944,100.595 55.495,101.028 54.945 C 101.460 54.396,102.102 53.946,102.455 53.946 C 102.808 53.946,103.097 53.766,103.097 53.546 C 103.097 53.327,103.367 53.147,103.696 53.147 C 104.026 53.147,104.296 52.967,104.296 52.747 C 104.296 52.527,104.577 52.348,104.922 52.348 C 105.535 52.348,108.362 50.441,108.625 49.850 C 108.698 49.685,109.037 49.550,109.377 49.550 C 109.718 49.550,110.287 49.230,110.642 48.839 C 110.998 48.448,112.053 47.792,112.987 47.380 C 113.921 46.969,114.685 46.479,114.685 46.293 C 114.685 46.107,115.045 45.954,115.485 45.954 C 115.924 45.954,116.284 45.774,116.284 45.554 C 116.284 45.335,116.493 45.155,116.749 45.155 C 117.495 45.155,120.280 43.833,120.280 43.480 C 120.280 43.302,120.639 43.157,121.079 43.157 C 121.518 43.157,121.878 42.977,121.878 42.757 C 121.878 42.537,122.238 42.358,122.677 42.358 C 123.117 42.358,123.477 42.178,123.477 41.958 C 123.477 41.738,123.746 41.558,124.076 41.558 C 124.406 41.558,124.675 41.399,124.675 41.203 C 124.675 41.008,125.305 40.730,126.074 40.586 C 126.843 40.441,127.473 40.152,127.473 39.942 C 127.473 39.732,127.832 39.560,128.272 39.560 C 128.711 39.560,129.071 39.381,129.071 39.161 C 129.071 38.941,129.520 38.761,130.070 38.761 C 130.619 38.761,131.069 38.581,131.069 38.362 C 131.069 38.142,131.608 37.962,132.268 37.962 C 132.927 37.962,133.467 37.782,133.467 37.562 C 133.467 37.343,133.816 37.163,134.242 37.163 C 134.669 37.163,135.129 36.983,135.265 36.763 C 135.401 36.543,135.816 36.363,136.187 36.361 C 136.559 36.360,137.378 36.090,138.008 35.762 C 138.637 35.433,139.491 35.165,139.906 35.165 C 140.320 35.165,140.659 34.985,140.659 34.765 C 140.659 34.545,141.109 34.366,141.658 34.366 C 142.208 34.366,142.657 34.186,142.657 33.966 C 142.657 33.746,143.017 33.566,143.457 33.566 C 143.896 33.566,144.256 33.407,144.256 33.213 C 144.256 33.018,145.245 32.736,146.454 32.585 C 147.662 32.434,148.651 32.143,148.651 31.939 C 148.651 31.735,149.180 31.568,149.827 31.568 C 150.473 31.568,151.113 31.389,151.249 31.169 C 151.385 30.949,152.194 30.769,153.047 30.769 C 153.900 30.769,154.709 30.589,154.845 30.370 C 154.981 30.150,155.711 29.970,156.467 29.970 C 157.223 29.970,157.842 29.823,157.842 29.644 C 157.842 29.358,160.115 28.882,165.135 28.116 C 165.959 27.991,166.633 27.727,166.633 27.530 C 166.633 27.334,167.522 27.173,168.608 27.173 C 169.694 27.173,170.693 26.993,170.829 26.773 C 170.965 26.553,171.965 26.374,173.051 26.374 C 174.136 26.374,175.025 26.194,175.025 25.974 C 175.025 25.750,176.131 25.574,177.542 25.574 C 178.927 25.574,180.232 25.402,180.443 25.192 C 181.303 24.332,218.630 24.264,219.487 25.122 " stroke="none" fill="#242c6c" fill-rule="evenodd"></path><path id="path3" d="" stroke="none" fill="#2c2c6c" fill-rule="evenodd"></path><path id="path4" d="" stroke="none" fill="#c45888" fill-rule="evenodd"></path></g></svg>