<?xml version="1.0" standalone="no"?>
<!DOCTYPE svg PUBLIC "-//W3C//DTD SVG 20010904//EN"
 "http://www.w3.org/TR/2001/REC-SVG-20010904/DTD/svg10.dtd">
<svg version="1.0" xmlns="http://www.w3.org/2000/svg"
 width="4286.000000pt" height="2902.000000pt" viewBox="0 0 4286.000000 2902.000000"
 preserveAspectRatio="xMidYMid meet">
<metadata>
Created by potrace 1.16, written by Peter Selinger 2001-2019
</metadata>
<g transform="translate(0.000000,2902.000000) scale(0.100000,-0.100000)"
fill="#000000" stroke="none">
<path d="M20480 28910 l0 -110 -5120 0 -5120 0 0 -3315 0 -3315 -2620 0 -2620
0 0 -1695 0 -1695 -2500 0 -2500 0 0 -5120 0 -5120 1585 0 1585 0 0 -590 0
-590 3535 0 3535 0 0 -2730 0 -2730 3235 0 3235 0 0 -390 0 -390 1883 0 c1482
1 1879 3 1866 13 -9 7 -1182 833 -2607 1837 -1956 1378 -2587 1827 -2574 1833
37 16 6515 1678 6520 1672 5 -5 281 -6281 282 -6417 l0 -58 2435 0 2435 0 0
950 0 950 1885 0 1885 0 0 2730 0 2730 4735 0 4735 0 0 590 0 590 385 0 385 0
0 1438 0 1437 950 -3 950 -2 0 960 0 960 -950 0 -950 0 0 2725 0 2725 -2715 0
-2715 0 0 4995 0 4995 -2039 0 -2039 0 54 -132 c30 -73 364 -891 743 -1818
l688 -1685 -46 -6 c-25 -3 -1234 -9 -2686 -13 -1452 -3 -2853 -9 -3112 -12
-322 -5 -473 -3 -473 4 0 5 1084 830 2410 1833 l2409 1824 -359 3 -360 2 0
125 0 125 -5120 0 -5120 0 0 -110z m3768 -3021 c917 -689 1675 -1259 1684
-1268 16 -15 -6 -34 -335 -282 -194 -147 -743 -563 -1222 -924 -478 -362
-1050 -794 -1270 -960 -220 -166 -635 -479 -921 -696 -1085 -820 -1003 -760
-1008 -736 -3 12 -33 690 -67 1507 l-63 1485 733 1505 c815 1673 789 1620 797
1620 3 0 755 -563 1672 -1251z m9160 -5969 c160 -415 412 -1074 562 -1465 150
-390 465 -1214 702 -1830 236 -616 656 -1709 933 -2430 277 -720 715 -1863
975 -2540 260 -676 474 -1233 477 -1237 2 -5 -358 -8 -800 -8 l-804 0 -243
638 c-134 350 -251 656 -261 680 l-18 42 -1827 -2 -1826 -3 -262 -677 -261
-677 -804 -1 c-638 0 -802 3 -798 13 19 48 845 2195 2272 5907 917 2384 1670
4341 1672 4348 3 7 9 10 13 5 5 -4 139 -348 298 -763z m-11248 -4495 l0 -4985
-750 0 -750 0 0 4985 0 4985 750 0 750 0 0 -4985z m-6384 4857 c395 -56 737
-153 1068 -303 960 -435 1775 -1337 2095 -2322 167 -515 224 -1084 165 -1667
-89 -879 -458 -1650 -1104 -2300 -737 -741 -1606 -1120 -2632 -1147 l-238 -6
-2 -1046 -3 -1046 -747 -3 -748 -2 0 4935 0 4936 998 -4 c957 -3 1003 -4 1148
-25z m14074 -757 l0 -775 -1225 0 -1225 0 -2 -4127 -3 -4128 -747 -3 -748 -2
0 4130 0 4130 -1225 0 -1225 0 0 775 0 775 3200 0 3200 0 0 -775z m-18062 -27
l2 -748 -1525 0 -1525 0 0 -1330 0 -1330 1525 0 1525 0 -2 -747 -3 -748 -1522
-3 -1523 -2 0 -1325 0 -1325 1520 0 1520 0 0 -750 0 -750 -2270 0 -2270 0 0
4905 0 4905 2273 -2 2272 -3 3 -747z m-4000 -10009 c22 -9 19 -13 -60 -89
l-83 -79 -68 -1 -69 0 21 33 c12 17 45 69 73 114 l52 81 55 -25 c31 -14 66
-29 79 -34z m9379 20 l68 -31 -84 -79 -84 -79 -64 0 c-49 0 -62 3 -57 13 45
75 135 207 143 207 5 0 40 -14 78 -31z m-8335 -278 c32 -12 85 -42 118 -67
l61 -45 -27 -32 c-15 -18 -39 -47 -55 -65 l-28 -32 -53 40 c-173 131 -395 86
-485 -98 -25 -51 -28 -68 -28 -157 0 -90 3 -105 27 -152 40 -76 82 -119 146
-150 48 -23 69 -28 132 -27 86 1 148 23 216 79 23 19 46 35 51 35 18 0 106
-99 100 -113 -9 -25 -125 -105 -185 -128 -80 -31 -240 -38 -328 -14 -203 55
-345 250 -343 470 1 191 99 354 261 436 83 42 118 48 248 45 91 -2 127 -7 172
-25z m944 15 c165 -44 296 -175 340 -341 20 -75 18 -201 -6 -276 -35 -114 -97
-197 -194 -261 -83 -54 -168 -78 -275 -78 -146 1 -241 35 -335 121 -109 99
-157 211 -158 364 0 223 127 397 342 466 68 22 213 24 286 5z m6476 -15 c60
-23 150 -79 155 -96 1 -5 -21 -37 -51 -69 l-53 -60 -34 27 c-64 49 -128 70
-209 71 -91 1 -135 -13 -199 -64 -66 -52 -110 -140 -118 -237 -12 -145 55
-271 175 -330 50 -24 68 -28 142 -27 84 1 147 17 197 50 21 13 23 22 23 99 l0
84 -117 3 -118 3 -3 73 -3 72 206 0 205 0 0 -198 0 -199 -45 -32 c-103 -74
-219 -111 -350 -111 -147 0 -246 36 -341 122 -103 95 -146 200 -147 358 0 112
17 178 67 264 35 60 133 149 198 179 85 40 121 46 248 43 89 -2 128 -8 172
-25z m6327 14 c59 -14 150 -56 194 -90 18 -13 16 -17 -24 -74 -24 -34 -46 -61
-51 -61 -4 0 -29 13 -55 29 -138 84 -297 78 -342 -14 -12 -25 -12 -35 0 -69
18 -51 61 -74 219 -116 186 -50 266 -108 290 -212 24 -99 -14 -218 -87 -274
-85 -65 -223 -90 -355 -65 -68 13 -205 76 -252 115 -33 28 -32 30 38 110 l34
39 40 -31 c136 -108 345 -123 403 -28 25 40 24 77 -2 110 -29 37 -61 51 -191
86 -213 57 -284 110 -309 228 -14 71 0 142 41 204 74 109 234 154 409 113z
m6386 0 c166 -44 294 -176 340 -352 64 -246 -89 -515 -334 -587 -70 -20 -209
-21 -286 -1 -169 44 -298 180 -340 357 -27 114 -12 235 41 340 55 108 182 210
303 244 65 17 206 17 276 -1z m5717 -5 c293 -90 426 -425 277 -699 l-30 -56
53 -46 52 -46 -54 -60 -55 -61 -56 49 -56 49 -59 -30 c-77 -38 -131 -49 -235
-50 -251 0 -442 163 -480 412 -38 240 116 479 350 543 74 21 218 18 293 -5z
m-26722 -70 l0 -80 -265 0 -265 0 0 -115 0 -115 235 0 235 0 0 -80 0 -80 -235
0 -235 0 0 -125 0 -125 270 0 270 0 0 -75 0 -75 -355 0 -355 0 0 475 0 475
350 0 350 0 0 -80z m2570 -315 l0 -395 245 0 245 0 0 -80 0 -80 -330 0 -330 0
0 475 0 475 85 0 85 0 0 -395z m1390 315 l0 -80 -265 0 -265 0 0 -115 0 -115
235 0 235 0 0 -80 0 -80 -235 0 -235 0 0 -125 0 -125 270 0 270 0 0 -75 0 -75
-355 0 -355 0 0 475 0 475 350 0 350 0 0 -80z m1180 56 c108 -34 191 -93 251
-178 134 -191 108 -455 -62 -612 -119 -111 -212 -136 -506 -136 l-203 0 0 476
0 476 233 -4 c182 -4 244 -9 287 -22z m720 -91 c0 -119 -11 -168 -48 -208 -23
-25 -78 -53 -123 -61 -32 -6 -37 -4 -43 16 -11 42 -6 54 28 66 42 15 64 40 72
80 6 31 6 32 -30 32 l-36 0 0 95 0 95 90 0 90 0 0 -115z m410 -360 l0 -476
-82 3 -83 3 -3 460 c-1 253 0 466 3 473 3 8 30 12 85 12 l80 0 0 -475z m686
153 l249 -321 3 322 2 322 83 -3 82 -3 0 -470 0 -470 -70 -3 -70 -2 -255 330
-255 329 -3 -329 -2 -330 -85 0 -85 0 0 468 c0 258 3 472 7 475 3 4 39 7 78 7
l72 0 249 -322z m2474 242 l0 -80 -265 0 -265 0 0 -115 0 -115 233 -2 232 -3
3 -77 3 -78 -236 0 -235 0 0 -125 0 -125 270 0 271 0 -3 -72 -3 -73 -352 -3
-353 -2 0 475 0 475 350 0 350 0 0 -80z m624 -231 c132 -170 246 -315 253
-321 11 -8 13 48 13 311 l0 321 80 0 80 0 0 -475 0 -475 -69 0 -68 0 -254 328
-254 328 -5 -326 -5 -325 -82 -3 -83 -3 0 476 0 475 78 0 77 0 239 -311z m876
-164 l0 -475 -85 0 -85 0 0 468 c0 258 3 472 7 475 3 4 42 7 85 7 l78 0 0
-475z m980 395 l0 -80 -265 0 -265 0 0 -115 0 -115 233 -2 232 -3 3 -77 3 -78
-236 0 -235 0 0 -125 0 -125 270 0 271 0 -3 -72 -3 -73 -352 -3 -353 -2 0 475
0 475 350 0 350 0 0 -80z m380 -192 c0 -150 5 -300 10 -333 21 -130 100 -198
230 -198 93 0 153 30 195 98 l30 48 5 326 5 326 83 3 83 3 -3 -338 c-3 -327
-4 -340 -26 -395 -33 -81 -106 -158 -184 -194 -59 -27 -71 -29 -188 -29 -108
0 -133 3 -185 24 -120 48 -192 153 -215 309 -11 75 -14 605 -3 615 3 4 42 7
85 7 l78 0 0 -272z m1467 248 c155 -50 236 -208 189 -370 -21 -71 -79 -137
-153 -175 l-53 -26 125 -175 125 -175 -97 -3 c-87 -3 -100 -1 -113 16 -8 11
-61 85 -118 166 l-103 146 -99 0 -100 0 -2 -162 -3 -163 -82 -3 -83 -3 0 476
0 477 258 -4 c206 -4 267 -8 309 -22z m2453 -56 l0 -80 -265 0 -265 0 0 -115
0 -115 233 -2 232 -3 3 -77 3 -78 -236 0 -235 0 0 -125 0 -125 270 0 271 0 -3
-72 -3 -73 -352 -3 -353 -2 0 475 0 475 350 0 350 0 0 -80z m625 -231 c132
-171 246 -315 253 -321 9 -8 12 55 12 311 l0 321 80 0 80 0 0 -475 0 -475 -68
0 -69 0 -256 331 -257 331 -2 -329 -3 -328 -82 -3 -83 -3 0 476 0 475 78 0 77
0 240 -311z m1303 -166 l2 -473 -85 0 -85 0 0 475 0 476 83 -3 82 -3 3 -472z
m489 404 c32 -40 144 -183 248 -318 l190 -246 5 316 5 316 83 3 82 3 0 -476 0
-476 -72 3 -71 3 -244 315 c-134 173 -251 322 -259 330 -12 12 -14 -28 -14
-318 l0 -332 -80 0 -80 0 0 475 0 475 75 0 75 0 57 -73z m1583 -7 l0 -80 -265
0 -265 0 0 -125 0 -125 235 0 235 0 0 -80 0 -80 -235 0 -235 0 0 -190 0 -190
-85 0 -85 0 0 475 0 475 350 0 350 0 0 -80z m1953 53 c79 -30 131 -74 162
-138 76 -155 14 -340 -136 -404 -33 -15 -47 -26 -42 -34 4 -7 57 -82 118 -167
61 -85 114 -161 119 -167 5 -10 -15 -13 -93 -13 l-100 0 -116 165 -117 165
-99 0 -99 0 0 -165 0 -165 -85 0 -85 0 0 476 0 476 258 -4 c232 -3 263 -6 315
-25z m742 -188 c76 -119 141 -217 144 -220 4 -2 70 94 147 213 l140 217 89 0
90 0 3 -472 2 -473 -85 0 -85 0 -2 333 -3 332 -143 -212 c-78 -117 -147 -213
-152 -213 -6 0 -72 93 -147 206 l-138 207 -3 -327 -2 -326 -85 0 -85 0 0 475
0 475 88 0 89 0 138 -215z m1398 158 c36 -82 378 -865 384 -881 4 -10 -15 -12
-86 -10 l-92 3 -47 112 -47 113 -220 0 -220 0 -48 -115 -49 -115 -84 0 c-51 0
-84 4 -84 10 0 11 368 858 396 913 14 26 17 27 93 27 l78 0 26 -57z m1155 -25
l3 -78 -151 0 -150 0 0 -395 0 -395 -85 0 -85 0 0 395 0 395 -150 0 -150 0 0
80 0 80 383 -2 382 -3 3 -77z m380 -395 l2 -473 -85 0 -85 0 0 475 0 476 83
-3 82 -3 3 -472z m1602 192 c0 -162 5 -305 11 -334 26 -120 104 -184 228 -184
97 0 161 37 204 118 21 38 22 54 25 363 l3 322 85 0 85 0 -3 -337 c-3 -325 -4
-340 -26 -395 -32 -80 -99 -150 -180 -190 -65 -32 -70 -33 -197 -33 -120 0
-134 2 -186 26 -113 53 -188 155 -209 284 -5 33 -10 192 -10 353 l0 292 85 0
85 0 0 -285z m1595 205 l0 -75 -267 -3 -268 -2 0 -115 0 -115 238 -2 237 -3 3
-77 3 -78 -241 0 -241 0 3 -122 3 -123 268 -3 267 -2 0 -75 0 -75 -355 0 -355
0 0 468 c0 258 3 472 7 475 4 4 162 6 352 5 l346 -3 0 -75z m-24065 -1817 c0
-13 -325 -675 -331 -677 -5 -1 -882 613 -954 668 -18 14 47 15 633 16 358 0
652 -3 652 -7z"/>
<path d="M32479 14887 l-625 -1622 622 -3 c343 -1 906 -1 1253 0 l630 3 -623
1617 c-342 890 -624 1620 -627 1623 -3 2 -286 -726 -630 -1618z"/>
<path d="M15130 16423 l0 -2406 178 6 c97 4 222 13 277 21 522 76 954 292
1336 668 385 379 614 819 696 1338 26 164 26 598 0 755 -76 456 -248 833 -534
1165 -488 565 -1108 860 -1810 860 l-143 0 0 -2407z"/>
<path d="M9573 9100 c-59 -12 -112 -42 -154 -87 -158 -165 -112 -442 89 -540
120 -59 272 -28 361 74 107 121 110 322 6 448 -65 80 -199 127 -302 105z"/>
<path d="M28742 9095 c-148 -42 -241 -181 -230 -345 13 -180 143 -304 318
-305 62 0 85 5 132 28 63 31 115 84 150 156 19 38 23 62 23 141 0 82 -4 103
-26 151 -66 141 -222 215 -367 174z"/>
<path d="M34457 9100 c-136 -34 -230 -147 -244 -293 -13 -140 68 -284 189
-338 69 -30 174 -31 237 -3 l44 20 -74 63 c-41 35 -75 68 -77 72 -2 5 20 35
49 68 l52 60 82 -74 82 -75 19 42 c14 32 19 65 19 133 0 76 -4 99 -26 146 -33
70 -87 125 -153 155 -59 27 -145 37 -199 24z"/>
<path d="M12750 8776 l0 -316 123 0 c202 0 286 40 349 167 29 60 33 77 33 148
-1 131 -56 224 -169 283 -47 24 -62 27 -193 30 l-143 4 0 -316z"/>
<path d="M21320 8935 l0 -157 153 4 c125 3 159 7 191 22 101 50 112 200 18
258 -34 21 -51 23 -199 26 l-163 4 0 -157z"/>
<path d="M29720 8935 l0 -157 153 4 c131 3 158 6 192 24 101 53 107 202 11
260 -26 16 -56 20 -193 22 l-163 4 0 -157z"/>
<path d="M32080 8873 c-39 -92 -74 -174 -77 -180 -4 -10 30 -13 151 -13 86 0
156 2 156 3 0 5 -151 351 -154 355 -2 1 -36 -73 -76 -165z"/>
<path d="M20480 555 l0 -555 792 0 c436 0 788 4 783 8 -21 19 -1564 1102
-1569 1102 -3 0 -6 -250 -6 -555z"/>
</g>
</svg>
