<svg id="svg" version="1.1" xmlns="http://www.w3.org/2000/svg" xmlns:xlink="http://www.w3.org/1999/xlink" width="400" height="270.83527764815676" viewBox="0, 0, 400,270.83527764815676"><g id="svgg"><path id="path0" d="M290.583 125.524 C 280.500 151.740,272.226 173.297,272.196 173.428 C 272.150 173.632,273.215 173.667,279.556 173.667 L 286.969 173.667 288.127 170.708 C 288.763 169.081,289.873 166.231,290.593 164.375 L 291.902 161.000 308.993 161.003 L 326.083 161.006 328.496 167.336 L 330.910 173.667 338.364 173.667 L 345.818 173.667 345.426 172.625 C 345.211 172.052,344.770 170.908,344.447 170.083 C 344.124 169.258,342.726 165.621,341.340 162.000 C 339.953 158.379,338.527 154.667,338.170 153.750 C 337.345 151.633,331.777 137.128,319.137 104.167 C 313.636 89.821,309.085 78.033,309.025 77.970 C 308.966 77.908,300.667 99.307,290.583 125.524 M192.833 126.833 L 192.833 173.333 199.722 173.333 L 206.611 173.333 206.722 142.958 C 206.783 126.252,206.833 105.327,206.833 96.458 L 206.833 80.333 199.833 80.333 L 192.833 80.333 192.833 126.833 M127.167 127.323 L 127.167 173.333 134.167 173.333 L 141.167 173.333 141.167 163.583 L 141.167 153.833 142.292 153.831 C 166.981 153.773,184.273 129.789,176.718 106.083 C 173.248 95.193,163.452 85.780,152.333 82.652 C 148.146 81.473,147.765 81.442,136.958 81.374 L 127.167 81.312 127.167 127.323 M218.833 88.583 L 218.833 95.833 230.250 95.833 L 241.667 95.833 241.667 134.333 L 241.667 172.833 248.667 172.833 L 255.667 172.833 255.667 134.333 L 255.667 95.833 267.083 95.833 L 278.500 95.833 278.500 88.583 L 278.500 81.333 248.667 81.333 L 218.833 81.333 218.833 88.583 M67.500 127.583 L 67.500 173.333 88.750 173.333 L 110.000 173.333 110.000 166.418 L 110.000 159.502 95.792 159.459 L 81.583 159.417 81.541 147.043 L 81.498 134.669 95.707 134.626 L 109.917 134.583 109.960 127.625 L 110.004 120.667 95.752 120.667 L 81.500 120.667 81.500 108.250 L 81.500 95.833 95.752 95.833 L 110.004 95.833 109.960 88.875 L 109.917 81.917 88.708 81.874 L 67.500 81.832 67.500 127.583 M146.493 95.425 C 158.243 97.654,166.274 109.059,164.442 120.917 C 162.759 131.809,153.388 139.973,142.542 139.997 L 141.167 140.000 141.167 117.474 L 141.167 94.949 143.131 95.054 C 144.211 95.112,145.724 95.279,146.493 95.425 M309.696 118.460 C 310.034 119.353,312.610 126.046,315.423 133.333 C 318.235 140.621,320.574 146.715,320.620 146.875 C 320.701 147.151,320.069 147.167,309.001 147.167 L 297.297 147.167 297.393 146.784 C 297.446 146.574,298.357 144.155,299.417 141.409 C 300.477 138.663,303.039 132.010,305.110 126.625 C 307.181 121.240,308.923 116.834,308.980 116.835 C 309.037 116.835,309.359 117.567,309.696 118.460 M71.038 182.389 C 70.858 182.695,70.579 183.145,70.419 183.389 L 70.128 183.833 70.689 183.832 C 71.105 183.831,71.459 183.652,72.059 183.137 L 72.869 182.444 72.309 182.145 C 71.534 181.732,71.412 181.756,71.038 182.389 M158.786 182.792 L 158.190 183.750 158.684 183.803 C 159.064 183.843,159.371 183.693,160.022 183.149 L 160.866 182.442 160.308 182.145 C 159.499 181.714,159.442 181.738,158.786 182.792 M79.724 184.512 C 75.565 185.306,74.781 191.060,78.562 193.041 C 80.640 194.130,84.964 192.722,83.632 191.390 L 83.185 190.942 82.506 191.413 C 80.799 192.596,78.626 191.965,77.905 190.076 C 76.799 187.181,79.875 184.703,82.426 186.434 L 83.052 186.858 83.558 186.353 C 84.571 185.339,81.958 184.085,79.724 184.512 M89.057 184.512 C 85.468 185.198,84.140 189.523,86.725 192.108 C 89.633 195.016,94.500 193.018,94.500 188.917 C 94.500 186.001,91.971 183.955,89.057 184.512 M321.417 184.503 C 315.986 185.612,316.641 193.394,322.167 193.412 C 323.132 193.416,323.586 193.332,324.161 193.045 L 324.905 192.673 325.337 193.087 C 325.895 193.621,326.024 193.608,326.494 192.972 L 326.885 192.444 326.429 192.052 L 325.974 191.660 326.326 190.932 C 327.950 187.576,325.039 183.763,321.417 184.503 M67.833 188.917 L 67.833 193.333 71.083 193.333 L 74.333 193.333 74.333 192.667 L 74.333 192.000 71.833 192.000 L 69.333 192.000 69.333 190.833 L 69.333 189.667 71.500 189.667 L 73.667 189.667 73.667 188.917 L 73.667 188.167 71.500 188.167 L 69.333 188.167 69.333 187.083 L 69.333 186.000 71.833 186.000 L 74.333 186.000 74.333 185.250 L 74.333 184.500 71.083 184.500 L 67.833 184.500 67.833 188.917 M96.667 188.917 L 96.667 193.333 99.750 193.333 L 102.833 193.333 102.833 192.583 L 102.833 191.833 100.500 191.833 L 98.167 191.833 98.167 188.167 L 98.167 184.500 97.417 184.500 L 96.667 184.500 96.667 188.917 M104.743 184.708 C 104.698 184.826,104.681 186.796,104.705 189.086 L 104.750 193.250 108.042 193.295 L 111.333 193.340 111.333 192.670 L 111.333 192.000 108.833 192.000 L 106.333 192.000 106.333 190.833 L 106.333 189.667 108.500 189.667 L 110.667 189.667 110.667 188.917 L 110.667 188.167 108.500 188.167 L 106.333 188.167 106.333 187.088 L 106.333 186.009 108.792 185.963 L 111.250 185.917 111.250 185.250 L 111.250 184.583 108.038 184.538 C 105.536 184.503,104.807 184.540,104.743 184.708 M117.500 188.895 L 117.500 193.333 119.470 193.333 C 123.452 193.333,125.337 191.880,125.332 188.814 C 125.327 186.048,123.511 184.665,119.708 184.533 L 117.500 184.457 117.500 188.895 M127.333 185.417 C 127.333 186.222,127.374 186.333,127.667 186.333 C 127.850 186.333,128.000 186.434,128.000 186.558 C 128.000 186.824,127.472 187.333,127.195 187.333 C 127.088 187.333,127.000 187.483,127.000 187.667 C 127.000 188.083,127.660 188.121,128.243 187.739 C 128.761 187.400,129.000 186.685,129.000 185.475 L 129.000 184.500 128.167 184.500 L 127.333 184.500 127.333 185.417 M131.333 188.917 L 131.333 193.333 132.083 193.333 L 132.833 193.333 132.833 188.917 L 132.833 184.500 132.083 184.500 L 131.333 184.500 131.333 188.917 M135.500 188.907 L 135.500 193.333 136.246 193.333 L 136.993 193.333 137.038 190.276 L 137.083 187.218 139.424 190.234 C 141.751 193.233,141.768 193.250,142.468 193.301 L 143.172 193.353 143.128 188.968 L 143.083 184.583 142.375 184.532 L 141.667 184.481 141.667 187.526 C 141.667 190.382,141.649 190.554,141.386 190.291 C 141.231 190.136,140.161 188.789,139.008 187.296 C 136.930 184.608,136.904 184.583,136.205 184.532 L 135.500 184.481 135.500 188.907 M147.712 184.918 C 145.097 186.243,144.487 190.046,146.549 192.169 C 147.928 193.588,150.383 193.867,152.333 192.828 L 153.417 192.250 153.464 190.375 L 153.511 188.500 151.579 188.500 L 149.647 188.500 149.698 189.125 L 149.750 189.750 150.875 189.799 L 152.000 189.849 152.000 190.655 C 152.000 192.533,148.643 192.555,147.383 190.686 C 145.563 187.985,148.524 184.720,151.404 186.252 C 152.273 186.714,152.332 186.704,152.830 186.005 L 153.176 185.519 152.388 185.058 C 151.192 184.357,148.950 184.290,147.712 184.918 M155.833 188.917 L 155.833 193.333 159.083 193.333 L 162.333 193.333 162.333 192.667 L 162.333 192.000 159.833 192.000 L 157.333 192.000 157.333 190.833 L 157.333 189.667 159.500 189.667 L 161.667 189.667 161.667 188.917 L 161.667 188.167 159.500 188.167 L 157.333 188.167 157.333 187.083 L 157.333 186.000 159.833 186.000 L 162.333 186.000 162.333 185.250 L 162.333 184.500 159.083 184.500 L 155.833 184.500 155.833 188.917 M164.500 188.907 L 164.500 193.333 165.246 193.333 L 165.993 193.333 166.038 190.276 L 166.083 187.219 168.420 190.234 C 170.747 193.239,170.758 193.250,171.464 193.301 L 172.172 193.353 172.128 188.968 L 172.083 184.583 171.375 184.532 L 170.667 184.481 170.667 187.526 C 170.667 190.382,170.649 190.554,170.386 190.291 C 170.231 190.136,169.161 188.789,168.008 187.296 C 165.930 184.608,165.904 184.583,165.205 184.532 L 164.500 184.481 164.500 188.907 M174.778 184.611 C 174.717 184.672,174.667 186.660,174.667 189.028 L 174.667 193.333 175.500 193.333 L 176.333 193.333 176.333 188.917 L 176.333 184.500 175.611 184.500 C 175.214 184.500,174.839 184.550,174.778 184.611 M179.000 188.913 L 179.000 193.333 182.250 193.333 L 185.500 193.333 185.500 192.667 L 185.500 192.000 183.000 192.000 L 180.500 192.000 180.500 190.833 L 180.500 189.667 182.667 189.667 L 184.833 189.667 184.833 188.917 L 184.833 188.167 182.667 188.167 L 180.500 188.167 180.500 187.088 L 180.500 186.009 182.958 185.963 L 185.417 185.917 185.417 185.250 L 185.417 184.583 182.208 184.538 L 179.000 184.493 179.000 188.913 M187.529 187.792 C 187.601 192.179,188.132 193.131,190.671 193.429 C 193.835 193.800,194.890 192.397,194.974 187.708 L 195.031 184.500 194.265 184.500 L 193.500 184.500 193.496 187.125 C 193.490 191.164,193.197 191.834,191.382 191.963 C 189.407 192.105,189.000 191.315,189.000 187.339 L 189.000 184.500 188.237 184.500 L 187.475 184.500 187.529 187.792 M197.458 184.594 C 197.390 184.664,197.333 186.660,197.333 189.028 L 197.333 193.333 198.083 193.333 L 198.833 193.333 198.833 191.833 L 198.833 190.333 199.875 190.336 L 200.917 190.339 201.971 191.836 L 203.026 193.333 203.935 193.333 L 204.844 193.333 204.203 192.458 C 203.851 191.977,203.324 191.234,203.034 190.807 L 202.505 190.030 203.118 189.712 C 204.969 188.752,204.998 186.012,203.169 185.009 C 202.402 184.588,197.789 184.253,197.458 184.594 M207.839 184.875 C 205.363 186.145,206.232 188.802,209.381 189.593 C 210.765 189.940,211.333 190.351,211.333 191.003 C 211.333 192.108,209.455 192.383,207.899 191.505 L 207.022 191.009 206.578 191.537 C 206.054 192.159,206.115 192.239,207.667 192.970 C 210.461 194.287,213.521 192.665,212.847 190.224 C 212.575 189.236,212.081 188.868,210.280 188.309 C 208.042 187.613,207.509 187.019,208.386 186.196 C 208.923 185.691,210.034 185.711,211.089 186.244 C 211.535 186.470,211.910 186.639,211.921 186.619 C 211.932 186.600,212.107 186.343,212.310 186.049 L 212.678 185.515 212.254 185.238 C 211.004 184.418,209.044 184.257,207.839 184.875 M219.111 184.611 C 219.050 184.672,219.000 186.660,219.000 189.028 L 219.000 193.333 222.333 193.333 L 225.667 193.333 225.667 192.667 L 225.667 192.000 223.167 192.000 L 220.667 192.000 220.667 190.833 L 220.667 189.667 222.833 189.667 L 225.000 189.667 225.000 188.917 L 225.000 188.167 222.833 188.167 L 220.667 188.167 220.667 187.083 L 220.667 186.000 223.083 186.000 L 225.500 186.000 225.500 185.250 L 225.500 184.500 222.361 184.500 C 220.635 184.500,219.172 184.550,219.111 184.611 M227.778 184.611 C 227.717 184.672,227.667 186.660,227.667 189.028 L 227.667 193.333 228.413 193.333 L 229.159 193.333 229.205 190.208 L 229.250 187.083 231.667 190.207 C 234.039 193.274,234.095 193.331,234.708 193.332 L 235.333 193.333 235.333 188.907 L 235.333 184.481 234.625 184.532 L 233.917 184.583 233.833 187.538 L 233.750 190.492 231.441 187.496 C 229.067 184.417,228.455 183.934,227.778 184.611 M242.000 188.917 L 242.000 193.333 242.750 193.333 L 243.500 193.333 243.500 188.917 L 243.500 184.500 242.750 184.500 L 242.000 184.500 242.000 188.917 M246.167 188.917 L 246.167 193.333 246.913 193.333 L 247.659 193.333 247.705 190.231 L 247.750 187.128 250.152 190.231 C 252.528 193.300,252.561 193.333,253.194 193.333 L 253.833 193.333 253.833 188.917 L 253.833 184.500 253.087 184.500 L 252.341 184.500 252.295 187.531 L 252.250 190.562 250.118 187.786 C 247.507 184.386,247.622 184.500,246.821 184.500 L 246.167 184.500 246.167 188.917 M256.333 188.917 L 256.333 193.333 257.167 193.333 L 258.000 193.333 258.000 191.583 L 258.000 189.833 260.167 189.833 L 262.333 189.833 262.333 189.083 L 262.333 188.333 260.167 188.333 L 258.000 188.333 258.000 187.167 L 258.000 186.000 260.417 186.000 L 262.833 186.000 262.833 185.250 L 262.833 184.500 259.583 184.500 L 256.333 184.500 256.333 188.917 M267.055 184.823 C 262.735 186.784,264.240 193.500,269.000 193.500 C 273.804 193.500,275.349 186.815,271.000 184.847 C 269.991 184.390,268.035 184.378,267.055 184.823 M275.833 188.917 L 275.833 193.333 276.583 193.333 L 277.333 193.333 277.333 191.833 L 277.333 190.333 278.310 190.333 L 279.287 190.333 280.333 191.833 L 281.380 193.333 282.283 193.333 C 282.962 193.333,283.155 193.282,283.061 193.125 C 282.991 193.010,282.467 192.268,281.895 191.474 L 280.854 190.032 281.324 189.837 C 283.041 189.126,283.459 186.759,282.107 185.407 C 281.418 184.718,280.390 184.500,277.825 184.500 L 275.833 184.500 275.833 188.917 M285.167 188.917 L 285.167 193.333 285.917 193.333 L 286.667 193.333 286.667 190.208 L 286.667 187.083 288.000 189.083 C 288.732 190.183,289.370 191.083,289.417 191.083 C 289.463 191.083,290.101 190.183,290.834 189.083 L 292.166 187.083 292.166 190.208 L 292.167 193.333 292.917 193.333 L 293.667 193.333 293.667 188.917 L 293.667 184.500 292.912 184.500 L 292.158 184.500 290.893 186.458 C 290.198 187.535,289.577 188.474,289.512 188.544 C 289.448 188.614,288.800 187.734,288.072 186.587 L 286.750 184.503 285.958 184.501 L 285.167 184.500 285.167 188.917 M299.116 185.117 C 298.853 185.754,296.740 190.592,295.946 192.375 L 295.518 193.333 296.324 193.333 L 297.129 193.333 297.592 192.245 L 298.054 191.157 300.129 191.204 L 302.205 191.250 302.632 192.292 L 303.059 193.333 303.863 193.333 C 304.305 193.333,304.666 193.315,304.666 193.292 C 304.666 193.269,303.809 191.300,302.763 188.917 L 300.861 184.583 300.118 184.533 C 299.400 184.485,299.368 184.503,299.116 185.117 M304.778 184.611 C 304.717 184.672,304.667 185.010,304.667 185.361 L 304.667 186.000 306.083 186.000 L 307.500 186.000 307.500 189.667 L 307.500 193.333 308.250 193.333 L 309.000 193.333 309.000 189.667 L 309.000 186.000 310.417 186.000 L 311.833 186.000 311.833 185.250 L 311.833 184.500 308.361 184.500 C 306.451 184.500,304.839 184.550,304.778 184.611 M313.833 188.917 L 313.833 193.333 314.583 193.333 L 315.333 193.333 315.333 188.917 L 315.333 184.500 314.583 184.500 L 313.833 184.500 313.833 188.917 M328.834 187.458 C 328.836 191.983,329.451 193.129,332.042 193.433 C 335.239 193.809,336.333 192.291,336.333 187.479 L 336.333 184.500 335.583 184.500 L 334.833 184.500 334.833 187.339 C 334.833 191.309,334.425 192.105,332.461 191.964 C 330.629 191.833,330.336 191.177,330.334 187.208 L 330.333 184.500 329.583 184.500 L 328.833 184.500 328.834 187.458 M338.833 188.917 L 338.833 193.333 342.083 193.333 L 345.333 193.333 345.333 192.667 L 345.333 192.000 342.833 192.000 L 340.333 192.000 340.333 190.833 L 340.333 189.667 342.500 189.667 L 344.667 189.667 344.667 188.917 L 344.667 188.167 342.500 188.167 L 340.333 188.167 340.333 187.083 L 340.333 186.000 342.750 186.000 L 345.167 186.000 345.167 185.250 L 345.167 184.500 342.000 184.500 L 338.833 184.500 338.833 188.917 M91.283 186.183 C 92.859 186.945,93.424 189.243,92.399 190.714 C 91.315 192.267,89.109 192.476,87.894 191.141 C 85.546 188.559,88.192 184.686,91.283 186.183 M270.412 186.214 C 273.290 187.844,272.015 192.236,268.742 191.965 C 265.011 191.655,265.255 185.867,269.000 185.843 C 269.477 185.840,269.990 185.975,270.412 186.214 M323.924 186.411 C 324.774 187.059,325.225 188.132,325.129 189.280 C 325.022 190.571,324.806 190.703,324.034 189.950 C 323.277 189.211,323.199 189.206,322.677 189.865 L 322.271 190.378 323.000 191.000 L 323.729 191.622 323.341 191.829 C 322.224 192.427,320.291 191.725,319.663 190.493 C 318.188 187.602,321.423 184.504,323.924 186.411 M122.446 186.432 C 125.043 188.357,123.865 191.683,120.542 191.808 L 119.000 191.866 119.000 188.916 L 119.000 185.967 120.488 186.025 C 121.676 186.072,122.071 186.154,122.446 186.432 M202.224 186.185 C 202.625 186.368,203.000 186.963,203.000 187.417 C 203.000 188.454,202.284 188.833,200.325 188.833 L 198.833 188.833 198.833 187.417 L 198.833 186.000 200.325 186.000 C 201.146 186.000,202.000 186.083,202.224 186.185 M280.924 186.409 C 282.165 187.650,281.189 188.833,278.924 188.833 L 277.333 188.833 277.333 187.417 L 277.333 186.000 278.924 186.000 C 280.391 186.000,280.547 186.032,280.924 186.409 M300.855 188.110 C 301.210 188.912,301.500 189.627,301.500 189.700 C 301.500 189.773,300.862 189.833,300.083 189.833 C 299.304 189.833,298.667 189.786,298.667 189.728 C 298.667 189.486,300.049 186.494,300.126 186.570 C 300.172 186.616,300.500 187.309,300.855 188.110 " stroke="none" fill="#fbfbfb" fill-rule="evenodd"></path><path id="path1" d="M193.801 0.208 C 193.678 0.323,193.316 0.563,192.997 0.742 C 192.678 0.920,192.342 1.127,192.250 1.201 C 191.762 1.593,190.320 2.500,190.185 2.500 C 190.098 2.500,190.003 2.557,189.972 2.627 C 189.942 2.697,188.342 3.764,186.417 4.998 C 184.492 6.232,182.842 7.303,182.750 7.378 C 182.658 7.453,182.171 7.774,181.667 8.091 C 181.162 8.408,179.679 9.361,178.370 10.209 C 177.060 11.056,175.148 12.294,174.120 12.958 C 173.091 13.623,172.137 14.242,172.000 14.334 C 171.748 14.504,169.303 16.087,165.377 18.624 C 164.207 19.380,162.837 20.258,162.333 20.575 C 161.829 20.893,161.342 21.213,161.250 21.287 C 161.158 21.362,159.921 22.164,158.500 23.070 C 155.017 25.292,154.099 25.889,154.000 25.994 C 153.954 26.043,153.654 26.230,153.333 26.408 C 153.012 26.587,152.675 26.794,152.583 26.867 C 152.095 27.259,150.653 28.167,150.518 28.167 C 150.432 28.167,150.336 28.224,150.306 28.294 C 150.275 28.364,148.675 29.430,146.750 30.664 C 144.825 31.898,143.175 32.966,143.083 33.038 C 142.764 33.287,141.249 34.280,141.083 34.349 C 140.992 34.387,140.129 34.934,139.167 35.563 C 138.204 36.193,137.004 36.973,136.500 37.297 C 135.996 37.621,134.758 38.426,133.750 39.086 C 131.983 40.242,130.069 41.478,126.000 44.091 C 124.946 44.768,123.971 45.398,123.833 45.491 C 122.992 46.060,121.082 47.301,118.833 48.739 C 115.573 50.824,112.612 52.744,111.750 53.331 C 111.383 53.580,111.008 53.814,110.917 53.851 C 110.825 53.887,109.737 54.582,108.500 55.396 C 107.263 56.209,105.837 57.139,105.333 57.462 C 104.829 57.785,103.775 58.478,102.990 59.000 C 102.205 59.523,101.493 59.981,101.407 60.017 C 101.171 60.117,98.275 62.022,98.083 62.203 C 97.978 62.303,101.369 62.326,107.250 62.266 C 112.383 62.214,122.658 62.132,130.083 62.083 C 137.508 62.034,149.396 61.922,156.500 61.834 C 163.604 61.745,173.858 61.635,179.287 61.589 L 189.157 61.504 188.963 61.961 C 188.855 62.211,187.501 65.079,185.952 68.333 C 184.404 71.587,183.098 74.344,183.051 74.458 C 182.954 74.692,191.411 74.759,195.391 74.556 L 197.533 74.447 197.428 71.848 C 197.371 70.419,197.250 67.938,197.160 66.333 C 196.981 63.159,196.563 52.574,196.405 47.250 C 196.255 42.151,195.756 30.141,194.759 7.583 C 194.622 4.467,194.507 1.485,194.505 0.958 C 194.500 -0.036,194.296 -0.254,193.801 0.208 M196.492 75.672 C 195.992 76.045,195.403 76.477,195.183 76.633 C 194.963 76.789,194.661 77.029,194.514 77.167 C 194.366 77.304,194.035 77.553,193.778 77.719 C 193.521 77.886,193.185 78.126,193.031 78.253 C 191.830 79.241,188.801 81.563,182.163 86.583 C 177.920 89.792,174.140 92.679,173.762 93.000 C 173.384 93.321,172.611 93.921,172.043 94.333 C 170.798 95.237,170.814 95.023,171.880 96.517 C 177.122 103.864,179.297 112.345,178.330 121.667 C 176.461 139.680,160.759 153.826,142.625 153.833 L 141.167 153.833 141.167 163.557 L 141.167 173.280 136.390 173.390 C 133.762 173.450,130.612 173.500,129.390 173.500 L 127.168 173.500 127.126 150.936 L 127.083 128.372 120.167 133.604 C 116.362 136.481,111.836 139.904,110.108 141.209 C 108.379 142.515,103.804 145.976,99.941 148.900 C 96.078 151.823,91.390 155.367,89.524 156.775 L 86.131 159.333 98.065 159.333 L 110.000 159.333 110.000 166.418 L 110.000 173.502 88.587 173.499 L 67.174 173.495 65.546 174.739 C 64.650 175.423,63.504 176.291,63.000 176.669 C 62.496 177.046,61.108 178.097,59.917 179.003 C 58.725 179.910,57.317 180.974,56.788 181.367 C 56.259 181.761,55.386 182.421,54.847 182.833 C 54.308 183.246,53.369 183.958,52.760 184.417 C 52.150 184.875,51.561 185.325,51.450 185.417 C 51.339 185.508,50.349 186.257,49.249 187.080 C 48.150 187.903,47.150 188.672,47.029 188.789 C 46.907 188.906,46.658 189.082,46.474 189.180 C 46.291 189.278,46.016 189.472,45.862 189.610 C 45.629 189.820,42.834 191.959,41.068 193.279 C 38.459 195.229,36.766 196.510,36.000 197.114 C 34.856 198.015,34.932 197.958,33.833 198.745 C 33.329 199.107,32.138 200.006,31.186 200.743 L 29.455 202.083 75.116 202.167 L 120.777 202.250 119.151 205.500 C 115.996 211.807,114.190 215.449,112.749 218.417 C 110.852 222.324,108.410 227.332,106.136 231.975 C 104.150 236.032,104.166 235.967,105.202 235.677 C 106.071 235.434,108.527 234.796,110.667 234.256 C 111.537 234.036,112.850 233.698,113.583 233.504 C 114.317 233.311,115.479 233.011,116.167 232.839 C 116.854 232.667,118.317 232.291,119.417 232.003 C 120.517 231.716,121.979 231.340,122.667 231.168 C 125.340 230.499,130.262 229.213,130.500 229.122 C 130.637 229.069,131.237 228.912,131.833 228.773 C 134.262 228.204,139.324 226.907,141.250 226.360 C 144.269 225.503,146.602 224.892,161.083 221.169 C 176.525 217.199,178.667 216.648,184.125 215.241 C 190.959 213.479,193.004 212.951,197.333 211.829 C 199.854 211.176,202.892 210.426,204.083 210.162 C 205.275 209.899,206.813 209.535,207.500 209.354 C 208.188 209.173,210.250 208.639,212.083 208.167 C 213.917 207.695,215.979 207.161,216.667 206.981 C 217.354 206.801,218.629 206.476,219.500 206.260 C 220.371 206.043,222.433 205.514,224.083 205.084 C 227.678 204.147,229.711 203.624,231.833 203.088 C 232.704 202.868,233.867 202.572,234.417 202.430 C 235.312 202.199,242.734 202.172,305.292 202.169 C 343.723 202.168,375.167 202.127,375.167 202.078 C 375.167 201.987,374.477 200.305,374.076 199.417 C 373.862 198.943,373.613 198.320,372.828 196.292 C 372.642 195.810,372.423 195.267,372.342 195.083 C 372.260 194.900,372.009 194.338,371.783 193.833 C 371.558 193.329,371.318 192.729,371.250 192.500 C 371.183 192.271,370.949 191.687,370.730 191.203 C 370.512 190.719,370.333 190.281,370.333 190.229 C 370.333 190.176,370.227 189.897,370.096 189.609 C 369.530 188.357,368.833 186.685,368.833 186.581 C 368.833 186.518,368.726 186.231,368.595 185.942 C 368.463 185.653,368.086 184.742,367.755 183.917 C 367.425 183.092,367.083 182.267,366.996 182.083 C 366.908 181.900,366.432 180.737,365.937 179.500 C 364.574 176.093,363.171 172.623,363.005 172.250 C 362.199 170.439,361.984 169.828,362.092 169.653 C 362.167 169.532,362.149 169.491,362.049 169.553 C 361.851 169.676,361.914 169.818,359.331 163.500 C 358.225 160.796,357.026 157.871,356.667 157.000 C 355.741 154.756,352.380 146.565,350.170 141.167 C 349.138 138.646,347.924 135.683,347.471 134.583 C 347.019 133.483,346.357 131.871,346.001 131.000 C 345.644 130.129,344.495 127.354,343.447 124.833 C 342.399 122.313,341.489 120.081,341.426 119.875 L 341.311 119.500 335.780 119.522 C 332.739 119.534,329.116 119.590,327.730 119.647 L 325.211 119.750 325.693 121.000 C 326.405 122.846,326.732 123.701,327.574 125.917 C 327.992 127.017,328.479 128.292,328.655 128.750 C 328.832 129.208,329.164 130.071,329.393 130.667 C 329.780 131.672,339.179 156.246,340.103 158.667 C 340.330 159.262,340.623 160.012,340.754 160.333 C 340.885 160.654,341.417 162.042,341.938 163.417 C 342.458 164.792,343.289 166.967,343.786 168.250 C 344.283 169.533,344.827 170.958,344.995 171.417 C 345.163 171.875,345.421 172.529,345.567 172.870 C 345.714 173.210,345.833 173.529,345.833 173.578 C 345.833 173.627,342.466 173.667,338.351 173.667 L 330.868 173.667 330.273 172.125 C 329.945 171.277,328.860 168.446,327.860 165.833 L 326.043 161.083 309.019 161.041 L 291.995 160.998 291.751 161.541 C 291.617 161.839,291.163 162.983,290.741 164.083 C 290.319 165.183,289.798 166.533,289.583 167.083 C 289.367 167.633,288.771 169.171,288.259 170.500 C 287.747 171.829,287.256 173.085,287.167 173.292 L 287.007 173.667 279.508 173.667 L 272.008 173.667 272.193 173.208 C 272.574 172.261,273.367 170.220,273.665 169.417 C 273.835 168.958,274.430 167.402,274.987 165.958 C 275.544 164.515,276.456 162.152,277.013 160.708 C 277.570 159.265,278.165 157.708,278.335 157.250 C 278.505 156.792,278.878 155.817,279.164 155.083 C 279.450 154.350,279.855 153.300,280.064 152.750 C 280.795 150.830,283.191 144.575,283.591 143.541 C 284.204 141.958,284.782 140.452,285.255 139.207 C 285.490 138.589,285.789 137.821,285.919 137.500 C 286.048 137.179,286.538 135.904,287.006 134.667 C 287.474 133.429,288.038 131.947,288.259 131.374 C 289.010 129.427,289.494 128.167,289.922 127.041 C 290.157 126.422,290.456 125.654,290.586 125.333 C 291.356 123.435,292.668 119.779,292.602 119.713 C 292.560 119.671,284.281 119.691,274.206 119.759 L 255.887 119.882 255.777 129.635 C 255.716 134.999,255.667 146.952,255.667 156.196 L 255.667 173.004 248.708 172.960 L 241.750 172.917 241.708 146.458 L 241.666 120.000 224.249 120.000 L 206.833 120.000 206.833 146.667 L 206.833 173.333 199.833 173.333 L 192.833 173.333 192.833 126.833 L 192.833 80.333 195.322 80.333 L 197.812 80.333 197.717 77.875 C 197.599 74.787,197.622 74.829,196.492 75.672 M183.625 75.791 C 184.381 75.822,185.619 75.822,186.375 75.791 C 187.131 75.760,186.512 75.735,185.000 75.735 C 183.487 75.735,182.869 75.760,183.625 75.791 M153.314 108.521 C 149.795 111.186,145.623 114.345,144.042 115.539 L 141.167 117.711 141.167 128.872 L 141.167 140.033 143.125 139.919 C 158.181 139.043,168.103 124.795,163.553 110.583 C 162.839 108.355,160.598 104.222,159.853 103.762 C 159.775 103.714,156.832 105.855,153.314 108.521 M307.741 120.042 C 307.679 120.248,307.380 121.054,307.078 121.833 C 306.776 122.612,306.181 124.150,305.755 125.250 C 305.329 126.350,304.727 127.888,304.417 128.667 C 304.106 129.446,303.581 130.796,303.248 131.667 C 302.514 133.589,302.081 134.711,301.190 137.000 C 300.815 137.962,299.800 140.587,298.935 142.833 L 297.361 146.917 308.874 146.959 C 315.206 146.983,320.422 146.967,320.466 146.923 C 320.536 146.853,319.480 144.003,317.219 138.167 C 315.822 134.560,314.955 132.309,314.394 130.833 C 314.168 130.237,313.914 129.600,313.831 129.417 C 313.748 129.233,313.409 128.371,313.078 127.500 C 312.748 126.629,312.300 125.467,312.085 124.917 C 310.586 121.097,310.167 119.987,310.167 119.837 C 310.167 119.443,307.865 119.637,307.741 120.042 M72.530 182.183 C 73.100 182.488,71.677 183.833,70.785 183.833 C 70.052 183.833,70.050 183.865,70.831 182.626 C 71.451 181.644,71.500 181.631,72.530 182.183 M160.253 182.095 L 160.879 182.357 160.155 183.095 C 159.551 183.711,159.326 183.833,158.799 183.833 C 158.028 183.833,158.029 183.869,158.774 182.747 C 159.458 181.717,159.404 181.741,160.253 182.095 M82.214 184.573 C 83.847 185.155,84.186 185.618,83.559 186.404 L 83.118 186.956 82.292 186.442 C 80.169 185.123,77.833 186.396,77.833 188.873 C 77.833 191.628,80.580 192.981,82.645 191.243 L 83.115 190.847 83.651 191.400 L 84.187 191.953 83.657 192.399 C 81.407 194.293,77.987 193.715,76.624 191.212 C 74.598 187.489,78.245 183.157,82.214 184.573 M91.480 184.608 C 96.106 186.102,95.263 193.070,90.410 193.459 C 87.459 193.696,85.411 191.832,85.421 188.917 C 85.432 185.685,88.362 183.601,91.480 184.608 M151.962 184.833 C 153.186 185.360,153.283 185.531,152.717 186.165 L 152.248 186.689 151.333 186.263 C 148.700 185.038,146.255 187.160,147.084 189.950 C 147.804 192.375,152.000 192.912,152.000 190.579 L 152.000 189.833 150.833 189.833 L 149.667 189.833 149.667 189.167 L 149.667 188.500 151.583 188.500 L 153.500 188.500 153.500 190.331 L 153.500 192.162 152.850 192.592 C 149.486 194.818,145.251 192.818,145.270 189.012 C 145.287 185.486,148.629 183.399,151.962 184.833 M211.359 184.759 C 212.306 185.093,212.703 185.461,212.497 185.813 C 211.981 186.694,211.947 186.704,210.980 186.254 C 209.797 185.704,208.948 185.703,208.399 186.253 C 207.704 186.948,208.116 187.658,209.417 188.006 C 211.746 188.630,212.508 189.096,212.839 190.100 C 213.561 192.289,211.439 193.926,208.633 193.344 C 207.755 193.161,206.161 192.320,206.172 192.045 C 206.189 191.632,207.047 190.949,207.309 191.141 C 208.959 192.344,211.333 192.271,211.333 191.016 C 211.333 190.355,210.932 190.071,209.415 189.660 C 207.197 189.058,206.500 188.422,206.500 187.000 C 206.500 184.852,208.720 183.828,211.359 184.759 M270.511 184.599 C 272.411 185.157,273.848 187.364,273.611 189.361 C 272.934 195.077,264.538 194.723,264.448 188.974 C 264.399 185.835,267.384 183.681,270.511 184.599 M324.500 184.933 C 326.579 186.064,327.427 188.634,326.430 190.776 L 326.029 191.636 326.431 192.014 C 326.947 192.498,326.937 192.672,326.365 193.220 L 325.897 193.668 325.429 193.180 L 324.962 192.692 324.273 193.054 C 322.070 194.212,319.027 193.116,318.002 190.795 C 316.231 186.785,320.623 182.823,324.500 184.933 M74.333 185.250 L 74.333 186.000 71.833 186.000 L 69.333 186.000 69.333 187.083 L 69.333 188.167 71.583 188.167 L 73.833 188.167 73.833 188.917 L 73.833 189.667 71.583 189.667 L 69.333 189.667 69.333 190.833 L 69.333 192.000 71.833 192.000 L 74.333 192.000 74.333 192.667 L 74.333 193.333 71.000 193.333 L 67.667 193.333 67.667 188.917 L 67.667 184.500 71.000 184.500 L 74.333 184.500 74.333 185.250 M98.333 188.167 L 98.333 191.833 100.583 191.833 L 102.833 191.833 102.833 192.583 L 102.833 193.333 99.750 193.333 L 96.667 193.333 96.667 188.917 L 96.667 184.500 97.500 184.500 L 98.333 184.500 98.333 188.167 M111.333 185.250 L 111.333 186.000 108.833 186.000 L 106.333 186.000 106.333 187.083 L 106.333 188.167 108.500 188.167 L 110.667 188.167 110.667 188.917 L 110.667 189.667 108.500 189.667 L 106.333 189.667 106.333 190.833 L 106.333 192.000 108.833 192.000 L 111.333 192.000 111.333 192.667 L 111.333 193.333 108.000 193.333 L 104.667 193.333 104.667 188.917 L 104.667 184.500 108.000 184.500 L 111.333 184.500 111.333 185.250 M122.835 184.935 C 125.858 186.320,126.322 190.505,123.667 192.435 C 122.654 193.171,121.890 193.333,119.426 193.333 L 117.333 193.333 117.333 188.901 L 117.333 184.469 119.708 184.529 C 121.669 184.579,122.214 184.650,122.835 184.935 M128.976 185.816 C 128.908 187.303,128.684 187.692,127.710 188.013 C 126.809 188.310,126.425 187.560,127.308 187.227 C 127.881 187.011,128.142 186.333,127.651 186.333 C 127.377 186.333,127.333 186.207,127.333 185.417 L 127.333 184.500 128.184 184.500 L 129.035 184.500 128.976 185.816 M132.833 188.917 L 132.833 193.333 132.000 193.333 L 131.167 193.333 131.167 189.028 C 131.167 184.250,131.115 184.500,132.111 184.500 L 132.833 184.500 132.833 188.917 M139.167 187.428 L 141.417 190.351 141.462 187.425 L 141.508 184.500 142.337 184.500 L 143.167 184.500 143.167 188.917 L 143.167 193.333 142.458 193.331 C 141.753 193.329,141.744 193.321,140.333 191.478 C 139.554 190.460,138.504 189.102,138.000 188.460 L 137.083 187.293 137.038 190.313 L 136.992 193.333 136.246 193.333 L 135.500 193.333 135.500 188.917 L 135.500 184.500 136.208 184.503 L 136.917 184.506 139.167 187.428 M162.333 185.250 L 162.333 186.000 159.833 186.000 L 157.333 186.000 157.333 187.083 L 157.333 188.167 159.500 188.167 L 161.667 188.167 161.667 188.917 L 161.667 189.667 159.500 189.667 L 157.333 189.667 157.333 190.833 L 157.333 192.000 159.833 192.000 L 162.333 192.000 162.333 192.667 L 162.333 193.333 159.083 193.333 L 155.833 193.333 155.833 188.917 L 155.833 184.500 159.083 184.500 L 162.333 184.500 162.333 185.250 M168.167 187.436 L 170.417 190.362 170.500 187.473 L 170.583 184.583 171.375 184.533 L 172.167 184.482 172.167 188.908 L 172.167 193.333 171.458 193.329 L 170.750 193.325 168.417 190.303 L 166.083 187.281 166.038 190.307 L 165.992 193.333 165.246 193.333 L 164.500 193.333 164.500 188.917 L 164.500 184.500 165.208 184.505 L 165.917 184.509 168.167 187.436 M176.333 188.917 L 176.333 193.333 175.500 193.333 L 174.667 193.333 174.667 188.917 L 174.667 184.500 175.500 184.500 L 176.333 184.500 176.333 188.917 M185.500 185.250 L 185.500 186.000 183.000 186.000 L 180.500 186.000 180.500 187.083 L 180.500 188.167 182.667 188.167 L 184.833 188.167 184.833 188.917 L 184.833 189.667 182.667 189.667 L 180.500 189.667 180.500 190.833 L 180.500 192.000 183.000 192.000 L 185.500 192.000 185.500 192.667 L 185.500 193.333 182.167 193.333 L 178.833 193.333 178.833 188.917 L 178.833 184.500 182.167 184.500 L 185.500 184.500 185.500 185.250 M189.001 187.208 C 189.002 191.075,189.302 191.799,190.967 191.959 C 192.922 192.147,193.227 191.594,193.333 187.667 L 193.417 184.583 194.208 184.533 L 195.000 184.482 195.000 187.377 C 195.000 192.096,194.141 193.498,191.250 193.498 C 188.274 193.498,187.500 192.294,187.500 187.668 L 187.500 184.500 188.250 184.500 L 189.000 184.500 189.001 187.208 M203.081 184.917 C 205.002 185.880,205.031 188.688,203.130 189.754 L 202.520 190.096 202.897 190.590 C 203.104 190.861,203.631 191.590,204.068 192.208 L 204.863 193.333 203.890 193.328 L 202.917 193.323 201.917 191.833 L 200.917 190.344 199.958 190.338 L 199.000 190.333 199.000 191.833 L 199.000 193.333 198.167 193.333 L 197.333 193.333 197.333 188.902 L 197.333 184.470 199.875 184.527 C 202.009 184.574,202.523 184.637,203.081 184.917 M225.583 185.250 L 225.583 185.917 223.125 185.963 L 220.667 186.009 220.667 187.088 L 220.667 188.167 222.833 188.167 L 225.000 188.167 225.000 188.917 L 225.000 189.667 222.833 189.667 L 220.667 189.667 220.667 190.833 L 220.667 192.000 223.167 192.000 L 225.667 192.000 225.667 192.667 L 225.667 193.333 222.333 193.333 L 219.000 193.333 219.000 188.913 L 219.000 184.493 222.292 184.538 L 225.583 184.583 225.583 185.250 M231.452 187.453 L 233.750 190.406 233.796 187.453 L 233.841 184.500 234.587 184.500 L 235.333 184.500 235.333 188.917 L 235.333 193.333 234.693 193.333 C 234.061 193.333,234.026 193.298,231.735 190.338 L 229.417 187.342 229.371 190.338 L 229.326 193.333 228.496 193.333 L 227.667 193.333 227.667 188.917 L 227.667 184.500 228.410 184.500 L 229.153 184.500 231.452 187.453 M243.628 188.958 L 243.672 193.333 242.836 193.333 L 242.000 193.333 242.000 188.908 L 242.000 184.482 242.792 184.533 L 243.583 184.583 243.628 188.958 M249.941 187.496 L 252.250 190.491 252.295 187.496 L 252.341 184.500 253.087 184.500 L 253.833 184.500 253.833 188.917 L 253.833 193.333 253.172 193.333 C 252.510 193.333,252.509 193.332,250.130 190.254 L 247.750 187.175 247.705 190.254 L 247.659 193.333 246.913 193.333 L 246.167 193.333 246.167 188.917 L 246.167 184.500 246.899 184.500 L 247.631 184.500 249.941 187.496 M262.968 185.292 L 263.019 186.000 260.510 186.000 L 258.000 186.000 258.000 187.167 L 258.000 188.333 260.167 188.333 L 262.333 188.333 262.333 189.083 L 262.333 189.833 260.167 189.833 L 258.000 189.833 258.000 191.583 L 258.000 193.333 257.167 193.333 L 256.333 193.333 256.333 188.913 L 256.333 184.493 259.625 184.538 L 262.917 184.583 262.968 185.292 M280.737 184.660 C 283.591 185.321,283.758 188.429,281.029 190.103 C 281.000 190.121,281.469 190.817,282.071 191.650 C 283.387 193.468,283.372 193.333,282.255 193.333 L 281.343 193.333 280.296 191.836 L 279.250 190.340 278.292 190.336 L 277.333 190.333 277.333 191.833 L 277.333 193.333 276.476 193.333 L 275.618 193.333 275.726 192.058 C 275.785 191.357,275.833 189.369,275.833 187.642 L 275.833 184.500 277.958 184.504 C 279.127 184.506,280.378 184.576,280.737 184.660 M287.186 185.125 C 288.364 187.063,289.368 188.498,289.494 188.421 C 289.572 188.372,290.187 187.468,290.860 186.411 L 292.083 184.490 292.917 184.537 L 293.750 184.583 293.794 188.958 L 293.839 193.333 293.007 193.333 L 292.174 193.333 292.129 190.309 L 292.083 187.285 290.786 189.232 C 290.073 190.303,289.420 191.137,289.335 191.084 C 289.250 191.032,288.633 190.155,287.965 189.136 L 286.750 187.283 286.705 190.308 L 286.659 193.333 285.913 193.333 L 285.167 193.333 285.167 188.917 L 285.167 184.500 285.986 184.500 C 286.755 184.500,286.830 184.539,287.186 185.125 M302.044 187.167 C 305.166 194.250,304.910 193.365,303.818 193.300 L 302.969 193.250 302.583 192.333 L 302.196 191.417 300.122 191.370 L 298.048 191.324 297.612 192.329 L 297.176 193.333 296.342 193.333 C 295.545 193.333,295.515 193.317,295.655 192.958 C 295.892 192.350,298.765 185.807,299.097 185.117 C 299.391 184.509,299.431 184.486,300.154 184.534 L 300.905 184.583 302.044 187.167 M311.833 185.250 L 311.833 186.000 310.500 186.000 L 309.167 186.000 309.167 189.667 L 309.167 193.333 308.333 193.333 L 307.500 193.333 307.500 189.667 L 307.500 186.000 306.083 186.000 L 304.667 186.000 304.667 185.250 L 304.667 184.500 308.250 184.500 L 311.833 184.500 311.833 185.250 M315.500 188.917 L 315.500 193.333 314.667 193.333 L 313.833 193.333 313.833 188.917 L 313.833 184.500 314.667 184.500 L 315.500 184.500 315.500 188.917 M330.364 187.458 C 330.451 191.266,330.810 192.000,332.583 192.000 C 334.306 192.000,334.564 191.463,334.667 187.667 L 334.750 184.583 335.542 184.533 L 336.333 184.482 336.332 187.616 C 336.329 192.256,335.547 193.495,332.615 193.499 C 329.618 193.503,328.833 192.263,328.833 187.522 L 328.833 184.500 329.565 184.500 L 330.296 184.500 330.364 187.458 M345.333 185.250 L 345.333 186.000 342.833 186.000 L 340.333 186.000 340.333 187.078 L 340.333 188.157 342.542 188.203 L 344.750 188.250 344.750 188.917 L 344.750 189.583 342.542 189.630 L 340.333 189.676 340.333 190.838 L 340.333 192.000 342.833 192.000 L 345.333 192.000 345.333 192.667 L 345.333 193.333 342.000 193.333 L 338.667 193.333 338.667 188.917 L 338.667 184.500 342.000 184.500 L 345.333 184.500 345.333 185.250 M88.917 186.084 C 86.061 187.093,86.683 191.721,89.707 191.958 C 93.112 192.225,94.114 187.226,90.886 186.075 C 90.083 185.788,89.747 185.790,88.917 186.084 M268.152 185.993 C 265.178 186.894,265.591 191.667,268.669 191.963 C 269.721 192.064,270.541 191.771,271.151 191.075 C 273.188 188.756,271.041 185.117,268.152 185.993 M321.250 186.078 C 318.828 186.943,318.676 190.517,321.012 191.708 C 321.651 192.034,322.587 192.086,323.253 191.832 L 323.695 191.664 322.973 191.058 C 322.176 190.389,322.163 190.288,322.786 189.632 L 323.215 189.181 323.981 189.855 L 324.747 190.530 324.975 189.973 C 325.902 187.705,323.559 185.254,321.250 186.078 M119.000 188.896 L 119.000 191.833 120.392 191.833 C 122.541 191.833,123.522 191.011,123.624 189.123 C 123.733 187.106,122.737 186.154,120.389 186.031 L 119.000 185.958 119.000 188.896 M199.000 187.401 L 199.000 188.833 200.491 188.833 C 202.303 188.833,202.900 188.487,202.900 187.435 C 202.900 186.374,202.438 186.094,200.579 186.026 L 199.000 185.968 199.000 187.401 M277.333 187.417 L 277.333 188.833 278.761 188.833 C 280.625 188.833,281.316 188.467,281.328 187.472 C 281.342 186.341,280.746 186.000,278.758 186.000 L 277.333 186.000 277.333 187.417 M299.373 188.128 L 298.685 189.750 300.030 189.799 C 300.770 189.826,301.403 189.819,301.437 189.785 C 301.488 189.734,300.224 186.670,300.100 186.545 C 300.079 186.523,299.752 187.236,299.373 188.128 " stroke="none" fill="#045a80" fill-rule="evenodd"></path><path id="path2" d="M290.738 4.335 C 289.278 5.435,287.971 6.429,287.833 6.543 C 287.696 6.657,287.171 7.049,286.667 7.415 C 286.162 7.780,285.675 8.139,285.583 8.212 C 285.346 8.403,282.170 10.836,281.509 11.333 C 281.205 11.563,280.804 11.881,280.619 12.042 C 280.434 12.202,280.233 12.333,280.173 12.333 C 280.112 12.333,279.917 12.465,279.739 12.625 C 279.491 12.848,276.378 15.218,275.253 16.040 C 275.160 16.108,274.671 16.486,274.167 16.880 C 272.921 17.854,269.393 20.525,268.946 20.833 C 268.746 20.970,268.208 21.370,267.750 21.721 C 267.292 22.073,266.054 23.010,265.000 23.804 C 263.946 24.599,263.046 25.286,263.000 25.333 C 262.871 25.463,259.083 28.328,257.939 29.161 C 257.377 29.571,255.888 30.696,254.631 31.661 C 253.374 32.627,251.874 33.764,251.297 34.189 C 250.721 34.615,248.464 36.321,246.282 37.981 C 244.099 39.642,242.262 40.999,242.198 40.998 C 242.106 40.997,240.702 40.004,239.914 39.383 C 239.821 39.310,238.884 38.606,237.831 37.820 C 236.778 37.033,235.325 35.945,234.601 35.403 C 233.878 34.860,232.753 34.022,232.101 33.540 C 231.450 33.057,230.801 32.570,230.661 32.456 C 230.520 32.343,229.508 31.575,228.411 30.750 C 227.315 29.925,226.272 29.119,226.094 28.958 C 225.916 28.798,225.715 28.667,225.647 28.667 C 225.579 28.667,225.425 28.570,225.304 28.452 C 225.136 28.289,217.873 22.821,215.750 21.261 C 215.567 21.126,214.554 20.356,213.500 19.549 C 210.936 17.587,210.736 17.463,210.536 17.715 C 210.448 17.826,209.832 19.042,209.168 20.417 C 208.504 21.792,207.228 24.417,206.333 26.250 C 205.438 28.083,204.068 30.896,203.290 32.500 C 202.511 34.104,201.087 37.029,200.125 39.000 C 199.163 40.971,197.942 43.483,197.413 44.583 L 196.450 46.583 196.477 48.083 C 196.492 48.908,196.577 50.933,196.666 52.583 C 196.755 54.233,196.943 58.583,197.084 62.250 C 197.356 69.350,197.630 74.686,197.727 74.782 C 197.759 74.815,198.452 74.331,199.268 73.708 C 200.083 73.085,203.975 70.144,207.917 67.173 C 211.858 64.203,215.983 61.087,217.083 60.250 C 218.183 59.413,221.821 56.673,225.167 54.160 C 228.512 51.648,231.325 49.531,231.417 49.457 C 231.508 49.383,232.221 48.839,233.000 48.249 L 234.417 47.176 242.193 47.171 L 249.969 47.167 251.276 48.143 C 254.876 50.833,275.455 66.173,279.167 68.934 C 281.504 70.673,283.913 72.448,284.520 72.880 L 285.624 73.666 304.069 73.555 C 315.929 73.484,322.551 73.386,322.616 73.280 C 322.673 73.188,322.633 73.168,322.526 73.234 C 322.420 73.300,322.322 73.255,322.308 73.135 C 322.256 72.688,322.220 72.569,321.946 71.938 C 321.793 71.583,321.667 71.189,321.667 71.063 C 321.667 70.937,321.604 70.833,321.528 70.833 C 321.451 70.833,321.388 70.740,321.387 70.625 C 321.386 70.510,321.229 70.077,321.038 69.661 C 320.847 69.245,320.638 68.683,320.573 68.411 C 320.508 68.139,320.355 67.729,320.233 67.500 C 320.110 67.271,319.888 66.783,319.738 66.417 C 319.101 64.862,317.334 60.512,316.996 59.667 C 316.794 59.163,316.525 58.525,316.397 58.250 C 316.110 57.630,315.033 54.958,313.525 51.125 C 312.977 49.733,311.888 47.073,311.665 46.583 C 311.355 45.901,309.833 42.169,309.833 42.091 C 309.833 42.046,309.646 41.600,309.417 41.099 C 309.188 40.598,309.000 40.140,309.000 40.080 C 309.000 39.986,308.261 38.199,307.829 37.250 C 307.745 37.067,307.533 36.542,307.357 36.083 C 307.055 35.295,306.265 33.353,304.952 30.167 C 304.631 29.387,303.945 27.700,303.428 26.417 C 302.910 25.133,302.419 23.933,302.335 23.750 C 302.252 23.567,301.914 22.742,301.586 21.917 C 301.257 21.092,300.920 20.267,300.836 20.083 C 300.752 19.900,300.262 18.701,299.747 17.418 C 299.232 16.135,298.708 14.860,298.583 14.585 C 298.457 14.309,297.710 12.471,296.922 10.500 C 296.133 8.529,295.420 6.767,295.337 6.583 C 295.126 6.116,294.274 4.071,293.898 3.126 C 293.502 2.130,293.826 2.006,290.738 4.335 M278.572 85.417 C 278.572 87.617,278.596 88.494,278.625 87.365 C 278.653 86.237,278.653 84.437,278.624 83.365 C 278.595 82.294,278.572 83.217,278.572 85.417 M143.042 95.115 C 143.202 95.157,143.465 95.157,143.625 95.115 C 143.785 95.073,143.654 95.039,143.333 95.039 C 143.012 95.039,142.881 95.073,143.042 95.115 M81.579 108.250 C 81.579 115.125,81.600 117.962,81.625 114.554 C 81.650 111.146,81.650 105.521,81.625 102.054 C 81.600 98.587,81.579 101.375,81.579 108.250 M206.747 153.083 C 206.747 164.267,206.767 168.817,206.792 163.195 C 206.816 157.574,206.816 148.424,206.792 142.862 C 206.767 137.300,206.747 141.900,206.747 153.083 M81.581 147.000 L 81.583 159.417 83.735 159.464 C 85.813 159.509,85.903 159.496,86.319 159.108 C 86.556 158.886,87.725 157.972,88.917 157.077 C 90.108 156.181,91.280 155.291,91.521 155.099 C 91.761 154.907,92.168 154.600,92.425 154.417 C 93.794 153.438,94.182 153.512,87.626 153.506 L 81.669 153.500 81.624 144.042 C 81.592 137.270,81.580 138.110,81.581 147.000 M54.167 153.842 C 39.835 153.973,40.500 153.957,40.500 154.167 C 40.500 154.258,40.578 154.333,40.674 154.333 C 40.863 154.333,41.200 154.583,41.637 155.048 C 41.791 155.211,42.517 155.736,43.250 156.214 C 43.983 156.692,45.083 157.458,45.693 157.917 C 46.303 158.375,47.187 159.012,47.656 159.333 C 48.126 159.654,48.868 160.179,49.305 160.500 C 49.742 160.821,50.216 161.158,50.358 161.250 C 50.803 161.536,51.879 162.291,52.833 162.986 C 53.337 163.353,54.125 163.915,54.583 164.234 C 55.704 165.015,58.591 167.045,59.417 167.633 C 59.783 167.894,60.646 168.501,61.333 168.982 C 62.021 169.462,63.258 170.335,64.083 170.921 C 64.908 171.507,66.015 172.288,66.542 172.656 L 67.500 173.326 67.500 163.496 L 67.500 153.667 66.875 153.700 C 66.531 153.718,60.813 153.782,54.167 153.842 M98.238 188.250 C 98.238 190.267,98.262 191.069,98.291 190.032 C 98.320 188.996,98.320 187.346,98.291 186.366 C 98.262 185.385,98.238 186.233,98.238 188.250 M338.739 189.000 C 338.739 191.429,338.763 192.423,338.791 191.208 C 338.820 189.994,338.820 188.006,338.791 186.792 C 338.763 185.577,338.739 186.571,338.739 189.000 M345.209 185.250 C 345.211 185.617,345.245 185.747,345.285 185.540 C 345.324 185.332,345.323 185.032,345.281 184.873 C 345.239 184.714,345.207 184.883,345.209 185.250 M109.425 202.884 C 109.970 203.278,111.017 204.015,111.750 204.521 C 112.483 205.027,114.040 206.129,115.210 206.970 C 116.379 207.812,117.405 208.500,117.489 208.500 C 117.611 208.500,120.667 202.469,120.667 202.230 C 120.667 202.195,117.914 202.167,114.550 202.167 L 108.433 202.167 109.425 202.884 M201.167 210.913 C 200.021 211.212,197.133 211.960,194.750 212.573 C 192.367 213.186,189.292 213.978,187.917 214.332 C 183.074 215.581,179.550 216.488,176.333 217.313 C 172.101 218.400,168.461 219.336,165.667 220.058 C 164.429 220.377,158.692 221.853,152.917 223.336 C 147.142 224.820,142.400 226.049,142.381 226.067 C 142.361 226.085,142.983 226.546,143.762 227.092 C 146.883 229.275,153.147 233.682,154.167 234.412 C 155.471 235.346,157.487 236.767,157.833 236.995 C 157.971 237.086,158.960 237.780,160.031 238.538 C 162.756 240.467,165.371 242.308,165.667 242.509 C 165.804 242.602,167.208 243.594,168.785 244.714 C 170.363 245.834,172.671 247.463,173.913 248.333 C 175.794 249.652,178.991 251.902,181.250 253.499 C 182.833 254.618,184.122 255.523,184.396 255.707 C 184.568 255.822,185.056 256.164,185.480 256.466 C 185.903 256.768,186.775 257.386,187.417 257.839 C 188.058 258.293,188.658 258.724,188.750 258.798 C 188.842 258.872,189.554 259.374,190.333 259.914 C 191.112 260.454,192.443 261.388,193.290 261.990 C 194.136 262.591,195.320 263.421,195.919 263.833 C 196.519 264.246,197.371 264.846,197.814 265.167 C 198.256 265.487,199.534 266.387,200.653 267.167 C 201.772 267.946,203.396 269.090,204.262 269.708 C 205.127 270.327,205.915 270.833,206.012 270.833 C 206.196 270.833,206.153 269.145,205.828 263.583 C 205.737 262.025,205.552 257.712,205.417 254.000 C 205.282 250.287,205.131 246.725,205.080 246.083 C 205.030 245.442,204.836 241.242,204.648 236.750 C 203.810 216.740,203.540 210.414,203.521 210.375 C 203.488 210.309,203.368 210.337,201.167 210.913 " stroke="none" fill="#049fda" fill-rule="evenodd"></path><path id="path3" d="M233.000 48.249 C 232.221 48.839,231.508 49.383,231.417 49.456 C 231.325 49.530,229.262 51.084,226.833 52.909 C 222.152 56.426,213.627 62.855,205.500 68.997 C 202.796 71.041,199.919 73.209,199.108 73.815 L 197.632 74.917 197.733 76.401 C 197.788 77.217,197.833 78.436,197.833 79.109 L 197.833 80.333 202.333 80.333 L 206.833 80.333 206.833 81.000 L 206.833 81.667 212.833 81.667 C 216.722 81.667,218.833 81.608,218.833 81.500 C 218.833 81.390,228.886 81.333,248.657 81.333 C 268.359 81.333,278.515 81.390,278.583 81.500 C 278.650 81.608,281.743 81.667,287.317 81.667 L 295.947 81.667 300.317 84.939 C 302.931 86.897,304.748 88.152,304.839 88.061 C 304.922 87.978,305.372 86.899,305.838 85.663 C 306.305 84.428,306.786 83.192,306.907 82.917 C 307.028 82.642,307.221 82.117,307.335 81.750 C 307.450 81.383,307.599 81.008,307.666 80.917 C 307.734 80.825,307.924 80.337,308.088 79.833 C 308.253 79.329,308.519 78.623,308.680 78.263 L 308.972 77.610 309.252 78.263 C 309.406 78.623,309.670 79.292,309.838 79.750 C 310.007 80.208,310.364 81.146,310.632 81.833 C 310.901 82.521,311.592 84.321,312.169 85.833 C 312.746 87.346,313.435 89.146,313.701 89.833 C 314.496 91.894,314.912 92.985,315.672 95.009 L 316.395 96.935 318.072 98.193 C 318.995 98.885,321.850 101.011,324.417 102.917 C 326.983 104.823,329.482 106.690,329.969 107.066 C 330.455 107.442,331.013 107.862,331.208 108.000 C 331.472 108.186,332.228 108.271,334.177 108.333 C 337.065 108.425,336.901 108.500,336.361 107.333 C 336.212 107.013,336.077 106.638,336.060 106.500 C 336.043 106.362,335.565 105.125,334.999 103.750 C 333.761 100.745,331.868 96.113,329.754 90.917 C 328.896 88.808,327.960 86.521,327.674 85.833 C 327.387 85.146,326.887 83.908,326.562 83.083 C 326.236 82.258,325.869 81.358,325.746 81.083 C 325.407 80.327,324.367 77.784,323.640 75.935 C 323.283 75.029,322.938 74.204,322.873 74.102 C 322.808 74.000,322.753 73.879,322.751 73.833 C 322.739 73.610,322.279 72.665,322.214 72.730 C 322.173 72.771,322.217 72.949,322.311 73.125 C 322.479 73.439,322.160 73.447,304.053 73.555 L 285.624 73.666 284.520 72.880 C 283.913 72.448,281.504 70.673,279.167 68.934 C 275.455 66.173,254.876 50.833,251.276 48.143 L 249.969 47.167 242.193 47.171 L 234.417 47.176 233.000 48.249 M196.709 54.750 C 196.711 55.117,196.745 55.247,196.785 55.040 C 196.824 54.832,196.823 54.532,196.781 54.373 C 196.739 54.214,196.707 54.383,196.709 54.750 M196.872 58.500 C 196.872 58.821,196.906 58.952,196.948 58.792 C 196.990 58.631,196.990 58.369,196.948 58.208 C 196.906 58.048,196.872 58.179,196.872 58.500 M197.542 74.083 C 197.544 74.450,197.578 74.580,197.618 74.373 C 197.658 74.166,197.656 73.866,197.615 73.706 C 197.573 73.547,197.540 73.717,197.542 74.083 M278.570 92.583 C 278.570 94.417,278.594 95.189,278.624 94.301 C 278.654 93.412,278.654 91.912,278.624 90.967 C 278.595 90.023,278.570 90.750,278.570 92.583 M167.833 91.917 C 168.424 92.513,168.945 93.000,168.990 93.000 C 169.036 93.000,168.591 92.513,168.000 91.917 C 167.409 91.321,166.889 90.833,166.843 90.833 C 166.797 90.833,167.243 91.321,167.833 91.917 M141.542 95.119 C 141.794 95.158,142.206 95.158,142.458 95.119 C 142.710 95.081,142.504 95.050,142.000 95.050 C 141.496 95.050,141.290 95.081,141.542 95.119 M141.203 112.302 C 141.175 116.385,141.211 117.492,141.371 117.393 C 141.584 117.262,145.201 114.504,146.618 113.393 C 147.069 113.039,147.620 112.619,147.844 112.458 C 149.013 111.617,149.223 111.678,145.130 111.672 L 141.343 111.667 141.291 109.375 C 141.263 108.115,141.223 109.432,141.203 112.302 M107.333 112.009 C 100.688 112.070,92.194 112.130,88.458 112.143 L 81.667 112.167 81.667 116.417 L 81.667 120.667 95.833 120.667 L 110.000 120.667 110.000 127.667 L 110.000 134.667 95.833 134.667 L 81.667 134.667 81.667 144.083 L 81.667 153.500 87.593 153.500 C 91.658 153.500,93.486 153.555,93.412 153.674 C 93.353 153.769,94.530 152.919,96.028 151.785 C 97.525 150.651,100.362 148.501,102.333 147.008 C 104.304 145.514,107.342 143.215,109.083 141.898 C 110.825 140.580,114.575 137.738,117.417 135.581 C 120.258 133.423,123.612 130.892,124.869 129.954 L 127.154 128.250 127.160 120.042 L 127.167 111.833 123.292 111.866 C 121.160 111.884,113.979 111.949,107.333 112.009 M54.667 112.447 C 53.115 112.600,20.407 112.764,20.311 112.619 C 20.253 112.532,20.124 112.600,20.025 112.772 C 19.925 112.943,19.841 113.024,19.838 112.952 C 19.834 112.830,19.666 112.942,19.097 113.450 C 18.974 113.561,18.838 113.616,18.796 113.574 C 18.754 113.531,18.516 113.685,18.268 113.915 C 18.019 114.145,17.711 114.333,17.583 114.333 C 17.455 114.333,17.283 114.453,17.202 114.598 C 17.120 114.744,16.985 114.868,16.902 114.873 C 16.818 114.879,16.487 115.048,16.167 115.248 C 15.077 115.928,12.251 117.749,12.083 117.880 C 11.992 117.951,11.204 118.458,10.333 119.006 C 9.462 119.553,8.637 120.077,8.500 120.170 C 7.875 120.592,5.035 122.426,2.833 123.831 C -0.385 125.883,-0.228 125.634,1.117 126.553 C 2.241 127.322,7.070 130.733,7.795 131.271 C 8.003 131.425,9.015 132.139,10.045 132.858 C 11.074 133.577,12.067 134.272,12.250 134.403 C 13.324 135.171,18.333 138.701,19.246 139.333 C 20.278 140.048,24.856 143.271,27.167 144.910 C 27.762 145.333,28.775 146.047,29.417 146.498 C 30.058 146.949,30.658 147.380,30.750 147.456 C 30.842 147.531,31.292 147.845,31.750 148.152 C 33.048 149.021,35.728 150.887,35.953 151.078 C 36.430 151.483,36.659 151.645,38.083 152.586 C 39.593 153.583,39.819 153.744,40.242 154.124 C 40.418 154.281,40.489 154.283,40.539 154.133 C 40.589 153.983,43.557 153.922,52.677 153.881 C 59.317 153.852,65.369 153.785,66.125 153.732 L 67.500 153.637 67.500 132.985 L 67.500 112.333 61.375 112.361 C 58.006 112.377,54.987 112.415,54.667 112.447 M339.167 114.051 C 339.167 114.156,340.407 117.204,344.164 126.333 C 345.782 130.263,347.407 134.220,348.031 135.750 C 348.406 136.667,348.886 137.829,349.099 138.333 C 349.311 138.837,349.869 140.188,350.338 141.333 C 350.807 142.479,351.331 143.717,351.502 144.083 C 351.674 144.450,351.860 144.938,351.917 145.167 C 352.183 146.244,350.929 146.159,367.224 146.207 C 383.484 146.254,382.260 146.330,380.833 145.371 C 380.604 145.217,380.356 144.994,380.281 144.875 C 380.207 144.757,380.076 144.703,379.990 144.756 C 379.904 144.810,379.833 144.780,379.833 144.691 C 379.833 144.601,379.440 144.242,378.958 143.893 C 378.477 143.543,377.998 143.180,377.893 143.087 C 377.789 142.993,377.527 142.790,377.310 142.634 C 376.735 142.222,374.502 140.544,371.000 137.894 C 369.304 136.611,367.242 135.058,366.417 134.443 C 365.592 133.827,364.279 132.841,363.500 132.251 C 362.721 131.660,361.296 130.588,360.333 129.867 C 354.974 125.856,350.730 122.670,350.583 122.549 C 350.492 122.474,349.518 121.738,348.419 120.914 C 347.321 120.091,346.275 119.285,346.096 119.125 C 345.917 118.965,345.715 118.833,345.647 118.833 C 345.579 118.833,345.425 118.738,345.304 118.622 C 345.182 118.506,344.596 118.055,344.000 117.621 C 343.404 117.187,342.841 116.776,342.748 116.708 C 342.656 116.639,342.210 116.283,341.758 115.917 C 341.306 115.550,340.770 115.138,340.566 115.000 C 340.363 114.862,339.964 114.576,339.681 114.364 C 339.398 114.151,339.167 114.010,339.167 114.051 M303.125 147.125 C 306.356 147.150,311.644 147.150,314.875 147.125 C 318.106 147.100,315.462 147.079,309.000 147.079 C 302.537 147.079,299.894 147.100,303.125 147.125 M117.381 185.417 C 117.382 185.875,117.415 186.043,117.453 185.789 C 117.491 185.536,117.490 185.161,117.451 184.956 C 117.411 184.751,117.380 184.958,117.381 185.417 M141.569 187.583 C 141.569 189.233,141.594 189.886,141.624 189.033 C 141.655 188.181,141.654 186.831,141.624 186.033 C 141.593 185.236,141.569 185.933,141.569 187.583 M178.906 189.000 C 178.906 191.429,178.929 192.423,178.958 191.208 C 178.986 189.994,178.986 188.006,178.958 186.792 C 178.929 185.577,178.906 186.571,178.906 189.000 M262.875 185.250 C 262.877 185.617,262.911 185.747,262.951 185.540 C 262.991 185.332,262.990 185.032,262.948 184.873 C 262.906 184.714,262.874 184.883,262.875 185.250 M293.709 185.250 C 293.711 185.617,293.745 185.747,293.785 185.540 C 293.824 185.332,293.823 185.032,293.781 184.873 C 293.739 184.714,293.707 184.883,293.709 185.250 M315.396 186.500 C 315.396 187.554,315.423 187.985,315.456 187.458 C 315.490 186.931,315.490 186.069,315.456 185.542 C 315.423 185.015,315.396 185.446,315.396 186.500 M198.892 187.417 C 198.892 188.242,198.920 188.600,198.955 188.213 C 198.990 187.827,198.990 187.152,198.956 186.713 C 198.922 186.275,198.893 186.592,198.892 187.417 M309.071 189.667 C 309.071 191.729,309.095 192.573,309.124 191.542 C 309.154 190.510,309.154 188.823,309.124 187.792 C 309.095 186.760,309.071 187.604,309.071 189.667 M293.736 190.167 C 293.736 191.954,293.761 192.685,293.791 191.792 C 293.821 190.898,293.821 189.435,293.791 188.542 C 293.761 187.648,293.736 188.379,293.736 190.167 M229.236 190.250 C 229.236 191.992,229.261 192.682,229.291 191.783 C 229.321 190.884,229.321 189.459,229.291 188.616 C 229.261 187.773,229.236 188.508,229.236 190.250 M198.893 191.833 C 198.893 192.704,198.922 193.060,198.956 192.625 C 198.990 192.190,198.990 191.477,198.956 191.042 C 198.922 190.606,198.893 190.963,198.893 191.833 " stroke="none" fill="#048dc1" fill-rule="evenodd"></path><path id="path4" d="M196.539 52.000 C 196.539 52.321,196.573 52.452,196.615 52.292 C 196.657 52.131,196.657 51.869,196.615 51.708 C 196.573 51.548,196.539 51.679,196.539 52.000 M196.714 56.083 C 196.716 56.542,196.748 56.709,196.786 56.456 C 196.825 56.203,196.824 55.828,196.784 55.623 C 196.744 55.418,196.713 55.625,196.714 56.083 M196.888 60.083 C 196.889 60.725,196.919 60.967,196.955 60.621 C 196.991 60.275,196.990 59.750,196.954 59.455 C 196.917 59.159,196.887 59.442,196.888 60.083 M171.000 61.676 C 164.446 61.737,145.433 61.903,128.750 62.045 C 112.067 62.187,98.268 62.307,98.087 62.311 C 97.905 62.315,97.672 62.434,97.568 62.576 C 97.465 62.717,97.334 62.833,97.278 62.833 C 97.223 62.833,96.624 63.190,95.947 63.625 C 95.271 64.060,94.061 64.829,93.259 65.333 C 92.457 65.837,91.701 66.344,91.579 66.458 C 91.457 66.573,91.307 66.667,91.245 66.667 C 91.183 66.667,90.184 67.292,89.025 68.055 C 87.037 69.365,86.324 69.827,83.370 71.722 C 82.702 72.150,82.084 72.500,81.995 72.500 C 81.906 72.500,81.833 72.559,81.833 72.631 C 81.833 72.703,81.590 72.904,81.292 73.079 C 80.994 73.253,79.686 74.094,78.386 74.948 C 77.086 75.802,75.949 76.500,75.858 76.500 C 75.768 76.500,75.669 76.558,75.639 76.628 C 75.560 76.810,73.728 78.000,73.527 78.000 C 73.436 78.000,73.336 78.061,73.306 78.135 C 73.275 78.209,72.030 79.053,70.539 80.010 L 67.829 81.750 88.914 81.792 L 110.000 81.835 110.000 88.834 L 110.000 95.833 95.833 95.833 L 81.667 95.833 81.667 104.023 L 81.667 112.212 97.125 112.105 C 105.627 112.046,115.865 111.951,119.875 111.893 L 127.167 111.788 127.167 96.549 L 127.167 81.310 137.292 81.379 L 147.417 81.448 149.500 81.888 C 157.958 83.676,165.957 88.634,170.793 95.083 C 170.999 95.358,171.132 95.471,171.088 95.333 C 171.036 95.171,171.369 94.822,172.042 94.333 C 172.610 93.921,173.384 93.321,173.762 93.000 C 174.140 92.679,177.920 89.792,182.163 86.583 C 188.801 81.563,191.830 79.241,193.031 78.253 C 193.185 78.126,193.521 77.886,193.778 77.719 C 194.035 77.553,194.366 77.304,194.514 77.167 C 194.661 77.029,194.963 76.789,195.183 76.633 C 195.403 76.477,195.991 76.046,196.490 75.674 C 197.164 75.171,197.432 75.052,197.539 75.207 C 197.632 75.344,197.664 75.272,197.632 75.000 L 197.583 74.583 190.265 74.647 C 184.087 74.701,182.962 74.675,183.042 74.480 C 183.094 74.354,184.404 71.587,185.952 68.333 C 187.501 65.079,188.856 62.210,188.964 61.958 L 189.160 61.500 186.038 61.533 C 184.321 61.551,177.554 61.616,171.000 61.676 M197.055 63.917 C 197.055 64.558,197.086 64.800,197.122 64.455 C 197.158 64.109,197.157 63.584,197.120 63.288 C 197.083 62.992,197.054 63.275,197.055 63.917 M197.372 71.500 C 197.372 71.821,197.406 71.952,197.448 71.792 C 197.490 71.631,197.490 71.369,197.448 71.208 C 197.406 71.048,197.372 71.179,197.372 71.500 M186.375 75.791 C 185.619 75.822,184.381 75.822,183.625 75.791 C 182.869 75.760,183.487 75.735,185.000 75.735 C 186.512 75.735,187.131 75.760,186.375 75.791 M197.721 77.917 C 197.722 78.558,197.752 78.800,197.788 78.455 C 197.824 78.109,197.824 77.584,197.787 77.288 C 197.750 76.992,197.721 77.275,197.721 77.917 M206.833 100.833 L 206.833 120.000 224.250 120.000 L 241.667 120.000 241.667 107.917 L 241.667 95.833 230.250 95.833 L 218.833 95.833 218.833 88.750 L 218.833 81.667 212.833 81.667 L 206.833 81.667 206.833 100.833 M278.667 88.750 L 278.667 95.833 267.167 95.833 L 255.667 95.833 255.706 114.375 C 255.728 124.573,255.767 129.984,255.792 126.399 L 255.837 119.882 274.160 119.759 C 284.237 119.692,292.545 119.675,292.620 119.721 C 292.696 119.768,293.159 118.744,293.649 117.445 C 294.140 116.146,294.864 114.258,295.258 113.250 C 295.653 112.242,297.336 107.854,298.999 103.500 C 300.662 99.146,302.209 95.096,302.436 94.500 C 302.664 93.904,302.919 93.267,303.003 93.083 C 303.818 91.294,304.820 88.255,304.631 88.146 C 304.513 88.077,302.511 86.591,300.182 84.844 L 295.947 81.667 287.307 81.667 L 278.667 81.667 278.667 88.750 M65.629 83.164 C 64.645 83.801,62.995 84.875,61.962 85.551 C 60.929 86.227,59.521 87.141,58.833 87.582 C 56.546 89.051,55.934 89.446,53.379 91.104 C 51.984 92.009,49.846 93.396,48.629 94.185 C 47.412 94.974,45.534 96.193,44.455 96.893 C 43.377 97.594,42.459 98.167,42.416 98.167 C 42.372 98.167,42.205 98.277,42.044 98.413 C 41.882 98.548,40.287 99.593,38.500 100.734 C 36.712 101.876,35.171 102.871,35.074 102.946 C 34.790 103.168,34.269 103.493,34.000 103.618 C 33.862 103.681,33.675 103.796,33.583 103.873 C 33.428 104.002,32.623 104.533,28.500 107.218 C 27.629 107.786,26.846 108.280,26.760 108.316 C 26.674 108.352,25.961 108.810,25.177 109.332 C 24.392 109.855,23.075 110.719,22.250 111.253 C 21.425 111.788,20.725 112.287,20.694 112.363 C 20.663 112.440,20.570 112.460,20.486 112.408 C 20.402 112.356,20.333 112.414,20.333 112.537 C 20.333 112.797,30.489 112.782,48.917 112.497 C 54.783 112.406,61.365 112.332,63.542 112.332 L 67.500 112.333 67.500 97.167 C 67.500 88.825,67.481 82.001,67.458 82.003 C 67.435 82.004,66.612 82.527,65.629 83.164 M141.167 100.042 C 141.167 102.723,141.217 106.435,141.277 108.292 L 141.386 111.667 145.151 111.672 C 149.222 111.678,149.012 111.617,147.845 112.458 C 146.946 113.106,145.167 114.524,145.167 114.593 C 145.167 114.699,146.012 114.069,153.234 108.589 C 158.755 104.400,159.758 103.700,159.982 103.876 C 160.325 104.145,157.779 101.329,157.382 101.000 C 157.216 100.862,156.669 100.407,156.165 99.988 C 152.531 96.962,147.655 95.171,143.042 95.168 L 141.167 95.167 141.167 100.042 M316.566 97.282 C 316.626 97.448,317.049 98.558,317.506 99.750 C 317.962 100.942,319.858 105.892,321.719 110.750 L 325.101 119.583 333.176 119.520 C 337.617 119.485,341.269 119.441,341.293 119.422 C 341.316 119.402,340.930 118.418,340.434 117.235 C 339.938 116.052,339.401 114.671,339.241 114.167 C 339.080 113.662,338.897 113.175,338.833 113.083 C 338.770 112.992,338.435 112.204,338.090 111.333 C 337.745 110.462,337.396 109.679,337.315 109.592 C 337.233 109.505,337.163 109.317,337.159 109.175 C 337.155 109.033,337.041 108.692,336.907 108.417 C 336.772 108.142,336.691 108.029,336.727 108.167 C 336.821 108.528,331.739 108.375,331.208 108.000 C 331.013 107.862,330.455 107.442,329.969 107.066 C 329.482 106.690,327.583 105.270,325.750 103.909 C 323.917 102.549,321.076 100.434,319.437 99.209 C 317.798 97.983,316.506 97.116,316.566 97.282 M143.500 115.770 C 142.721 116.365,141.971 116.971,141.833 117.117 C 141.696 117.262,142.352 116.805,143.292 116.101 C 144.231 115.397,145.000 114.786,145.000 114.744 C 145.000 114.624,144.999 114.624,143.500 115.770 M308.790 117.127 C 308.745 117.286,308.514 117.923,308.278 118.542 L 307.848 119.667 309.012 119.667 L 310.175 119.667 309.944 119.208 C 309.816 118.956,309.583 118.357,309.427 117.877 C 309.113 116.917,308.915 116.684,308.790 117.127 M351.456 144.335 C 351.600 144.703,351.749 144.973,351.786 144.936 C 351.866 144.856,351.385 143.667,351.272 143.667 C 351.229 143.667,351.312 143.967,351.456 144.335 M352.256 146.250 C 352.536 146.951,355.548 154.292,356.666 157.000 C 357.026 157.871,358.225 160.796,359.331 163.500 C 360.437 166.204,361.459 168.687,361.602 169.017 L 361.862 169.618 365.639 168.642 C 367.717 168.105,369.942 167.548,370.583 167.404 C 371.225 167.260,371.900 167.077,372.083 166.998 C 372.267 166.919,373.054 166.705,373.833 166.523 C 374.613 166.340,376.262 165.929,377.500 165.609 C 381.033 164.695,385.976 163.425,389.250 162.589 C 390.900 162.168,392.625 161.717,393.083 161.586 C 393.542 161.456,395.004 161.083,396.333 160.757 C 399.163 160.064,400.004 159.817,399.988 159.682 C 399.981 159.628,397.188 157.500,393.780 154.953 C 390.372 152.407,386.849 149.763,385.951 149.078 C 385.053 148.394,384.251 147.833,384.168 147.833 C 384.085 147.833,383.957 147.733,383.883 147.610 C 383.810 147.486,383.525 147.243,383.250 147.068 C 382.975 146.893,382.595 146.617,382.406 146.455 C 382.081 146.177,381.188 146.160,367.258 146.165 C 353.323 146.170,352.442 146.153,352.223 145.877 C 352.048 145.657,352.056 145.750,352.256 146.250 M92.137 159.458 C 95.467 159.484,100.867 159.484,104.137 159.458 C 107.408 159.433,104.683 159.412,98.083 159.412 C 91.483 159.412,88.808 159.433,92.137 159.458 M245.303 172.958 C 247.257 172.985,250.407 172.985,252.303 172.958 C 254.199 172.931,252.600 172.910,248.750 172.910 C 244.900 172.910,243.349 172.932,245.303 172.958 M78.138 173.458 C 84.035 173.483,93.635 173.483,99.471 173.458 C 105.308 173.434,100.483 173.414,88.750 173.414 C 77.017 173.414,72.241 173.434,78.138 173.458 M129.042 173.458 C 130.119 173.487,131.881 173.487,132.958 173.458 C 134.035 173.429,133.154 173.405,131.000 173.405 C 128.846 173.405,127.965 173.429,129.042 173.458 M67.740 188.917 C 67.740 191.392,67.763 192.427,67.791 191.218 C 67.820 190.009,67.820 187.984,67.791 186.718 C 67.763 185.452,67.740 186.442,67.740 188.917 M131.239 189.000 C 131.239 191.429,131.263 192.423,131.291 191.208 C 131.320 189.994,131.320 188.006,131.291 186.792 C 131.263 185.577,131.239 186.571,131.239 189.000 M170.569 187.583 C 170.569 189.233,170.594 189.886,170.624 189.033 C 170.655 188.181,170.654 186.831,170.624 186.033 C 170.593 185.236,170.569 185.933,170.569 187.583 M193.401 187.250 C 193.401 188.717,193.427 189.294,193.457 188.534 C 193.488 187.773,193.488 186.573,193.457 185.867 C 193.426 185.161,193.401 185.783,193.401 187.250 M225.542 185.250 C 225.544 185.617,225.578 185.747,225.618 185.540 C 225.658 185.332,225.656 185.032,225.615 184.873 C 225.573 184.714,225.540 184.883,225.542 185.250 M243.573 189.000 C 243.573 191.429,243.596 192.423,243.625 191.208 C 243.653 189.994,243.653 188.006,243.625 186.792 C 243.596 185.577,243.573 186.571,243.573 189.000 M334.735 187.417 C 334.735 188.975,334.760 189.635,334.791 188.883 C 334.821 188.131,334.821 186.856,334.791 186.050 C 334.760 185.243,334.735 185.858,334.735 187.417 M293.709 186.417 C 293.711 186.783,293.745 186.914,293.785 186.706 C 293.824 186.499,293.823 186.199,293.781 186.040 C 293.739 185.880,293.707 186.050,293.709 186.417 M117.404 189.750 C 117.404 191.767,117.429 192.569,117.458 191.532 C 117.487 190.496,117.487 188.846,117.458 187.866 C 117.428 186.885,117.404 187.733,117.404 189.750 M73.714 188.917 C 73.716 189.375,73.748 189.543,73.786 189.289 C 73.825 189.036,73.824 188.661,73.784 188.456 C 73.744 188.251,73.713 188.458,73.714 188.917 M315.400 190.833 C 315.400 192.254,315.426 192.835,315.457 192.125 C 315.488 191.415,315.488 190.252,315.457 189.542 C 315.426 188.831,315.400 189.412,315.400 190.833 M344.709 188.917 C 344.711 189.283,344.745 189.414,344.785 189.206 C 344.824 188.999,344.823 188.699,344.781 188.540 C 344.739 188.380,344.707 188.550,344.709 188.917 M299.049 191.290 C 299.671 191.323,300.646 191.322,301.215 191.290 C 301.784 191.257,301.275 191.231,300.083 191.231 C 298.892 191.232,298.426 191.258,299.049 191.290 M275.717 192.500 C 275.717 193.004,275.748 193.210,275.786 192.958 C 275.824 192.706,275.824 192.294,275.786 192.042 C 275.748 191.790,275.717 191.996,275.717 192.500 " stroke="none" fill="#0480b4" fill-rule="evenodd"></path></g></svg>