<svg id="svg" version="1.1" xmlns="http://www.w3.org/2000/svg" xmlns:xlink="http://www.w3.org/1999/xlink" width="400" height="400" viewBox="0, 0, 400,400"><g id="svgg"><path id="path0" d="M35.876 167.217 C 27.337 169.348,24.365 179.876,30.519 186.193 C 34.750 190.535,42.679 190.563,46.778 186.250 C 49.016 183.896,49.785 184.482,49.348 188.206 C 48.367 196.553,40.484 199.932,32.118 195.591 C 28.729 193.833,26.980 194.891,30.100 196.813 C 37.264 201.226,46.538 199.467,49.914 193.055 L 50.996 191.000 51.095 180.200 C 51.200 168.721,51.121 167.600,50.200 167.600 C 49.657 167.600,49.057 168.967,49.223 169.826 C 49.579 171.678,48.515 171.604,46.221 169.618 C 43.639 167.383,39.272 166.370,35.876 167.217 M80.676 167.239 C 74.497 168.693,70.364 175.298,71.566 181.800 C 73.697 193.325,89.087 195.757,94.400 185.408 C 99.453 175.565,91.279 164.744,80.676 167.239 M136.344 167.427 C 135.260 167.761,133.635 168.765,132.437 169.843 C 130.229 171.828,128.864 171.791,129.374 169.761 C 129.781 168.138,128.557 166.774,127.797 168.005 C 127.377 168.684,127.585 198.545,128.012 198.972 C 128.962 199.922,129.322 198.376,129.242 193.703 C 129.127 187.071,129.484 186.487,132.151 188.930 C 139.397 195.567,150.232 190.931,151.079 180.833 C 151.859 171.520,144.575 164.893,136.344 167.427 M164.315 167.391 C 151.586 170.895,154.574 191.975,167.803 191.996 C 171.809 192.003,177.200 189.453,177.200 187.551 C 177.200 186.523,175.916 186.584,174.962 187.658 C 170.019 193.224,157.471 188.604,158.461 181.582 L 158.600 180.600 167.933 180.400 C 177.873 180.187,178.775 179.979,178.231 178.021 C 178.136 177.679,177.938 176.590,177.791 175.600 C 176.869 169.401,170.689 165.636,164.315 167.391 M190.818 167.378 C 190.465 167.803,190.329 171.898,190.304 182.842 L 190.270 197.727 191.179 198.464 C 193.831 200.611,195.200 199.111,195.200 194.060 C 195.200 189.951,195.399 189.709,197.789 190.909 C 203.781 193.918,212.236 190.506,214.779 184.053 C 218.845 173.737,208.584 164.000,197.870 168.008 L 195.710 168.816 193.955 167.813 C 191.920 166.650,191.474 166.588,190.818 167.378 M250.229 167.429 C 249.688 167.969,249.600 169.584,249.600 178.984 C 249.600 191.081,249.657 191.360,252.200 191.810 C 254.377 192.194,254.430 192.008,254.518 183.565 C 254.620 173.923,255.896 171.200,260.313 171.200 C 264.844 171.200,265.763 173.006,266.000 182.371 C 266.216 190.903,266.328 191.345,268.404 191.801 C 271.065 192.385,271.200 191.996,271.200 183.773 C 271.200 174.113,272.543 171.200,276.998 171.200 C 281.469 171.200,282.800 173.994,282.800 183.382 C 282.800 190.636,283.031 191.382,285.416 191.829 C 287.930 192.301,287.982 192.112,287.879 182.863 C 287.774 173.440,287.305 171.576,284.469 169.311 C 280.921 166.478,273.709 166.343,270.778 169.054 C 269.534 170.205,268.749 170.248,267.815 169.217 C 266.141 167.367,259.809 166.494,256.569 167.666 C 255.421 168.081,254.901 168.051,253.302 167.478 C 250.989 166.649,251.008 166.649,250.229 167.429 M322.400 167.191 C 321.578 167.710,321.301 188.841,322.096 190.368 C 322.741 191.608,324.553 192.241,325.813 191.667 C 326.743 191.243,326.747 191.206,326.782 183.564 C 326.827 173.679,327.979 171.200,332.529 171.200 C 336.887 171.200,338.000 173.538,338.000 182.690 L 338.000 189.662 339.169 190.831 C 340.413 192.075,341.180 192.253,342.426 191.586 C 343.486 191.019,343.598 176.686,342.570 173.225 C 341.146 168.427,334.128 165.655,328.530 167.680 C 327.430 168.078,326.880 168.043,325.302 167.478 C 323.100 166.689,323.183 166.697,322.400 167.191 M368.234 167.645 C 367.144 168.502,367.074 168.506,365.025 167.860 C 349.449 162.951,340.104 182.837,354.363 190.549 C 357.289 192.131,362.933 192.312,365.323 190.900 C 367.193 189.795,367.521 189.786,368.617 190.816 C 369.588 191.728,371.921 192.217,372.725 191.676 C 373.643 191.057,373.440 168.853,372.508 167.958 C 371.285 166.784,369.495 166.652,368.234 167.645 M65.129 167.731 C 64.009 168.238,61.511 170.415,60.281 171.954 C 59.197 173.310,58.615 172.798,58.477 170.369 C 58.337 167.901,57.925 167.232,57.011 167.991 C 56.469 168.441,56.402 169.974,56.494 179.754 L 56.600 191.000 57.500 191.128 C 58.391 191.254,58.400 191.208,58.400 186.361 C 58.400 176.046,60.763 171.028,66.281 169.627 C 68.732 169.005,69.400 168.647,69.400 167.956 C 69.400 167.226,66.572 167.077,65.129 167.731 M228.274 167.757 C 221.029 170.005,217.647 179.194,221.632 185.807 C 224.997 191.392,233.291 193.732,238.600 190.594 C 252.565 182.342,243.793 162.943,228.274 167.757 M299.916 167.838 C 290.345 170.884,289.235 184.535,298.113 190.014 L 301.000 191.795 304.800 191.767 C 318.675 191.663,322.861 174.721,310.600 168.291 C 308.517 167.199,302.700 166.952,299.916 167.838 M100.983 168.525 C 100.146 171.859,100.994 184.989,102.185 187.139 C 105.076 192.359,112.038 193.729,116.583 189.974 C 118.795 188.146,119.274 188.142,119.643 189.950 C 119.973 191.562,120.237 191.834,120.920 191.266 C 121.820 190.520,121.876 168.081,120.978 167.736 C 119.810 167.288,119.612 168.458,119.606 175.850 C 119.599 183.741,119.234 185.675,117.407 187.503 C 113.482 191.428,107.208 191.116,104.206 186.848 L 103.000 185.134 102.800 176.472 C 102.621 168.703,102.529 167.796,101.914 167.678 C 101.463 167.592,101.145 167.881,100.983 168.525 M44.124 170.005 C 48.472 172.176,50.510 177.136,48.742 181.245 C 44.822 190.358,31.676 189.631,29.561 180.184 C 27.744 172.061,36.286 166.090,44.124 170.005 M87.222 169.408 C 94.537 171.989,96.391 182.196,90.538 187.663 C 86.961 191.004,80.430 190.918,76.882 187.483 C 68.507 179.378,76.395 165.588,87.222 169.408 M142.900 169.428 C 150.875 172.145,151.426 185.931,143.693 189.246 C 132.835 193.900,124.139 179.819,132.718 171.475 C 135.278 168.984,139.253 168.185,142.900 169.428 M170.459 169.265 C 173.330 170.125,176.000 173.875,176.000 177.048 C 176.000 178.427,175.730 178.471,167.200 178.471 C 158.463 178.471,158.400 178.459,158.400 176.802 C 158.400 171.436,164.655 167.526,170.459 169.265 M205.954 171.976 C 211.268 174.688,212.215 181.487,207.841 185.520 C 202.847 190.123,195.200 186.588,195.200 179.675 C 195.200 173.532,200.943 169.420,205.954 171.976 M235.931 172.012 C 240.838 174.383,241.932 181.306,238.019 185.219 C 230.960 192.278,220.279 181.688,226.877 174.173 C 229.428 171.268,232.750 170.475,235.931 172.012 M308.250 172.162 C 314.833 175.227,313.272 186.360,306.109 187.435 C 299.003 188.500,294.182 180.072,298.692 174.471 C 301.295 171.238,304.568 170.448,308.250 172.162 M363.513 172.157 C 368.934 174.906,369.671 182.046,364.937 185.948 C 357.722 191.895,348.142 180.930,354.554 174.066 C 357.281 171.146,360.266 170.510,363.513 172.157 M157.333 198.230 C 157.102 198.832,157.920 199.833,162.022 203.967 C 166.705 208.687,171.935 212.805,174.799 214.029 C 175.349 214.264,176.069 214.686,176.399 214.967 C 176.730 215.248,177.810 215.755,178.800 216.093 C 179.790 216.430,181.680 217.125,183.000 217.636 C 187.835 219.509,198.568 218.806,202.647 216.351 C 203.333 215.938,204.178 215.600,204.525 215.600 C 204.871 215.600,205.390 215.267,205.677 214.860 C 205.965 214.452,206.740 213.838,207.400 213.494 C 208.820 212.753,210.400 211.326,210.400 210.784 C 210.400 210.165,209.414 210.342,208.575 211.113 C 206.986 212.573,204.789 213.682,204.090 213.376 C 203.710 213.210,203.175 213.110,202.900 213.154 C 202.625 213.199,202.400 212.957,202.400 212.618 C 202.400 211.895,203.242 211.802,203.893 212.453 C 204.400 212.960,205.600 212.650,205.600 212.013 C 205.600 211.786,205.330 211.600,205.000 211.600 C 203.899 211.600,204.382 210.521,205.977 209.416 C 207.299 208.500,207.897 208.343,209.677 208.447 C 211.669 208.563,213.600 207.978,213.600 207.258 C 213.600 205.992,206.500 207.375,203.868 209.154 C 202.365 210.169,200.612 211.291,199.972 211.647 C 199.333 212.003,198.582 212.474,198.305 212.694 C 195.352 215.034,185.323 215.330,180.400 213.221 C 178.750 212.515,177.040 211.836,176.600 211.713 C 176.160 211.590,175.440 211.194,175.000 210.833 C 174.560 210.473,172.924 209.328,171.365 208.290 C 169.805 207.252,166.835 204.687,164.765 202.588 C 160.427 198.193,157.913 196.718,157.333 198.230 M201.600 214.406 C 201.600 214.630,201.060 214.772,200.400 214.721 C 199.740 214.671,199.200 214.488,199.200 214.315 C 199.200 214.142,199.740 214.000,200.400 214.000 C 201.060 214.000,201.600 214.183,201.600 214.406 " stroke="none" fill="#226a8d" fill-rule="evenodd"></path><path id="path1" d="M0.000 200.000 L 0.000 400.000 200.000 400.000 L 400.000 400.000 400.000 200.000 L 400.000 0.000 200.000 0.000 L 0.000 0.000 0.000 200.000 M44.200 167.116 C 45.080 167.562,46.236 168.393,46.770 168.963 C 47.992 170.270,48.400 170.272,48.400 168.974 C 48.400 167.416,49.111 166.400,50.200 166.400 C 51.952 166.400,52.062 167.255,51.927 179.724 L 51.800 191.400 50.731 193.425 C 47.713 199.145,39.969 201.936,33.987 199.461 C 28.495 197.188,27.061 195.980,27.744 194.201 C 28.032 193.452,29.734 193.424,31.138 194.146 C 40.276 198.845,47.317 196.484,48.275 188.400 C 48.554 186.039,48.305 185.952,46.417 187.748 C 40.122 193.739,28.510 189.593,26.670 180.697 C 24.632 170.845,35.282 162.594,44.200 167.116 M70.000 166.800 C 71.434 168.234,70.471 169.771,67.917 170.123 C 61.926 170.947,59.958 174.365,59.630 184.515 C 59.390 191.941,59.273 192.378,57.529 192.394 C 55.689 192.411,55.600 191.829,55.600 179.797 C 55.600 167.656,55.766 166.400,57.367 166.400 C 58.670 166.400,59.600 167.788,59.600 169.732 L 59.600 171.286 61.942 169.117 C 65.191 166.110,68.390 165.190,70.000 166.800 M89.200 167.184 C 96.235 170.789,98.777 178.680,95.200 185.809 C 89.153 197.862,70.400 193.179,70.400 179.617 C 70.400 169.879,80.903 162.933,89.200 167.184 M143.692 166.674 C 157.738 172.220,153.437 193.787,138.506 192.678 C 136.476 192.527,135.263 192.214,134.444 191.631 C 133.802 191.174,133.100 190.800,132.884 190.800 C 132.669 190.800,132.190 190.339,131.821 189.775 C 130.564 187.858,130.211 188.761,130.000 194.432 L 129.800 199.800 128.620 199.934 C 126.415 200.185,126.400 200.071,126.400 183.550 C 126.400 167.655,126.525 166.400,128.110 166.400 C 129.382 166.400,130.000 167.124,130.000 168.613 C 130.000 170.476,130.355 170.533,132.105 168.953 C 135.310 166.057,139.861 165.162,143.692 166.674 M172.214 167.024 C 176.174 168.897,179.200 173.834,179.200 178.419 C 179.200 181.087,178.759 181.200,168.344 181.200 C 158.159 181.200,158.358 181.134,159.848 184.000 C 162.803 189.687,170.389 191.149,174.678 186.860 C 176.585 184.954,178.155 185.311,177.930 187.600 C 177.821 188.707,177.404 189.187,175.296 190.629 C 168.684 195.157,159.534 192.501,156.263 185.105 C 151.426 174.167,161.993 162.189,172.214 167.024 M194.405 166.900 L 195.968 167.799 197.455 167.000 C 199.559 165.868,206.339 165.846,208.400 166.964 C 214.402 170.220,216.400 173.349,216.400 179.492 C 216.400 189.546,207.413 195.218,196.900 191.799 C 196.011 191.510,196.000 191.552,196.000 195.153 C 196.000 199.694,195.365 200.656,192.656 200.224 C 188.884 199.622,188.717 198.765,188.877 180.867 C 188.994 167.812,189.038 167.107,189.776 166.567 C 190.900 165.746,192.615 165.869,194.405 166.900 M238.852 167.361 C 244.342 170.485,246.967 174.755,246.742 180.196 C 246.660 182.177,246.408 183.750,246.145 183.915 C 245.895 184.072,245.423 184.830,245.096 185.600 C 240.893 195.517,225.031 194.960,219.900 184.716 C 214.524 173.983,228.308 161.361,238.852 167.361 M254.020 166.610 C 255.078 167.157,255.322 167.157,256.380 166.610 C 259.226 165.138,265.802 166.150,268.235 168.433 C 269.066 169.214,269.075 169.212,270.588 168.009 C 274.812 164.653,282.702 165.522,286.254 169.734 C 288.390 172.268,288.555 173.129,288.721 182.666 L 288.876 191.532 287.830 192.217 C 286.330 193.200,284.100 192.761,282.700 191.208 L 281.600 189.987 281.598 183.294 C 281.595 175.100,281.316 173.879,279.197 172.798 C 277.184 171.771,276.713 171.792,274.809 172.994 C 272.461 174.477,272.400 174.742,272.400 183.564 L 272.400 191.582 271.392 192.242 C 269.942 193.192,267.276 192.769,266.101 191.402 C 265.238 190.400,265.200 190.049,265.199 183.078 C 265.197 174.726,264.957 173.934,262.039 172.617 C 260.369 171.865,260.349 171.865,258.570 172.730 C 256.060 173.949,255.887 174.608,255.689 183.707 C 255.525 191.206,255.473 191.644,254.669 192.207 C 252.791 193.522,249.456 192.476,249.007 190.431 C 248.277 187.106,248.589 167.144,249.380 166.565 C 250.393 165.825,252.541 165.846,254.020 166.610 M309.267 166.559 C 312.090 167.567,315.904 170.726,317.046 173.000 C 317.377 173.660,317.905 174.650,318.218 175.200 C 319.117 176.777,319.006 182.829,318.055 184.046 C 317.645 184.571,317.187 185.391,317.038 185.870 C 315.343 191.282,304.369 194.585,298.511 191.447 C 288.019 185.826,288.289 172.506,299.000 167.242 C 301.707 165.911,306.551 165.589,309.267 166.559 M325.987 166.593 C 327.009 167.122,327.301 167.117,328.662 166.548 C 333.847 164.382,341.421 167.499,343.548 172.674 C 344.812 175.752,344.853 190.747,343.600 192.000 C 342.197 193.403,338.616 192.699,337.612 190.822 C 337.374 190.378,337.198 187.037,337.194 182.926 C 337.187 174.773,337.041 174.247,334.394 172.861 L 332.600 171.921 330.695 172.749 C 328.118 173.868,328.000 174.334,328.000 183.426 C 328.000 190.667,327.945 191.255,327.200 192.000 C 325.781 193.419,322.080 192.772,321.255 190.961 C 320.477 189.254,320.633 167.424,321.429 166.629 C 322.221 165.836,324.488 165.818,325.987 166.593 M364.662 166.600 C 365.451 166.930,366.414 167.200,366.800 167.200 C 367.186 167.200,367.726 166.930,368.000 166.600 C 368.590 165.889,370.898 165.810,372.110 166.459 C 374.378 167.673,374.372 167.636,374.387 180.236 L 374.400 191.872 373.381 192.336 C 372.012 192.960,370.413 192.912,369.200 192.210 C 368.650 191.892,367.955 191.507,367.655 191.356 C 367.356 191.204,366.546 191.421,365.855 191.839 C 363.366 193.342,356.366 192.923,353.348 191.090 C 351.058 189.699,348.511 186.939,347.174 184.400 C 346.461 183.046,346.462 175.750,347.176 174.400 C 350.680 167.771,358.798 164.150,364.662 166.600 M103.193 166.992 C 103.543 167.414,103.701 170.029,103.742 176.092 C 103.816 186.921,104.552 188.545,109.624 189.065 C 116.873 189.808,118.912 186.499,118.768 174.223 C 118.690 167.552,118.964 166.400,120.624 166.400 C 121.325 166.400,121.735 166.704,122.010 167.426 C 122.545 168.833,122.523 190.622,121.986 191.626 C 121.218 193.060,118.800 192.373,118.800 190.720 C 118.800 189.687,118.134 189.827,116.361 191.231 C 112.063 194.635,104.009 192.640,101.313 187.504 C 100.070 185.135,99.336 169.187,100.381 167.236 C 100.903 166.260,102.473 166.124,103.193 166.992 M165.200 170.007 C 162.094 170.551,158.500 174.799,159.326 176.950 C 159.594 177.649,174.562 177.909,174.986 177.223 C 175.230 176.828,174.368 173.836,173.594 172.388 C 172.609 170.548,168.600 169.411,165.200 170.007 M33.549 171.146 C 30.543 173.053,29.289 180.174,31.447 183.083 C 37.472 191.206,51.638 184.524,47.811 175.364 C 45.648 170.188,38.427 168.053,33.549 171.146 M78.564 170.988 C 72.177 174.817,73.555 186.849,80.600 188.761 C 90.091 191.337,96.915 181.071,91.036 173.061 C 88.714 169.898,82.192 168.814,78.564 170.988 M134.682 170.958 C 124.858 176.997,131.617 191.884,142.690 188.596 C 149.771 186.493,150.340 174.139,143.520 170.566 C 141.684 169.604,136.511 169.834,134.682 170.958 M200.556 172.741 C 192.773 175.859,196.380 188.560,204.432 186.391 C 210.479 184.763,211.385 174.270,205.588 172.997 C 204.940 172.855,204.306 172.572,204.181 172.369 C 203.853 171.839,202.451 171.983,200.556 172.741 M230.400 172.787 C 224.052 175.270,224.538 184.606,231.107 186.375 C 239.512 188.638,242.987 175.694,234.787 172.669 C 232.656 171.883,232.716 171.881,230.400 172.787 M302.431 172.784 C 295.512 175.524,297.166 186.397,304.526 186.562 C 312.445 186.739,314.284 175.434,306.787 172.669 C 304.656 171.883,304.708 171.882,302.431 172.784 M357.800 172.806 C 352.110 175.433,352.033 183.475,357.674 185.971 C 362.909 188.287,367.984 183.731,366.728 177.842 C 365.762 173.312,361.685 171.013,357.800 172.806 M159.441 196.800 C 159.758 196.800,161.997 198.722,164.418 201.071 C 166.839 203.420,169.242 205.625,169.759 205.971 C 175.678 209.931,177.086 210.798,177.600 210.800 C 177.930 210.802,178.782 211.158,179.494 211.592 C 184.547 214.673,195.686 213.493,201.167 209.295 C 205.270 206.152,206.002 205.836,210.712 205.167 C 217.764 204.166,216.327 208.284,207.024 215.738 C 206.243 216.363,204.658 217.234,203.502 217.673 C 202.346 218.112,201.204 218.632,200.966 218.830 C 199.276 220.227,185.298 220.175,182.526 218.762 C 181.704 218.343,180.802 218.000,180.521 218.000 C 176.911 218.000,165.215 209.148,157.815 200.816 C 155.464 198.170,155.759 195.780,158.333 196.625 C 158.626 196.721,159.125 196.800,159.441 196.800 " stroke="none" fill="#fbfbfb" fill-rule="evenodd"></path><path id="path2" d="M35.177 166.356 C 24.001 170.000,23.355 185.521,34.207 189.643 C 38.232 191.171,43.714 190.321,46.417 187.748 C 48.305 185.952,48.554 186.039,48.275 188.400 C 47.317 196.484,40.276 198.845,31.138 194.146 C 29.734 193.424,28.032 193.452,27.744 194.201 C 27.061 195.980,28.495 197.188,33.987 199.461 C 40.829 202.292,51.835 196.941,51.568 190.913 C 51.544 190.357,51.488 190.332,51.317 190.800 C 48.360 198.858,40.957 201.866,32.636 198.393 C 29.213 196.964,27.877 195.934,28.080 194.880 C 28.294 193.769,29.457 193.873,32.299 195.255 C 40.321 199.158,47.582 196.280,48.776 188.725 C 49.335 185.188,48.919 184.896,46.515 187.138 C 40.566 192.685,29.657 189.623,27.373 181.765 C 24.075 170.420,37.376 161.662,46.379 169.250 C 48.350 170.912,48.800 170.903,48.800 169.205 C 48.800 167.478,50.075 166.522,51.284 167.343 C 51.331 167.374,51.471 172.530,51.597 178.800 L 51.825 190.200 51.912 179.074 C 52.005 167.281,51.886 166.400,50.200 166.400 C 49.111 166.400,48.400 167.416,48.400 168.974 C 48.400 170.272,47.992 170.270,46.770 168.963 C 44.598 166.642,38.503 165.272,35.177 166.356 M65.642 166.515 C 64.896 166.754,63.231 167.925,61.942 169.117 L 59.600 171.286 59.600 169.732 C 59.600 167.788,58.670 166.400,57.367 166.400 C 55.766 166.400,55.600 167.656,55.600 179.797 C 55.600 191.829,55.689 192.411,57.529 192.394 C 59.273 192.378,59.390 191.941,59.630 184.515 C 59.958 174.365,61.926 170.947,67.917 170.123 C 70.471 169.771,71.434 168.234,70.000 166.800 C 69.128 165.928,67.762 165.838,65.642 166.515 M79.800 166.415 C 69.016 169.912,67.120 184.529,76.654 190.674 C 87.993 197.983,101.232 185.599,95.356 173.180 C 92.809 167.795,85.434 164.588,79.800 166.415 M135.345 166.769 C 134.435 167.182,132.964 168.177,132.076 168.979 C 130.597 170.315,130.426 170.377,130.043 169.719 C 129.644 169.033,129.624 169.033,129.612 169.713 C 129.590 171.013,130.784 170.969,132.102 169.620 C 137.790 163.803,148.705 166.736,150.934 174.679 C 154.693 188.075,141.316 198.054,131.683 189.042 C 129.906 187.380,129.593 187.969,129.683 192.800 L 129.753 196.600 129.977 192.832 C 130.217 188.785,130.674 188.026,131.821 189.775 C 132.190 190.339,132.669 190.800,132.884 190.800 C 133.100 190.800,133.802 191.174,134.444 191.631 C 135.263 192.214,136.476 192.527,138.506 192.678 C 153.437 193.787,157.738 172.220,143.692 166.674 C 141.390 165.766,137.457 165.810,135.345 166.769 M163.275 166.673 C 158.352 168.415,154.226 175.688,155.048 181.178 C 155.808 186.253,160.178 191.597,164.081 192.225 L 165.400 192.437 163.933 191.877 C 151.580 187.162,153.559 167.712,166.511 166.543 C 172.005 166.048,176.919 169.686,178.167 175.175 C 179.471 180.907,179.666 180.800,167.911 180.800 C 159.488 180.800,158.802 180.853,158.832 181.500 C 158.850 181.918,158.944 181.999,159.065 181.700 C 159.218 181.321,161.456 181.200,168.344 181.200 C 178.759 181.200,179.200 181.087,179.200 178.419 C 179.200 169.928,171.056 163.921,163.275 166.673 M189.776 166.567 C 189.038 167.107,188.994 167.812,188.877 180.867 C 188.717 198.765,188.884 199.622,192.656 200.224 C 195.365 200.656,196.000 199.694,196.000 195.153 C 196.000 191.552,196.011 191.510,196.900 191.799 C 207.413 195.218,216.400 189.546,216.400 179.492 C 216.400 173.349,214.402 170.220,208.400 166.964 C 206.339 165.846,199.559 165.868,197.455 167.000 L 195.968 167.799 194.405 166.900 C 192.615 165.869,190.900 165.746,189.776 166.567 M228.275 166.590 C 224.439 168.063,221.591 170.800,219.443 175.080 C 216.936 180.074,220.150 187.832,226.200 191.390 C 232.053 194.833,242.546 191.618,245.096 185.600 C 245.423 184.830,245.895 184.072,246.145 183.915 C 246.408 183.750,246.660 182.177,246.742 180.196 C 247.125 170.922,236.801 163.316,228.275 166.590 M249.380 166.565 C 248.589 167.144,248.277 187.106,249.007 190.431 C 249.456 192.476,252.791 193.522,254.669 192.207 C 255.473 191.644,255.525 191.206,255.689 183.707 C 255.887 174.608,256.060 173.949,258.570 172.730 C 260.349 171.865,260.369 171.865,262.039 172.617 C 264.957 173.934,265.197 174.726,265.199 183.078 C 265.200 190.049,265.238 190.400,266.101 191.402 C 267.276 192.769,269.942 193.192,271.392 192.242 L 272.400 191.582 272.400 183.564 C 272.400 174.742,272.461 174.477,274.809 172.994 C 276.713 171.792,277.184 171.771,279.197 172.798 C 281.316 173.879,281.595 175.100,281.598 183.294 L 281.600 189.987 282.700 191.208 C 284.100 192.761,286.330 193.200,287.830 192.217 L 288.876 191.532 288.721 182.666 C 288.555 173.129,288.390 172.268,286.254 169.734 C 282.702 165.522,274.812 164.653,270.588 168.009 C 269.075 169.212,269.066 169.214,268.235 168.433 C 265.802 166.150,259.226 165.138,256.380 166.610 C 255.322 167.157,255.078 167.157,254.020 166.610 C 252.541 165.846,250.393 165.825,249.380 166.565 M301.400 166.274 C 289.056 169.070,287.184 185.379,298.511 191.447 C 304.369 194.585,315.343 191.282,317.038 185.870 C 317.187 185.391,317.645 184.571,318.055 184.046 C 319.006 182.829,319.117 176.777,318.218 175.200 C 317.905 174.650,317.377 173.660,317.046 173.000 C 314.562 168.051,307.313 164.935,301.400 166.274 M321.429 166.629 C 320.633 167.424,320.477 189.254,321.255 190.961 C 322.080 192.772,325.781 193.419,327.200 192.000 C 327.945 191.255,328.000 190.667,328.000 183.426 C 328.000 174.334,328.118 173.868,330.695 172.749 L 332.600 171.921 334.394 172.861 C 337.041 174.247,337.187 174.773,337.194 182.926 C 337.198 187.037,337.374 190.378,337.612 190.822 C 338.616 192.699,342.197 193.403,343.600 192.000 C 344.853 190.747,344.812 175.752,343.548 172.674 C 341.421 167.499,333.847 164.382,328.662 166.548 C 327.301 167.117,327.009 167.122,325.987 166.593 C 324.488 165.818,322.221 165.836,321.429 166.629 M355.961 166.549 C 352.512 167.782,349.029 170.895,347.176 174.400 C 346.462 175.750,346.461 183.046,347.174 184.400 C 348.511 186.939,351.058 189.699,353.348 191.090 C 356.366 192.923,363.366 193.342,365.855 191.839 C 366.546 191.421,367.356 191.204,367.655 191.356 C 367.955 191.507,368.650 191.892,369.200 192.210 C 370.413 192.912,372.012 192.960,373.381 192.336 L 374.400 191.872 374.387 180.236 C 374.372 167.636,374.378 167.673,372.110 166.459 C 370.898 165.810,368.590 165.889,368.000 166.600 C 367.726 166.930,367.186 167.200,366.800 167.200 C 366.414 167.200,365.451 166.930,364.662 166.600 C 362.900 165.864,357.959 165.835,355.961 166.549 M69.226 166.814 C 70.556 167.526,69.957 169.597,68.420 169.602 C 62.498 169.624,59.161 174.911,58.953 184.600 C 58.882 187.900,58.819 190.813,58.812 191.073 C 58.794 191.781,57.245 192.136,56.581 191.584 C 55.803 190.939,55.709 168.451,56.480 167.680 C 57.846 166.314,59.417 168.014,58.950 170.351 C 58.566 172.272,59.429 172.119,61.680 169.868 C 64.401 167.147,67.503 165.892,69.226 166.814 M88.866 167.499 C 93.750 169.660,96.795 175.021,96.277 180.548 C 95.059 193.534,78.241 196.908,72.372 185.344 C 66.933 174.628,77.975 162.682,88.866 167.499 M100.381 167.236 C 99.336 169.187,100.070 185.135,101.313 187.504 C 104.009 192.640,112.063 194.635,116.361 191.231 C 118.134 189.827,118.800 189.687,118.800 190.720 C 118.800 192.373,121.218 193.060,121.986 191.626 C 122.523 190.622,122.545 168.833,122.010 167.426 C 121.735 166.704,121.325 166.400,120.624 166.400 C 118.964 166.400,118.690 167.552,118.768 174.223 C 118.912 186.499,116.873 189.808,109.624 189.065 C 104.552 188.545,103.816 186.921,103.742 176.092 C 103.701 170.029,103.543 167.414,103.193 166.992 C 102.473 166.124,100.903 166.260,100.381 167.236 M126.790 167.426 C 126.158 169.088,126.278 198.480,126.920 199.358 C 127.813 200.580,129.782 200.075,129.878 198.600 C 129.951 197.484,129.936 197.470,129.662 198.400 C 129.239 199.834,127.721 199.970,127.208 198.620 C 126.600 197.021,126.711 169.231,127.331 167.989 C 127.962 166.723,128.838 166.727,129.482 168.000 C 129.935 168.895,129.989 168.914,129.994 168.180 C 130.008 166.261,127.461 165.662,126.790 167.426 M193.910 167.201 C 195.514 168.179,196.458 168.205,198.120 167.314 C 203.311 164.533,213.021 168.468,215.176 174.228 C 218.624 183.444,212.674 192.218,203.000 192.181 C 200.017 192.170,198.675 191.993,197.720 191.483 C 195.670 190.389,195.600 190.492,195.600 194.600 C 195.600 199.991,193.313 201.775,190.500 198.578 C 189.306 197.222,189.057 168.201,190.229 167.029 C 191.076 166.181,192.332 166.240,193.910 167.201 M237.825 167.385 C 244.481 170.166,248.591 179.245,245.436 184.200 C 243.135 187.814,242.450 188.559,239.846 190.282 L 237.000 192.165 232.797 192.170 C 219.394 192.188,214.146 175.893,225.258 168.762 C 228.938 166.402,234.114 165.834,237.825 167.385 M253.543 167.024 C 254.970 167.595,255.279 167.590,257.173 166.971 C 260.610 165.847,265.133 166.581,267.731 168.684 C 269.101 169.794,269.367 169.811,270.284 168.851 C 274.521 164.415,284.709 166.419,287.272 172.192 C 288.924 175.912,288.880 191.667,287.217 192.195 C 283.230 193.460,282.000 191.178,282.000 182.512 C 282.000 173.804,280.999 171.600,277.044 171.600 C 272.941 171.600,271.816 174.136,271.727 183.586 C 271.662 190.502,271.575 191.429,270.951 191.886 C 269.744 192.768,268.040 192.501,266.769 191.231 L 265.600 190.062 265.600 183.018 C 265.600 173.991,264.511 171.600,260.400 171.600 C 256.289 171.600,255.200 174.144,255.200 183.746 C 255.200 192.205,255.009 192.730,252.109 192.266 C 249.217 191.803,249.200 191.725,249.200 178.984 C 249.200 165.471,249.259 165.310,253.543 167.024 M309.504 167.236 C 311.446 167.968,314.741 170.470,315.720 171.956 C 317.999 175.414,318.144 175.798,318.321 178.858 C 319.011 190.787,303.517 196.932,294.952 188.128 C 285.515 178.427,296.679 162.401,309.504 167.236 M325.683 167.043 C 326.769 167.605,327.134 167.617,328.563 167.143 C 334.336 165.227,341.209 167.872,343.054 172.718 C 344.117 175.511,344.154 190.646,343.100 191.700 C 342.010 192.790,340.125 192.586,338.769 191.231 L 337.600 190.062 337.600 182.811 C 337.600 173.899,336.581 171.600,332.632 171.600 C 328.312 171.600,327.200 174.142,327.200 184.017 L 327.200 191.617 326.191 192.077 C 324.727 192.744,322.354 192.067,321.716 190.800 C 320.891 189.164,320.992 167.865,321.829 167.029 C 322.635 166.223,324.107 166.228,325.683 167.043 M365.287 167.373 C 367.115 168.144,366.896 168.157,368.000 167.200 C 369.526 165.876,372.596 166.523,373.588 168.378 C 374.117 169.366,374.136 190.766,373.608 191.600 C 372.996 192.568,369.905 192.376,368.418 191.277 L 367.170 190.354 365.703 191.260 C 360.661 194.376,351.520 191.254,348.311 185.321 C 342.729 174.999,354.316 162.748,365.287 167.373 M103.200 175.554 C 103.200 187.335,104.452 189.627,110.920 189.685 C 117.319 189.742,119.194 186.523,119.198 175.474 C 119.200 168.381,119.456 166.800,120.600 166.800 C 122.151 166.800,122.879 190.373,121.366 191.628 C 120.506 192.342,119.439 191.645,119.273 190.260 C 119.107 188.864,118.689 188.920,116.324 190.655 C 111.502 194.195,104.549 192.487,101.686 187.060 C 100.290 184.413,99.741 168.716,101.000 167.457 C 102.834 165.624,103.200 166.972,103.200 175.554 M35.826 169.649 C 29.069 171.233,27.631 181.979,33.675 185.723 C 42.312 191.073,52.878 181.554,47.294 173.455 C 46.105 171.730,44.020 169.993,43.162 170.012 C 42.853 170.019,43.267 170.435,44.083 170.937 C 52.017 175.816,48.472 186.600,38.934 186.600 C 33.142 186.600,30.600 184.060,30.600 178.271 C 30.600 172.032,32.622 170.038,39.035 169.953 C 41.533 169.920,42.241 169.814,41.400 169.600 C 39.776 169.187,37.722 169.205,35.826 169.649 M80.626 169.649 C 71.890 171.697,71.691 186.242,80.360 189.145 C 88.804 191.972,96.326 183.400,92.639 175.150 C 90.496 170.354,86.137 168.358,80.626 169.649 M136.675 169.639 C 133.710 170.337,129.951 174.378,130.036 176.778 C 130.067 177.659,130.127 177.608,130.473 176.403 C 133.472 165.941,148.400 168.603,148.400 179.600 C 148.400 191.910,131.747 192.559,129.995 180.316 L 129.635 177.800 129.801 180.481 C 130.551 192.608,147.537 192.769,148.667 180.660 C 149.393 172.890,143.984 167.920,136.675 169.639 M164.318 169.677 C 162.449 170.174,159.825 172.956,159.173 175.131 C 158.301 178.042,158.185 178.000,167.200 178.000 C 176.378 178.000,176.154 178.095,175.066 174.641 C 173.682 170.251,169.471 168.306,164.318 169.677 M171.905 170.883 C 173.357 171.760,173.693 172.267,174.607 174.960 C 175.526 177.667,175.614 177.636,167.138 177.572 C 158.125 177.505,157.678 177.130,161.080 172.505 C 163.146 169.697,168.591 168.881,171.905 170.883 M88.565 170.961 C 95.253 174.891,94.183 186.686,86.954 188.734 C 78.060 191.253,71.266 182.591,75.664 174.341 C 77.973 170.008,84.178 168.383,88.565 170.961 M200.403 172.237 C 194.999 174.580,193.910 181.302,198.292 185.257 C 201.234 187.911,205.126 187.695,207.985 184.719 C 213.359 179.126,207.345 169.226,200.403 172.237 M229.600 172.578 C 226.806 174.039,225.844 175.637,225.663 179.114 C 225.149 188.996,238.867 190.065,239.883 180.222 C 240.505 174.189,234.730 169.896,229.600 172.578 M301.816 172.470 C 296.005 175.534,296.067 183.624,301.923 186.459 C 306.423 188.638,311.480 185.461,311.918 180.180 C 312.411 174.240,306.711 169.890,301.816 172.470 M357.394 172.408 C 355.142 173.446,353.977 174.836,353.358 177.222 C 351.415 184.712,359.276 190.155,364.894 185.210 C 371.253 179.612,364.983 168.909,357.394 172.408 M204.181 172.369 C 204.306 172.572,204.940 172.855,205.588 172.997 C 209.662 173.892,210.893 181.526,207.470 184.664 C 201.023 190.572,192.215 181.376,197.870 174.641 C 199.388 172.834,203.543 171.338,204.181 172.369 M234.787 172.669 C 242.987 175.694,239.512 188.638,231.107 186.375 C 224.538 184.606,224.052 175.270,230.400 172.787 C 232.716 171.881,232.656 171.883,234.787 172.669 M306.787 172.669 C 314.284 175.434,312.445 186.739,304.526 186.562 C 297.166 186.397,295.512 175.524,302.431 172.784 C 304.708 171.882,304.656 171.883,306.787 172.669 M362.600 172.751 C 369.445 175.318,367.551 186.757,360.274 186.796 C 353.004 186.835,351.073 175.912,357.800 172.806 C 359.860 171.855,360.202 171.851,362.600 172.751 M159.038 183.200 C 160.678 189.437,170.454 192.026,174.819 187.380 C 176.067 186.051,177.600 186.055,177.600 187.387 C 177.600 189.658,172.442 192.331,167.800 192.465 C 165.907 192.520,165.738 192.569,167.000 192.699 C 171.777 193.191,177.649 190.451,177.930 187.600 C 178.155 185.311,176.585 184.954,174.678 186.860 C 172.523 189.016,167.875 189.790,164.335 188.584 C 162.478 187.952,161.384 186.829,159.688 183.819 C 159.105 182.786,158.871 182.562,159.038 183.200 M156.900 196.812 C 154.741 197.681,157.379 201.224,165.852 208.837 C 170.222 212.764,178.605 218.000,180.521 218.000 C 180.802 218.000,181.704 218.343,182.526 218.762 C 185.298 220.175,199.276 220.227,200.966 218.830 C 201.204 218.632,202.346 218.112,203.502 217.673 C 207.945 215.987,215.200 208.845,215.200 206.158 C 215.200 204.908,214.158 204.678,210.712 205.167 C 206.002 205.836,205.270 206.152,201.167 209.295 C 195.686 213.493,184.547 214.673,179.494 211.592 C 178.782 211.158,177.930 210.802,177.600 210.800 C 177.086 210.798,175.678 209.931,169.759 205.971 C 169.242 205.625,166.839 203.420,164.418 201.071 C 161.997 198.722,159.758 196.800,159.441 196.800 C 159.125 196.800,158.626 196.721,158.333 196.625 C 158.040 196.529,157.395 196.613,156.900 196.812 M163.725 201.114 C 169.175 206.348,175.648 211.200,177.181 211.200 C 177.469 211.200,178.267 211.540,178.953 211.956 C 185.343 215.831,195.707 214.366,203.313 208.513 C 205.825 206.580,213.019 204.859,214.093 205.933 C 215.799 207.639,208.541 214.787,202.401 217.447 C 197.694 219.487,186.369 220.060,183.000 218.429 C 182.560 218.216,180.940 217.556,179.400 216.961 C 177.860 216.366,176.171 215.547,175.646 215.140 C 175.121 214.733,174.530 214.400,174.332 214.400 C 172.166 214.400,156.800 200.214,156.800 198.214 C 156.800 195.779,159.229 196.796,163.725 201.114 " stroke="none" fill="#9abfd0" fill-rule="evenodd"></path><path id="path3" d="M37.700 166.687 C 38.305 166.778,39.295 166.778,39.900 166.687 C 40.505 166.595,40.010 166.520,38.800 166.520 C 37.590 166.520,37.095 166.595,37.700 166.687 M166.500 166.687 C 167.105 166.778,168.095 166.778,168.700 166.687 C 169.305 166.595,168.810 166.520,167.600 166.520 C 166.390 166.520,165.895 166.595,166.500 166.687 M201.700 166.687 C 202.305 166.778,203.295 166.778,203.900 166.687 C 204.505 166.595,204.010 166.520,202.800 166.520 C 201.590 166.520,201.095 166.595,201.700 166.687 M231.705 166.687 C 232.314 166.779,233.214 166.777,233.705 166.682 C 234.197 166.587,233.700 166.511,232.600 166.514 C 231.500 166.517,231.097 166.595,231.705 166.687 M259.300 166.687 C 259.905 166.778,260.895 166.778,261.500 166.687 C 262.105 166.595,261.610 166.520,260.400 166.520 C 259.190 166.520,258.695 166.595,259.300 166.687 M276.505 166.687 C 277.114 166.779,278.014 166.777,278.505 166.682 C 278.997 166.587,278.500 166.511,277.400 166.514 C 276.300 166.517,275.897 166.595,276.505 166.687 M303.900 166.682 C 304.395 166.778,305.205 166.778,305.700 166.682 C 306.195 166.587,305.790 166.509,304.800 166.509 C 303.810 166.509,303.405 166.587,303.900 166.682 M331.705 166.687 C 332.314 166.779,333.214 166.777,333.705 166.682 C 334.197 166.587,333.700 166.511,332.600 166.514 C 331.500 166.517,331.097 166.595,331.705 166.687 M359.300 166.687 C 359.905 166.778,360.895 166.778,361.500 166.687 C 362.105 166.595,361.610 166.520,360.400 166.520 C 359.190 166.520,358.695 166.595,359.300 166.687 M369.300 166.676 C 369.685 166.776,370.315 166.776,370.700 166.676 C 371.085 166.575,370.770 166.493,370.000 166.493 C 369.230 166.493,368.915 166.575,369.300 166.676 M48.768 169.300 C 48.649 170.160,48.710 170.650,48.912 170.448 C 49.105 170.255,49.198 169.581,49.119 168.949 C 48.987 167.891,48.959 167.919,48.768 169.300 M100.493 171.200 C 100.493 171.970,100.575 172.285,100.676 171.900 C 100.776 171.515,100.776 170.885,100.676 170.500 C 100.575 170.115,100.493 170.430,100.493 171.200 M321.320 172.400 C 321.320 173.610,321.395 174.105,321.487 173.500 C 321.578 172.895,321.578 171.905,321.487 171.300 C 321.395 170.695,321.320 171.190,321.320 172.400 M126.978 183.400 C 126.978 190.220,127.032 193.066,127.099 189.725 C 127.166 186.384,127.166 180.804,127.099 177.325 C 127.033 173.846,126.978 176.580,126.978 183.400 M51.301 173.400 C 51.305 174.280,51.387 174.593,51.483 174.095 C 51.579 173.598,51.575 172.878,51.475 172.495 C 51.375 172.113,51.296 172.520,51.301 173.400 M100.544 176.800 C 100.544 178.890,100.612 179.745,100.694 178.700 C 100.776 177.655,100.776 175.945,100.694 174.900 C 100.612 173.855,100.544 174.710,100.544 176.800 M56.124 176.600 C 56.126 177.920,56.201 178.412,56.290 177.693 C 56.379 176.974,56.377 175.894,56.286 175.293 C 56.195 174.692,56.122 175.280,56.124 176.600 M288.167 183.600 C 288.167 187.890,288.226 189.645,288.298 187.500 C 288.370 185.355,288.370 181.845,288.298 179.700 C 288.226 177.555,288.167 179.310,288.167 183.600 M343.751 180.400 C 343.751 182.930,343.816 183.965,343.896 182.700 C 343.975 181.435,343.975 179.365,343.896 178.100 C 343.816 176.835,343.751 177.870,343.751 180.400 M29.709 178.400 C 29.709 179.390,29.787 179.795,29.882 179.300 C 29.978 178.805,29.978 177.995,29.882 177.500 C 29.787 177.005,29.709 177.410,29.709 178.400 M282.163 183.200 C 282.163 186.830,282.223 188.315,282.298 186.500 C 282.372 184.685,282.372 181.715,282.298 179.900 C 282.223 178.085,282.163 179.570,282.163 183.200 M254.965 184.200 C 254.966 188.160,255.026 189.726,255.098 187.680 C 255.171 185.634,255.171 182.394,255.098 180.480 C 255.024 178.566,254.965 180.240,254.965 184.200 M337.759 182.800 C 337.759 185.990,337.821 187.295,337.897 185.700 C 337.973 184.105,337.973 181.495,337.897 179.900 C 337.821 178.305,337.759 179.610,337.759 182.800 M70.914 179.400 C 70.917 180.500,70.995 180.903,71.087 180.295 C 71.179 179.686,71.177 178.786,71.082 178.295 C 70.987 177.803,70.911 178.300,70.914 179.400 M73.714 179.400 C 73.717 180.500,73.795 180.903,73.887 180.295 C 73.979 179.686,73.977 178.786,73.882 178.295 C 73.787 177.803,73.711 178.300,73.714 179.400 M93.714 179.400 C 93.717 180.500,93.795 180.903,93.887 180.295 C 93.979 179.686,93.977 178.786,93.882 178.295 C 93.787 177.803,93.711 178.300,93.714 179.400 M219.324 179.800 C 219.326 181.120,219.401 181.612,219.490 180.893 C 219.579 180.174,219.577 179.094,219.486 178.493 C 219.395 177.892,219.322 178.480,219.324 179.800 M225.309 179.600 C 225.309 180.590,225.387 180.995,225.482 180.500 C 225.578 180.005,225.578 179.195,225.482 178.700 C 225.387 178.205,225.309 178.610,225.309 179.600 M265.757 183.200 C 265.757 186.170,265.820 187.385,265.897 185.900 C 265.974 184.415,265.974 181.985,265.897 180.500 C 265.820 179.015,265.757 180.230,265.757 183.200 M291.293 179.600 C 291.293 180.370,291.375 180.685,291.476 180.300 C 291.576 179.915,291.576 179.285,291.476 178.900 C 291.375 178.515,291.293 178.830,291.293 179.600 M297.293 179.600 C 297.293 180.370,297.375 180.685,297.476 180.300 C 297.576 179.915,297.576 179.285,297.476 178.900 C 297.375 178.515,297.293 178.830,297.293 179.600 M51.301 182.600 C 51.305 183.480,51.387 183.793,51.483 183.295 C 51.579 182.798,51.575 182.078,51.475 181.695 C 51.375 181.313,51.296 181.720,51.301 182.600 M100.493 182.800 C 100.493 183.570,100.575 183.885,100.676 183.500 C 100.776 183.115,100.776 182.485,100.676 182.100 C 100.575 181.715,100.493 182.030,100.493 182.800 M121.734 186.000 C 121.734 187.650,121.805 188.325,121.891 187.500 C 121.978 186.675,121.978 185.325,121.891 184.500 C 121.805 183.675,121.734 184.350,121.734 186.000 M321.309 186.400 C 321.309 187.390,321.387 187.795,321.482 187.300 C 321.578 186.805,321.578 185.995,321.482 185.500 C 321.387 185.005,321.309 185.410,321.309 186.400 M145.775 187.300 L 144.600 188.600 145.900 187.425 C 146.615 186.779,147.200 186.194,147.200 186.125 C 147.200 185.816,146.870 186.088,145.775 187.300 M82.905 189.887 C 83.514 189.979,84.414 189.977,84.905 189.882 C 85.397 189.787,84.900 189.711,83.800 189.714 C 82.700 189.717,82.297 189.795,82.905 189.887 M138.900 189.876 C 139.285 189.976,139.915 189.976,140.300 189.876 C 140.685 189.775,140.370 189.693,139.600 189.693 C 138.830 189.693,138.515 189.775,138.900 189.876 M167.105 189.883 C 167.602 189.979,168.322 189.975,168.705 189.875 C 169.087 189.775,168.680 189.696,167.800 189.701 C 166.920 189.705,166.607 189.787,167.105 189.883 M201.907 192.290 C 202.626 192.379,203.706 192.377,204.307 192.286 C 204.908 192.195,204.320 192.122,203.000 192.124 C 201.680 192.126,201.188 192.201,201.907 192.290 M231.700 192.287 C 232.305 192.378,233.295 192.378,233.900 192.287 C 234.505 192.195,234.010 192.120,232.800 192.120 C 231.590 192.120,231.095 192.195,231.700 192.287 M252.100 192.276 C 252.485 192.376,253.115 192.376,253.500 192.276 C 253.885 192.175,253.570 192.093,252.800 192.093 C 252.030 192.093,251.715 192.175,252.100 192.276 M268.500 192.276 C 268.885 192.376,269.515 192.376,269.900 192.276 C 270.285 192.175,269.970 192.093,269.200 192.093 C 268.430 192.093,268.115 192.175,268.500 192.276 M303.700 192.287 C 304.305 192.378,305.295 192.378,305.900 192.287 C 306.505 192.195,306.010 192.120,304.800 192.120 C 303.590 192.120,303.095 192.195,303.700 192.287 M340.500 192.276 C 340.885 192.376,341.515 192.376,341.900 192.276 C 342.285 192.175,341.970 192.093,341.200 192.093 C 340.430 192.093,340.115 192.175,340.500 192.276 M359.305 192.287 C 359.914 192.379,360.814 192.377,361.305 192.282 C 361.797 192.187,361.300 192.111,360.200 192.114 C 359.100 192.117,358.697 192.195,359.305 192.287 M38.100 197.087 C 38.705 197.178,39.695 197.178,40.300 197.087 C 40.905 196.995,40.410 196.920,39.200 196.920 C 37.990 196.920,37.495 196.995,38.100 197.087 M38.500 199.876 C 38.885 199.976,39.515 199.976,39.900 199.876 C 40.285 199.775,39.970 199.693,39.200 199.693 C 38.430 199.693,38.115 199.775,38.500 199.876 M213.075 205.886 C 213.575 205.978,214.032 206.424,214.141 206.924 C 214.299 207.654,214.320 207.634,214.266 206.800 C 214.215 206.029,213.971 205.791,213.200 205.761 C 212.381 205.730,212.358 205.752,213.075 205.886 M209.505 206.283 C 210.002 206.379,210.722 206.375,211.105 206.275 C 211.487 206.175,211.080 206.096,210.200 206.101 C 209.320 206.105,209.007 206.187,209.505 206.283 " stroke="none" fill="#7eacbc" fill-rule="evenodd"></path><path id="path4" d="M323.765 166.743 C 324.273 167.565,327.249 168.143,328.552 167.672 C 334.129 165.655,341.148 168.436,342.570 173.225 C 343.544 176.504,343.489 190.992,342.500 191.568 C 341.879 191.930,341.874 191.977,342.457 191.988 C 343.497 192.007,343.600 191.201,343.600 183.040 C 343.600 173.725,343.188 171.828,340.666 169.523 C 337.908 167.002,332.207 165.950,328.520 167.283 C 327.409 167.685,326.879 167.654,325.377 167.097 C 324.383 166.728,323.657 166.569,323.765 166.743 M40.033 166.947 C 40.125 167.028,40.920 167.204,41.800 167.338 C 42.915 167.507,43.158 167.471,42.600 167.219 C 41.832 166.871,39.690 166.644,40.033 166.947 M67.600 167.093 C 70.057 167.381,70.099 169.158,67.651 169.232 C 67.073 169.249,66.833 169.357,67.117 169.471 C 67.918 169.792,69.486 169.274,69.743 168.603 C 70.212 167.381,69.580 166.797,67.857 166.864 C 66.240 166.926,66.234 166.932,67.600 167.093 M87.184 167.409 C 88.165 167.715,89.029 167.904,89.104 167.829 C 89.309 167.624,86.777 166.796,86.040 166.827 C 85.688 166.841,86.203 167.104,87.184 167.409 M135.342 167.379 C 134.650 167.680,133.368 168.573,132.494 169.363 C 130.751 170.938,129.758 171.180,129.476 170.100 C 129.321 169.509,129.286 169.502,129.246 170.051 C 129.121 171.804,130.345 171.724,132.437 169.843 C 133.635 168.765,135.260 167.761,136.344 167.427 C 137.365 167.113,137.840 166.850,137.400 166.844 C 136.960 166.837,136.034 167.078,135.342 167.379 M142.784 167.409 C 143.765 167.715,144.629 167.904,144.704 167.829 C 144.909 167.624,142.377 166.796,141.640 166.827 C 141.288 166.841,141.803 167.104,142.784 167.409 M163.800 167.200 C 162.781 167.638,163.832 167.638,165.200 167.200 C 166.004 166.943,166.043 166.877,165.400 166.868 C 164.960 166.862,164.240 167.011,163.800 167.200 M169.600 167.064 C 169.930 167.174,170.875 167.519,171.700 167.829 C 172.525 168.140,173.200 168.307,173.200 168.202 C 173.200 167.893,170.362 166.797,169.651 166.832 C 169.112 166.858,169.103 166.898,169.600 167.064 M190.014 167.574 C 189.749 168.069,189.610 173.509,189.628 182.674 C 189.644 190.553,189.803 196.640,189.982 196.200 C 190.161 195.760,190.308 189.233,190.309 181.695 C 190.310 171.415,190.434 167.841,190.804 167.395 C 191.130 167.002,191.150 166.800,190.863 166.800 C 190.624 166.800,190.242 167.148,190.014 167.574 M193.948 167.809 L 195.696 168.808 198.020 167.960 C 200.347 167.112,204.814 167.026,207.600 167.775 C 208.217 167.941,208.084 167.805,207.254 167.422 C 205.199 166.472,200.038 166.589,197.593 167.641 L 195.639 168.482 194.458 167.641 C 193.808 167.178,193.034 166.802,192.738 166.805 C 192.442 166.807,192.987 167.259,193.948 167.809 M227.949 167.390 C 224.737 168.572,221.630 171.638,220.216 175.023 C 219.557 176.601,219.366 182.212,219.941 183.118 C 220.122 183.403,220.187 182.212,220.087 180.471 C 219.381 168.284,232.248 162.817,242.424 170.979 C 242.987 171.431,242.750 171.135,241.898 170.323 C 238.440 167.026,232.394 165.755,227.949 167.390 M249.614 167.574 C 249.017 168.689,249.059 189.253,249.661 190.573 C 250.111 191.563,251.427 192.306,251.897 191.837 C 252.027 191.706,251.844 191.600,251.489 191.600 C 249.544 191.600,248.379 169.278,250.229 167.429 C 250.574 167.083,250.671 166.800,250.443 166.800 C 250.215 166.800,249.842 167.148,249.614 167.574 M253.200 167.405 C 254.074 167.810,255.051 167.960,255.800 167.805 C 256.460 167.668,257.900 167.401,259.000 167.211 L 261.000 166.867 258.800 167.049 C 255.262 167.341,253.865 167.339,252.800 167.038 C 252.250 166.883,252.430 167.048,253.200 167.405 M262.400 167.076 C 264.515 167.430,267.136 168.466,267.815 169.217 C 268.789 170.293,269.685 170.199,270.830 168.900 L 271.800 167.800 270.774 168.700 C 269.516 169.804,268.738 169.837,267.822 168.824 C 266.994 167.909,263.894 166.777,262.429 166.854 L 261.400 166.909 262.400 167.076 M273.000 167.414 C 272.092 167.851,272.044 167.920,272.800 167.696 C 273.350 167.533,275.420 167.400,277.400 167.400 C 279.380 167.400,281.450 167.533,282.000 167.696 C 282.756 167.920,282.708 167.851,281.800 167.414 C 281.061 167.058,279.370 166.836,277.400 166.836 C 275.430 166.836,273.739 167.058,273.000 167.414 M300.200 167.420 L 299.000 168.005 300.200 167.702 C 306.530 166.108,313.184 168.462,316.306 173.400 C 316.584 173.840,316.544 173.633,316.216 172.940 C 314.004 168.257,304.915 165.125,300.200 167.420 M321.590 167.826 C 321.376 168.390,321.218 169.245,321.240 169.726 C 321.263 170.218,321.442 169.908,321.651 169.017 C 321.855 168.146,322.242 167.294,322.511 167.123 C 322.890 166.882,322.885 166.811,322.490 166.806 C 322.210 166.803,321.805 167.262,321.590 167.826 M355.400 167.447 C 354.520 167.768,353.260 168.500,352.600 169.074 C 351.766 169.799,351.705 169.913,352.400 169.448 C 355.729 167.217,360.707 166.561,364.829 167.809 C 367.106 168.498,367.152 168.496,368.222 167.654 C 368.819 167.184,369.163 166.800,368.985 166.800 C 368.808 166.800,368.330 167.102,367.922 167.470 C 367.230 168.097,367.045 168.097,365.056 167.470 C 362.458 166.651,357.613 166.640,355.400 167.447 M371.058 167.077 C 373.163 167.488,373.215 167.798,373.233 180.001 C 373.246 188.922,373.138 191.393,372.725 191.655 C 372.402 191.860,372.373 191.990,372.651 191.994 C 373.770 192.009,373.920 190.677,373.977 180.152 L 374.036 169.305 372.983 168.052 C 372.346 167.295,371.587 166.822,371.064 166.854 L 370.200 166.909 371.058 167.077 M49.384 167.627 C 49.239 167.861,49.228 168.161,49.360 168.293 C 49.492 168.425,49.600 168.323,49.600 168.067 C 49.600 167.810,49.867 167.600,50.192 167.600 C 50.803 167.600,51.079 168.377,51.328 170.800 C 51.459 172.077,51.478 172.048,51.536 170.474 C 51.631 167.922,50.294 166.154,49.384 167.627 M56.397 168.006 C 56.159 168.450,56.027 170.114,56.103 171.706 L 56.241 174.600 56.321 171.549 C 56.438 167.057,58.400 165.784,58.400 170.200 C 58.400 173.037,59.461 173.617,60.765 171.492 C 61.298 170.624,61.292 170.619,60.525 171.300 C 59.219 172.460,58.800 172.163,58.800 170.080 C 58.800 167.412,57.373 166.181,56.397 168.006 M100.814 167.974 C 100.586 168.399,100.416 169.074,100.436 169.474 C 100.456 169.873,100.644 169.603,100.854 168.874 C 101.122 167.944,101.440 167.587,101.918 167.679 C 102.526 167.796,102.623 168.702,102.813 176.005 L 103.025 184.200 103.113 176.180 C 103.201 168.096,103.063 167.200,101.734 167.200 C 101.456 167.200,101.042 167.548,100.814 167.974 M119.645 167.916 C 119.434 168.309,119.203 172.264,119.131 176.705 C 119.059 181.145,119.122 184.468,119.272 184.089 C 119.421 183.710,119.559 180.070,119.578 176.000 C 119.613 168.451,119.810 167.288,120.980 167.737 C 121.368 167.886,121.541 167.827,121.397 167.595 C 121.007 166.964,120.062 167.137,119.645 167.916 M127.451 167.812 C 127.313 168.171,127.211 168.676,127.225 168.933 C 127.239 169.190,127.413 168.995,127.612 168.500 C 127.986 167.571,128.979 167.288,129.337 168.010 C 129.449 168.236,129.494 168.191,129.439 167.910 C 129.285 167.134,127.740 167.058,127.451 167.812 M31.252 169.234 C 30.124 170.133,29.200 170.964,29.200 171.082 C 29.200 171.200,29.965 170.675,30.900 169.915 C 31.835 169.155,32.960 168.329,33.400 168.079 C 33.840 167.829,33.999 167.619,33.752 167.612 C 33.506 167.605,32.381 168.335,31.252 169.234 M44.200 168.065 C 44.640 168.307,45.548 168.977,46.218 169.553 C 46.896 170.136,46.770 169.935,45.933 169.100 C 45.107 168.275,44.199 167.605,43.915 167.612 C 43.632 167.619,43.760 167.823,44.200 168.065 M160.520 168.990 C 158.631 170.607,156.235 174.153,156.532 174.891 C 156.684 175.268,156.745 175.254,156.768 174.835 C 156.831 173.720,159.352 170.321,161.116 168.973 C 162.106 168.218,162.742 167.600,162.530 167.600 C 162.317 167.600,161.413 168.225,160.520 168.990 M145.200 168.077 C 145.200 168.157,146.325 169.196,147.700 170.387 C 149.075 171.577,149.750 172.049,149.200 171.436 C 148.203 170.324,145.200 167.803,145.200 168.077 M208.800 168.154 C 208.800 168.239,209.295 168.627,209.900 169.016 L 211.000 169.724 210.238 168.862 C 209.564 168.099,208.800 167.723,208.800 168.154 M284.459 169.253 C 286.148 170.812,287.116 172.571,287.582 174.931 C 287.872 176.398,287.918 176.452,287.956 175.372 C 288.019 173.619,286.051 170.027,284.400 168.879 L 283.000 167.907 284.459 169.253 M297.127 168.970 C 296.537 169.490,295.905 169.979,295.724 170.058 C 295.266 170.255,292.800 173.442,292.800 173.836 C 292.800 174.013,293.335 173.430,293.989 172.541 C 294.643 171.652,296.022 170.266,297.055 169.462 C 298.087 168.658,298.767 168.006,298.566 168.013 C 298.365 168.020,297.717 168.451,297.127 168.970 M75.488 169.662 C 74.657 170.341,73.786 171.280,73.553 171.748 C 73.227 172.402,73.346 172.352,74.064 171.531 C 74.579 170.943,75.540 170.004,76.200 169.444 C 77.908 167.994,77.303 168.180,75.488 169.662 M121.767 175.800 C 121.767 179.980,121.826 181.636,121.898 179.479 C 121.971 177.323,121.970 173.903,121.898 171.879 C 121.825 169.856,121.766 171.620,121.767 175.800 M173.600 168.525 C 173.600 168.594,174.185 169.179,174.900 169.825 L 176.200 171.000 175.025 169.700 C 173.930 168.488,173.600 168.216,173.600 168.525 M36.076 169.140 C 35.568 169.283,36.884 169.400,39.000 169.400 C 41.116 169.400,42.432 169.283,41.924 169.140 C 41.416 168.997,40.100 168.880,39.000 168.880 C 37.900 168.880,36.584 168.997,36.076 169.140 M81.633 168.947 C 81.725 169.028,83.060 169.186,84.600 169.299 C 86.202 169.416,87.058 169.365,86.600 169.180 C 85.822 168.865,81.300 168.653,81.633 168.947 M137.633 168.946 C 137.725 169.026,138.970 169.187,140.400 169.302 C 141.927 169.426,142.670 169.378,142.200 169.185 C 141.426 168.867,137.296 168.651,137.633 168.946 M165.233 168.947 C 165.325 169.028,166.660 169.186,168.200 169.299 C 169.802 169.416,170.658 169.365,170.200 169.180 C 169.422 168.865,164.900 168.653,165.233 168.947 M78.600 169.948 C 77.940 170.358,76.952 171.213,76.404 171.847 C 75.561 172.822,75.630 172.795,76.854 171.670 C 77.649 170.939,78.997 170.092,79.850 169.788 C 80.749 169.467,81.064 169.228,80.600 169.219 C 80.160 169.210,79.260 169.538,78.600 169.948 M33.144 170.424 L 32.200 171.247 33.400 170.545 C 34.979 169.620,35.003 169.600,34.511 169.600 C 34.279 169.600,33.664 169.971,33.144 170.424 M133.345 170.900 C 131.341 172.657,129.592 175.136,129.634 176.160 C 129.662 176.823,129.740 176.763,130.007 175.874 C 130.482 174.290,132.200 172.150,134.101 170.773 C 134.992 170.128,135.519 169.600,135.274 169.600 C 135.029 169.600,134.161 170.185,133.345 170.900 M144.200 170.351 C 146.130 171.553,147.615 173.373,148.201 175.251 C 148.501 176.213,148.759 176.679,148.773 176.287 C 148.844 174.395,145.067 169.597,143.509 169.601 C 143.229 169.602,143.540 169.940,144.200 170.351 M161.089 171.300 C 159.538 172.960,158.372 175.058,158.428 176.087 C 158.444 176.369,158.707 175.917,159.013 175.083 C 159.662 173.316,161.589 170.856,162.892 170.132 C 163.395 169.853,163.550 169.622,163.239 169.614 C 162.930 169.606,161.962 170.365,161.089 171.300 M172.400 170.600 C 173.145 171.150,173.855 171.599,173.978 171.598 C 174.355 171.595,171.824 169.630,171.422 169.614 C 171.215 169.606,171.655 170.050,172.400 170.600 M212.673 171.282 C 217.738 176.858,216.270 186.034,209.680 189.988 C 208.206 190.872,207.156 191.597,207.348 191.598 C 208.078 191.602,212.399 188.716,213.346 187.591 C 217.205 183.005,216.607 173.351,212.275 170.330 C 211.109 169.516,211.142 169.597,212.673 171.282 M89.868 171.071 C 90.565 171.694,91.598 173.013,92.163 174.002 C 92.728 174.991,93.193 175.636,93.195 175.435 C 93.207 174.564,91.087 171.579,89.898 170.795 L 88.600 169.937 89.868 171.071 M127.292 184.251 C 127.213 196.686,127.284 198.772,127.800 199.200 C 128.527 199.803,129.615 199.099,129.575 198.051 C 129.558 197.626,129.419 197.724,129.175 198.333 C 128.048 201.146,127.800 198.962,127.592 184.367 L 127.385 169.800 127.292 184.251 M349.877 171.407 C 348.432 173.218,347.207 175.925,347.255 177.200 C 347.285 177.999,347.328 178.039,347.469 177.400 C 347.831 175.762,349.300 172.415,349.862 171.949 C 350.405 171.498,351.367 170.000,351.114 170.000 C 351.051 170.000,350.495 170.633,349.877 171.407 M46.288 171.990 C 47.094 172.846,48.069 174.324,48.454 175.273 C 48.840 176.223,49.165 176.783,49.178 176.519 C 49.237 175.245,46.543 171.094,45.364 170.641 C 45.066 170.527,45.481 171.134,46.288 171.990 M176.655 172.200 C 177.580 173.779,177.600 173.803,177.600 173.311 C 177.600 173.079,177.229 172.464,176.776 171.944 L 175.953 171.000 176.655 172.200 M199.900 171.829 C 198.255 172.721,198.573 172.882,200.500 172.132 C 202.572 171.325,202.751 171.195,201.767 171.216 C 201.345 171.225,200.505 171.501,199.900 171.829 M204.577 171.797 C 208.309 173.126,209.686 174.986,209.988 179.103 C 210.193 181.908,210.245 182.056,210.530 180.679 C 211.350 176.711,207.333 171.129,203.720 171.218 C 203.324 171.227,203.710 171.488,204.577 171.797 M229.560 171.996 C 226.615 173.553,224.495 177.176,224.916 179.930 C 225.076 180.970,225.082 180.966,225.142 179.800 C 225.557 171.786,234.709 168.613,238.800 175.064 C 239.460 176.105,240.000 176.768,240.000 176.538 C 240.000 173.085,233.144 170.102,229.560 171.996 M257.497 172.211 C 254.841 174.016,254.607 174.877,254.556 183.000 L 254.510 190.200 254.768 183.000 C 255.056 174.978,255.356 173.910,257.738 172.439 C 261.049 170.392,264.874 172.249,265.612 176.262 L 265.969 178.200 265.831 176.275 C 265.530 172.077,260.968 169.853,257.497 172.211 M273.841 172.470 C 271.416 174.469,271.200 175.394,271.200 183.767 C 271.200 190.376,271.126 191.206,270.500 191.595 C 269.860 191.992,269.869 192.019,270.600 191.910 C 271.362 191.796,271.409 191.406,271.600 183.595 C 271.828 174.265,272.092 173.446,275.360 171.962 C 276.423 171.479,276.716 171.214,276.191 171.209 C 275.746 171.204,274.689 171.772,273.841 172.470 M278.000 171.494 C 278.330 171.622,279.275 172.150,280.100 172.668 C 280.925 173.186,281.600 173.524,281.600 173.419 C 281.600 173.032,278.593 171.201,278.007 171.232 C 277.472 171.259,277.471 171.291,278.000 171.494 M301.419 172.109 C 299.394 173.256,297.187 176.120,297.241 177.531 C 297.279 178.528,297.303 178.512,297.589 177.305 C 299.117 170.872,308.757 169.703,311.222 175.652 C 311.489 176.298,311.795 176.738,311.902 176.631 C 312.010 176.524,311.633 175.643,311.065 174.674 C 309.218 171.522,304.615 170.298,301.419 172.109 M329.493 172.214 C 328.672 172.772,328.000 173.325,328.000 173.442 C 328.000 173.559,328.547 173.265,329.217 172.788 C 329.886 172.312,330.921 171.775,331.517 171.595 C 332.349 171.344,332.413 171.261,331.793 171.234 C 331.349 171.215,330.314 171.656,329.493 172.214 M334.231 171.959 C 335.129 172.366,336.254 173.196,336.731 173.804 C 337.519 174.805,337.995 174.784,337.294 173.779 C 336.673 172.889,334.089 171.200,333.362 171.209 C 332.914 171.214,333.272 171.523,334.231 171.959 M357.200 171.983 C 353.457 173.983,351.403 178.569,352.803 181.800 C 353.033 182.332,353.077 181.995,352.934 180.796 C 352.406 176.387,354.758 172.924,359.197 171.574 C 359.997 171.331,360.038 171.265,359.400 171.252 C 358.960 171.243,357.970 171.572,357.200 171.983 M361.600 171.764 C 364.337 172.797,364.583 172.839,363.200 172.041 C 362.430 171.597,361.440 171.234,361.000 171.234 C 360.502 171.235,360.728 171.434,361.600 171.764 M27.989 173.300 C 27.565 174.235,27.226 175.360,27.236 175.800 C 27.245 176.240,27.480 175.880,27.757 175.000 C 28.034 174.120,28.478 172.995,28.744 172.500 C 29.010 172.005,29.123 171.600,28.995 171.600 C 28.866 171.600,28.414 172.365,27.989 173.300 M174.695 173.604 C 175.041 174.487,175.397 175.136,175.486 175.048 C 175.678 174.855,174.523 172.000,174.253 172.000 C 174.149 172.000,174.348 172.722,174.695 173.604 M244.397 173.994 C 244.844 174.870,245.370 176.265,245.565 177.094 C 245.874 178.407,245.925 178.458,245.960 177.487 C 245.997 176.469,244.257 172.400,243.785 172.400 C 243.674 172.400,243.950 173.117,244.397 173.994 M94.445 172.800 C 94.435 172.910,94.774 173.990,95.200 175.200 C 95.626 176.410,95.975 177.040,95.976 176.600 C 95.979 175.915,94.499 172.243,94.445 172.800 M197.071 174.100 C 193.940 178.295,194.550 183.143,198.611 186.337 C 199.214 186.812,199.996 187.200,200.348 187.200 C 200.700 187.200,200.365 186.866,199.604 186.458 C 196.978 185.050,195.829 183.119,195.685 179.871 C 195.554 176.910,195.610 176.749,197.840 173.700 C 198.201 173.205,198.395 172.800,198.269 172.800 C 198.144 172.800,197.604 173.385,197.071 174.100 M365.556 173.800 C 369.002 178.312,368.014 184.164,363.399 186.570 C 362.740 186.914,362.474 187.196,362.809 187.198 C 367.582 187.217,369.648 176.899,365.572 173.400 L 364.640 172.600 365.556 173.800 M74.636 174.202 C 74.275 174.753,73.895 175.788,73.791 176.502 L 73.603 177.800 74.026 176.448 C 74.259 175.704,74.729 174.669,75.071 174.148 C 75.413 173.627,75.602 173.200,75.492 173.200 C 75.382 173.200,74.997 173.651,74.636 174.202 M150.468 174.400 C 150.488 175.439,151.118 177.146,151.132 176.200 C 151.138 175.760,150.989 175.040,150.800 174.600 C 150.589 174.110,150.461 174.032,150.468 174.400 M177.838 175.600 C 177.959 176.590,178.144 177.706,178.250 178.080 C 178.355 178.453,178.072 179.128,177.620 179.580 C 176.769 180.431,176.965 180.663,177.988 180.016 C 178.651 179.597,178.663 176.982,178.011 175.000 C 177.668 173.956,177.645 174.034,177.838 175.600 M327.198 175.005 C 326.988 175.558,326.801 179.425,326.782 183.600 C 326.751 190.270,326.665 191.237,326.074 191.583 C 325.703 191.799,325.589 191.981,325.820 191.988 C 327.024 192.023,327.200 190.946,327.200 183.546 C 327.200 179.424,327.376 175.590,327.590 175.026 C 327.805 174.462,327.890 174.000,327.780 174.000 C 327.670 174.000,327.408 174.452,327.198 175.005 M292.064 175.944 C 290.997 179.506,291.795 184.202,293.876 186.600 C 294.596 187.429,294.711 187.491,294.248 186.800 C 292.262 183.836,291.434 179.127,292.390 176.230 C 292.659 175.414,292.801 174.667,292.704 174.571 C 292.607 174.474,292.319 175.092,292.064 175.944 M316.800 174.478 C 316.800 174.604,317.063 175.314,317.384 176.054 C 317.789 176.986,317.970 177.154,317.972 176.600 C 317.973 176.160,317.710 175.451,317.387 175.024 C 317.064 174.596,316.800 174.351,316.800 174.478 M321.357 179.600 C 321.357 182.570,321.420 183.785,321.497 182.300 C 321.574 180.815,321.574 178.385,321.497 176.900 C 321.420 175.415,321.357 176.630,321.357 179.600 M51.340 178.000 C 51.340 179.870,51.409 180.635,51.493 179.700 C 51.577 178.765,51.577 177.235,51.493 176.300 C 51.409 175.365,51.340 176.130,51.340 178.000 M59.589 175.621 C 59.347 176.072,59.206 176.714,59.275 177.046 C 59.344 177.379,59.598 177.009,59.840 176.225 C 60.335 174.623,60.242 174.400,59.589 175.621 M71.456 175.684 C 71.321 176.188,71.227 176.960,71.246 177.400 C 71.265 177.840,71.445 177.498,71.646 176.640 C 72.036 174.978,71.870 174.140,71.456 175.684 M29.453 176.436 C 29.314 177.131,29.221 178.173,29.247 178.750 C 29.272 179.328,29.455 178.827,29.652 177.639 C 30.037 175.321,29.873 174.334,29.453 176.436 M282.323 182.513 C 282.455 190.279,282.795 191.657,284.642 191.900 C 285.252 191.980,285.229 191.926,284.526 191.622 C 283.018 190.972,282.801 189.921,282.772 183.126 C 282.756 179.537,282.621 176.291,282.472 175.913 C 282.322 175.535,282.256 178.505,282.323 182.513 M155.800 178.000 C 155.644 179.347,155.606 180.539,155.716 180.649 C 155.826 180.759,156.044 179.747,156.200 178.400 C 156.356 177.053,156.394 175.861,156.284 175.751 C 156.174 175.641,155.956 176.653,155.800 178.000 M175.660 176.476 C 175.627 177.068,175.429 177.659,175.219 177.788 C 174.934 177.964,162.703 178.141,159.329 178.017 C 159.070 178.008,158.776 177.685,158.676 177.300 C 158.511 176.669,158.488 176.667,158.446 177.276 C 158.370 178.396,158.923 178.471,167.264 178.471 C 175.790 178.471,176.165 178.387,175.891 176.549 L 175.720 175.400 175.660 176.476 M26.909 178.400 C 26.909 179.390,26.987 179.795,27.082 179.300 C 27.178 178.805,27.178 177.995,27.082 177.500 C 26.987 177.005,26.909 177.410,26.909 178.400 M49.293 178.400 C 49.293 179.170,49.375 179.485,49.476 179.100 C 49.576 178.715,49.576 178.085,49.476 177.700 C 49.375 177.315,49.293 177.630,49.293 178.400 M148.928 179.600 C 148.928 181.030,149.001 181.615,149.089 180.900 C 149.178 180.185,149.178 179.015,149.089 178.300 C 149.001 177.585,148.928 178.170,148.928 179.600 M151.324 179.400 C 151.326 180.720,151.401 181.212,151.490 180.493 C 151.579 179.774,151.577 178.694,151.486 178.093 C 151.395 177.492,151.322 178.080,151.324 179.400 M312.124 179.400 C 312.126 180.720,312.201 181.212,312.290 180.493 C 312.379 179.774,312.377 178.694,312.286 178.093 C 312.195 177.492,312.122 178.080,312.124 179.400 M129.320 179.600 C 129.320 180.810,129.395 181.305,129.487 180.700 C 129.578 180.095,129.578 179.105,129.487 178.500 C 129.395 177.895,129.320 178.390,129.320 179.600 M240.114 179.400 C 240.117 180.500,240.195 180.903,240.287 180.295 C 240.379 179.686,240.377 178.786,240.282 178.295 C 240.187 177.803,240.111 178.300,240.114 179.400 M318.109 179.600 C 318.109 180.590,318.187 180.995,318.282 180.500 C 318.378 180.005,318.378 179.195,318.282 178.700 C 318.187 178.205,318.109 178.610,318.109 179.600 M56.084 184.651 C 55.995 191.042,56.206 191.849,57.881 191.528 C 58.530 191.403,58.602 190.859,58.618 185.894 L 58.635 180.399 58.506 185.826 C 58.379 191.172,58.364 191.251,57.489 191.126 C 56.625 191.004,56.594 190.825,56.384 184.800 L 56.168 178.600 56.084 184.651 M48.465 181.017 C 47.795 182.488,47.923 182.802,48.647 181.465 C 48.986 180.840,49.188 180.254,49.096 180.163 C 49.005 180.071,48.721 180.456,48.465 181.017 M164.300 180.698 C 166.555 180.770,170.245 180.770,172.500 180.698 C 174.755 180.627,172.910 180.569,168.400 180.569 C 163.890 180.569,162.045 180.627,164.300 180.698 M245.646 181.520 C 245.621 182.026,245.317 182.988,244.971 183.657 C 244.624 184.327,244.416 184.949,244.508 185.041 C 244.842 185.375,246.072 182.077,245.885 181.349 C 245.728 180.737,245.684 180.768,245.646 181.520 M73.641 181.953 C 73.543 184.225,78.292 189.684,80.280 189.584 C 80.456 189.575,80.060 189.283,79.400 188.935 C 76.960 187.649,74.570 184.684,73.971 182.200 C 73.723 181.169,73.676 181.134,73.641 181.953 M93.515 181.810 C 93.392 182.245,93.169 182.960,93.020 183.400 C 92.871 183.840,93.042 183.694,93.400 183.076 C 93.758 182.458,93.981 181.742,93.895 181.486 C 93.810 181.230,93.639 181.376,93.515 181.810 M225.236 181.961 C 225.192 183.127,229.084 187.201,230.239 187.198 C 230.800 187.196,230.685 187.032,229.800 186.573 C 227.999 185.640,226.021 183.573,225.624 182.210 C 225.311 181.135,225.268 181.107,225.236 181.961 M317.646 182.224 C 317.515 184.552,314.338 188.454,311.098 190.266 C 310.052 190.851,309.260 191.393,309.337 191.471 C 310.682 192.815,318.448 184.285,317.875 182.094 C 317.728 181.533,317.684 181.557,317.646 182.224 M95.436 183.063 C 95.280 183.757,94.533 185.377,93.775 186.663 C 93.018 187.948,92.785 188.550,93.257 188.000 C 94.372 186.703,96.113 182.933,95.892 182.295 C 95.797 182.023,95.592 182.368,95.436 183.063 M239.216 183.160 C 238.652 184.523,237.472 185.702,235.800 186.571 C 234.985 186.995,234.830 187.196,235.319 187.198 C 236.197 187.201,240.000 183.481,240.000 182.619 C 240.000 181.695,239.753 181.865,239.216 183.160 M311.632 182.433 C 311.587 183.320,309.238 185.870,307.800 186.592 C 307.140 186.924,306.870 187.195,307.200 187.195 C 308.750 187.194,312.324 183.426,311.859 182.281 C 311.740 181.990,311.651 182.049,311.632 182.433 M148.446 182.920 C 148.421 183.316,148.125 184.171,147.790 184.820 C 147.454 185.469,147.269 186.000,147.379 186.000 C 147.810 186.000,148.838 183.509,148.671 182.873 C 148.514 182.281,148.487 182.287,148.446 182.920 M209.127 183.598 C 208.765 184.229,207.706 185.298,206.774 185.973 C 205.842 186.648,205.286 187.200,205.539 187.200 C 206.124 187.200,209.111 184.514,209.653 183.500 C 210.319 182.256,209.847 182.344,209.127 183.598 M129.614 183.000 C 129.637 183.830,131.460 186.311,133.000 187.607 L 134.600 188.954 132.938 187.177 C 132.025 186.200,130.900 184.770,130.440 184.000 C 129.980 183.230,129.608 182.780,129.614 183.000 M158.428 182.913 C 158.365 183.608,159.637 185.883,160.825 187.200 C 161.520 187.970,161.898 188.225,161.666 187.767 C 161.434 187.309,160.938 186.681,160.564 186.370 C 160.191 186.060,159.564 185.085,159.171 184.203 C 158.778 183.322,158.444 182.741,158.428 182.913 M297.600 183.118 C 297.600 184.726,302.398 187.627,304.926 187.548 C 306.474 187.499,306.429 187.473,304.342 187.205 C 301.944 186.896,300.326 185.978,298.632 183.965 C 298.064 183.290,297.600 182.910,297.600 183.118 M353.200 183.144 C 353.200 184.942,358.481 187.872,361.037 187.493 C 361.924 187.361,361.793 187.306,360.487 187.260 C 358.074 187.175,356.435 186.382,354.700 184.460 C 353.875 183.546,353.200 182.954,353.200 183.144 M347.618 183.316 C 347.455 186.222,354.327 192.060,357.776 191.947 L 359.400 191.893 357.566 191.636 C 354.029 191.139,350.462 188.377,348.476 184.600 C 348.014 183.720,347.627 183.142,347.618 183.316 M30.800 183.725 C 30.800 183.794,31.385 184.379,32.100 185.025 L 33.400 186.200 32.225 184.900 C 31.130 183.688,30.800 183.416,30.800 183.725 M156.432 183.953 C 156.399 184.524,157.910 187.200,158.265 187.200 C 158.375 187.200,158.113 186.615,157.683 185.900 C 157.252 185.185,156.802 184.330,156.682 184.000 C 156.514 183.540,156.456 183.529,156.432 183.953 M51.334 186.800 C 51.334 188.450,51.405 189.125,51.491 188.300 C 51.578 187.475,51.578 186.125,51.491 185.300 C 51.405 184.475,51.334 185.150,51.334 186.800 M100.834 184.624 C 100.815 185.076,101.083 185.796,101.430 186.224 C 101.776 186.651,101.937 186.761,101.787 186.469 C 101.637 186.176,101.369 185.456,101.191 184.869 C 100.933 184.011,100.862 183.963,100.834 184.624 M220.400 184.244 C 220.400 186.792,227.025 192.066,230.080 191.950 C 231.362 191.901,231.354 191.892,229.800 191.620 C 228.325 191.362,226.639 190.561,224.178 188.949 C 223.644 188.599,222.575 187.303,221.803 186.069 C 221.032 184.835,220.400 184.014,220.400 184.244 M72.000 184.689 C 72.000 184.921,72.371 185.536,72.824 186.056 L 73.647 187.000 72.945 185.800 C 72.020 184.221,72.000 184.197,72.000 184.689 M103.232 184.824 C 103.214 185.166,103.480 185.796,103.822 186.224 C 104.434 186.988,104.438 186.987,104.076 186.200 C 103.874 185.760,103.608 185.130,103.486 184.800 C 103.293 184.282,103.259 184.285,103.232 184.824 M44.800 185.660 C 44.030 186.131,42.950 186.655,42.400 186.824 C 41.700 187.039,41.618 187.142,42.129 187.166 C 42.796 187.197,46.400 185.338,46.400 184.962 C 46.400 184.702,46.275 184.757,44.800 185.660 M46.778 186.249 C 46.020 187.046,44.680 188.032,43.800 188.440 C 42.920 188.848,42.437 189.186,42.726 189.191 C 43.583 189.206,44.903 188.398,46.472 186.899 C 48.079 185.363,49.179 185.359,49.232 186.887 C 49.249 187.389,49.357 187.567,49.471 187.283 C 50.396 184.976,48.634 184.299,46.778 186.249 M121.301 186.200 C 121.305 187.080,121.387 187.393,121.483 186.895 C 121.579 186.398,121.575 185.678,121.475 185.295 C 121.375 184.913,121.296 185.320,121.301 186.200 M30.400 186.600 C 31.146 187.370,31.847 188.000,31.957 188.000 C 32.067 188.000,31.546 187.370,30.800 186.600 C 30.054 185.830,29.353 185.200,29.243 185.200 C 29.133 185.200,29.654 185.830,30.400 186.600 M118.400 185.566 C 118.400 185.767,117.773 186.577,117.007 187.366 C 116.241 188.155,115.758 188.800,115.933 188.800 C 116.350 188.800,118.800 186.032,118.800 185.561 C 118.800 185.363,118.710 185.200,118.600 185.200 C 118.490 185.200,118.400 185.365,118.400 185.566 M150.000 185.550 C 150.000 185.817,149.151 186.972,148.113 188.117 L 146.227 190.200 147.945 188.600 C 149.769 186.902,150.615 185.681,150.232 185.299 C 150.105 185.171,150.000 185.284,150.000 185.550 M243.055 186.964 C 242.482 187.714,240.887 189.064,239.510 189.964 C 238.133 190.864,237.157 191.600,237.341 191.600 C 238.181 191.600,242.694 188.217,243.504 186.980 C 244.664 185.209,244.401 185.199,243.055 186.964 M34.176 186.570 C 34.604 186.917,35.324 187.185,35.776 187.166 C 36.437 187.138,36.389 187.067,35.531 186.809 C 34.944 186.631,34.224 186.363,33.931 186.213 C 33.639 186.063,33.749 186.224,34.176 186.570 M90.962 186.857 C 90.543 187.329,89.660 188.048,89.000 188.456 C 88.340 188.863,88.032 189.198,88.315 189.199 C 88.815 189.200,92.440 186.030,91.962 186.010 C 91.831 186.005,91.381 186.386,90.962 186.857 M146.349 187.065 C 146.047 187.430,145.260 188.060,144.600 188.463 C 143.940 188.867,143.628 189.198,143.906 189.199 C 144.408 189.200,147.629 186.432,147.149 186.411 C 147.011 186.405,146.651 186.699,146.349 187.065 M176.500 186.652 C 177.529 186.956,177.353 188.038,176.100 189.118 L 175.000 190.066 176.322 189.190 C 177.820 188.198,177.980 186.667,176.600 186.527 C 175.977 186.464,175.955 186.492,176.500 186.652 M102.000 187.476 C 102.000 188.222,103.808 190.140,105.259 190.933 L 106.600 191.667 105.600 190.842 C 105.050 190.389,104.471 190.014,104.314 190.009 C 104.157 190.004,103.572 189.328,103.014 188.507 C 102.456 187.686,102.000 187.222,102.000 187.476 M105.002 187.941 C 105.940 189.049,107.666 190.007,108.680 189.982 C 109.076 189.973,108.708 189.718,107.862 189.417 C 107.016 189.115,105.848 188.448,105.265 187.934 L 104.206 187.000 105.002 187.941 M202.105 187.487 C 202.714 187.579,203.614 187.577,204.105 187.482 C 204.597 187.387,204.100 187.311,203.000 187.314 C 201.900 187.317,201.497 187.395,202.105 187.487 M231.900 187.482 C 232.395 187.578,233.205 187.578,233.700 187.482 C 234.195 187.387,233.790 187.309,232.800 187.309 C 231.810 187.309,231.405 187.387,231.900 187.482 M129.390 188.500 C 129.267 188.995,129.226 191.110,129.300 193.200 L 129.434 197.000 129.517 192.724 C 129.612 187.841,129.867 187.449,131.826 189.169 C 133.764 190.870,134.111 190.724,132.228 189.000 C 130.454 187.375,129.705 187.243,129.390 188.500 M159.200 188.557 C 160.312 189.811,163.868 191.993,164.800 191.992 C 165.130 191.992,164.488 191.568,163.374 191.049 C 162.259 190.530,160.639 189.503,159.774 188.767 C 158.428 187.623,158.345 187.593,159.200 188.557 M48.860 188.867 C 48.827 189.454,48.446 190.759,48.014 191.767 C 47.582 192.775,47.318 193.600,47.428 193.600 C 47.897 193.600,49.224 189.757,49.079 188.822 L 48.920 187.800 48.860 188.867 M295.600 188.767 C 296.663 189.656,299.932 191.603,300.350 191.596 C 300.589 191.593,296.450 188.899,295.200 188.245 C 294.870 188.072,295.050 188.307,295.600 188.767 M75.694 189.290 C 76.882 190.300,79.200 191.747,79.200 191.479 C 79.200 191.388,78.165 190.649,76.900 189.837 C 75.635 189.025,75.092 188.779,75.694 189.290 M117.312 189.477 C 116.679 190.095,116.542 190.285,117.007 189.900 C 118.287 188.839,119.065 189.027,119.353 190.464 C 119.492 191.159,119.681 191.653,119.772 191.561 C 120.094 191.240,119.375 188.658,118.921 188.507 C 118.670 188.423,117.946 188.860,117.312 189.477 M162.400 188.633 C 162.400 188.932,165.366 190.027,165.869 189.914 C 166.147 189.851,165.480 189.502,164.387 189.139 C 163.294 188.775,162.400 188.547,162.400 188.633 M265.824 189.400 C 265.950 190.060,266.346 190.870,266.704 191.200 C 267.284 191.733,267.309 191.733,266.932 191.200 C 266.698 190.870,266.302 190.060,266.051 189.400 L 265.595 188.200 265.824 189.400 M113.600 189.425 C 112.634 189.791,112.455 189.962,113.024 189.977 C 113.476 189.990,114.196 189.736,114.624 189.413 C 115.535 188.723,115.453 188.724,113.600 189.425 M121.632 189.569 C 121.614 190.101,121.295 190.874,120.922 191.286 C 120.285 191.990,120.286 192.019,120.926 191.773 C 121.661 191.491,122.207 189.956,121.871 189.117 C 121.757 188.833,121.649 189.036,121.632 189.569 M135.600 189.358 C 136.150 189.696,137.050 189.960,137.600 189.945 C 138.515 189.920,138.498 189.892,137.400 189.609 C 136.740 189.438,135.840 189.174,135.400 189.022 C 134.869 188.838,134.936 188.951,135.600 189.358 M170.800 189.420 C 169.580 189.770,169.322 189.940,170.000 189.950 C 170.550 189.958,171.540 189.717,172.200 189.414 C 173.677 188.738,173.174 188.740,170.800 189.420 M38.600 189.600 L 37.400 189.905 38.600 189.905 C 39.260 189.905,40.340 189.768,41.000 189.600 L 42.200 189.295 41.000 189.295 C 40.340 189.295,39.260 189.432,38.600 189.600 M141.600 189.600 C 140.776 189.864,140.741 189.926,141.400 189.954 C 141.840 189.973,142.470 189.813,142.800 189.600 C 143.501 189.147,143.014 189.147,141.600 189.600 M321.625 190.071 C 321.593 190.936,322.664 192.007,323.529 191.975 C 324.004 191.957,323.935 191.843,323.291 191.584 C 322.790 191.383,322.217 190.810,322.016 190.309 C 321.757 189.665,321.643 189.596,321.625 190.071 M338.012 189.900 C 337.997 190.536,339.444 192.000,340.089 192.000 C 340.358 192.000,340.183 191.724,339.701 191.386 C 339.218 191.048,338.644 190.463,338.424 190.086 C 338.197 189.696,338.019 189.616,338.012 189.900 M88.806 190.823 C 88.040 191.250,87.155 191.600,86.840 191.600 C 86.524 191.600,86.365 191.699,86.486 191.819 C 86.842 192.176,88.523 191.619,89.600 190.789 C 90.862 189.816,90.591 189.828,88.806 190.823 M173.400 190.827 C 172.740 191.250,172.405 191.597,172.656 191.598 C 172.906 191.599,173.536 191.246,174.056 190.813 C 175.245 189.823,174.959 189.829,173.400 190.827 M195.700 190.288 C 195.425 190.386,195.203 190.767,195.206 191.133 C 195.211 191.705,195.266 191.715,195.588 191.206 C 195.914 190.691,196.141 190.685,197.282 191.163 C 198.007 191.466,199.410 191.766,200.400 191.828 L 202.200 191.941 200.400 191.650 C 199.410 191.489,198.060 191.077,197.400 190.734 C 196.740 190.391,195.975 190.190,195.700 190.288 M365.696 190.672 C 365.199 191.019,364.209 191.456,363.496 191.644 C 362.248 191.973,362.258 191.980,363.750 191.810 C 364.602 191.713,365.606 191.357,365.981 191.017 C 366.903 190.183,367.732 190.241,368.600 191.200 C 368.998 191.640,369.611 191.989,369.962 191.975 C 370.422 191.956,370.373 191.857,369.786 191.619 C 369.338 191.438,368.731 190.999,368.437 190.645 C 367.772 189.844,366.871 189.853,365.696 190.672 M134.800 191.156 C 135.350 191.611,136.070 191.985,136.400 191.989 C 136.926 191.994,136.606 191.781,134.301 190.590 C 134.026 190.447,134.250 190.702,134.800 191.156 M49.787 193.228 C 49.381 194.128,48.248 195.570,47.268 196.432 C 46.289 197.295,45.602 198.000,45.743 198.000 C 46.835 198.000,51.300 192.366,50.690 191.757 C 50.600 191.666,50.193 192.328,49.787 193.228 M306.900 191.876 C 307.285 191.976,307.915 191.976,308.300 191.876 C 308.685 191.775,308.370 191.693,307.600 191.693 C 306.830 191.693,306.515 191.775,306.900 191.876 M82.700 192.282 C 83.195 192.378,84.005 192.378,84.500 192.282 C 84.995 192.187,84.590 192.109,83.600 192.109 C 82.610 192.109,82.205 192.187,82.700 192.282 M109.700 192.276 C 110.085 192.376,110.715 192.376,111.100 192.276 C 111.485 192.175,111.170 192.093,110.400 192.093 C 109.630 192.093,109.315 192.175,109.700 192.276 M139.105 192.283 C 139.602 192.379,140.322 192.375,140.705 192.275 C 141.087 192.175,140.680 192.096,139.800 192.101 C 138.920 192.105,138.607 192.187,139.105 192.283 M167.100 192.282 C 167.595 192.378,168.405 192.378,168.900 192.282 C 169.395 192.187,168.990 192.109,168.000 192.109 C 167.010 192.109,166.605 192.187,167.100 192.282 M28.667 194.267 C 28.169 194.764,28.397 195.900,29.100 196.432 C 29.696 196.882,29.725 196.878,29.300 196.401 C 28.581 195.594,28.685 194.489,29.500 194.276 C 30.061 194.129,30.074 194.084,29.567 194.046 C 29.218 194.021,28.813 194.120,28.667 194.267 M45.005 195.439 C 43.907 196.187,43.146 196.800,43.313 196.800 C 43.760 196.800,46.691 194.900,46.990 194.416 C 47.336 193.856,47.291 193.879,45.005 195.439 M195.260 196.526 C 195.113 199.290,192.920 200.157,190.982 198.218 C 190.442 197.678,190.000 197.377,190.000 197.548 C 190.000 198.320,191.945 199.600,193.117 199.600 C 194.658 199.600,195.740 198.198,195.489 196.526 L 195.320 195.400 195.260 196.526 M39.400 197.200 L 37.400 197.474 39.200 197.497 C 40.190 197.510,41.450 197.376,42.000 197.200 C 43.244 196.801,42.306 196.801,39.400 197.200 M157.067 197.467 C 155.689 198.844,167.530 210.659,173.436 213.799 C 174.470 214.349,175.515 214.961,175.758 215.160 C 176.001 215.360,178.090 216.300,180.400 217.250 L 184.600 218.977 191.400 218.975 L 198.200 218.973 201.600 217.562 C 206.231 215.640,209.222 213.454,212.300 209.740 C 213.952 207.747,214.516 205.993,213.500 206.007 C 208.455 206.079,206.001 206.767,203.072 208.934 C 193.697 215.867,183.131 215.923,173.167 209.094 C 171.808 208.162,170.314 207.143,169.848 206.830 C 169.381 206.516,167.473 204.806,165.606 203.030 C 163.740 201.253,162.840 200.499,163.606 201.353 C 166.374 204.438,168.651 206.469,171.400 208.306 C 172.940 209.335,174.560 210.473,175.000 210.833 C 175.440 211.194,176.160 211.590,176.600 211.713 C 177.040 211.836,178.750 212.515,180.400 213.221 C 185.323 215.330,195.352 215.034,198.305 212.694 C 198.582 212.474,199.333 212.003,199.972 211.647 C 200.612 211.291,202.365 210.169,203.868 209.154 C 206.500 207.375,213.600 205.992,213.600 207.258 C 213.600 207.978,211.669 208.563,209.677 208.447 C 207.897 208.343,207.299 208.500,205.977 209.416 C 204.382 210.521,203.899 211.600,205.000 211.600 C 205.330 211.600,205.600 211.786,205.600 212.013 C 205.600 212.650,204.400 212.960,203.893 212.453 C 203.242 211.802,202.400 211.895,202.400 212.618 C 202.400 212.957,202.625 213.199,202.900 213.154 C 203.175 213.110,203.710 213.210,204.090 213.376 C 204.789 213.682,206.986 212.573,208.575 211.113 C 209.414 210.342,210.400 210.165,210.400 210.784 C 210.400 211.326,208.820 212.753,207.400 213.494 C 206.740 213.838,205.965 214.452,205.677 214.860 C 205.390 215.267,204.871 215.600,204.525 215.600 C 204.178 215.600,203.333 215.938,202.647 216.351 C 198.568 218.806,187.835 219.509,183.000 217.636 C 181.680 217.125,179.790 216.430,178.800 216.093 C 177.810 215.755,176.730 215.248,176.399 214.967 C 176.069 214.686,175.349 214.264,174.799 214.029 C 171.490 212.615,166.392 208.452,160.316 202.200 C 156.651 198.429,156.455 196.912,159.800 198.200 L 160.600 198.508 159.800 197.867 C 158.976 197.206,157.538 196.996,157.067 197.467 M34.200 198.874 C 35.529 199.679,41.562 199.795,43.200 199.047 C 43.970 198.696,44.150 198.541,43.600 198.704 C 42.290 199.092,36.134 199.085,34.600 198.695 C 33.550 198.427,33.500 198.449,34.200 198.874 M199.200 214.315 C 199.200 214.488,199.740 214.671,200.400 214.721 C 201.060 214.772,201.600 214.630,201.600 214.406 C 201.600 214.183,201.060 214.000,200.400 214.000 C 199.740 214.000,199.200 214.142,199.200 214.315 " stroke="none" fill="#7ca4bc" fill-rule="evenodd"></path></g></svg>