<svg id="svg" version="1.1" xmlns="http://www.w3.org/2000/svg" xmlns:xlink="http://www.w3.org/1999/xlink" width="400" height="400" viewBox="0, 0, 400,400"><g id="svgg"><path id="path0" d="M195.733 65.070 C 169.197 67.838,146.547 86.069,138.256 111.333 C 136.531 116.590,135.219 123.383,135.205 127.133 C 135.200 128.504,135.183 128.533,134.416 128.533 L 133.631 128.533 133.779 130.333 L 133.926 132.133 130.896 134.107 C 106.498 150.001,106.495 187.026,130.891 202.667 C 132.515 203.708,133.642 204.613,133.713 204.933 C 133.839 205.494,138.154 276.129,138.141 277.407 C 138.133 278.132,138.118 278.139,137.384 277.760 L 136.635 277.372 136.872 279.211 C 137.675 285.434,128.879 295.733,122.761 295.733 C 122.252 295.733,120.432 296.086,118.718 296.516 C 114.838 297.490,108.569 298.748,104.539 299.361 C 102.237 299.711,101.642 299.877,102.139 300.032 C 103.300 300.395,119.212 302.448,122.533 302.663 C 124.889 302.816,126.050 303.018,126.933 303.430 C 129.568 304.656,134.405 303.443,136.924 300.924 L 137.867 299.982 137.867 292.204 C 137.867 275.106,138.725 286.150,142.521 352.109 C 142.975 360.003,142.943 360.199,140.955 361.664 C 138.355 363.581,131.528 365.812,115.486 369.986 C 112.343 370.804,109.713 371.532,109.641 371.603 C 109.274 371.971,144.192 371.712,145.977 371.334 C 150.953 370.279,154.350 367.211,155.718 362.533 C 155.890 361.947,156.265 357.747,156.551 353.200 C 157.181 343.224,159.974 301.951,160.071 301.200 C 160.192 300.259,161.182 353.981,161.191 362.000 C 161.201 370.753,161.245 370.538,159.019 372.671 C 156.061 375.506,153.959 376.174,138.133 379.317 C 131.020 380.730,124.960 381.997,124.667 382.133 C 123.313 382.759,159.964 382.281,162.394 381.641 C 169.299 379.822,173.023 376.025,173.592 370.225 C 173.719 368.928,174.573 356.407,175.489 342.400 C 176.405 328.393,177.236 316.839,177.334 316.723 C 177.433 316.607,177.589 320.507,177.682 325.390 C 177.774 330.272,178.049 344.051,178.294 356.009 C 178.814 381.486,178.951 379.776,176.179 382.522 C 173.631 385.047,169.455 386.800,162.267 388.364 C 160.653 388.715,156.033 389.847,152.000 390.881 C 147.967 391.914,143.467 393.025,142.000 393.349 C 140.533 393.674,139.219 394.043,139.080 394.170 C 138.586 394.619,173.687 394.448,176.533 393.988 C 182.058 393.094,185.913 391.219,189.337 387.760 C 193.025 384.036,192.836 384.618,196.664 365.166 C 198.468 356.000,199.986 348.459,200.038 348.408 C 200.091 348.357,201.553 355.594,203.289 364.491 C 206.855 382.771,206.786 382.498,208.507 385.131 C 211.318 389.430,215.691 392.214,222.111 393.792 C 224.148 394.292,261.976 394.619,260.933 394.127 C 260.640 393.989,257.820 393.271,254.667 392.532 C 251.513 391.794,246.953 390.660,244.533 390.013 C 242.113 389.365,238.693 388.518,236.933 388.130 C 228.568 386.286,223.937 383.830,222.215 380.324 L 221.467 378.800 221.538 372.267 C 221.638 363.208,222.343 328.351,222.574 321.067 L 222.764 315.067 224.688 343.693 L 226.612 372.320 227.564 374.247 C 229.676 378.519,233.743 381.058,240.000 382.011 C 242.888 382.451,276.718 382.561,275.467 382.126 C 275.100 381.999,268.980 380.736,261.867 379.320 C 244.639 375.890,241.970 374.860,239.519 370.689 L 238.800 369.467 238.852 363.067 C 239.023 341.800,239.945 300.706,240.191 303.333 C 240.450 306.089,243.244 348.368,243.478 353.067 C 244.107 365.689,246.442 369.727,254.044 371.338 C 255.834 371.717,290.720 371.965,290.351 371.596 C 290.275 371.520,287.465 370.734,284.107 369.849 C 265.625 364.981,260.427 363.156,258.278 360.777 L 257.253 359.643 257.422 355.488 C 257.514 353.203,258.252 340.473,259.060 327.200 C 259.869 313.927,260.531 302.931,260.532 302.764 C 260.533 302.576,261.131 302.703,262.111 303.099 C 264.546 304.083,267.354 304.230,269.121 303.466 C 270.211 302.995,271.325 302.805,274.000 302.636 C 277.150 302.437,293.654 300.477,295.165 300.122 C 296.137 299.894,295.857 299.812,291.996 299.196 C 287.639 298.500,281.748 297.298,278.284 296.398 C 276.877 296.032,275.259 295.733,274.687 295.733 C 272.120 295.733,268.751 294.077,266.566 291.741 C 264.423 289.449,261.443 284.404,261.710 283.517 C 261.784 283.269,261.865 281.807,261.890 280.267 C 261.935 277.430,266.332 204.489,266.463 204.409 C 293.073 188.234,295.085 152.344,270.360 134.868 L 267.816 133.070 267.646 128.868 C 266.113 91.029,232.527 61.232,195.733 65.070 M177.333 86.830 C 184.673 90.150,184.592 100.525,177.200 103.905 C 171.171 106.663,164.187 102.083,164.187 95.371 C 164.187 88.492,171.092 84.006,177.333 86.830 M153.653 136.538 C 178.038 138.850,190.967 165.861,177.428 186.209 C 166.350 202.860,142.601 205.213,128.400 191.067 C 109.289 172.030,120.833 139.398,147.684 136.555 C 150.638 136.242,150.536 136.242,153.653 136.538 M252.473 136.958 C 271.430 140.348,283.190 160.643,276.760 178.873 C 268.899 201.159,240.634 207.634,223.967 190.967 C 201.839 168.839,221.581 131.434,252.473 136.958 M176.803 229.133 C 177.094 229.610,177.332 229.840,177.332 229.645 C 177.333 229.450,178.410 230.366,179.725 231.682 C 193.495 245.452,211.876 246.234,221.867 233.476 C 224.269 230.408,224.056 230.296,223.893 234.533 C 223.316 249.496,217.025 261.965,207.867 266.302 C 192.229 273.706,177.579 257.669,176.104 231.533 C 175.907 228.038,175.981 227.785,176.803 229.133 " stroke="none" fill="#eb774b" fill-rule="evenodd"></path><path id="path1" d="M194.000 4.978 C 129.167 8.117,74.278 53.508,60.230 115.600 C 59.798 117.507,59.395 119.215,59.333 119.395 C 59.256 119.619,58.778 119.449,57.839 118.865 C 55.268 117.267,51.381 117.517,49.275 119.416 C 47.049 121.422,47.212 118.925,47.206 151.081 L 47.200 179.629 47.903 181.039 C 49.949 185.145,56.165 185.762,59.245 182.164 L 60.147 181.110 61.036 184.622 C 70.773 223.114,97.568 256.875,133.308 275.683 L 136.615 277.423 136.430 275.378 C 136.235 273.234,136.315 273.077,137.265 273.742 L 137.848 274.151 137.711 272.475 C 137.520 270.137,133.600 206.102,133.600 205.311 C 133.600 204.785,133.071 204.323,130.733 202.800 C 106.309 186.895,106.311 149.918,130.735 134.000 L 133.600 132.133 133.600 130.333 C 133.600 128.636,133.635 128.533,134.210 128.533 C 134.796 128.533,134.832 128.402,135.146 125.133 C 136.756 108.387,145.288 92.236,158.533 80.860 C 200.797 44.564,265.245 73.040,267.897 129.183 L 268.081 133.069 270.632 134.868 C 292.019 149.951,293.621 182.188,273.840 199.397 C 272.010 200.989,267.697 204.057,266.928 204.313 C 266.685 204.394,266.462 206.538,266.114 212.146 C 263.065 261.330,262.095 277.651,262.213 277.769 C 262.428 277.984,269.294 274.425,273.467 271.935 C 305.362 252.901,328.774 222.217,338.526 186.667 C 338.908 185.273,339.266 183.999,339.322 183.834 C 339.392 183.628,339.910 183.700,340.979 184.063 C 344.560 185.279,348.080 183.972,349.770 180.800 C 350.367 179.679,350.698 125.519,350.124 122.757 C 349.434 119.433,346.938 117.751,342.924 117.906 L 340.498 118.000 339.213 112.933 C 322.586 47.372,261.186 1.726,194.000 4.978 M147.467 136.699 C 123.567 139.744,111.343 165.907,124.412 186.044 C 138.691 208.046,173.004 203.343,181.159 178.267 C 188.233 156.516,169.859 133.847,147.467 136.699 M242.267 136.834 C 221.005 139.490,208.440 163.117,218.005 182.456 C 228.867 204.418,259.571 206.379,273.048 185.972 C 288.106 163.173,269.477 133.435,242.267 136.834 M154.450 155.717 C 159.358 157.579,161.656 163.718,159.264 168.577 C 154.896 177.450,141.600 174.306,141.600 164.400 C 141.600 157.624,148.028 153.281,154.450 155.717 M250.074 155.736 C 255.804 158.262,257.696 164.658,254.229 169.781 C 250.198 175.737,241.187 174.894,238.034 168.267 C 234.454 160.742,242.479 152.389,250.074 155.736 M177.689 232.004 C 178.973 249.039,196.235 258.390,212.133 250.662 C 219.343 247.158,222.950 241.588,223.865 232.544 L 224.039 230.821 222.857 232.411 C 212.568 246.249,194.787 246.245,180.307 232.400 L 177.518 229.733 177.689 232.004 " stroke="none" fill="#ddedf7" fill-rule="evenodd"></path><path id="path2" d="M148.086 155.568 C 138.080 158.837,140.407 173.466,150.933 173.466 C 160.632 173.467,163.701 160.423,155.011 156.135 C 153.168 155.226,149.943 154.962,148.086 155.568 M243.697 155.602 C 233.737 158.795,236.067 173.467,246.533 173.466 C 258.530 173.466,258.924 155.784,246.939 155.288 C 245.677 155.236,244.475 155.353,243.697 155.602 M176.275 230.943 C 176.245 239.053,179.037 249.623,182.955 256.230 C 196.160 278.499,221.122 267.137,223.588 237.733 L 223.744 235.867 223.055 238.133 C 221.165 244.346,216.460 249.370,210.409 251.636 C 194.644 257.541,179.774 249.120,177.609 233.060 C 176.988 228.459,176.289 227.348,176.275 230.943 " stroke="none" fill="#050505" fill-rule="evenodd"></path><path id="path3" d="M170.933 86.368 C 160.658 89.738,162.827 104.404,173.600 104.399 C 185.489 104.393,185.750 86.602,173.867 86.221 C 172.620 86.181,171.300 86.247,170.933 86.368 M128.121 145.933 L 127.067 147.067 128.200 146.013 C 129.254 145.032,129.456 144.800,129.254 144.800 C 129.211 144.800,128.701 145.310,128.121 145.933 M128.133 190.933 C 128.706 191.520,129.235 192.000,129.308 192.000 C 129.382 192.000,128.973 191.520,128.400 190.933 C 127.827 190.347,127.298 189.867,127.225 189.867 C 127.152 189.867,127.560 190.347,128.133 190.933 " stroke="none" fill="#f2ac86" fill-rule="evenodd"></path><path id="path4" d="M248.533 84.617 C 248.533 84.663,248.923 85.053,249.400 85.483 L 250.267 86.267 249.483 85.400 C 248.753 84.592,248.533 84.411,248.533 84.617 " stroke="none" fill="#da9583" fill-rule="evenodd"></path><path id="path5" d="M160.076 164.400 C 160.078 165.133,160.130 165.402,160.191 164.996 C 160.253 164.591,160.251 163.991,160.188 163.663 C 160.124 163.335,160.074 163.667,160.076 164.400 M176.052 230.333 L 176.104 232.400 176.198 230.592 C 176.266 229.272,176.378 228.836,176.612 228.976 C 176.807 229.093,176.790 228.992,176.567 228.718 C 176.017 228.039,175.996 228.103,176.052 230.333 M223.686 234.953 C 223.629 235.551,223.676 236.098,223.791 236.169 C 223.906 236.240,224.000 235.751,224.000 235.082 C 224.000 233.573,223.824 233.501,223.686 234.953 M213.454 262.200 L 212.400 263.333 213.533 262.279 C 214.587 261.299,214.789 261.067,214.587 261.067 C 214.544 261.067,214.034 261.577,213.454 262.200 M199.533 268.184 C 199.790 268.251,200.210 268.251,200.467 268.184 C 200.723 268.117,200.513 268.062,200.000 268.062 C 199.487 268.062,199.277 268.117,199.533 268.184 " stroke="none" fill="#8c482c" fill-rule="evenodd"></path><path id="path6" d="M173.003 86.055 C 173.335 86.119,173.815 86.117,174.070 86.050 C 174.325 85.983,174.053 85.931,173.467 85.934 C 172.880 85.937,172.671 85.991,173.003 86.055 M182.743 95.333 C 182.745 96.067,182.797 96.335,182.858 95.930 C 182.919 95.524,182.918 94.924,182.854 94.596 C 182.791 94.268,182.741 94.600,182.743 95.333 M173.003 104.722 C 173.335 104.786,173.815 104.783,174.070 104.717 C 174.325 104.650,174.053 104.598,173.467 104.601 C 172.880 104.604,172.671 104.658,173.003 104.722 M133.662 130.400 C 133.662 130.913,133.717 131.123,133.784 130.867 C 133.851 130.610,133.851 130.190,133.784 129.933 C 133.717 129.677,133.662 129.887,133.662 130.400 M150.204 136.458 C 150.609 136.519,151.209 136.518,151.537 136.454 C 151.865 136.391,151.533 136.341,150.800 136.343 C 150.067 136.345,149.798 136.397,150.204 136.458 M245.937 136.458 C 246.342 136.519,246.942 136.518,247.270 136.454 C 247.598 136.391,247.267 136.341,246.533 136.343 C 245.800 136.345,245.532 136.397,245.937 136.458 M124.383 139.267 L 123.600 140.133 124.467 139.350 C 125.275 138.620,125.456 138.400,125.250 138.400 C 125.204 138.400,124.814 138.790,124.383 139.267 M173.322 145.667 C 173.976 146.363,174.546 146.933,174.589 146.933 C 174.789 146.933,174.577 146.694,173.400 145.589 L 172.133 144.400 173.322 145.667 M112.349 168.400 C 112.351 169.280,112.401 169.608,112.460 169.129 C 112.519 168.649,112.518 167.929,112.457 167.529 C 112.396 167.128,112.348 167.520,112.349 168.400 M278.476 168.400 C 278.478 169.133,278.530 169.402,278.591 168.996 C 278.653 168.591,278.651 167.991,278.588 167.663 C 278.524 167.335,278.474 167.667,278.476 168.400 M173.319 191.133 L 172.400 192.133 173.400 191.214 C 173.950 190.709,174.400 190.259,174.400 190.214 C 174.400 190.011,174.174 190.203,173.319 191.133 M150.467 200.450 C 150.723 200.518,151.143 200.518,151.400 200.450 C 151.657 200.383,151.447 200.329,150.933 200.329 C 150.420 200.329,150.210 200.383,150.467 200.450 " stroke="none" fill="#f4946c" fill-rule="evenodd"></path><path id="path7" d="M200.333 64.728 C 200.883 64.785,201.783 64.785,202.333 64.728 C 202.883 64.670,202.433 64.623,201.333 64.623 C 200.233 64.623,199.783 64.670,200.333 64.728 M156.252 82.867 L 155.333 83.867 156.333 82.948 C 157.264 82.092,157.456 81.867,157.252 81.867 C 157.208 81.867,156.758 82.317,156.252 82.867 M152.786 86.333 L 151.867 87.333 152.867 86.414 C 153.797 85.559,153.989 85.333,153.786 85.333 C 153.741 85.333,153.291 85.783,152.786 86.333 M267.776 130.584 C 267.753 131.932,267.823 133.091,267.933 133.160 C 268.043 133.228,268.100 132.485,268.060 131.509 C 267.932 128.415,267.820 128.052,267.776 130.584 M275.600 139.200 C 276.322 139.933,276.973 140.533,277.047 140.533 C 277.120 140.533,276.589 139.933,275.867 139.200 C 275.144 138.467,274.493 137.867,274.420 137.867 C 274.347 137.867,274.878 138.467,275.600 139.200 M119.032 168.267 C 119.032 169.807,119.076 170.437,119.130 169.667 C 119.184 168.897,119.184 167.637,119.130 166.867 C 119.076 166.097,119.032 166.727,119.032 168.267 M182.754 168.400 C 182.755 169.427,182.804 169.814,182.861 169.261 C 182.919 168.707,182.918 167.867,182.859 167.394 C 182.800 166.921,182.753 167.373,182.754 168.400 M275.587 197.667 L 274.533 198.800 275.667 197.746 C 276.290 197.166,276.800 196.656,276.800 196.613 C 276.800 196.411,276.568 196.613,275.587 197.667 M202.071 242.860 C 202.551 242.919,203.271 242.918,203.671 242.857 C 204.072 242.796,203.680 242.748,202.800 242.749 C 201.920 242.751,201.592 242.801,202.071 242.860 M136.073 245.867 C 136.073 246.527,136.125 246.797,136.188 246.467 C 136.252 246.137,136.252 245.597,136.188 245.267 C 136.125 244.937,136.073 245.207,136.073 245.867 M263.801 247.600 C 263.804 248.187,263.858 248.395,263.922 248.064 C 263.986 247.732,263.983 247.252,263.917 246.997 C 263.850 246.742,263.798 247.013,263.801 247.600 M136.334 250.267 C 136.337 250.853,136.391 251.062,136.455 250.730 C 136.519 250.399,136.517 249.919,136.450 249.664 C 136.383 249.409,136.331 249.680,136.334 250.267 M263.534 251.867 C 263.537 252.453,263.591 252.662,263.655 252.330 C 263.719 251.999,263.717 251.519,263.650 251.264 C 263.583 251.009,263.531 251.280,263.534 251.867 M136.601 254.533 C 136.604 255.120,136.658 255.329,136.722 254.997 C 136.786 254.665,136.783 254.185,136.717 253.930 C 136.650 253.675,136.598 253.947,136.601 254.533 M263.267 256.133 C 263.270 256.720,263.325 256.929,263.389 256.597 C 263.452 256.265,263.450 255.785,263.383 255.530 C 263.316 255.275,263.264 255.547,263.267 256.133 M136.867 258.800 C 136.870 259.387,136.925 259.595,136.989 259.264 C 137.052 258.932,137.050 258.452,136.983 258.197 C 136.916 257.942,136.864 258.213,136.867 258.800 M263.006 260.533 C 263.006 261.193,263.058 261.463,263.122 261.133 C 263.185 260.803,263.185 260.263,263.122 259.933 C 263.058 259.603,263.006 259.873,263.006 260.533 M137.139 263.200 C 137.139 263.860,137.191 264.130,137.255 263.800 C 137.318 263.470,137.318 262.930,137.255 262.600 C 137.191 262.270,137.139 262.540,137.139 263.200 M262.739 264.800 C 262.739 265.460,262.791 265.730,262.855 265.400 C 262.918 265.070,262.918 264.530,262.855 264.200 C 262.791 263.870,262.739 264.140,262.739 264.800 M137.401 267.600 C 137.404 268.187,137.458 268.395,137.522 268.064 C 137.586 267.732,137.583 267.252,137.517 266.997 C 137.450 266.742,137.398 267.013,137.401 267.600 M262.467 269.200 C 262.470 269.787,262.525 269.995,262.589 269.664 C 262.652 269.332,262.650 268.852,262.583 268.597 C 262.516 268.342,262.464 268.613,262.467 269.200 M137.673 272.000 C 137.673 272.660,137.725 272.930,137.788 272.600 C 137.852 272.270,137.852 271.730,137.788 271.400 C 137.725 271.070,137.673 271.340,137.673 272.000 M136.364 274.571 C 136.457 275.251,136.533 276.125,136.533 276.512 C 136.533 277.038,136.722 277.288,137.276 277.497 L 138.020 277.777 137.922 276.022 C 137.846 274.669,137.700 274.160,137.282 273.800 C 136.396 273.036,136.179 273.219,136.364 274.571 " stroke="none" fill="#dfbeba" fill-rule="evenodd"></path><path id="path8" d="M150.467 155.117 C 150.723 155.184,151.143 155.184,151.400 155.117 C 151.657 155.050,151.447 154.995,150.933 154.995 C 150.420 154.995,150.210 155.050,150.467 155.117 M246.200 155.117 C 246.457 155.184,246.877 155.184,247.133 155.117 C 247.390 155.050,247.180 154.995,246.667 154.995 C 246.153 154.995,245.943 155.050,246.200 155.117 M255.801 164.400 C 255.804 164.987,255.858 165.195,255.922 164.864 C 255.986 164.532,255.983 164.052,255.917 163.797 C 255.850 163.542,255.798 163.813,255.801 164.400 M150.333 173.788 C 150.663 173.852,151.203 173.852,151.533 173.788 C 151.863 173.725,151.593 173.673,150.933 173.673 C 150.273 173.673,150.003 173.725,150.333 173.788 M246.070 173.789 C 246.401 173.852,246.881 173.850,247.136 173.783 C 247.391 173.716,247.120 173.664,246.533 173.667 C 245.947 173.670,245.738 173.725,246.070 173.789 " stroke="none" fill="#acacac" fill-rule="evenodd"></path></g></svg>