<svg id="svg" version="1.1" xmlns="http://www.w3.org/2000/svg" xmlns:xlink="http://www.w3.org/1999/xlink" width="400" height="400" viewBox="0, 0, 400,400"><g id="svgg"><path id="path0" d="M75.107 169.866 C 76.715 171.532,77.539 172.524,79.379 175.008 C 80.027 175.884,80.658 176.690,80.781 176.800 C 80.904 176.910,81.540 177.720,82.196 178.600 C 82.851 179.480,83.602 180.470,83.865 180.800 C 86.094 183.598,88.336 186.468,89.000 187.374 C 89.440 187.974,90.070 188.795,90.400 189.199 C 90.730 189.602,91.270 190.263,91.600 190.667 C 91.930 191.070,93.454 193.021,94.986 195.000 C 96.518 196.980,97.913 198.660,98.086 198.733 C 98.259 198.807,98.400 199.045,98.400 199.262 C 98.400 199.479,98.625 199.890,98.900 200.175 C 100.152 201.473,101.200 202.837,101.200 203.170 C 101.200 203.370,101.341 203.593,101.514 203.667 C 101.687 203.740,103.082 205.420,104.614 207.400 C 107.700 211.387,108.404 212.274,109.014 212.945 C 109.242 213.195,109.959 214.120,110.606 215.000 C 112.768 217.940,117.792 224.198,118.098 224.333 C 118.264 224.407,118.400 224.722,118.400 225.033 C 118.400 225.345,118.535 225.601,118.700 225.603 C 118.865 225.604,119.450 226.266,120.000 227.074 C 120.550 227.881,121.186 228.735,121.414 228.971 C 121.642 229.207,123.432 231.470,125.393 234.000 C 127.353 236.530,129.282 238.949,129.679 239.375 C 130.075 239.802,130.400 240.269,130.400 240.413 C 130.400 240.558,130.856 241.199,131.414 241.838 C 131.972 242.477,133.187 243.990,134.113 245.200 C 135.040 246.410,135.898 247.490,136.020 247.600 C 136.142 247.710,136.772 248.520,137.419 249.400 C 138.066 250.280,138.696 251.090,138.819 251.200 C 138.942 251.310,139.572 252.120,140.219 253.000 C 140.866 253.880,141.491 254.690,141.607 254.800 C 141.723 254.910,144.328 258.240,147.396 262.200 C 150.464 266.160,153.079 269.490,153.208 269.600 C 153.337 269.710,153.972 270.520,154.619 271.400 C 155.266 272.280,155.896 273.090,156.019 273.200 C 156.142 273.310,156.773 274.116,157.421 274.992 C 158.846 276.916,158.618 276.623,163.492 282.800 C 165.663 285.550,168.238 288.880,169.217 290.200 C 170.195 291.520,171.091 292.690,171.207 292.800 C 171.324 292.910,172.401 294.260,173.600 295.800 C 174.799 297.340,175.885 298.690,176.012 298.800 C 176.138 298.910,176.773 299.720,177.421 300.600 C 178.368 301.885,182.956 307.797,185.338 310.800 C 185.599 311.130,186.349 312.120,187.004 313.000 C 187.660 313.880,188.294 314.690,188.414 314.800 C 189.668 315.949,195.837 324.432,196.571 326.017 C 197.455 327.924,197.562 328.018,197.973 327.250 C 198.329 326.585,198.309 326.460,197.872 326.628 C 197.259 326.863,195.557 323.407,194.562 319.906 C 194.233 318.748,193.811 317.440,193.625 317.000 C 193.439 316.560,192.795 314.580,192.194 312.600 C 191.593 310.620,190.958 308.640,190.783 308.200 C 190.607 307.760,189.529 304.430,188.387 300.800 C 187.244 297.170,186.165 293.840,185.989 293.400 C 185.676 292.619,185.480 292.017,183.391 285.400 C 182.835 283.640,182.224 281.840,182.032 281.400 C 181.841 280.960,181.205 278.980,180.619 277.000 C 180.032 275.020,179.399 273.040,179.213 272.600 C 179.026 272.160,177.757 268.290,176.394 264.000 C 175.031 259.710,173.774 255.840,173.601 255.400 C 173.428 254.960,172.795 252.980,172.194 251.000 C 171.593 249.020,170.957 247.040,170.779 246.600 C 170.602 246.160,170.161 244.810,169.800 243.600 C 169.439 242.390,168.995 241.040,168.814 240.600 C 168.634 240.160,167.995 238.180,167.394 236.200 C 166.793 234.220,166.153 232.240,165.972 231.800 C 165.791 231.360,165.161 229.470,164.573 227.600 C 163.985 225.730,162.471 221.050,161.209 217.200 C 159.947 213.350,157.786 206.690,156.408 202.400 C 155.029 198.110,153.763 194.240,153.594 193.800 C 153.424 193.360,152.795 191.380,152.194 189.400 C 151.593 187.420,150.957 185.440,150.779 185.000 C 150.602 184.560,150.161 183.210,149.800 182.000 C 149.439 180.790,148.995 179.440,148.814 179.000 C 148.634 178.560,147.990 176.580,147.384 174.600 C 146.778 172.620,146.085 170.505,145.843 169.900 L 145.405 168.800 110.135 168.800 C 90.737 168.800,74.584 168.692,74.240 168.560 C 73.895 168.428,74.286 169.016,75.107 169.866 M249.467 170.100 C 249.154 170.815,248.415 173.020,247.825 175.000 C 247.235 176.980,246.605 178.960,246.425 179.400 C 246.246 179.840,245.591 181.820,244.972 183.800 C 244.352 185.780,243.725 187.670,243.579 188.000 C 243.432 188.330,242.818 190.220,242.213 192.200 C 241.608 194.180,240.965 196.160,240.785 196.600 C 240.605 197.040,240.161 198.390,239.800 199.600 C 239.439 200.810,238.999 202.160,238.823 202.600 C 238.646 203.040,237.825 205.560,236.998 208.200 C 235.212 213.901,234.426 216.316,234.003 217.400 C 233.832 217.840,233.473 219.010,233.207 220.000 C 232.941 220.990,232.470 222.391,232.162 223.114 C 231.853 223.836,231.600 224.745,231.600 225.134 C 231.600 225.522,231.447 226.011,231.259 226.220 C 231.071 226.429,230.686 227.500,230.403 228.600 C 230.120 229.700,229.669 231.140,229.402 231.800 C 229.135 232.460,228.233 235.160,227.398 237.800 C 224.617 246.593,221.117 257.390,220.785 258.200 C 220.605 258.640,220.165 259.990,219.807 261.200 C 219.450 262.410,218.987 263.713,218.779 264.095 C 218.570 264.477,218.400 265.206,218.400 265.715 C 218.400 266.224,218.257 266.811,218.082 267.020 C 217.907 267.229,217.436 268.480,217.036 269.800 C 216.635 271.120,216.167 272.560,215.996 273.000 C 215.825 273.440,215.018 275.960,214.203 278.600 C 213.387 281.240,212.468 283.991,212.160 284.714 C 211.852 285.436,211.600 286.293,211.600 286.619 C 211.600 286.945,211.430 287.523,211.221 287.905 C 211.013 288.287,210.550 289.590,210.193 290.800 C 209.835 292.010,209.398 293.360,209.221 293.800 C 209.043 294.240,208.407 296.220,207.806 298.200 C 207.205 300.180,206.575 302.160,206.406 302.600 C 206.237 303.040,205.610 304.930,205.013 306.800 C 204.416 308.670,203.792 310.560,203.626 311.000 C 203.460 311.440,202.830 313.420,202.225 315.400 C 201.621 317.380,200.963 319.313,200.763 319.695 C 200.563 320.077,200.400 320.647,200.400 320.961 C 200.400 321.276,200.029 322.400,199.575 323.459 C 198.604 325.725,198.585 325.738,201.025 322.400 C 202.070 320.970,203.033 319.710,203.165 319.600 C 203.297 319.490,203.934 318.680,204.581 317.800 C 205.228 316.920,205.858 316.110,205.981 316.000 C 206.104 315.890,206.740 315.080,207.396 314.200 C 208.051 313.320,208.802 312.330,209.065 312.000 C 210.092 310.711,213.480 306.366,215.000 304.388 C 215.880 303.243,217.140 301.625,217.800 300.792 C 218.460 299.959,219.897 298.136,220.994 296.739 C 222.091 295.343,223.082 294.110,223.196 294.000 C 223.311 293.890,223.934 293.080,224.581 292.200 C 225.228 291.320,225.857 290.510,225.979 290.400 C 226.100 290.290,227.631 288.310,229.379 286.000 C 231.128 283.690,232.659 281.710,232.782 281.600 C 232.904 281.490,233.540 280.680,234.196 279.800 C 234.851 278.920,235.610 277.930,235.884 277.600 C 236.158 277.270,237.659 275.380,239.220 273.400 C 240.782 271.420,242.406 269.394,242.830 268.897 C 243.253 268.400,243.600 267.830,243.600 267.630 C 243.600 267.430,243.743 267.207,243.917 267.133 C 244.092 267.060,246.112 264.570,248.406 261.600 C 250.700 258.630,252.673 256.110,252.791 256.000 C 252.908 255.890,253.537 255.080,254.188 254.200 C 254.839 253.320,255.558 252.395,255.786 252.145 C 256.013 251.894,256.920 250.754,257.800 249.610 C 259.244 247.733,260.437 246.203,264.200 241.403 C 264.860 240.561,265.760 239.376,266.200 238.771 C 267.128 237.495,274.191 228.469,277.917 223.800 C 280.787 220.203,280.939 220.007,282.579 217.792 C 283.227 216.916,283.858 216.110,283.981 216.000 C 284.104 215.890,284.734 215.080,285.381 214.200 C 286.028 213.320,286.669 212.510,286.806 212.400 C 286.942 212.290,287.850 211.120,288.824 209.800 C 289.799 208.480,290.696 207.310,290.819 207.200 C 290.942 207.090,291.572 206.280,292.219 205.400 C 292.866 204.520,293.487 203.710,293.600 203.600 C 293.713 203.490,294.334 202.680,294.981 201.800 C 295.628 200.920,296.262 200.110,296.388 200.000 C 296.515 199.890,297.601 198.540,298.800 197.000 C 299.999 195.460,301.076 194.110,301.193 194.000 C 301.309 193.890,301.935 193.080,302.584 192.200 C 303.538 190.904,308.387 184.684,310.534 182.000 C 310.798 181.670,311.549 180.680,312.204 179.800 C 312.860 178.920,313.487 178.110,313.600 178.000 C 313.713 177.890,314.337 177.080,314.988 176.200 C 315.639 175.320,316.358 174.407,316.586 174.170 C 316.813 173.934,317.450 173.151,318.000 172.431 C 318.550 171.711,319.421 170.599,319.936 169.961 L 320.871 168.800 285.454 168.800 L 250.038 168.800 249.467 170.100 " stroke="none" fill="#fc6c24" fill-rule="evenodd"></path><path id="path1" d="M72.000 169.400 C 72.000 169.730,71.685 170.003,71.300 170.006 C 70.755 170.011,70.720 170.088,71.143 170.356 C 71.536 170.605,71.559 170.778,71.226 170.984 C 70.958 171.149,70.881 171.627,71.041 172.131 C 71.265 172.836,71.214 172.910,70.758 172.534 C 70.297 172.154,70.181 172.396,70.090 173.927 C 70.029 174.947,69.804 175.956,69.590 176.170 C 69.375 176.385,69.200 177.053,69.200 177.656 C 69.200 178.781,68.585 179.555,68.321 178.762 C 68.240 178.519,68.143 179.087,68.105 180.025 C 68.068 180.962,67.894 181.836,67.719 181.965 C 67.425 182.181,67.347 182.509,67.112 184.500 C 67.067 184.885,66.894 185.200,66.729 185.200 C 66.564 185.200,66.224 185.582,65.974 186.048 C 65.655 186.644,65.651 186.816,65.960 186.625 C 66.234 186.455,66.388 186.701,66.368 187.276 C 66.351 187.784,66.246 187.974,66.134 187.698 C 65.775 186.806,65.200 187.607,65.200 189.000 C 65.200 189.744,65.020 190.464,64.800 190.600 C 64.580 190.736,64.400 191.289,64.400 191.829 C 64.400 192.369,64.245 193.123,64.056 193.505 C 63.494 194.643,62.400 198.256,62.400 198.977 C 62.400 199.346,62.256 199.558,62.080 199.449 C 61.904 199.341,61.717 199.890,61.665 200.670 C 61.612 201.450,61.306 202.351,60.985 202.673 C 60.663 202.994,60.400 203.784,60.400 204.429 C 60.400 205.073,60.220 205.600,60.000 205.600 C 59.780 205.600,59.600 206.037,59.600 206.571 C 59.600 207.106,59.360 207.783,59.067 208.076 C 58.774 208.369,58.601 209.108,58.682 209.718 C 58.768 210.359,58.571 211.086,58.215 211.442 C 57.877 211.780,57.594 212.539,57.587 213.129 C 57.580 213.718,57.335 214.515,57.043 214.900 C 56.750 215.286,56.602 216.077,56.714 216.660 C 56.840 217.322,56.763 217.624,56.508 217.467 C 56.006 217.156,55.535 219.806,55.845 221.200 C 56.054 222.142,56.425 223.131,57.271 225.007 C 57.472 225.451,57.665 226.203,57.701 226.679 C 57.737 227.155,57.881 227.474,58.021 227.387 C 58.161 227.300,58.979 227.852,59.838 228.612 C 61.995 230.521,62.105 230.604,62.925 230.917 C 63.324 231.070,63.536 231.380,63.396 231.607 C 63.255 231.834,63.289 231.971,63.470 231.912 C 63.946 231.758,66.937 233.622,68.585 235.100 C 68.892 235.375,69.254 235.600,69.389 235.600 C 69.524 235.600,70.122 236.054,70.717 236.608 C 71.313 237.162,72.297 237.837,72.905 238.108 C 73.512 238.378,73.934 238.795,73.843 239.033 C 73.751 239.272,74.289 239.688,75.038 239.959 C 75.787 240.230,76.400 240.721,76.400 241.049 C 76.400 241.378,76.547 241.556,76.727 241.445 C 76.907 241.334,77.529 241.683,78.110 242.221 C 78.690 242.760,79.412 243.200,79.713 243.200 C 80.014 243.200,80.683 243.650,81.200 244.200 C 81.717 244.750,82.423 245.203,82.770 245.206 C 83.323 245.211,83.326 245.260,82.800 245.600 C 82.327 245.906,82.419 245.989,83.232 245.994 C 83.920 245.998,84.443 246.334,84.800 247.000 C 85.094 247.550,85.580 248.000,85.880 248.000 C 86.180 248.000,86.528 248.269,86.654 248.598 C 86.781 248.926,87.054 249.090,87.261 248.962 C 87.468 248.834,88.104 249.195,88.674 249.765 C 89.243 250.334,89.960 250.800,90.267 250.800 C 90.574 250.800,90.929 251.070,91.055 251.400 C 91.182 251.730,91.536 252.000,91.843 252.000 C 92.149 252.000,92.400 252.180,92.400 252.400 C 92.400 252.620,92.651 252.800,92.957 252.800 C 93.264 252.800,93.628 253.096,93.767 253.457 C 93.905 253.819,94.116 254.018,94.234 253.899 C 94.353 253.781,94.915 254.115,95.483 254.642 C 96.052 255.169,96.771 255.600,97.082 255.600 C 97.393 255.600,97.558 255.745,97.448 255.922 C 97.339 256.099,97.868 256.578,98.624 256.985 C 99.381 257.393,100.000 257.878,100.000 258.063 C 100.000 258.248,100.219 258.400,100.487 258.400 C 100.755 258.400,101.340 258.805,101.787 259.300 C 102.234 259.795,103.230 260.550,104.000 260.978 C 105.767 261.959,106.440 262.618,106.081 263.017 C 105.926 263.188,106.018 263.203,106.285 263.050 C 106.818 262.744,108.489 264.177,108.079 264.588 C 107.939 264.728,108.134 264.724,108.512 264.578 C 108.907 264.427,109.200 264.503,109.200 264.757 C 109.200 265.001,109.451 265.200,109.757 265.200 C 110.064 265.200,110.417 265.467,110.542 265.793 C 110.684 266.162,111.028 266.287,111.454 266.124 C 111.971 265.925,112.078 266.020,111.890 266.510 C 111.715 266.966,111.812 267.093,112.217 266.938 C 112.535 266.816,112.904 267.004,113.039 267.358 C 113.175 267.711,113.536 268.000,113.843 268.000 C 114.149 268.000,114.400 268.170,114.400 268.377 C 114.400 268.585,114.930 269.068,115.578 269.451 C 116.226 269.834,116.648 270.322,116.516 270.535 C 116.384 270.749,116.457 270.812,116.678 270.675 C 117.188 270.360,119.692 272.175,119.295 272.572 C 119.133 272.734,119.180 272.830,119.400 272.786 C 120.304 272.604,120.800 272.836,120.800 273.443 C 120.800 273.850,121.020 274.001,121.399 273.856 C 122.001 273.625,124.400 275.618,124.400 276.349 C 124.400 276.556,124.758 276.632,125.195 276.517 C 125.699 276.385,126.081 276.545,126.238 276.955 C 126.374 277.310,126.742 277.600,127.055 277.600 C 127.369 277.600,127.729 277.870,127.855 278.200 C 127.982 278.530,128.254 278.800,128.460 278.800 C 128.665 278.800,129.220 279.160,129.692 279.600 C 130.164 280.040,130.832 280.403,131.175 280.406 C 131.725 280.412,131.728 280.459,131.200 280.800 C 130.618 281.176,131.429 281.436,132.549 281.231 C 132.741 281.196,132.788 281.454,132.654 281.804 C 132.519 282.155,132.573 282.341,132.772 282.217 C 132.972 282.094,133.375 282.229,133.668 282.519 C 133.960 282.808,134.515 283.164,134.900 283.310 C 135.285 283.456,135.603 283.896,135.606 284.287 C 135.611 284.883,135.674 284.903,135.985 284.411 C 136.304 283.907,136.395 283.921,136.621 284.511 C 136.767 284.890,137.117 285.200,137.400 285.200 C 137.683 285.200,138.025 285.489,138.161 285.842 C 138.301 286.208,138.663 286.385,139.003 286.254 C 139.344 286.123,139.600 286.249,139.600 286.545 C 139.600 286.831,140.050 287.306,140.600 287.600 C 141.150 287.894,141.600 288.285,141.600 288.468 C 141.600 288.650,141.792 288.800,142.027 288.800 C 142.261 288.800,143.043 289.250,143.764 289.800 C 144.486 290.350,145.244 290.800,145.449 290.800 C 145.654 290.800,146.106 291.115,146.454 291.500 C 147.366 292.510,148.532 293.412,149.318 293.713 C 149.693 293.857,150.000 294.161,150.000 294.387 C 150.000 294.614,150.193 294.800,150.429 294.800 C 150.977 294.800,152.000 295.815,152.000 296.359 C 152.000 296.588,152.247 296.680,152.548 296.564 C 152.850 296.449,153.345 296.592,153.648 296.882 C 153.952 297.173,154.701 297.731,155.313 298.123 C 155.938 298.523,156.305 299.030,156.151 299.279 C 156.000 299.524,156.055 299.613,156.273 299.478 C 156.834 299.132,158.469 300.364,158.145 300.889 C 157.985 301.149,158.062 301.209,158.338 301.038 C 158.592 300.881,158.800 300.938,158.800 301.164 C 158.800 301.390,159.028 301.487,159.307 301.380 C 159.586 301.273,160.655 301.980,161.683 302.951 C 162.710 303.921,163.640 304.626,163.749 304.518 C 163.858 304.409,164.353 304.698,164.849 305.160 C 165.345 305.622,165.987 306.000,166.275 306.000 C 166.564 306.000,166.800 306.136,166.800 306.303 C 166.800 306.470,167.970 307.400,169.400 308.369 C 170.830 309.339,172.000 310.262,172.000 310.420 C 172.000 310.578,172.378 310.806,172.840 310.926 C 173.302 311.047,173.563 311.336,173.419 311.568 C 173.266 311.817,173.393 311.901,173.728 311.772 C 174.041 311.652,174.404 311.834,174.536 312.177 C 174.667 312.520,175.051 312.800,175.387 312.800 C 175.724 312.800,176.000 312.980,176.000 313.200 C 176.000 313.420,176.193 313.600,176.429 313.600 C 177.161 313.600,178.068 314.765,177.749 315.297 C 177.540 315.645,177.656 315.630,178.123 315.251 C 178.532 314.919,178.800 314.872,178.800 315.132 C 178.800 315.369,179.430 315.861,180.200 316.227 C 180.970 316.592,181.600 317.051,181.600 317.246 C 181.600 317.441,181.804 317.600,182.053 317.600 C 182.302 317.600,182.797 317.918,183.153 318.306 C 183.509 318.694,184.565 319.506,185.500 320.111 C 186.435 320.716,187.200 321.389,187.200 321.606 C 187.200 321.823,187.425 321.955,187.700 321.900 C 187.975 321.845,188.157 322.019,188.105 322.286 C 188.050 322.566,188.261 322.675,188.605 322.543 C 188.980 322.399,189.200 322.552,189.200 322.957 C 189.200 323.311,189.425 323.555,189.700 323.500 C 189.975 323.445,190.151 323.638,190.090 323.930 C 190.030 324.221,190.164 324.346,190.389 324.207 C 190.835 323.931,193.200 325.176,193.200 325.686 C 193.200 325.859,193.489 326.000,193.843 326.000 C 194.259 326.000,194.402 326.218,194.247 326.621 C 194.111 326.977,194.178 327.137,194.405 326.997 C 194.622 326.863,194.800 326.913,194.800 327.110 C 194.800 327.306,195.070 327.467,195.400 327.467 C 197.095 327.467,195.481 324.889,187.720 315.200 C 186.633 313.844,180.928 306.523,180.193 305.542 C 179.757 304.960,175.350 299.313,170.400 292.993 C 165.450 286.673,160.680 280.568,159.800 279.428 C 158.920 278.287,153.216 270.975,147.124 263.177 C 120.124 228.619,101.617 204.893,83.022 181.000 C 78.228 174.840,74.022 169.575,73.676 169.300 C 72.822 168.621,72.000 168.670,72.000 169.400 M320.296 170.900 C 319.325 172.055,316.026 176.225,312.965 180.166 C 309.904 184.107,306.756 188.157,305.968 189.166 C 296.323 201.518,282.380 219.406,273.204 231.200 C 266.957 239.230,261.738 245.890,261.607 246.000 C 261.476 246.110,260.552 247.280,259.554 248.600 C 258.556 249.920,252.817 257.300,246.801 265.000 C 240.784 272.700,235.038 280.080,234.031 281.400 C 233.024 282.720,232.100 283.890,231.978 284.000 C 231.856 284.110,228.262 288.700,223.992 294.200 C 219.721 299.700,215.441 305.190,214.480 306.400 C 211.881 309.673,211.880 309.674,210.596 311.400 C 209.940 312.280,209.297 313.090,209.166 313.200 C 209.035 313.310,208.404 314.121,207.764 315.002 C 207.124 315.883,205.245 318.313,203.588 320.402 C 199.810 325.167,199.219 326.103,199.397 327.044 C 199.475 327.460,199.553 327.890,199.570 328.000 C 199.587 328.110,200.096 327.714,200.700 327.120 C 202.822 325.037,203.528 324.477,204.366 324.211 C 204.831 324.063,205.108 323.775,204.982 323.571 C 204.856 323.367,205.033 323.200,205.376 323.200 C 205.719 323.200,206.000 323.005,206.000 322.767 C 206.000 322.528,206.211 322.404,206.470 322.490 C 206.728 322.576,207.403 322.166,207.970 321.579 C 208.536 320.992,209.585 320.212,210.300 319.845 C 211.015 319.479,211.600 319.004,211.600 318.790 C 211.600 318.575,211.827 318.400,212.104 318.400 C 212.381 318.400,212.829 318.045,213.100 317.611 C 213.422 317.096,213.837 316.910,214.296 317.075 C 214.683 317.214,214.860 317.174,214.689 316.986 C 214.518 316.798,215.546 315.893,216.974 314.974 C 218.402 314.055,219.457 313.190,219.318 313.052 C 219.072 312.805,220.207 312.626,221.000 312.786 C 221.220 312.830,221.280 312.747,221.133 312.600 C 220.825 312.291,222.205 310.800,222.800 310.800 C 223.020 310.800,223.200 310.620,223.200 310.400 C 223.200 310.180,223.470 310.000,223.800 310.000 C 224.130 310.000,224.400 309.820,224.400 309.600 C 224.400 309.380,224.771 309.200,225.224 309.200 C 225.677 309.200,225.942 309.030,225.814 308.823 C 225.686 308.615,226.409 307.960,227.422 307.366 C 228.434 306.773,229.904 305.683,230.687 304.944 C 231.471 304.205,232.348 303.600,232.636 303.600 C 232.924 303.600,233.304 303.361,233.480 303.069 C 233.656 302.777,234.385 302.198,235.100 301.782 C 235.815 301.367,236.400 300.886,236.400 300.714 C 236.400 300.541,236.790 300.400,237.267 300.400 C 237.743 300.400,238.019 300.286,237.880 300.147 C 237.586 299.852,239.317 298.400,239.963 298.400 C 240.203 298.400,240.400 298.220,240.400 298.000 C 240.400 297.780,240.738 297.600,241.151 297.600 C 241.564 297.600,242.149 297.285,242.451 296.900 C 242.929 296.290,242.921 296.251,242.381 296.600 C 242.041 296.820,242.131 296.685,242.581 296.300 C 244.094 295.007,244.258 294.899,245.131 294.622 C 245.609 294.470,246.000 294.178,246.000 293.973 C 246.000 293.768,246.251 293.600,246.557 293.600 C 246.864 293.600,247.219 293.327,247.347 292.994 C 247.475 292.661,248.034 292.215,248.590 292.004 C 249.145 291.793,249.600 291.435,249.600 291.210 C 249.600 290.984,249.855 290.800,250.167 290.800 C 250.478 290.800,250.796 290.612,250.873 290.382 C 250.949 290.152,251.388 289.936,251.848 289.901 C 252.308 289.867,252.665 289.577,252.642 289.258 C 252.606 288.755,254.953 286.992,256.800 286.134 C 257.130 285.981,257.671 285.573,258.003 285.228 C 259.668 283.496,260.454 282.987,260.175 283.822 C 260.032 284.250,260.293 284.061,260.755 283.400 C 261.217 282.740,261.596 282.353,261.597 282.540 C 261.599 282.726,262.675 281.948,263.989 280.809 C 265.483 279.515,266.570 278.850,266.889 279.034 C 267.170 279.196,267.274 279.188,267.119 279.017 C 266.839 278.706,267.696 277.600,268.218 277.600 C 268.493 277.600,272.422 274.842,272.800 274.384 C 273.060 274.069,274.524 273.458,274.862 273.524 C 275.006 273.552,275.366 273.265,275.662 272.887 C 276.159 272.253,276.138 272.246,275.400 272.800 C 274.662 273.353,274.642 273.347,275.136 272.715 C 275.431 272.339,276.019 271.921,276.442 271.787 C 276.865 271.652,277.108 271.375,276.982 271.171 C 276.856 270.967,277.057 270.800,277.429 270.800 C 277.802 270.800,278.433 270.423,278.832 269.963 C 279.231 269.503,279.752 269.246,279.989 269.393 C 280.226 269.540,280.394 269.511,280.363 269.330 C 280.235 268.595,280.417 267.883,280.668 268.135 C 280.906 268.372,282.223 267.689,283.390 266.725 C 283.615 266.538,284.228 266.032,284.752 265.601 C 285.275 265.170,285.888 264.931,286.113 265.070 C 286.368 265.227,286.399 265.123,286.196 264.794 C 285.956 264.406,286.053 264.335,286.555 264.527 C 286.935 264.673,287.140 264.626,287.014 264.423 C 286.719 263.945,288.408 262.758,288.927 263.078 C 289.145 263.213,289.221 263.157,289.095 262.954 C 288.970 262.751,289.501 262.168,290.277 261.660 C 291.052 261.152,291.556 260.975,291.397 261.268 C 291.237 261.561,291.646 261.260,292.307 260.600 C 292.967 259.940,294.005 259.040,294.613 258.600 C 295.221 258.160,296.277 257.308,296.960 256.706 C 297.642 256.105,298.416 255.610,298.680 255.606 C 298.944 255.603,299.304 255.371,299.480 255.090 C 299.835 254.525,302.000 253.062,302.000 253.387 C 302.000 253.500,302.512 253.057,303.138 252.401 C 303.765 251.746,304.395 251.328,304.538 251.472 C 304.682 251.616,304.800 251.541,304.800 251.306 C 304.800 251.071,305.340 250.690,306.000 250.460 C 306.660 250.230,307.200 249.869,307.200 249.658 C 307.200 249.446,308.010 248.762,308.999 248.137 C 309.989 247.512,310.799 246.775,310.799 246.500 C 310.800 246.225,311.135 246.000,311.544 246.000 C 311.953 246.000,312.963 245.363,313.788 244.585 C 314.613 243.807,315.481 243.132,315.716 243.085 C 316.113 243.006,317.507 241.970,318.553 240.975 C 318.799 240.742,319.566 240.301,320.257 239.997 C 321.000 239.669,321.433 239.229,321.314 238.921 C 321.192 238.602,321.419 238.400,321.901 238.400 C 322.334 238.400,323.356 237.770,324.173 237.000 C 324.989 236.230,325.783 235.600,325.937 235.600 C 326.092 235.600,326.844 235.094,327.609 234.476 C 328.374 233.858,329.675 232.943,330.500 232.443 C 331.325 231.944,332.000 231.382,332.000 231.194 C 332.000 231.007,332.405 230.727,332.900 230.572 C 334.629 230.029,337.964 226.165,338.251 224.371 C 338.395 223.469,338.722 222.651,338.977 222.554 C 339.628 222.304,339.638 217.925,338.988 217.407 C 338.708 217.183,338.383 216.370,338.268 215.600 C 337.928 213.343,337.505 211.816,337.154 211.585 C 336.974 211.466,336.764 210.656,336.688 209.785 C 336.604 208.830,336.360 208.240,336.074 208.300 C 335.782 208.362,335.600 207.877,335.600 207.033 C 335.600 206.282,335.428 205.607,335.218 205.533 C 335.007 205.460,334.791 204.737,334.737 203.926 C 334.684 203.115,334.516 202.528,334.365 202.621 C 333.995 202.850,333.647 201.418,333.779 200.213 C 333.838 199.677,333.709 199.274,333.493 199.319 C 333.277 199.364,333.009 199.150,332.898 198.844 C 332.783 198.527,332.875 198.399,333.113 198.546 C 333.342 198.688,333.197 198.115,332.790 197.275 C 332.384 196.434,331.931 195.263,331.783 194.673 C 331.634 194.083,331.353 193.600,331.157 193.600 C 330.960 193.600,330.800 192.970,330.800 192.200 C 330.800 191.430,330.620 190.800,330.400 190.800 C 330.180 190.800,330.000 190.372,330.000 189.849 C 330.000 189.326,329.753 188.291,329.452 187.549 C 329.151 186.807,328.986 185.975,329.085 185.700 C 329.185 185.425,328.982 185.091,328.633 184.957 C 328.228 184.802,328.000 184.226,328.000 183.357 C 328.000 182.611,327.820 182.000,327.600 182.000 C 327.380 182.000,327.200 181.500,327.200 180.889 C 327.200 180.278,326.929 179.391,326.598 178.918 C 326.267 178.446,325.958 177.596,325.911 177.029 C 325.864 176.463,325.685 176.000,325.513 176.000 C 325.341 176.000,325.200 175.541,325.200 174.980 C 325.200 174.419,324.955 173.474,324.656 172.880 C 324.356 172.286,324.145 171.403,324.187 170.919 C 324.229 170.434,324.102 170.137,323.905 170.259 C 323.708 170.381,323.447 170.102,323.326 169.640 C 322.980 168.314,322.197 168.639,320.296 170.900 " stroke="none" fill="#fca323" fill-rule="evenodd"></path><path id="path2" d="M106.400 67.600 C 106.400 67.820,106.130 68.000,105.800 68.000 C 105.470 68.000,105.200 68.292,105.200 68.649 C 105.200 69.180,105.309 69.208,105.800 68.800 C 106.215 68.456,106.400 68.441,106.400 68.751 C 106.400 69.160,105.862 69.367,105.103 69.248 C 104.540 69.161,103.200 70.580,103.200 71.265 C 103.200 71.643,103.020 72.064,102.800 72.200 C 102.580 72.336,102.400 72.977,102.400 73.624 C 102.400 74.271,102.220 74.800,102.000 74.800 C 101.780 74.800,101.613 75.295,101.628 75.900 C 101.653 76.875,101.695 76.909,102.000 76.200 C 102.278 75.553,102.343 75.667,102.340 76.800 C 102.338 77.570,102.242 77.964,102.127 77.676 C 101.776 76.799,100.400 78.363,100.400 79.638 C 100.400 80.251,100.220 80.864,100.000 81.000 C 99.780 81.136,99.600 81.777,99.600 82.424 C 99.600 83.071,99.441 83.600,99.247 83.600 C 98.841 83.600,98.328 85.261,98.638 85.571 C 98.751 85.684,99.011 85.512,99.216 85.188 C 99.510 84.724,99.589 84.789,99.594 85.500 C 99.598 86.051,99.358 86.400,98.976 86.400 C 98.633 86.400,98.464 86.580,98.600 86.800 C 98.736 87.020,98.567 87.200,98.224 87.200 C 97.824 87.200,97.600 87.561,97.600 88.205 C 97.600 88.758,97.375 89.592,97.100 90.058 C 96.700 90.735,96.700 90.941,97.100 91.086 C 97.792 91.336,97.729 92.000,97.014 92.000 C 96.418 92.000,95.600 93.166,95.600 94.016 C 95.600 94.274,95.870 94.382,96.200 94.255 C 96.530 94.129,96.800 94.199,96.800 94.413 C 96.800 94.626,96.607 94.800,96.371 94.800 C 95.517 94.800,94.800 95.974,94.800 97.371 C 94.800 98.157,94.620 98.800,94.400 98.800 C 94.180 98.800,94.000 99.081,94.000 99.424 C 94.000 99.767,94.180 99.936,94.400 99.800 C 94.620 99.664,94.800 99.934,94.800 100.400 C 94.800 100.866,94.620 101.136,94.400 101.000 C 94.180 100.864,94.000 100.943,94.000 101.176 C 94.000 101.409,93.730 101.600,93.400 101.600 C 92.981 101.600,92.800 102.022,92.800 103.000 C 92.800 103.770,92.600 104.400,92.356 104.400 C 92.085 104.400,91.976 104.943,92.076 105.800 C 92.189 106.765,92.078 107.200,91.720 107.200 C 91.071 107.200,91.034 107.878,91.672 108.091 C 92.372 108.324,91.731 109.641,90.798 109.885 C 89.982 110.098,89.613 112.000,90.387 112.000 C 90.601 112.000,90.671 111.730,90.545 111.400 C 90.418 111.070,90.514 110.800,90.757 110.800 C 91.463 110.800,91.269 112.648,90.500 113.251 C 89.866 113.749,89.851 113.734,90.349 113.100 C 90.965 112.314,90.424 112.136,89.680 112.880 C 89.102 113.458,89.032 114.951,89.600 114.600 C 89.825 114.461,89.986 114.756,89.968 115.276 C 89.951 115.784,89.844 115.968,89.730 115.684 C 89.421 114.914,88.000 116.703,88.000 117.861 C 88.000 118.378,87.820 118.800,87.600 118.800 C 87.380 118.800,87.213 119.385,87.228 120.100 C 87.251 121.165,87.314 121.255,87.578 120.600 C 87.755 120.160,87.822 119.665,87.726 119.500 C 87.631 119.335,87.743 119.200,87.976 119.200 C 88.209 119.200,88.400 118.851,88.400 118.424 C 88.400 117.997,88.581 117.536,88.801 117.399 C 89.214 117.144,89.168 118.284,88.735 119.000 C 88.603 119.220,88.370 119.977,88.219 120.682 C 88.048 121.482,87.630 122.064,87.107 122.230 C 86.374 122.462,86.350 122.540,86.918 122.858 C 87.575 123.226,87.434 124.400,86.734 124.400 C 86.524 124.400,86.464 124.220,86.600 124.000 C 86.736 123.780,86.657 123.600,86.424 123.600 C 86.191 123.600,86.000 123.960,86.000 124.400 C 86.000 124.840,85.820 125.200,85.600 125.200 C 85.380 125.200,85.200 125.639,85.200 126.176 C 85.200 126.713,85.020 127.264,84.800 127.400 C 84.580 127.536,84.400 128.277,84.400 129.047 C 84.400 129.879,84.562 130.347,84.800 130.200 C 85.020 130.064,85.200 130.058,85.200 130.186 C 85.200 130.315,84.750 130.591,84.200 130.800 C 83.390 131.108,83.200 131.453,83.200 132.614 C 83.200 133.554,83.351 133.954,83.640 133.775 C 83.949 133.584,83.965 133.726,83.694 134.252 C 83.482 134.663,83.389 135.225,83.487 135.500 C 83.586 135.775,83.452 136.000,83.190 136.000 C 82.881 136.000,82.802 135.648,82.964 135.000 C 83.109 134.423,83.043 134.000,82.808 134.000 C 82.583 134.000,82.400 134.731,82.400 135.624 C 82.400 136.604,82.242 137.149,82.000 137.000 C 81.762 136.853,81.600 137.329,81.600 138.176 C 81.600 139.175,81.421 139.600,81.000 139.600 C 80.588 139.600,80.400 140.013,80.400 140.920 C 80.400 141.646,80.177 142.463,79.903 142.737 C 79.508 143.132,79.528 143.313,80.003 143.625 C 80.508 143.956,80.450 144.142,79.622 144.836 C 78.911 145.431,78.654 146.032,78.682 147.028 C 78.708 147.956,78.540 148.400,78.160 148.400 C 77.793 148.400,77.600 148.855,77.600 149.720 C 77.600 150.446,77.404 151.236,77.165 151.475 C 76.852 151.788,76.852 151.985,77.165 152.178 C 77.404 152.326,77.597 152.662,77.594 152.924 C 77.590 153.210,77.433 153.161,77.200 152.800 C 76.883 152.310,76.811 152.357,76.806 153.057 C 76.803 153.529,76.530 154.018,76.200 154.145 C 75.826 154.288,75.600 154.898,75.600 155.764 C 75.600 156.528,75.420 157.264,75.200 157.400 C 74.980 157.536,74.800 158.177,74.800 158.824 C 74.800 159.471,74.620 160.000,74.400 160.000 C 73.880 160.000,73.880 161.478,74.400 161.800 C 74.620 161.936,74.800 162.227,74.800 162.447 C 74.800 162.667,74.612 162.731,74.382 162.589 C 73.564 162.083,72.800 163.282,72.800 165.073 C 72.800 166.154,72.644 166.751,72.400 166.600 C 72.180 166.464,72.000 166.520,72.000 166.724 C 72.000 167.603,143.654 168.086,145.800 167.221 C 146.240 167.044,146.799 167.057,147.041 167.250 C 147.440 167.566,321.476 167.513,322.700 167.196 C 323.352 167.027,323.342 166.429,322.682 166.176 C 322.361 166.053,322.198 165.410,322.255 164.489 C 322.305 163.670,322.256 163.405,322.145 163.900 C 321.738 165.726,321.174 164.790,321.446 162.740 C 321.636 161.305,321.588 160.760,321.287 160.946 C 321.050 161.093,320.730 161.010,320.576 160.762 C 320.423 160.514,320.546 160.153,320.849 159.961 C 321.248 159.709,321.262 159.611,320.900 159.606 C 320.625 159.603,320.400 159.144,320.400 158.587 C 320.400 158.031,320.167 157.485,319.882 157.376 C 319.548 157.248,319.421 156.683,319.525 155.793 C 319.643 154.785,319.511 154.341,319.043 154.161 C 318.627 154.002,318.400 153.435,318.400 152.557 C 318.400 151.811,318.220 151.200,318.000 151.200 C 317.780 151.200,317.600 150.671,317.600 150.024 C 317.600 149.377,317.420 148.736,317.200 148.600 C 316.980 148.464,316.800 147.742,316.800 146.996 C 316.800 146.182,316.550 145.500,316.175 145.290 C 315.829 145.096,315.534 144.375,315.514 143.670 C 315.495 142.972,315.326 142.400,315.139 142.400 C 314.953 142.400,314.800 141.770,314.800 141.000 C 314.800 139.999,314.622 139.600,314.176 139.600 C 313.833 139.600,313.665 139.419,313.802 139.197 C 313.939 138.976,313.769 138.686,313.425 138.554 C 313.081 138.422,312.800 138.029,312.800 137.681 C 312.800 137.167,312.911 137.194,313.387 137.824 C 313.928 138.538,313.976 138.543,313.987 137.887 C 313.994 137.496,313.730 137.071,313.400 136.945 C 313.011 136.795,312.800 136.175,312.800 135.181 C 312.800 134.337,312.620 133.536,312.400 133.400 C 312.180 133.264,312.000 132.735,312.000 132.225 C 312.000 131.715,311.730 131.074,311.400 130.800 C 311.070 130.526,310.800 130.043,310.800 129.727 C 310.800 129.411,310.620 129.264,310.400 129.400 C 310.180 129.536,310.000 129.457,310.000 129.224 C 310.000 128.991,310.180 128.800,310.400 128.800 C 310.620 128.800,310.800 128.620,310.800 128.400 C 310.800 128.180,310.547 128.000,310.237 128.000 C 309.872 128.000,309.748 127.720,309.884 127.200 C 310.006 126.735,309.896 126.400,309.623 126.400 C 309.364 126.400,309.256 126.568,309.383 126.772 C 309.509 126.977,309.430 127.258,309.207 127.396 C 308.962 127.547,308.802 127.120,308.806 126.324 C 308.811 125.351,308.911 125.156,309.184 125.588 C 309.747 126.477,310.195 125.729,309.717 124.699 C 309.487 124.205,309.101 123.305,308.858 122.700 C 308.616 122.095,308.269 121.600,308.089 121.600 C 307.908 121.600,307.834 120.970,307.924 120.200 C 308.024 119.343,307.915 118.800,307.644 118.800 C 307.400 118.800,307.200 118.210,307.200 117.489 C 307.200 116.237,305.966 114.567,305.434 115.100 C 305.305 115.228,305.203 114.898,305.206 114.367 C 305.211 113.596,305.291 113.521,305.600 114.000 C 305.934 114.517,305.989 114.507,305.994 113.924 C 305.997 113.552,305.820 113.136,305.600 113.000 C 305.380 112.864,305.200 112.133,305.200 111.376 C 305.200 110.619,305.020 110.000,304.800 110.000 C 304.580 110.000,304.400 109.500,304.400 108.889 C 304.400 107.817,303.112 106.221,302.634 106.700 C 302.505 106.828,302.400 106.623,302.400 106.243 C 302.400 105.863,302.580 105.664,302.800 105.800 C 303.020 105.936,303.200 105.677,303.200 105.224 C 303.200 104.771,303.020 104.400,302.800 104.400 C 302.580 104.400,302.400 103.770,302.400 103.000 C 302.400 102.230,302.220 101.600,302.000 101.600 C 301.780 101.600,301.600 101.054,301.600 100.387 C 301.600 99.679,301.351 99.079,301.000 98.945 C 300.606 98.794,300.400 98.169,300.400 97.130 C 300.400 95.688,300.319 95.566,299.500 95.769 C 299.005 95.892,298.825 95.889,299.100 95.763 C 299.709 95.483,299.773 92.800,299.171 92.800 C 298.708 92.800,297.600 91.816,297.600 91.405 C 297.600 91.266,297.780 91.264,298.000 91.400 C 298.233 91.544,298.400 91.137,298.400 90.424 C 298.400 89.492,298.220 89.200,297.647 89.200 C 297.161 89.200,296.825 88.845,296.702 88.200 C 296.464 86.956,296.708 86.906,297.188 88.100 C 297.453 88.760,297.556 88.818,297.575 88.319 C 297.589 87.944,297.432 87.224,297.228 86.719 C 297.023 86.213,296.749 85.305,296.620 84.700 C 296.451 83.908,296.140 83.600,295.512 83.600 C 294.834 83.600,294.747 83.493,295.120 83.120 C 295.702 82.538,295.753 80.942,295.200 80.600 C 294.980 80.464,294.794 79.958,294.787 79.476 C 294.773 78.465,293.922 77.200,293.256 77.200 C 293.005 77.200,292.800 76.750,292.800 76.200 C 292.800 75.650,292.584 75.200,292.320 75.200 C 291.947 75.200,291.947 75.093,292.320 74.720 C 292.983 74.057,292.923 72.133,292.231 71.867 C 291.868 71.728,291.745 71.330,291.893 70.766 C 292.091 70.009,291.987 69.907,291.162 70.050 C 290.491 70.166,289.837 69.862,289.000 69.044 L 287.800 67.870 288.900 68.544 C 289.857 69.131,290.000 69.139,290.000 68.609 C 290.000 68.274,289.730 68.000,289.400 68.000 C 289.070 68.000,288.800 67.820,288.800 67.600 C 288.800 66.619,282.901 67.145,282.071 68.200 C 281.639 68.750,281.086 69.200,280.842 69.200 C 280.599 69.200,280.400 69.374,280.400 69.587 C 280.400 69.801,280.715 69.874,281.100 69.750 C 281.511 69.618,281.631 69.664,281.392 69.862 C 281.167 70.048,280.768 70.691,280.504 71.292 C 280.208 71.967,279.810 72.302,279.465 72.169 C 278.594 71.835,278.262 73.687,279.083 74.300 C 279.706 74.765,279.704 74.800,279.053 74.800 C 278.668 74.800,278.464 74.980,278.600 75.200 C 278.736 75.420,278.567 75.600,278.224 75.600 C 277.800 75.600,277.600 75.978,277.600 76.776 C 277.600 77.423,277.420 78.064,277.200 78.200 C 276.980 78.336,276.803 78.932,276.806 79.524 C 276.811 80.366,276.897 80.469,277.200 80.000 C 277.531 79.487,277.589 79.502,277.594 80.100 C 277.598 80.533,277.298 80.800,276.808 80.800 C 275.870 80.800,275.390 82.250,275.743 84.015 C 275.883 84.717,275.811 85.200,275.566 85.200 C 275.339 85.200,275.264 85.020,275.400 84.800 C 275.536 84.580,275.484 84.400,275.284 84.400 C 275.085 84.400,274.905 84.981,274.885 85.692 C 274.865 86.403,274.657 87.048,274.424 87.125 C 274.191 87.203,274.003 87.657,274.006 88.133 C 274.011 88.840,274.084 88.889,274.400 88.400 C 274.712 87.917,274.789 87.981,274.794 88.724 C 274.797 89.239,274.623 89.538,274.400 89.400 C 274.180 89.264,274.000 89.343,274.000 89.576 C 274.000 89.809,273.730 90.000,273.400 90.000 C 272.984 90.000,272.800 90.419,272.800 91.367 C 272.800 92.118,272.575 92.814,272.300 92.912 C 272.025 93.010,271.938 93.238,272.107 93.419 C 272.551 93.894,273.313 92.990,273.371 91.919 C 273.398 91.414,273.592 91.000,273.803 91.000 C 274.014 91.000,274.128 91.347,274.056 91.771 C 273.868 92.885,272.773 94.431,272.356 94.173 C 272.160 94.052,272.000 94.336,272.000 94.805 C 272.000 95.274,271.698 95.959,271.329 96.329 C 270.700 96.957,270.700 97.008,271.329 97.129 C 272.325 97.321,271.529 98.800,270.429 98.800 C 270.193 98.800,270.000 99.430,270.000 100.200 C 270.000 100.970,269.820 101.600,269.600 101.600 C 269.380 101.600,269.200 101.889,269.200 102.243 C 269.200 102.650,269.420 102.801,269.800 102.655 C 270.730 102.298,270.514 102.804,269.200 104.060 C 268.495 104.734,268.000 105.618,268.000 106.203 C 268.000 106.752,267.820 107.200,267.600 107.200 C 267.380 107.200,267.200 107.852,267.200 108.649 C 267.200 109.953,267.266 110.043,267.865 109.549 C 268.434 109.079,268.502 109.085,268.335 109.589 C 268.228 109.913,267.754 110.273,267.282 110.389 C 266.633 110.549,266.517 110.746,266.806 111.200 C 267.016 111.530,267.188 111.980,267.188 112.200 C 267.188 112.420,267.026 112.344,266.828 112.031 C 266.430 111.403,265.200 113.834,265.200 115.249 C 265.200 115.662,265.020 116.000,264.800 116.000 C 264.580 116.000,264.400 116.444,264.400 116.987 C 264.400 117.701,264.567 117.911,265.000 117.745 C 265.330 117.618,265.600 117.596,265.600 117.696 C 265.600 118.133,264.059 119.600,263.601 119.600 C 263.237 119.600,263.152 120.131,263.296 121.500 C 263.407 122.545,263.415 123.175,263.315 122.900 C 262.950 121.896,262.400 122.437,262.400 123.800 C 262.400 124.570,262.220 125.200,262.000 125.200 C 261.780 125.200,261.603 125.605,261.606 126.100 C 261.611 126.828,261.686 126.885,262.000 126.400 C 262.332 125.886,262.389 125.899,262.394 126.491 C 262.397 126.871,261.950 127.476,261.400 127.837 C 260.659 128.322,260.400 128.843,260.400 129.846 C 260.400 130.591,260.220 131.200,260.000 131.200 C 259.780 131.200,259.614 131.605,259.632 132.100 C 259.649 132.595,259.754 132.774,259.866 132.498 C 259.977 132.221,260.242 132.103,260.455 132.234 C 260.668 132.366,260.293 132.998,259.621 133.640 C 258.221 134.978,258.117 135.497,259.100 136.243 C 259.736 136.726,259.700 136.776,258.700 136.787 C 257.716 136.799,257.600 136.945,257.600 138.176 C 257.600 138.933,257.420 139.664,257.200 139.800 C 256.624 140.156,256.706 141.993,257.300 142.040 C 257.575 142.062,257.350 142.204,256.800 142.356 C 256.018 142.571,255.772 142.933,255.671 144.016 C 255.601 144.777,255.376 145.571,255.171 145.780 C 254.595 146.370,254.705 148.096,255.300 147.789 C 255.575 147.647,255.371 147.880,254.846 148.308 C 254.211 148.825,254.044 149.180,254.346 149.366 C 254.596 149.521,254.800 150.027,254.800 150.490 C 254.800 150.954,254.686 151.220,254.547 151.081 C 253.637 150.171,252.704 151.754,252.919 153.842 C 253.060 155.206,252.990 156.000,252.728 156.000 C 252.501 156.000,252.418 155.730,252.545 155.400 C 252.671 155.070,252.605 154.800,252.397 154.800 C 252.189 154.800,252.034 155.907,252.053 157.260 C 252.080 159.143,251.935 159.805,251.435 160.084 C 251.073 160.287,250.910 160.660,251.068 160.925 C 251.234 161.201,251.071 161.171,250.677 160.851 C 249.831 160.165,249.669 161.903,250.500 162.749 C 250.775 163.028,250.820 163.223,250.600 163.181 C 249.662 163.003,249.202 163.245,249.232 163.900 C 249.251 164.322,249.344 164.401,249.466 164.098 C 249.577 163.821,249.833 163.697,250.034 163.821 C 250.610 164.177,250.461 164.800,249.800 164.800 C 249.075 164.800,248.997 165.851,249.700 166.135 C 249.975 166.246,249.806 166.351,249.324 166.368 C 248.842 166.386,248.336 166.580,248.200 166.800 C 247.834 167.392,147.200 167.350,147.200 166.757 C 147.200 166.514,146.930 166.418,146.600 166.545 C 146.235 166.685,146.000 166.545,146.000 166.187 C 146.000 165.864,145.820 165.600,145.600 165.600 C 145.380 165.600,145.213 165.195,145.228 164.700 C 145.255 163.841,145.272 163.837,145.600 164.600 C 145.928 165.363,145.945 165.359,145.972 164.500 C 145.992 163.857,145.771 163.600,145.200 163.600 C 144.760 163.600,144.400 163.420,144.400 163.200 C 144.400 162.980,144.580 162.800,144.800 162.800 C 145.020 162.800,145.200 162.260,145.200 161.600 C 145.200 160.940,145.020 160.400,144.800 160.400 C 144.580 160.400,144.397 159.815,144.394 159.100 C 144.387 157.645,143.807 156.460,143.333 156.933 C 143.163 157.104,143.198 157.369,143.412 157.522 C 143.894 157.867,144.073 160.000,143.619 160.000 C 143.437 160.000,143.197 159.415,143.085 158.700 C 142.974 157.985,142.746 156.967,142.579 156.437 C 142.362 155.752,142.407 155.557,142.737 155.761 C 143.358 156.145,143.320 154.790,142.687 153.965 C 142.419 153.616,141.975 153.406,141.700 153.498 C 141.382 153.605,141.200 153.273,141.200 152.584 C 141.200 151.687,141.299 151.584,141.776 151.980 C 142.432 152.524,142.007 150.811,140.956 148.668 C 140.650 148.045,140.400 147.100,140.400 146.568 C 140.400 146.035,140.231 145.600,140.024 145.600 C 139.817 145.600,139.592 144.925,139.524 144.100 C 139.424 142.895,139.223 142.575,138.500 142.472 C 137.775 142.369,137.605 142.097,137.628 141.072 C 137.652 139.999,137.710 139.925,138.000 140.600 C 138.328 141.363,138.345 141.359,138.372 140.500 C 138.387 140.005,138.220 139.600,138.000 139.600 C 137.780 139.600,137.600 139.071,137.600 138.424 C 137.600 137.777,137.420 137.136,137.200 137.000 C 136.980 136.864,136.800 136.218,136.800 135.564 C 136.800 134.876,136.547 134.278,136.200 134.145 C 135.833 134.004,135.600 133.397,135.600 132.581 C 135.600 131.847,135.420 131.136,135.200 131.000 C 134.980 130.864,134.800 130.218,134.800 129.564 C 134.800 128.903,134.546 128.278,134.229 128.156 C 133.915 128.035,133.726 127.583,133.810 127.150 C 133.995 126.188,133.650 125.200,133.129 125.200 C 132.916 125.200,132.473 124.930,132.143 124.600 C 131.610 124.067,131.613 124.000,132.171 124.000 C 132.877 124.000,133.063 122.210,132.400 121.800 C 132.180 121.664,132.000 121.141,132.000 120.638 C 132.000 120.135,131.660 119.416,131.243 119.039 C 130.818 118.655,130.571 118.034,130.678 117.622 C 130.784 117.220,130.674 116.769,130.435 116.622 C 130.196 116.474,130.000 115.731,130.000 114.971 C 130.000 114.211,129.850 113.277,129.668 112.895 C 129.485 112.513,129.035 111.600,128.668 110.868 C 128.300 110.135,128.000 109.010,128.000 108.368 C 128.000 107.725,127.820 107.200,127.600 107.200 C 127.380 107.200,127.200 106.570,127.200 105.800 C 127.200 104.822,127.019 104.400,126.600 104.400 C 126.270 104.400,126.000 104.209,126.000 103.976 C 126.000 103.743,125.820 103.664,125.600 103.800 C 125.377 103.938,125.203 103.639,125.206 103.124 C 125.211 102.381,125.288 102.317,125.600 102.800 C 125.914 103.285,125.989 103.228,125.994 102.500 C 125.997 102.005,125.820 101.600,125.600 101.600 C 125.380 101.600,125.200 100.970,125.200 100.200 C 125.200 99.430,125.017 98.800,124.792 98.800 C 124.563 98.800,124.478 99.280,124.599 99.900 C 124.768 100.770,124.739 100.833,124.462 100.200 C 124.269 99.760,124.201 98.717,124.311 97.881 C 124.505 96.406,123.316 94.417,122.643 95.091 C 122.509 95.224,122.386 95.168,122.369 94.967 C 122.353 94.765,122.274 94.240,122.195 93.800 C 122.053 93.012,122.059 93.011,122.625 93.776 C 123.186 94.534,123.200 94.532,123.200 93.676 C 123.200 93.194,123.020 92.800,122.800 92.800 C 122.580 92.800,122.400 92.421,122.400 91.957 C 122.400 91.372,122.216 91.185,121.800 91.345 C 121.423 91.489,121.200 91.341,121.200 90.945 C 121.200 90.549,121.423 90.400,121.800 90.545 C 122.130 90.671,122.400 90.601,122.400 90.387 C 122.400 90.174,122.243 90.000,122.051 90.000 C 121.859 90.000,121.586 89.274,121.444 88.388 C 121.247 87.151,120.949 86.685,120.169 86.388 C 119.610 86.176,119.265 85.818,119.404 85.594 C 119.542 85.370,119.823 85.291,120.028 85.417 C 120.232 85.544,120.400 85.377,120.400 85.047 C 120.400 84.717,120.220 84.336,120.000 84.200 C 119.780 84.064,119.589 83.378,119.575 82.676 C 119.549 81.408,119.546 81.407,119.119 82.400 L 118.690 83.400 118.394 82.200 C 118.232 81.540,117.970 80.640,117.812 80.200 C 117.581 79.558,117.610 79.519,117.956 80.000 C 118.329 80.519,118.389 80.505,118.394 79.900 C 118.397 79.515,118.239 79.200,118.043 79.200 C 117.846 79.200,117.572 78.905,117.434 78.543 C 117.223 77.994,117.282 77.970,117.791 78.392 C 118.294 78.810,118.400 78.785,118.400 78.249 C 118.400 77.892,118.220 77.600,118.000 77.600 C 117.780 77.600,117.600 77.161,117.600 76.624 C 117.600 76.087,117.420 75.536,117.200 75.400 C 116.980 75.264,116.797 74.668,116.794 74.076 C 116.786 72.776,116.457 72.244,115.400 71.824 C 114.890 71.622,114.781 71.439,115.100 71.320 C 115.920 71.014,115.684 70.454,114.031 68.784 C 112.462 67.199,106.400 66.258,106.400 67.600 M279.628 71.100 C 279.653 72.075,279.695 72.109,280.000 71.400 C 280.469 70.307,280.469 70.000,280.000 70.000 C 279.780 70.000,279.613 70.495,279.628 71.100 M117.200 76.880 C 117.200 77.526,117.082 77.642,116.755 77.315 C 116.510 77.070,116.431 76.674,116.578 76.435 C 116.992 75.765,117.200 75.914,117.200 76.880 M278.800 76.824 C 278.800 77.277,278.620 77.536,278.400 77.400 C 278.180 77.264,278.000 76.893,278.000 76.576 C 278.000 76.259,278.180 76.000,278.400 76.000 C 278.620 76.000,278.800 76.371,278.800 76.824 M101.430 80.303 C 100.947 80.786,100.718 79.991,101.030 78.919 L 101.355 77.800 101.508 78.937 C 101.592 79.562,101.557 80.177,101.430 80.303 M299.200 93.776 C 299.200 94.093,299.020 94.464,298.800 94.600 C 298.580 94.736,298.400 94.477,298.400 94.024 C 298.400 93.571,298.580 93.200,298.800 93.200 C 299.020 93.200,299.200 93.459,299.200 93.776 M93.200 105.376 C 93.200 105.693,93.020 106.064,92.800 106.200 C 92.580 106.336,92.400 106.077,92.400 105.624 C 92.400 105.171,92.580 104.800,92.800 104.800 C 93.020 104.800,93.200 105.059,93.200 105.376 M306.445 118.515 C 306.118 118.842,306.008 118.540,306.032 117.380 C 306.063 115.818,306.068 115.813,306.477 116.935 C 306.770 117.740,306.761 118.199,306.445 118.515 M131.320 120.136 C 131.433 120.431,131.365 120.926,131.169 121.236 C 130.909 121.647,130.811 121.501,130.806 120.700 C 130.799 119.506,130.996 119.290,131.320 120.136 M308.613 123.240 C 308.759 123.702,308.683 124.244,308.443 124.444 C 308.203 124.643,308.084 124.697,308.178 124.562 C 308.272 124.428,308.185 123.886,307.984 123.359 C 307.766 122.786,307.766 122.400,307.983 122.400 C 308.183 122.400,308.466 122.778,308.613 123.240 M258.635 138.698 C 258.205 139.128,257.977 138.526,258.279 137.757 C 258.562 137.036,258.583 137.035,258.724 137.731 C 258.804 138.134,258.765 138.569,258.635 138.698 M81.467 141.231 C 81.467 142.099,81.368 142.286,81.133 141.866 C 80.949 141.537,80.908 140.983,81.042 140.634 C 81.390 139.729,81.467 139.837,81.467 141.231 M314.400 141.224 C 314.400 141.677,314.220 141.936,314.000 141.800 C 313.780 141.664,313.600 141.293,313.600 140.976 C 313.600 140.659,313.780 140.400,314.000 140.400 C 314.220 140.400,314.400 140.771,314.400 141.224 M139.194 143.500 C 139.176 144.377,138.412 144.959,138.406 144.100 C 138.403 143.605,138.580 143.200,138.800 143.200 C 139.020 143.200,139.197 143.335,139.194 143.500 M256.800 144.600 C 256.800 145.150,256.621 145.600,256.403 145.600 C 256.091 145.600,256.076 144.690,256.370 143.700 C 256.516 143.210,256.800 143.806,256.800 144.600 M76.800 155.600 C 76.800 156.260,76.621 156.800,76.403 156.800 C 76.184 156.800,76.081 156.395,76.173 155.900 C 76.265 155.405,76.354 154.865,76.370 154.700 C 76.455 153.844,76.800 154.567,76.800 155.600 M250.978 158.035 C 250.831 158.274,250.910 158.670,251.155 158.915 C 251.482 159.242,251.600 159.126,251.600 158.480 C 251.600 157.514,251.392 157.365,250.978 158.035 M74.000 165.224 C 74.000 165.677,73.820 165.936,73.600 165.800 C 73.380 165.664,73.200 165.293,73.200 164.976 C 73.200 164.659,73.380 164.400,73.600 164.400 C 73.820 164.400,74.000 164.771,74.000 165.224 M146.915 168.537 C 146.735 168.829,148.288 174.268,149.217 176.600 C 149.393 177.040,150.471 180.370,151.613 184.000 C 152.756 187.630,153.835 190.960,154.011 191.400 C 154.188 191.840,154.616 193.100,154.963 194.200 C 157.666 202.768,160.418 211.264,160.792 212.200 C 160.969 212.640,161.610 214.620,162.219 216.600 C 162.827 218.580,163.464 220.560,163.633 221.000 C 164.461 223.146,166.000 228.283,166.000 228.901 C 166.000 229.286,166.180 229.600,166.400 229.600 C 166.620 229.600,166.800 229.910,166.800 230.288 C 166.800 230.894,168.364 236.004,169.221 238.200 C 169.494 238.899,170.805 242.947,177.058 262.400 C 177.801 264.710,178.694 267.410,179.044 268.400 C 179.393 269.390,179.850 270.830,180.058 271.600 C 180.267 272.370,180.590 273.360,180.775 273.800 C 180.961 274.240,181.610 276.220,182.219 278.200 C 182.827 280.180,183.459 282.160,183.622 282.600 C 184.066 283.794,185.685 288.789,187.381 294.200 C 188.209 296.840,189.034 299.360,189.214 299.800 C 189.395 300.240,189.839 301.590,190.200 302.800 C 190.561 304.010,191.005 305.360,191.186 305.800 C 191.368 306.240,192.457 309.570,193.608 313.200 C 197.779 326.354,197.625 326.022,198.378 323.512 C 198.660 322.570,199.032 321.440,199.205 321.000 C 199.378 320.560,200.906 315.880,202.602 310.600 C 204.298 305.320,205.822 300.640,205.988 300.200 C 206.155 299.760,206.601 298.410,206.979 297.200 C 207.358 295.990,207.814 294.640,207.992 294.200 C 208.170 293.760,208.795 291.780,209.381 289.800 C 209.968 287.820,210.600 285.840,210.786 285.400 C 210.973 284.960,212.238 281.090,213.599 276.800 C 214.960 272.510,216.661 267.200,217.380 265.000 C 218.099 262.800,220.263 256.140,222.188 250.200 C 224.113 244.260,225.831 239.040,226.004 238.600 C 226.178 238.160,226.637 236.720,227.024 235.400 C 227.412 234.080,227.864 232.730,228.029 232.400 C 228.194 232.070,228.806 230.180,229.388 228.200 C 229.971 226.220,230.598 224.240,230.782 223.800 C 230.966 223.360,232.231 219.490,233.594 215.200 C 234.957 210.910,236.211 207.040,236.380 206.600 C 236.550 206.160,237.186 204.180,237.794 202.200 C 238.402 200.220,239.038 198.240,239.207 197.800 C 239.707 196.502,240.573 193.861,243.208 185.600 C 244.576 181.310,246.304 175.984,247.048 173.765 C 247.791 171.546,248.400 169.432,248.400 169.068 C 248.400 168.336,147.366 167.807,146.915 168.537 M196.000 328.389 C 196.000 329.033,197.854 329.306,198.797 328.802 C 199.276 328.545,199.581 328.247,199.473 328.140 C 199.366 328.032,198.900 328.180,198.439 328.469 C 197.764 328.890,197.443 328.895,196.800 328.493 C 196.342 328.207,196.000 328.163,196.000 328.389 " stroke="none" fill="#e44424" fill-rule="evenodd"></path><path id="path3" d="M141.343 152.133 C 141.484 152.536,141.600 153.067,141.600 153.313 C 141.600 153.623,141.748 153.612,142.083 153.277 C 142.460 152.900,142.404 152.642,141.826 152.097 C 141.122 151.433,141.099 151.435,141.343 152.133 M146.090 166.828 C 146.151 167.096,145.620 167.473,144.911 167.666 C 143.280 168.110,74.115 167.895,72.900 167.442 C 72.384 167.250,72.000 167.261,72.000 167.468 C 72.000 168.090,72.592 168.102,109.690 168.257 L 145.980 168.408 146.627 170.634 C 146.983 171.858,147.368 172.765,147.483 172.650 C 147.598 172.535,147.492 171.865,147.246 171.161 C 147.001 170.457,146.800 169.198,146.800 168.364 C 146.800 167.530,146.616 166.733,146.390 166.594 C 146.165 166.455,146.030 166.560,146.090 166.828 M248.659 167.533 C 248.578 167.680,248.496 168.520,248.476 169.400 L 248.440 171.000 249.001 169.700 L 249.561 168.400 285.335 168.400 C 317.310 168.400,321.230 168.332,322.254 167.763 C 323.252 167.208,323.271 167.168,322.400 167.452 C 320.961 167.921,251.835 168.103,250.166 167.642 C 249.418 167.435,248.740 167.386,248.659 167.533 M247.841 171.643 C 247.744 171.949,247.013 174.248,246.216 176.751 C 245.420 179.254,244.848 181.381,244.945 181.478 C 245.041 181.575,245.866 179.369,246.776 176.576 C 247.687 173.784,248.339 171.406,248.225 171.292 C 248.112 171.178,247.939 171.336,247.841 171.643 M147.600 173.416 C 147.600 174.004,149.309 178.824,149.463 178.671 C 149.661 178.472,148.026 173.200,147.765 173.200 C 147.674 173.200,147.600 173.297,147.600 173.416 M149.621 179.389 C 149.580 180.159,151.385 185.386,151.489 184.800 C 151.549 184.470,151.157 183.030,150.619 181.600 C 150.082 180.170,149.632 179.175,149.621 179.389 M243.621 184.821 C 243.100 186.353,242.765 187.699,242.878 187.811 C 242.991 187.924,243.486 186.740,243.979 185.179 C 245.143 181.490,244.854 181.200,243.621 184.821 M151.600 185.785 C 151.600 186.035,154.756 195.801,158.196 206.200 C 159.361 209.720,161.082 215.030,162.022 218.000 C 162.962 220.970,163.812 223.157,163.912 222.861 C 164.011 222.564,163.906 221.934,163.678 221.461 C 163.451 220.987,161.700 215.740,159.788 209.800 C 157.876 203.860,155.432 196.317,154.356 193.039 C 153.280 189.760,152.400 186.845,152.400 186.562 C 152.400 186.279,152.220 185.936,152.000 185.800 C 151.780 185.664,151.600 185.657,151.600 185.785 M240.595 194.195 C 239.549 197.402,238.771 200.104,238.866 200.200 C 238.962 200.295,239.892 197.745,240.933 194.533 C 241.975 191.321,242.752 188.619,242.662 188.529 C 242.571 188.438,241.641 190.988,240.595 194.195 M235.390 210.190 C 233.692 215.386,232.391 219.724,232.498 219.831 C 232.605 219.938,233.343 217.995,234.139 215.513 C 234.935 213.031,236.308 208.763,237.190 206.030 C 238.072 203.296,238.722 200.989,238.636 200.902 C 238.549 200.815,237.089 204.995,235.390 210.190 M231.222 223.022 C 230.748 224.491,230.439 225.773,230.537 225.871 C 230.635 225.968,231.103 224.847,231.578 223.378 C 232.052 221.909,232.361 220.627,232.263 220.529 C 232.165 220.432,231.697 221.553,231.222 223.022 M164.000 223.819 C 164.000 224.488,169.312 240.421,169.479 240.254 C 169.636 240.098,168.343 235.901,165.519 227.400 C 164.367 223.933,164.000 223.068,164.000 223.819 M229.221 229.221 C 228.700 230.753,228.365 232.099,228.478 232.211 C 228.591 232.324,229.086 231.140,229.579 229.579 C 230.743 225.890,230.454 225.600,229.221 229.221 M227.838 233.243 C 225.750 239.661,224.791 242.924,224.946 243.079 C 225.052 243.185,225.870 240.974,226.765 238.165 C 227.659 235.356,228.307 232.974,228.205 232.871 C 228.102 232.769,227.937 232.936,227.838 233.243 M169.630 241.022 C 169.613 241.254,170.037 242.694,170.570 244.222 C 171.104 245.750,171.554 246.810,171.570 246.578 C 171.587 246.346,171.163 244.906,170.630 243.378 C 170.096 241.850,169.646 240.790,169.630 241.022 M223.642 246.442 C 223.142 247.995,222.812 249.345,222.908 249.441 C 223.004 249.538,223.486 248.340,223.979 246.779 C 224.472 245.218,224.802 243.869,224.713 243.780 C 224.624 243.691,224.142 244.889,223.642 246.442 M171.600 247.345 C 171.600 247.450,172.878 251.466,174.441 256.268 C 176.004 261.071,177.825 266.674,178.489 268.719 C 179.152 270.765,179.771 272.363,179.863 272.270 C 180.029 272.104,179.357 269.944,174.744 255.829 C 173.455 251.885,172.400 248.430,172.400 248.152 C 172.400 247.875,172.220 247.536,172.000 247.400 C 171.780 247.264,171.600 247.239,171.600 247.345 M219.212 260.075 C 217.412 265.644,215.345 272.000,214.619 274.200 C 211.414 283.901,210.365 287.298,210.524 287.457 C 210.689 287.622,212.156 283.217,220.582 257.252 C 221.823 253.431,222.758 250.224,222.660 250.127 C 222.563 250.029,221.011 254.506,219.212 260.075 M180.046 273.200 C 180.068 274.098,181.134 276.704,181.170 275.946 C 181.186 275.586,180.937 274.686,180.616 273.946 C 180.294 273.206,180.038 272.870,180.046 273.200 M181.282 277.200 C 181.392 277.530,181.993 279.420,182.616 281.400 C 183.240 283.380,183.822 284.676,183.908 284.281 C 183.995 283.885,183.903 283.345,183.703 283.081 C 183.504 282.816,183.008 281.430,182.603 280.000 C 182.197 278.570,181.689 277.220,181.474 277.000 C 181.216 276.736,181.150 276.805,181.282 277.200 M184.000 285.585 C 184.000 285.797,184.345 286.922,184.768 288.085 C 185.190 289.248,186.561 293.404,187.814 297.320 C 189.067 301.236,190.157 304.376,190.236 304.298 C 190.409 304.124,189.700 301.309,189.204 300.200 C 189.008 299.760,187.828 296.205,186.583 292.300 C 184.521 285.832,184.000 284.476,184.000 285.585 M209.200 290.800 C 208.700 292.354,208.380 293.713,208.487 293.821 C 208.595 293.929,209.086 292.740,209.579 291.179 C 210.072 289.618,210.392 288.259,210.291 288.158 C 210.191 288.057,209.700 289.246,209.200 290.800 M207.839 294.843 C 205.064 303.416,202.808 310.708,202.835 311.010 C 202.854 311.225,204.114 307.635,205.636 303.034 C 207.157 298.433,208.316 294.582,208.210 294.477 C 208.105 294.372,207.938 294.536,207.839 294.843 M190.400 305.016 C 190.400 307.352,197.494 326.812,198.034 325.958 C 198.587 325.085,202.886 311.953,202.685 311.752 C 202.587 311.653,201.465 314.738,200.192 318.606 C 198.920 322.474,197.743 325.495,197.578 325.319 C 197.274 324.997,196.047 321.410,192.612 310.800 C 190.846 305.348,190.400 304.180,190.400 305.016 " stroke="none" fill="#ec5124" fill-rule="evenodd"></path><path id="path4" d="M109.803 168.700 L 145.407 168.804 145.844 169.902 C 146.085 170.506,146.778 172.620,147.384 174.600 C 147.990 176.580,148.634 178.560,148.814 179.000 C 148.995 179.440,149.439 180.790,149.800 182.000 C 150.161 183.210,150.602 184.560,150.779 185.000 C 150.957 185.440,151.593 187.420,152.194 189.400 C 152.795 191.380,153.424 193.360,153.594 193.800 C 153.763 194.240,155.029 198.110,156.408 202.400 C 157.786 206.690,159.947 213.350,161.209 217.200 C 162.471 221.050,163.985 225.730,164.573 227.600 C 165.161 229.470,165.791 231.360,165.972 231.800 C 166.153 232.240,166.793 234.220,167.394 236.200 C 167.995 238.180,168.634 240.160,168.814 240.600 C 168.995 241.040,169.439 242.390,169.800 243.600 C 170.161 244.810,170.602 246.160,170.779 246.600 C 170.957 247.040,171.593 249.020,172.194 251.000 C 172.795 252.980,173.428 254.960,173.601 255.400 C 173.774 255.840,175.031 259.710,176.394 264.000 C 177.757 268.290,179.026 272.160,179.213 272.600 C 179.399 273.040,180.032 275.020,180.619 277.000 C 181.205 278.980,181.841 280.960,182.032 281.400 C 182.224 281.840,182.835 283.640,183.391 285.400 C 185.480 292.017,185.676 292.619,185.989 293.400 C 186.165 293.840,187.244 297.170,188.387 300.800 C 189.529 304.430,190.607 307.760,190.783 308.200 C 190.958 308.640,191.593 310.620,192.194 312.600 C 192.795 314.580,193.439 316.560,193.625 317.000 C 193.811 317.440,194.233 318.748,194.562 319.906 C 195.351 322.684,197.213 326.800,197.680 326.800 C 198.109 326.800,200.400 321.917,200.400 321.003 C 200.400 320.666,200.563 320.077,200.763 319.695 C 200.963 319.313,201.621 317.380,202.225 315.400 C 202.830 313.420,203.460 311.440,203.626 311.000 C 203.792 310.560,204.416 308.670,205.013 306.800 C 205.610 304.930,206.237 303.040,206.406 302.600 C 206.575 302.160,207.205 300.180,207.806 298.200 C 208.407 296.220,209.043 294.240,209.221 293.800 C 209.398 293.360,209.835 292.010,210.193 290.800 C 210.550 289.590,211.013 288.287,211.221 287.905 C 211.430 287.523,211.600 286.945,211.600 286.619 C 211.600 286.293,211.852 285.436,212.160 284.714 C 212.468 283.991,213.387 281.240,214.203 278.600 C 215.018 275.960,215.825 273.440,215.996 273.000 C 216.167 272.560,216.635 271.120,217.036 269.800 C 217.436 268.480,217.907 267.229,218.082 267.020 C 218.257 266.811,218.391 266.181,218.379 265.620 C 218.345 263.942,218.688 262.937,206.614 300.200 C 200.281 319.746,198.408 325.368,198.034 325.958 C 197.479 326.836,196.801 325.173,193.404 314.600 C 191.707 309.320,189.723 303.200,188.994 301.000 C 188.265 298.800,185.921 291.600,183.787 285.000 C 181.652 278.400,179.315 271.200,178.592 269.000 C 177.204 264.771,175.144 258.432,168.195 237.000 C 165.841 229.740,163.501 222.540,162.994 221.000 C 162.487 219.460,160.058 211.990,157.596 204.400 C 155.134 196.810,152.529 188.800,151.807 186.600 C 151.086 184.400,149.466 179.405,148.208 175.500 L 145.920 168.400 110.060 168.498 L 74.200 168.596 109.803 168.700 M249.421 168.766 C 249.159 169.190,245.325 180.874,237.793 204.200 C 235.876 210.140,233.450 217.610,232.403 220.800 C 231.356 223.990,229.013 231.190,227.195 236.800 C 225.377 242.410,222.639 250.839,221.109 255.531 C 219.579 260.222,218.430 264.163,218.555 264.288 C 218.798 264.531,218.802 264.519,219.798 261.200 C 220.160 259.990,220.605 258.640,220.785 258.200 C 221.117 257.390,224.617 246.593,227.398 237.800 C 228.233 235.160,229.135 232.460,229.402 231.800 C 229.669 231.140,230.120 229.700,230.403 228.600 C 230.686 227.500,231.071 226.429,231.259 226.220 C 231.447 226.011,231.600 225.522,231.600 225.134 C 231.600 224.745,231.853 223.836,232.162 223.114 C 232.470 222.391,232.941 220.990,233.207 220.000 C 233.473 219.010,233.832 217.840,234.003 217.400 C 234.426 216.316,235.212 213.901,236.998 208.200 C 237.825 205.560,238.646 203.040,238.823 202.600 C 238.999 202.160,239.439 200.810,239.800 199.600 C 240.161 198.390,240.605 197.040,240.785 196.600 C 240.965 196.160,241.608 194.180,242.213 192.200 C 242.818 190.220,243.432 188.330,243.579 188.000 C 243.725 187.670,244.352 185.780,244.972 183.800 C 245.591 181.820,246.246 179.840,246.425 179.400 C 246.605 178.960,247.235 176.980,247.825 175.000 C 248.415 173.020,249.153 170.816,249.466 170.102 L 250.035 168.804 285.718 168.700 L 321.400 168.596 285.524 168.498 C 264.127 168.439,249.556 168.548,249.421 168.766 " stroke="none" fill="#f56124" fill-rule="evenodd"></path><path id="path5" d="M289.237 69.327 C 289.766 69.837,290.341 70.182,290.513 70.095 C 290.842 69.928,289.093 68.400,288.574 68.400 C 288.408 68.400,288.707 68.817,289.237 69.327 M280.636 69.942 C 279.968 71.023,279.603 72.590,280.198 71.824 C 280.529 71.396,280.800 70.826,280.800 70.557 C 280.800 70.287,281.025 69.976,281.300 69.865 C 281.661 69.719,281.667 69.654,281.324 69.632 C 281.062 69.614,280.752 69.754,280.636 69.942 M292.258 74.707 C 292.118 74.932,292.260 75.214,292.571 75.334 C 292.917 75.466,293.054 75.872,292.922 76.376 C 292.800 76.843,292.899 77.200,293.151 77.200 C 293.665 77.200,293.560 76.136,292.940 75.049 C 292.688 74.608,292.406 74.466,292.258 74.707 M98.893 85.600 C 98.476 86.267,98.493 86.400,98.997 86.400 C 99.333 86.400,99.600 86.046,99.600 85.600 C 99.600 85.160,99.553 84.800,99.496 84.800 C 99.439 84.800,99.168 85.160,98.893 85.600 M121.200 90.987 C 121.200 91.344,121.435 91.485,121.798 91.346 C 122.126 91.219,122.296 90.955,122.174 90.758 C 121.825 90.193,121.200 90.340,121.200 90.987 M94.178 100.035 C 94.031 100.274,94.110 100.670,94.355 100.915 C 94.682 101.242,94.800 101.126,94.800 100.480 C 94.800 99.514,94.592 99.365,94.178 100.035 M92.509 105.609 C 92.476 106.053,92.618 106.313,92.824 106.185 C 93.279 105.904,93.327 104.800,92.885 104.800 C 92.712 104.800,92.543 105.164,92.509 105.609 M90.579 111.566 C 90.703 111.767,90.579 112.023,90.302 112.134 C 89.928 112.285,89.940 112.345,90.349 112.368 C 90.814 112.395,90.814 112.507,90.349 113.100 C 89.851 113.734,89.866 113.749,90.500 113.251 C 91.263 112.653,91.459 111.200,90.776 111.200 C 90.543 111.200,90.455 111.365,90.579 111.566 M88.400 118.467 C 88.400 118.943,88.525 119.208,88.678 119.055 C 89.111 118.623,89.171 117.600,88.765 117.600 C 88.564 117.600,88.400 117.990,88.400 118.467 M87.680 120.584 C 87.433 121.127,87.384 121.667,87.572 121.783 C 87.761 121.899,88.033 121.524,88.177 120.950 C 88.526 119.561,88.242 119.351,87.680 120.584 M86.769 122.876 C 86.522 123.874,86.530 124.400,86.793 124.400 C 87.294 124.400,87.611 123.254,87.183 122.989 C 86.972 122.859,86.786 122.808,86.769 122.876 M83.214 134.374 C 82.680 135.372,82.687 136.000,83.233 136.000 C 83.472 136.000,83.586 135.775,83.487 135.500 C 83.389 135.225,83.470 134.685,83.668 134.300 C 83.866 133.915,83.938 133.600,83.828 133.600 C 83.718 133.600,83.442 133.948,83.214 134.374 M258.279 137.757 C 258.115 138.174,258.075 138.609,258.191 138.724 C 258.555 139.089,258.876 138.491,258.724 137.731 C 258.583 137.035,258.562 137.036,258.279 137.757 M137.600 141.424 C 137.600 141.987,137.763 142.346,137.962 142.223 C 138.162 142.100,138.231 141.639,138.116 141.200 C 137.828 140.099,137.600 140.198,137.600 141.424 M256.308 144.383 C 256.031 145.367,256.197 145.937,256.632 145.501 C 256.760 145.373,256.801 144.848,256.724 144.334 L 256.584 143.400 256.308 144.383 M76.110 156.000 C 76.077 156.440,76.219 156.800,76.425 156.800 C 76.631 156.800,76.800 156.440,76.800 156.000 C 76.800 155.560,76.658 155.200,76.485 155.200 C 76.312 155.200,76.143 155.560,76.110 156.000 M142.608 156.443 C 142.838 157.638,143.200 157.911,143.200 156.890 C 143.200 156.427,143.029 155.942,142.821 155.813 C 142.611 155.683,142.516 155.964,142.608 156.443 M143.206 159.100 C 143.203 159.595,143.380 160.000,143.600 160.000 C 144.101 160.000,144.101 159.576,143.600 158.800 C 143.286 158.315,143.211 158.372,143.206 159.100 M74.230 161.467 C 74.089 161.834,74.137 162.297,74.337 162.497 C 74.554 162.714,74.700 162.447,74.700 161.830 C 74.700 160.631,74.585 160.542,74.230 161.467 M146.800 167.894 C 146.800 168.626,248.224 168.635,248.505 167.903 C 248.660 167.501,238.503 167.400,197.749 167.400 C 157.586 167.400,146.800 167.505,146.800 167.894 M92.100 167.900 C 101.725 167.960,117.475 167.960,127.100 167.900 C 136.725 167.840,128.850 167.791,109.600 167.791 C 90.350 167.791,82.475 167.840,92.100 167.900 M268.100 167.900 C 277.725 167.960,293.475 167.960,303.100 167.900 C 312.725 167.840,304.850 167.791,285.600 167.791 C 266.350 167.791,258.475 167.840,268.100 167.900 " stroke="none" fill="#e44c24" fill-rule="evenodd"></path><path id="path6" d="" stroke="none" fill="#1007820" fill-rule="evenodd"></path><path id="path7" d="" stroke="none" fill="#e44428" fill-rule="evenodd"></path><path id="path8" d="" stroke="none" fill="#e44428" fill-rule="evenodd"></path></g></svg>