<svg id="svg" version="1.1" xmlns="http://www.w3.org/2000/svg" xmlns:xlink="http://www.w3.org/1999/xlink" width="400" height="438.3092562867844" viewBox="0, 0, 400,438.3092562867844"><g id="svgg"><path id="path0" d="M297.644 123.313 C 297.564 149.929,297.623 148.816,295.959 155.254 C 294.314 161.619,290.752 169.402,287.162 174.476 C 285.110 177.376,282.754 180.188,280.323 182.636 C 279.404 183.562,278.652 184.421,278.652 184.545 C 278.652 184.668,278.594 184.711,278.523 184.641 C 278.453 184.570,278.064 184.843,277.660 185.247 C 277.256 185.651,276.853 185.982,276.764 185.982 C 276.675 185.982,276.132 186.459,275.558 187.042 C 274.983 187.626,274.433 188.053,274.335 187.993 C 274.237 187.932,274.157 187.985,274.157 188.109 C 274.157 188.234,274.037 188.339,273.890 188.343 C 273.743 188.347,273.150 188.777,272.574 189.299 C 271.997 189.821,271.458 190.206,271.376 190.156 C 271.294 190.105,270.923 190.360,270.552 190.723 C 270.181 191.086,269.874 191.299,269.870 191.197 C 269.867 191.095,269.766 191.180,269.646 191.386 C 269.526 191.592,269.240 191.760,269.010 191.760 C 268.781 191.760,268.593 191.862,268.593 191.987 C 268.593 192.112,268.504 192.159,268.396 192.092 C 268.288 192.025,268.071 192.095,267.915 192.247 C 267.537 192.615,265.383 193.926,265.383 193.789 C 265.383 193.730,264.717 194.016,263.903 194.426 C 260.156 196.313,255.097 198.072,250.936 198.934 C 245.663 200.027,249.400 199.951,193.793 200.098 C 146.515 200.222,141.821 200.266,139.935 200.596 C 119.138 204.235,103.960 219.514,100.231 240.565 C 99.872 242.589,99.495 314.821,99.843 314.821 C 99.960 314.821,121.338 299.573,297.342 173.959 C 337.226 145.494,369.943 122.204,370.048 122.204 C 370.152 122.204,370.032 121.843,369.781 121.402 C 369.201 120.379,367.441 117.637,367.274 117.496 C 367.205 117.437,366.805 116.890,366.386 116.279 C 361.325 108.915,353.107 103.202,344.434 101.019 C 339.023 99.657,339.306 99.672,317.557 99.577 L 297.715 99.489 297.644 123.313 M189.581 420.706 C 192.208 420.740,196.446 420.740,198.998 420.706 C 201.550 420.672,199.401 420.644,194.222 420.644 C 189.042 420.644,186.954 420.672,189.581 420.706 M178.117 420.916 C 178.558 420.962,179.280 420.962,179.722 420.916 C 180.163 420.869,179.802 420.832,178.919 420.832 C 178.036 420.832,177.675 420.869,178.117 420.916 M208.507 420.916 C 208.949 420.962,209.671 420.962,210.112 420.916 C 210.554 420.869,210.193 420.832,209.310 420.832 C 208.427 420.832,208.066 420.869,208.507 420.916 M172.877 421.129 C 173.262 421.177,173.840 421.176,174.161 421.127 C 174.483 421.078,174.168 421.039,173.462 421.040 C 172.755 421.041,172.492 421.081,172.877 421.129 M214.183 421.129 C 214.567 421.177,215.145 421.176,215.467 421.127 C 215.788 421.078,215.474 421.039,214.767 421.040 C 214.061 421.041,213.798 421.081,214.183 421.129 M168.807 421.339 C 169.072 421.390,169.505 421.390,169.770 421.339 C 170.035 421.288,169.818 421.246,169.288 421.246 C 168.759 421.246,168.542 421.288,168.807 421.339 M218.459 421.339 C 218.724 421.390,219.157 421.390,219.422 421.339 C 219.687 421.288,219.470 421.246,218.941 421.246 C 218.411 421.246,218.194 421.288,218.459 421.339 M165.385 421.553 C 165.651 421.604,166.037 421.602,166.241 421.549 C 166.446 421.495,166.228 421.453,165.757 421.456 C 165.286 421.458,165.119 421.502,165.385 421.553 M222.100 421.553 C 222.366 421.604,222.751 421.602,222.956 421.549 C 223.161 421.495,222.943 421.453,222.472 421.456 C 222.001 421.458,221.834 421.502,222.100 421.553 M162.175 421.767 C 162.441 421.818,162.826 421.816,163.031 421.763 C 163.235 421.709,163.018 421.667,162.547 421.670 C 162.076 421.672,161.909 421.716,162.175 421.767 M225.310 421.767 C 225.576 421.818,225.962 421.816,226.166 421.763 C 226.371 421.709,226.153 421.667,225.682 421.670 C 225.211 421.672,225.044 421.716,225.310 421.767 M159.497 421.977 C 159.703 422.031,160.040 422.031,160.246 421.977 C 160.452 421.924,160.284 421.880,159.872 421.880 C 159.460 421.880,159.291 421.924,159.497 421.977 M228.092 421.981 C 228.359 422.032,228.744 422.030,228.948 421.977 C 229.153 421.923,228.935 421.881,228.464 421.884 C 227.994 421.886,227.826 421.930,228.092 421.981 M156.929 422.191 C 157.135 422.245,157.472 422.245,157.678 422.191 C 157.884 422.138,157.715 422.094,157.303 422.094 C 156.891 422.094,156.723 422.138,156.929 422.191 M277.261 430.177 C 277.496 430.278,277.833 430.360,278.010 430.360 C 278.212 430.360,278.172 430.293,277.903 430.177 C 277.667 430.075,277.330 429.993,277.154 429.993 C 276.951 429.993,276.991 430.061,277.261 430.177 M109.363 430.498 C 108.951 430.656,108.759 430.786,108.935 430.786 C 109.112 430.786,109.593 430.656,110.005 430.498 C 110.417 430.339,110.610 430.209,110.433 430.209 C 110.257 430.209,109.775 430.339,109.363 430.498 M106.942 431.286 C 106.258 431.524,105.736 431.757,105.781 431.803 C 105.879 431.900,108.507 431.035,108.507 430.906 C 108.507 430.766,108.263 430.826,106.942 431.286 M281.024 431.336 C 281.196 431.507,284.069 432.535,284.150 432.454 C 284.195 432.409,283.549 432.119,282.714 431.809 C 281.242 431.264,280.838 431.151,281.024 431.336 M103.371 432.647 C 99.495 434.222,93.194 437.835,93.605 438.246 C 93.668 438.308,94.374 437.868,95.174 437.267 C 96.793 436.052,101.064 433.784,103.692 432.743 C 104.633 432.371,105.444 432.026,105.493 431.977 C 105.719 431.754,105.047 431.966,103.371 432.647 M285.072 432.903 C 288.526 434.496,291.239 435.957,292.750 437.042 C 293.736 437.749,294.586 438.283,294.640 438.229 C 294.972 437.897,289.493 434.618,286.391 433.293 C 284.609 432.532,283.654 432.250,285.072 432.903 " stroke="none" fill="#fceb74" fill-rule="evenodd"></path><path id="path1" d="M318.615 240.370 L 250.607 288.910 248.417 288.979 C 247.213 289.017,266.322 289.069,290.882 289.093 C 319.946 289.123,336.309 289.062,337.752 288.921 C 355.247 287.200,365.872 277.375,375.046 254.435 C 383.345 233.684,386.953 215.785,386.690 196.665 L 386.624 191.831 318.615 240.370 M211.216 317.016 C 142.902 365.791,128.205 376.244,127.947 376.241 C 127.790 376.240,127.256 376.007,126.760 375.723 C 126.264 375.440,125.638 375.149,125.369 375.078 C 121.816 374.137,136.774 380.825,142.322 382.657 C 175.972 393.775,210.649 393.702,244.462 382.442 C 270.124 373.896,284.204 359.808,286.132 340.748 C 286.270 339.386,286.356 331.278,286.356 319.721 L 286.356 300.910 260.065 300.910 L 233.775 300.910 211.216 317.016 M249.534 325.217 C 260.751 327.909,266.368 341.516,260.352 351.419 C 252.758 363.921,234.765 362.404,229.351 348.807 C 224.156 335.759,235.962 321.961,249.534 325.217 " stroke="none" fill="#fcd43c" fill-rule="evenodd"></path><path id="path2" d="M297.444 173.856 C 257.693 202.243,196.947 245.597,162.451 270.198 L 99.732 314.928 99.807 328.090 C 99.878 340.419,99.911 341.403,100.336 343.643 C 102.492 355.016,109.300 364.604,120.656 372.264 C 121.982 373.158,123.121 373.890,123.186 373.890 C 123.252 373.890,123.450 374.034,123.626 374.211 C 123.803 374.387,124.133 374.532,124.360 374.532 C 124.587 374.532,124.773 374.620,124.773 374.729 C 124.773 374.837,125.062 374.990,125.417 375.067 C 125.771 375.145,126.004 375.300,125.936 375.411 C 125.867 375.522,125.890 375.587,125.987 375.556 C 126.282 375.462,127.557 376.068,127.445 376.249 C 126.831 377.242,130.145 374.899,211.216 317.016 L 233.775 300.910 213.516 300.910 L 193.258 300.910 193.258 295.039 L 193.258 289.168 221.883 289.100 L 250.508 289.032 318.476 240.496 L 386.443 191.961 386.363 189.346 C 386.319 187.908,386.281 186.586,386.279 186.410 C 386.073 171.379,378.356 138.148,372.238 125.950 C 371.707 124.890,371.072 123.614,370.828 123.114 C 370.574 122.594,370.241 122.213,370.050 122.225 C 369.867 122.236,337.194 145.470,297.444 173.856 M274.935 187.391 C 274.598 187.687,274.364 187.972,274.416 188.024 C 274.467 188.075,274.785 187.830,275.123 187.478 C 275.867 186.700,275.771 186.655,274.935 187.391 " stroke="none" fill="#fce058" fill-rule="evenodd"></path><path id="path3" d="M196.094 0.148 C 196.300 0.201,196.637 0.201,196.843 0.148 C 197.049 0.094,196.881 0.050,196.469 0.050 C 196.057 0.050,195.888 0.094,196.094 0.148 M198.334 0.176 C 198.609 0.346,158.390 47.743,158.108 47.581 C 158.021 47.531,158.008 47.640,158.079 47.825 C 158.150 48.009,158.099 48.290,157.966 48.450 C 157.834 48.609,157.763 48.969,157.809 49.250 C 157.854 49.530,157.804 49.869,157.697 50.004 C 157.590 50.139,157.521 50.332,157.544 50.432 C 157.567 50.533,157.530 50.760,157.463 50.936 C 157.063 51.988,156.898 52.725,157.018 52.920 C 157.094 53.043,157.053 53.079,156.926 53.001 C 156.792 52.918,156.599 53.150,156.465 53.556 C 156.053 54.801,154.134 57.670,152.796 59.042 C 151.849 60.012,151.176 60.506,149.278 61.622 C 148.689 61.968,148.097 62.348,147.963 62.466 C 147.828 62.585,147.660 62.623,147.588 62.552 C 147.517 62.480,147.459 62.545,147.459 62.695 C 147.459 62.847,147.319 62.914,147.144 62.846 C 146.971 62.780,146.705 62.850,146.553 63.001 C 146.402 63.153,146.158 63.237,146.012 63.188 C 145.866 63.140,145.746 63.201,145.746 63.325 C 145.746 63.449,145.605 63.496,145.432 63.430 C 144.957 63.247,144.437 63.824,133.883 76.240 L 124.109 87.740 119.144 87.801 C 116.413 87.835,131.923 87.885,153.612 87.912 L 193.044 87.961 193.044 93.793 L 193.044 99.625 145.265 99.619 C 118.986 99.615,101.155 99.663,105.641 99.726 L 113.796 99.839 84.163 134.617 C 67.865 153.745,43.249 182.637,29.459 198.820 C 15.670 215.004,4.219 228.415,4.013 228.623 C 3.605 229.033,3.520 229.428,3.840 229.428 C 3.951 229.428,4.001 229.637,3.952 229.893 C 3.903 230.149,3.965 230.482,4.090 230.633 C 4.215 230.784,4.268 230.987,4.208 231.084 C 4.101 231.257,4.402 233.069,4.644 233.708 C 4.710 233.884,4.794 234.248,4.830 234.516 C 4.960 235.498,6.035 240.116,6.964 243.686 C 12.700 265.724,23.874 280.427,39.164 286.057 C 40.283 286.469,41.343 286.864,41.520 286.934 C 41.981 287.119,42.414 287.221,42.964 287.274 C 43.229 287.299,43.445 287.402,43.446 287.503 C 43.446 287.604,43.590 287.631,43.767 287.563 C 43.943 287.495,44.088 287.520,44.088 287.618 C 44.088 287.716,44.304 287.782,44.569 287.765 C 44.834 287.749,45.104 287.808,45.168 287.898 C 45.232 287.987,45.738 288.086,46.291 288.118 C 46.845 288.150,47.298 288.235,47.298 288.307 C 47.299 289.209,88.232 242.133,88.413 241.022 C 88.426 240.942,88.466 240.589,88.502 240.235 C 88.626 239.009,88.947 237.239,89.044 237.239 C 89.068 237.239,89.126 236.902,89.171 236.490 C 89.216 236.078,89.272 235.572,89.295 235.367 C 89.318 235.161,89.392 234.992,89.460 234.992 C 89.527 234.992,89.600 234.823,89.622 234.617 C 89.804 232.920,89.921 232.321,90.093 232.215 C 90.203 232.147,90.344 231.798,90.408 231.438 C 90.471 231.079,90.662 230.392,90.831 229.911 C 91.000 229.431,91.082 228.981,91.013 228.912 C 90.943 228.842,91.009 228.785,91.159 228.785 C 91.313 228.785,91.378 228.646,91.308 228.464 C 91.241 228.288,91.278 228.143,91.392 228.143 C 91.507 228.143,91.600 228.038,91.600 227.908 C 91.600 226.302,98.035 214.119,99.144 213.626 C 99.232 213.587,99.304 213.415,99.304 213.245 C 99.304 213.074,99.449 212.879,99.625 212.811 C 99.802 212.744,99.946 212.554,99.946 212.390 C 99.946 212.226,100.027 212.092,100.126 212.092 C 100.225 212.092,100.538 211.768,100.822 211.372 C 102.268 209.352,107.203 204.175,109.258 202.523 C 110.084 201.859,111.700 200.564,112.360 200.039 C 113.336 199.261,118.039 196.255,118.281 196.255 C 118.438 196.255,118.566 196.158,118.566 196.041 C 118.566 195.923,118.714 195.827,118.894 195.827 C 119.074 195.827,119.271 195.698,119.331 195.541 C 119.391 195.384,119.557 195.255,119.699 195.254 C 119.994 195.253,122.898 193.891,123.060 193.678 C 123.119 193.601,123.432 193.474,123.756 193.394 C 124.080 193.315,124.345 193.159,124.345 193.047 C 124.345 192.935,124.505 192.905,124.701 192.980 C 124.940 193.072,125.006 193.035,124.902 192.867 C 124.765 192.644,125.152 192.507,125.682 192.591 C 125.770 192.605,125.843 192.510,125.843 192.379 C 125.843 192.249,125.987 192.198,126.164 192.266 C 126.340 192.333,126.485 192.290,126.485 192.169 C 126.485 192.048,126.574 192.004,126.684 192.072 C 126.794 192.140,126.945 192.096,127.020 191.974 C 127.095 191.853,127.246 191.809,127.356 191.876 C 127.465 191.944,127.555 191.886,127.555 191.748 C 127.555 191.603,127.733 191.543,127.974 191.606 C 128.205 191.666,128.736 191.532,129.156 191.307 C 129.575 191.083,130.166 190.878,130.469 190.853 C 131.347 190.780,131.727 190.357,146.649 172.820 C 160.440 156.611,185.959 126.650,207.170 101.766 C 212.889 95.056,225.649 80.080,235.527 68.486 C 245.405 56.891,258.192 41.886,263.943 35.141 C 269.695 28.395,274.439 22.676,274.486 22.431 C 274.533 22.186,274.521 22.037,274.458 22.099 C 274.324 22.234,273.272 21.297,273.273 21.043 C 273.273 20.946,273.093 20.770,272.873 20.653 C 272.653 20.535,272.467 20.367,272.459 20.278 C 272.451 20.190,272.373 20.096,272.285 20.070 C 271.967 19.975,271.399 19.396,271.486 19.256 C 271.534 19.177,271.221 18.833,270.790 18.492 C 270.358 18.150,269.741 17.630,269.418 17.335 C 269.095 17.041,268.705 16.703,268.551 16.583 C 268.397 16.464,267.838 16.018,267.309 15.592 C 266.309 14.789,262.520 12.181,261.958 11.909 C 261.782 11.824,261.445 11.637,261.209 11.494 C 251.048 5.323,234.762 1.729,211.557 0.538 C 210.144 0.466,208.555 0.361,208.026 0.306 C 206.299 0.126,198.074 0.015,198.334 0.176 " stroke="none" fill="#3b7cae" fill-rule="evenodd"></path><path id="path4" d="M285.809 47.577 C 285.609 48.008,265.285 71.905,186.405 164.456 L 165.961 188.443 203.954 188.506 C 230.861 188.551,242.652 188.499,244.363 188.330 C 263.615 186.418,279.861 172.343,284.754 153.336 C 286.362 147.090,286.251 151.272,286.231 97.378 C 286.209 40.832,286.258 46.606,285.809 47.577 M84.362 284.213 L 80.442 288.818 84.331 288.992 C 86.470 289.087,88.260 289.126,88.309 289.077 C 88.358 289.028,88.372 286.877,88.340 284.298 L 88.283 279.609 84.362 284.213 M177.421 420.554 C 137.637 422.143,105.920 428.378,93.847 436.982 C 92.315 438.074,92.194 438.209,92.694 438.267 C 93.098 438.314,93.750 437.975,95.048 437.044 C 97.459 435.315,105.065 431.586,105.432 431.953 C 105.477 431.998,104.815 432.303,103.961 432.632 C 101.576 433.549,96.786 436.060,95.265 437.190 L 93.902 438.202 95.301 438.265 C 96.679 438.327,96.725 438.311,98.163 437.268 C 118.705 422.381,198.406 416.527,254.147 425.813 C 271.270 428.666,286.276 433.595,290.983 437.914 C 291.357 438.258,291.691 438.319,292.909 438.266 L 294.382 438.202 292.976 437.194 C 291.150 435.886,288.646 434.492,286.303 433.481 C 285.273 433.037,284.465 432.639,284.507 432.597 C 284.829 432.275,290.892 435.403,293.312 437.139 C 295.693 438.847,296.868 438.786,294.596 437.072 C 283.826 428.951,254.498 422.896,215.516 420.745 C 210.146 420.448,183.418 420.315,177.421 420.554 M198.998 420.706 C 196.446 420.740,192.208 420.740,189.581 420.706 C 186.954 420.672,189.042 420.644,194.222 420.644 C 199.401 420.644,201.550 420.672,198.998 420.706 M179.722 420.916 C 179.280 420.962,178.558 420.962,178.117 420.916 C 177.675 420.869,178.036 420.832,178.919 420.832 C 179.802 420.832,180.163 420.869,179.722 420.916 M210.112 420.916 C 209.671 420.962,208.949 420.962,208.507 420.916 C 208.066 420.869,208.427 420.832,209.310 420.832 C 210.193 420.832,210.554 420.869,210.112 420.916 M174.161 421.127 C 173.840 421.176,173.262 421.177,172.877 421.129 C 172.492 421.081,172.755 421.041,173.462 421.040 C 174.168 421.039,174.483 421.078,174.161 421.127 M215.467 421.127 C 215.145 421.176,214.567 421.177,214.183 421.129 C 213.798 421.081,214.061 421.041,214.767 421.040 C 215.474 421.039,215.788 421.078,215.467 421.127 M169.770 421.339 C 169.505 421.390,169.072 421.390,168.807 421.339 C 168.542 421.288,168.759 421.246,169.288 421.246 C 169.818 421.246,170.035 421.288,169.770 421.339 M219.422 421.339 C 219.157 421.390,218.724 421.390,218.459 421.339 C 218.194 421.288,218.411 421.246,218.941 421.246 C 219.470 421.246,219.687 421.288,219.422 421.339 M166.241 421.549 C 166.037 421.602,165.651 421.604,165.385 421.553 C 165.119 421.502,165.286 421.458,165.757 421.456 C 166.228 421.453,166.446 421.495,166.241 421.549 M222.956 421.549 C 222.751 421.602,222.366 421.604,222.100 421.553 C 221.834 421.502,222.001 421.458,222.472 421.456 C 222.943 421.453,223.161 421.495,222.956 421.549 M163.031 421.763 C 162.826 421.816,162.441 421.818,162.175 421.767 C 161.909 421.716,162.076 421.672,162.547 421.670 C 163.018 421.667,163.235 421.709,163.031 421.763 M226.166 421.763 C 225.962 421.816,225.576 421.818,225.310 421.767 C 225.044 421.716,225.211 421.672,225.682 421.670 C 226.153 421.667,226.371 421.709,226.166 421.763 M160.246 421.977 C 160.040 422.031,159.703 422.031,159.497 421.977 C 159.291 421.924,159.460 421.880,159.872 421.880 C 160.284 421.880,160.452 421.924,160.246 421.977 M228.948 421.977 C 228.744 422.030,228.359 422.032,228.092 421.981 C 227.826 421.930,227.994 421.886,228.464 421.884 C 228.935 421.881,229.153 421.923,228.948 421.977 M157.678 422.191 C 157.472 422.245,157.135 422.245,156.929 422.191 C 156.723 422.138,156.891 422.094,157.303 422.094 C 157.715 422.094,157.884 422.138,157.678 422.191 M277.903 430.177 C 278.172 430.293,278.212 430.360,278.010 430.360 C 277.833 430.360,277.496 430.278,277.261 430.177 C 276.991 430.061,276.951 429.993,277.154 429.993 C 277.330 429.993,277.667 430.075,277.903 430.177 M110.005 430.498 C 109.593 430.656,109.112 430.786,108.935 430.786 C 108.759 430.786,108.951 430.656,109.363 430.498 C 109.775 430.339,110.257 430.209,110.433 430.209 C 110.610 430.209,110.417 430.339,110.005 430.498 M108.507 430.906 C 108.507 431.035,105.879 431.900,105.781 431.803 C 105.736 431.757,106.258 431.524,106.942 431.286 C 108.263 430.826,108.507 430.766,108.507 430.906 M282.714 431.809 C 283.549 432.119,284.195 432.409,284.150 432.454 C 284.069 432.535,281.196 431.507,281.024 431.336 C 280.838 431.151,281.242 431.264,282.714 431.809 " stroke="none" fill="#2d6c9c" fill-rule="evenodd"></path><path id="path5" d="M271.712 19.662 C 271.939 19.882,272.162 20.029,272.208 19.988 C 272.343 19.869,271.772 19.262,271.525 19.262 C 271.402 19.262,271.486 19.442,271.712 19.662 M273.194 21.187 C 273.266 21.304,273.536 21.510,273.795 21.646 C 274.261 21.890,274.261 21.889,273.857 21.433 C 273.448 20.973,272.946 20.786,273.194 21.187 M274.344 22.288 C 274.562 22.589,272.976 24.544,263.405 35.771 C 257.248 42.994,244.416 58.052,234.889 69.235 C 225.362 80.417,212.888 95.056,207.169 101.766 C 186.797 125.667,160.637 156.379,146.646 172.820 C 138.833 182.001,132.158 189.778,131.814 190.102 C 131.141 190.733,131.239 190.825,132.196 190.461 C 133.014 190.150,138.083 189.179,139.540 189.055 C 140.187 189.000,140.861 188.893,141.038 188.817 C 141.215 188.742,146.895 188.627,153.660 188.562 L 165.962 188.443 186.940 163.828 C 198.478 150.290,225.478 118.604,246.940 93.416 L 285.962 47.619 285.859 46.656 C 285.802 46.126,285.699 45.356,285.629 44.944 C 285.559 44.532,285.493 44.050,285.482 43.874 C 285.471 43.697,285.365 43.235,285.247 42.847 C 285.129 42.459,285.006 41.929,284.975 41.670 C 284.913 41.170,283.615 36.927,283.357 36.383 C 283.273 36.207,282.734 35.051,282.159 33.816 C 280.264 29.744,277.197 25.062,274.940 22.793 C 274.472 22.322,274.204 22.095,274.344 22.288 M191.065 99.673 C 191.447 99.721,192.073 99.721,192.456 99.673 C 192.838 99.626,192.525 99.587,191.760 99.587 C 190.995 99.587,190.682 99.626,191.065 99.673 M88.390 240.968 C 88.390 241.077,79.339 251.788,68.276 264.772 C 55.188 280.132,48.255 288.428,48.426 288.522 C 49.120 288.902,52.508 288.988,68.272 289.025 C 77.630 289.047,84.196 289.009,82.864 288.941 L 80.442 288.818 84.417 284.149 L 88.393 279.481 88.394 260.821 C 88.395 250.558,88.448 241.849,88.512 241.466 C 88.577 241.083,88.575 240.770,88.509 240.770 C 88.443 240.770,88.390 240.859,88.390 240.968 M180.310 421.617 C 141.776 422.974,109.917 429.069,98.774 437.217 L 97.280 438.309 98.609 438.309 C 99.827 438.309,100.032 438.238,101.064 437.457 C 107.233 432.787,122.775 428.199,141.573 425.496 C 195.399 417.758,267.066 423.548,286.863 437.234 C 288.388 438.287,288.503 438.329,289.705 438.267 L 290.958 438.202 289.127 436.980 C 273.653 426.647,226.506 419.991,180.310 421.617 M179.775 422.602 C 179.010 422.642,176.217 422.776,173.569 422.901 C 140.663 424.452,111.137 430.629,102.377 437.794 L 101.766 438.294 102.525 438.302 C 102.943 438.306,103.415 438.189,103.573 438.042 C 103.804 437.828,103.831 437.828,103.711 438.042 C 103.411 438.572,110.753 438.405,111.692 437.860 C 112.465 437.412,112.465 437.412,111.932 437.855 L 111.396 438.300 112.700 438.304 C 113.885 438.309,114.162 438.214,115.752 437.258 C 142.852 420.971,245.864 421.184,273.115 437.584 C 274.415 438.366,277.480 438.741,276.404 437.986 C 275.446 437.314,275.085 436.959,275.762 437.356 C 276.116 437.563,276.594 437.863,276.827 438.021 C 277.416 438.424,284.745 438.443,284.518 438.042 C 284.398 437.828,284.425 437.828,284.656 438.042 C 284.814 438.189,285.286 438.306,285.704 438.302 L 286.463 438.294 285.821 437.762 C 277.285 430.687,250.367 425.007,215.302 422.881 C 211.674 422.661,183.009 422.436,179.775 422.602 M188.178 422.837 C 187.915 422.887,187.434 422.889,187.108 422.840 C 186.783 422.790,186.998 422.749,187.587 422.747 C 188.175 422.746,188.442 422.786,188.178 422.837 M201.234 422.837 C 200.970 422.887,200.489 422.889,200.163 422.840 C 199.838 422.790,200.054 422.749,200.642 422.747 C 201.231 422.746,201.497 422.786,201.234 422.837 M188.502 424.554 C 188.064 424.600,187.293 424.600,186.790 424.555 C 186.287 424.510,186.645 424.472,187.587 424.471 C 188.529 424.471,188.940 424.508,188.502 424.554 M201.659 424.555 C 201.158 424.600,200.340 424.600,199.839 424.555 C 199.339 424.510,199.749 424.473,200.749 424.473 C 201.750 424.473,202.159 424.510,201.659 424.555 M180.152 424.759 C 179.948 424.813,179.562 424.815,179.296 424.763 C 179.030 424.712,179.197 424.668,179.668 424.666 C 180.139 424.664,180.357 424.706,180.152 424.759 M209.045 424.759 C 208.840 424.813,208.455 424.815,208.189 424.763 C 207.922 424.712,208.090 424.668,208.561 424.666 C 209.032 424.664,209.249 424.706,209.045 424.759 M182.343 425.612 C 152.797 426.703,128.810 430.962,117.724 437.087 C 114.337 438.958,116.134 438.604,120.128 436.613 C 149.933 421.758,243.901 422.283,269.871 437.449 C 270.846 438.019,271.589 438.312,271.949 438.269 C 273.259 438.112,266.729 435.032,261.616 433.395 C 243.858 427.710,211.528 424.535,182.343 425.612 M187.159 426.241 C 156.981 426.972,131.454 431.296,120.578 437.519 L 119.384 438.202 120.240 438.267 C 120.936 438.320,121.631 438.070,123.951 436.933 C 152.414 422.988,241.715 423.439,265.784 437.651 C 266.713 438.199,267.127 438.318,267.925 438.266 L 268.914 438.202 267.309 437.309 C 254.534 430.199,220.091 425.443,187.159 426.241 M185.607 427.338 C 186.284 427.381,187.392 427.381,188.068 427.338 C 188.745 427.296,188.192 427.261,186.838 427.261 C 185.484 427.261,184.930 427.296,185.607 427.338 M200.161 427.338 C 200.837 427.381,201.945 427.381,202.622 427.338 C 203.299 427.296,202.745 427.261,201.391 427.261 C 200.037 427.261,199.484 427.296,200.161 427.338 M179.512 427.549 C 179.896 427.597,180.474 427.596,180.796 427.547 C 181.117 427.498,180.803 427.459,180.096 427.461 C 179.390 427.462,179.127 427.502,179.512 427.549 M207.548 427.549 C 207.933 427.597,208.510 427.596,208.832 427.547 C 209.154 427.498,208.839 427.459,208.133 427.461 C 207.426 427.462,207.163 427.502,207.548 427.549 M175.337 427.762 C 175.663 427.811,176.144 427.810,176.407 427.759 C 176.671 427.708,176.404 427.668,175.816 427.670 C 175.227 427.671,175.012 427.713,175.337 427.762 M211.934 427.762 C 212.260 427.811,212.741 427.810,213.005 427.759 C 213.268 427.708,213.002 427.668,212.413 427.670 C 211.825 427.671,211.609 427.713,211.934 427.762 M172.017 427.973 C 172.282 428.024,172.715 428.024,172.980 427.973 C 173.245 427.922,173.028 427.881,172.499 427.881 C 171.969 427.881,171.752 427.922,172.017 427.973 M215.465 427.974 C 215.732 428.025,216.117 428.023,216.321 427.969 C 216.526 427.916,216.308 427.874,215.837 427.876 C 215.367 427.879,215.199 427.923,215.465 427.974 M169.237 428.188 C 169.504 428.239,169.889 428.237,170.093 428.183 C 170.298 428.130,170.080 428.088,169.609 428.090 C 169.139 428.093,168.971 428.137,169.237 428.188 M218.352 428.184 C 218.558 428.238,218.895 428.238,219.101 428.184 C 219.307 428.130,219.139 428.086,218.727 428.086 C 218.315 428.086,218.146 428.130,218.352 428.184 M166.560 428.398 C 166.766 428.452,167.103 428.452,167.309 428.398 C 167.515 428.344,167.346 428.300,166.934 428.300 C 166.522 428.300,166.354 428.344,166.560 428.398 M220.920 428.398 C 221.126 428.452,221.463 428.452,221.669 428.398 C 221.875 428.344,221.707 428.300,221.295 428.300 C 220.883 428.300,220.714 428.344,220.920 428.398 M184.326 429.474 C 184.651 429.523,185.133 429.522,185.396 429.471 C 185.659 429.420,185.393 429.380,184.805 429.382 C 184.216 429.383,184.001 429.425,184.326 429.474 M203.050 429.472 C 203.315 429.523,203.748 429.523,204.013 429.472 C 204.278 429.421,204.061 429.379,203.531 429.379 C 203.002 429.379,202.785 429.421,203.050 429.472 M133.547 434.136 C 133.135 434.295,132.943 434.424,133.119 434.424 C 133.296 434.424,133.777 434.295,134.189 434.136 C 134.601 433.977,134.794 433.847,134.617 433.847 C 134.441 433.847,133.959 433.977,133.547 434.136 M253.719 434.029 C 253.954 434.130,254.291 434.213,254.468 434.213 C 254.670 434.213,254.630 434.145,254.361 434.029 C 254.125 433.928,253.788 433.845,253.612 433.845 C 253.409 433.845,253.449 433.913,253.719 434.029 M130.805 435.031 C 130.298 435.211,129.920 435.395,129.966 435.442 C 130.064 435.539,132.049 434.888,132.049 434.758 C 132.049 434.624,131.806 434.677,130.805 435.031 M256.840 434.965 C 256.889 435.009,257.844 435.404,258.962 435.843 C 260.080 436.282,261.706 437.019,262.576 437.482 C 263.445 437.944,264.201 438.278,264.257 438.223 C 264.406 438.073,261.057 436.432,258.919 435.606 C 257.197 434.941,256.612 434.761,256.840 434.965 M273.307 435.958 C 274.010 436.313,274.585 436.651,274.585 436.710 C 274.585 436.806,272.039 435.594,271.821 435.395 C 271.556 435.152,272.177 435.388,273.307 435.958 M115.980 435.608 C 115.762 435.805,114.072 436.595,114.072 436.500 C 114.072 436.368,115.603 435.549,115.873 435.536 C 115.981 435.531,116.029 435.563,115.980 435.608 M127.287 436.470 C 126.140 436.988,124.888 437.620,124.505 437.876 C 123.571 438.501,123.854 438.392,126.489 437.117 C 127.723 436.519,128.973 435.924,129.267 435.793 C 129.561 435.663,129.706 435.550,129.588 435.543 C 129.470 435.535,128.435 435.953,127.287 436.470 M253.398 437.881 C 253.810 438.107,254.243 438.291,254.361 438.291 C 254.478 438.291,254.238 438.107,253.826 437.881 C 253.414 437.656,252.980 437.471,252.862 437.471 C 252.745 437.471,252.986 437.656,253.398 437.881 M134.189 437.988 C 133.895 438.156,133.751 438.294,133.868 438.294 C 133.986 438.294,134.323 438.156,134.617 437.988 C 134.912 437.820,135.056 437.682,134.938 437.682 C 134.821 437.682,134.484 437.820,134.189 437.988 " stroke="none" fill="#34749c" fill-rule="evenodd"></path><path id="path6" d="M140.824 4.948 C 140.824 5.030,140.631 5.046,140.395 4.984 C 140.159 4.922,139.819 4.993,139.641 5.142 C 139.462 5.290,139.260 5.356,139.192 5.288 C 139.124 5.219,138.834 5.252,138.549 5.361 C 138.264 5.469,137.816 5.597,137.555 5.645 C 137.293 5.693,136.646 5.849,136.118 5.991 C 135.589 6.134,134.894 6.284,134.572 6.325 C 134.251 6.365,133.793 6.503,133.554 6.631 C 133.315 6.759,133.119 6.817,133.119 6.761 C 133.119 6.704,132.566 6.852,131.889 7.090 C 131.212 7.328,130.441 7.565,130.175 7.618 C 129.607 7.730,126.461 8.866,124.024 9.838 C 119.745 11.544,114.320 14.732,111.825 17.007 C 109.810 18.844,107.865 20.858,107.865 21.107 C 107.865 21.244,107.741 21.404,107.589 21.462 C 107.272 21.584,105.464 24.214,105.048 25.159 C 104.896 25.506,104.716 25.837,104.649 25.896 C 103.836 26.609,101.405 33.780,100.948 36.811 C 100.886 37.223,100.689 38.523,100.510 39.700 C 99.977 43.198,99.650 50.490,99.926 52.714 L 100.054 53.742 120.599 29.642 C 143.622 2.636,141.823 4.800,141.248 4.800 C 141.015 4.800,140.824 4.867,140.824 4.948 M65.766 99.677 C 66.565 99.719,67.817 99.718,68.548 99.677 C 69.279 99.635,68.625 99.601,67.095 99.602 C 65.564 99.602,64.967 99.636,65.766 99.677 M59.474 99.821 C 59.380 99.909,57.717 100.108,55.668 100.275 C 54.916 100.336,54.210 100.442,54.100 100.510 C 53.991 100.578,53.643 100.662,53.328 100.697 C 50.735 100.982,45.353 102.489,41.594 103.981 C 40.296 104.496,34.399 107.413,34.243 107.618 C 34.184 107.695,33.703 107.991,33.173 108.276 C 31.474 109.189,27.349 112.210,25.682 113.763 C 23.267 116.012,21.943 117.353,21.986 117.508 C 22.013 117.605,21.845 117.744,21.611 117.818 C 21.378 117.892,21.188 118.035,21.188 118.136 C 21.188 118.237,20.923 118.592,20.599 118.925 C 18.614 120.969,14.125 127.220,14.125 127.942 C 14.125 128.082,14.035 128.197,13.926 128.197 C 13.743 128.197,13.492 128.716,13.486 129.106 C 13.484 129.195,13.287 129.463,13.047 129.703 C 12.808 129.943,12.664 130.223,12.728 130.327 C 12.791 130.430,12.771 130.547,12.682 130.586 C 12.526 130.655,11.016 133.440,11.134 133.440 C 11.166 133.440,10.996 133.826,10.756 134.296 C 10.515 134.767,10.310 135.226,10.300 135.315 C 10.290 135.405,10.146 135.742,9.981 136.064 C 9.569 136.866,7.505 142.869,7.277 143.927 C 7.176 144.398,6.905 145.506,6.675 146.388 C 6.445 147.271,6.099 148.675,5.906 149.508 C 5.712 150.341,5.511 151.208,5.458 151.434 C 4.695 154.702,4.562 155.373,4.657 155.469 C 4.719 155.530,4.662 155.711,4.530 155.870 C 4.398 156.028,4.249 156.651,4.199 157.253 C 4.148 157.855,4.046 158.448,3.970 158.570 C 3.895 158.692,3.799 159.060,3.758 159.387 C 3.716 159.715,3.577 160.375,3.448 160.853 C 3.319 161.332,3.160 162.246,3.094 162.884 C 3.028 163.523,2.886 164.334,2.779 164.687 C 2.672 165.040,2.533 165.762,2.470 166.292 C 2.407 166.822,2.305 167.520,2.244 167.844 C 2.182 168.167,2.174 168.432,2.225 168.432 C 2.276 168.432,10.585 158.731,20.688 146.873 C 30.792 135.016,43.898 119.636,49.813 112.696 C 55.728 105.756,60.567 100.021,60.567 99.952 C 60.567 99.812,59.607 99.697,59.474 99.821 M181.656 421.560 C 182.397 421.602,183.552 421.602,184.225 421.560 C 184.897 421.517,184.291 421.483,182.879 421.484 C 181.466 421.484,180.916 421.519,181.656 421.560 M204.128 421.560 C 204.869 421.602,206.024 421.602,206.696 421.560 C 207.369 421.517,206.763 421.483,205.350 421.484 C 203.938 421.484,203.388 421.519,204.128 421.560 M175.548 421.772 C 175.990 421.818,176.712 421.818,177.154 421.772 C 177.595 421.726,177.234 421.688,176.351 421.688 C 175.468 421.688,175.107 421.726,175.548 421.772 M211.075 421.772 C 211.517 421.818,212.239 421.818,212.681 421.772 C 213.122 421.726,212.761 421.688,211.878 421.688 C 210.995 421.688,210.634 421.726,211.075 421.772 M171.165 421.985 C 171.550 422.033,172.127 422.032,172.449 421.983 C 172.771 421.934,172.456 421.895,171.750 421.896 C 171.043 421.897,170.780 421.937,171.165 421.985 M215.895 421.985 C 216.279 422.033,216.857 422.032,217.179 421.983 C 217.500 421.934,217.186 421.895,216.479 421.896 C 215.773 421.897,215.510 421.937,215.895 421.985 M167.416 422.197 C 167.739 422.246,168.269 422.246,168.593 422.197 C 168.917 422.148,168.652 422.108,168.004 422.108 C 167.357 422.108,167.092 422.148,167.416 422.197 M179.026 422.278 C 143.461 423.548,113.545 429.275,101.766 437.069 L 100.054 438.202 100.830 438.267 C 101.457 438.320,101.867 438.151,102.970 437.389 C 112.374 430.886,134.793 425.737,163.189 423.557 C 174.605 422.681,177.828 422.579,194.114 422.579 C 210.388 422.579,213.583 422.680,225.040 423.555 C 253.689 425.744,277.634 431.326,285.762 437.710 C 286.379 438.195,286.737 438.321,287.349 438.269 L 288.140 438.202 286.873 437.320 C 272.134 427.048,225.927 420.604,179.026 422.278 M219.853 422.197 C 220.178 422.247,220.660 422.245,220.923 422.195 C 221.186 422.144,220.920 422.103,220.332 422.105 C 219.743 422.107,219.528 422.148,219.853 422.197 M164.208 422.411 C 164.534 422.461,165.015 422.459,165.278 422.409 C 165.542 422.358,165.276 422.317,164.687 422.319 C 164.098 422.321,163.883 422.362,164.208 422.411 M223.063 422.411 C 223.389 422.461,223.870 422.459,224.133 422.409 C 224.397 422.358,224.131 422.317,223.542 422.319 C 222.953 422.321,222.738 422.362,223.063 422.411 M161.316 422.623 C 161.581 422.674,162.014 422.674,162.279 422.623 C 162.544 422.572,162.327 422.530,161.798 422.530 C 161.268 422.530,161.051 422.572,161.316 422.623 M225.950 422.623 C 226.215 422.674,226.648 422.674,226.913 422.623 C 227.178 422.572,226.961 422.530,226.431 422.530 C 225.902 422.530,225.685 422.572,225.950 422.623 M158.750 422.837 C 159.017 422.888,159.402 422.887,159.607 422.833 C 159.811 422.779,159.593 422.738,159.123 422.740 C 158.652 422.742,158.484 422.786,158.750 422.837 M187.108 422.840 C 187.434 422.889,187.915 422.887,188.178 422.837 C 188.442 422.786,188.175 422.746,187.587 422.747 C 186.998 422.749,186.783 422.790,187.108 422.840 M200.163 422.840 C 200.489 422.889,200.970 422.887,201.234 422.837 C 201.497 422.786,201.231 422.746,200.642 422.747 C 200.054 422.749,199.838 422.790,200.163 422.840 M228.734 422.837 C 229.001 422.888,229.386 422.887,229.591 422.833 C 229.795 422.779,229.577 422.738,229.106 422.740 C 228.636 422.742,228.468 422.786,228.734 422.837 M156.287 423.047 C 156.493 423.101,156.830 423.101,157.036 423.047 C 157.242 422.994,157.073 422.950,156.661 422.950 C 156.249 422.950,156.081 422.994,156.287 423.047 M231.193 423.047 C 231.399 423.101,231.736 423.101,231.942 423.047 C 232.148 422.994,231.980 422.950,231.568 422.950 C 231.156 422.950,230.987 422.994,231.193 423.047 M154.042 423.265 C 154.308 423.317,154.694 423.315,154.898 423.261 C 155.103 423.207,154.885 423.166,154.414 423.168 C 153.943 423.170,153.776 423.214,154.042 423.265 M233.443 423.265 C 233.709 423.317,234.094 423.315,234.299 423.261 C 234.504 423.207,234.286 423.166,233.815 423.168 C 233.344 423.170,233.177 423.214,233.443 423.265 M152.006 423.476 C 152.212 423.529,152.549 423.529,152.755 423.476 C 152.961 423.422,152.793 423.378,152.381 423.378 C 151.969 423.378,151.800 423.422,152.006 423.476 M235.688 423.476 C 235.894 423.529,236.231 423.529,236.437 423.476 C 236.643 423.422,236.474 423.378,236.062 423.378 C 235.650 423.378,235.482 423.422,235.688 423.476 M149.866 423.690 C 150.072 423.743,150.409 423.743,150.615 423.690 C 150.821 423.636,150.653 423.592,150.241 423.592 C 149.829 423.592,149.660 423.636,149.866 423.690 M237.614 423.690 C 237.820 423.743,238.157 423.743,238.363 423.690 C 238.569 423.636,238.400 423.592,237.988 423.592 C 237.576 423.592,237.408 423.636,237.614 423.690 M146.228 424.118 C 146.434 424.171,146.771 424.171,146.977 424.118 C 147.183 424.064,147.014 424.020,146.602 424.020 C 146.190 424.020,146.022 424.064,146.228 424.118 M241.252 424.118 C 241.458 424.171,241.795 424.171,242.001 424.118 C 242.207 424.064,242.039 424.020,241.627 424.020 C 241.215 424.020,241.046 424.064,241.252 424.118 M144.516 424.332 C 144.722 424.385,145.059 424.385,145.265 424.332 C 145.471 424.278,145.302 424.234,144.890 424.234 C 144.478 424.234,144.310 424.278,144.516 424.332 M186.790 424.555 C 187.293 424.600,188.064 424.600,188.502 424.554 C 188.940 424.508,188.529 424.471,187.587 424.471 C 186.645 424.472,186.287 424.510,186.790 424.555 M199.839 424.555 C 200.340 424.600,201.158 424.600,201.659 424.555 C 202.159 424.510,201.750 424.473,200.749 424.473 C 199.749 424.473,199.339 424.510,199.839 424.555 M179.296 424.763 C 179.562 424.815,179.948 424.813,180.152 424.759 C 180.357 424.706,180.139 424.664,179.668 424.666 C 179.197 424.668,179.030 424.712,179.296 424.763 M208.189 424.763 C 208.455 424.815,208.840 424.813,209.045 424.759 C 209.249 424.706,209.032 424.664,208.561 424.666 C 208.090 424.668,207.922 424.712,208.189 424.763 M184.484 425.184 C 153.751 426.010,126.454 430.812,115.707 437.282 C 113.133 438.832,114.830 438.715,117.629 437.150 C 145.440 421.595,243.634 421.664,270.829 437.257 C 272.148 438.013,272.890 438.307,273.464 438.303 L 274.264 438.296 273.408 437.756 C 260.220 429.438,222.832 424.152,184.484 425.184 M181.808 425.914 C 154.724 426.862,131.703 430.839,120.278 436.545 L 116.961 438.202 118.083 438.267 C 119.040 438.322,119.389 438.224,120.457 437.598 C 146.036 422.606,241.671 422.519,267.592 437.464 C 268.881 438.207,269.242 438.320,270.150 438.266 L 271.207 438.202 269.632 437.313 C 255.613 429.392,218.831 424.618,181.808 425.914 M188.978 426.681 C 165.069 427.010,141.708 430.167,128.840 434.808 C 126.835 435.532,121.562 437.971,121.562 438.176 C 121.562 438.480,133.577 438.305,134.183 437.992 C 134.978 437.580,135.332 437.579,134.617 437.990 C 134.150 438.259,136.461 438.291,153.023 438.245 L 171.964 438.192 175.602 437.609 C 177.603 437.289,179.577 437.036,179.989 437.046 C 180.401 437.057,179.342 437.249,177.635 437.474 C 173.790 437.980,172.097 438.343,174.211 438.209 C 174.976 438.161,176.661 437.976,177.956 437.798 C 187.351 436.512,201.405 436.547,211.037 437.882 C 215.613 438.517,254.547 438.518,253.398 437.884 C 252.401 437.335,252.756 437.336,253.834 437.885 C 254.619 438.286,255.023 438.313,259.336 438.260 L 263.991 438.202 261.744 437.101 C 260.508 436.496,258.893 435.784,258.154 435.519 C 257.416 435.255,256.851 434.998,256.900 434.949 C 257.053 434.797,260.829 436.333,262.786 437.343 C 264.234 438.091,264.887 438.309,265.674 438.309 C 267.007 438.309,266.861 438.147,264.461 436.955 C 251.073 430.310,221.153 426.238,188.978 426.681 M188.068 427.338 C 187.392 427.381,186.284 427.381,185.607 427.338 C 184.930 427.296,185.484 427.261,186.838 427.261 C 188.192 427.261,188.745 427.296,188.068 427.338 M202.622 427.338 C 201.945 427.381,200.837 427.381,200.161 427.338 C 199.484 427.296,200.037 427.261,201.391 427.261 C 202.745 427.261,203.299 427.296,202.622 427.338 M180.796 427.547 C 180.474 427.596,179.896 427.597,179.512 427.549 C 179.127 427.502,179.390 427.462,180.096 427.461 C 180.803 427.459,181.117 427.498,180.796 427.547 M208.832 427.547 C 208.510 427.596,207.933 427.597,207.548 427.549 C 207.163 427.502,207.426 427.462,208.133 427.461 C 208.839 427.459,209.154 427.498,208.832 427.547 M176.407 427.759 C 176.144 427.810,175.663 427.811,175.337 427.762 C 175.012 427.713,175.227 427.671,175.816 427.670 C 176.404 427.668,176.671 427.708,176.407 427.759 M213.005 427.759 C 212.741 427.810,212.260 427.811,211.934 427.762 C 211.609 427.713,211.825 427.671,212.413 427.670 C 213.002 427.668,213.268 427.708,213.005 427.759 M172.980 427.973 C 172.715 428.024,172.282 428.024,172.017 427.973 C 171.752 427.922,171.969 427.881,172.499 427.881 C 173.028 427.881,173.245 427.922,172.980 427.973 M216.321 427.969 C 216.117 428.023,215.732 428.025,215.465 427.974 C 215.199 427.923,215.367 427.879,215.837 427.876 C 216.308 427.874,216.526 427.916,216.321 427.969 M121.776 428.250 C 121.353 428.386,121.330 428.422,121.669 428.422 C 121.905 428.422,122.338 428.345,122.632 428.250 C 123.056 428.115,123.078 428.079,122.739 428.079 C 122.504 428.079,122.071 428.156,121.776 428.250 M170.093 428.183 C 169.889 428.237,169.504 428.239,169.237 428.188 C 168.971 428.137,169.139 428.093,169.609 428.090 C 170.080 428.088,170.298 428.130,170.093 428.183 M219.101 428.184 C 218.895 428.238,218.558 428.238,218.352 428.184 C 218.146 428.130,218.315 428.086,218.727 428.086 C 219.139 428.086,219.307 428.130,219.101 428.184 M265.597 428.250 C 265.891 428.345,266.324 428.422,266.560 428.422 C 266.899 428.422,266.876 428.386,266.453 428.250 C 266.158 428.156,265.725 428.079,265.490 428.079 C 265.151 428.079,265.173 428.115,265.597 428.250 M167.309 428.398 C 167.103 428.452,166.766 428.452,166.560 428.398 C 166.354 428.344,166.522 428.300,166.934 428.300 C 167.346 428.300,167.515 428.344,167.309 428.398 M221.669 428.398 C 221.463 428.452,221.126 428.452,220.920 428.398 C 220.714 428.344,220.883 428.300,221.295 428.300 C 221.707 428.300,221.875 428.344,221.669 428.398 M117.646 429.260 C 116.964 429.439,116.448 429.628,116.499 429.679 C 116.595 429.775,119.244 429.138,119.404 428.980 C 119.563 428.824,118.917 428.927,117.646 429.260 M269.984 429.292 C 270.219 429.395,270.749 429.540,271.161 429.615 C 271.675 429.708,271.776 429.692,271.482 429.563 C 271.247 429.460,270.717 429.315,270.305 429.240 C 269.791 429.147,269.690 429.163,269.984 429.292 M185.396 429.471 C 185.133 429.522,184.651 429.523,184.326 429.474 C 184.001 429.425,184.216 429.383,184.805 429.382 C 185.393 429.380,185.659 429.420,185.396 429.471 M204.013 429.472 C 203.748 429.523,203.315 429.523,203.050 429.472 C 202.785 429.421,203.002 429.379,203.531 429.379 C 204.061 429.379,204.278 429.421,204.013 429.472 M115.249 429.963 C 114.979 430.078,114.939 430.146,115.142 430.146 C 115.318 430.146,115.655 430.064,115.891 429.963 C 116.161 429.847,116.200 429.779,115.998 429.779 C 115.821 429.779,115.484 429.861,115.249 429.963 M272.338 429.963 C 272.574 430.064,272.911 430.146,273.087 430.146 C 273.290 430.146,273.250 430.078,272.980 429.963 C 272.745 429.861,272.408 429.779,272.231 429.779 C 272.029 429.779,272.068 429.847,272.338 429.963 M113.109 430.605 C 112.520 430.822,112.183 430.999,112.360 430.999 C 112.536 430.999,113.162 430.822,113.751 430.605 C 114.339 430.387,114.676 430.210,114.500 430.210 C 114.323 430.210,113.697 430.387,113.109 430.605 M274.157 430.498 C 274.569 430.656,275.051 430.786,275.227 430.786 C 275.404 430.786,275.211 430.656,274.799 430.498 C 274.387 430.339,273.906 430.209,273.729 430.209 C 273.553 430.209,273.745 430.339,274.157 430.498 M278.759 431.991 C 282.811 433.497,287.019 435.535,289.307 437.098 C 291.127 438.341,291.526 438.544,291.071 437.996 C 289.798 436.462,279.677 431.656,276.190 430.930 C 275.837 430.857,276.993 431.334,278.759 431.991 M108.293 432.220 C 103.575 433.999,97.682 437.084,97.050 438.107 C 96.774 438.554,97.355 438.255,98.774 437.220 C 100.718 435.801,105.040 433.672,108.935 432.213 C 110.642 431.574,111.894 431.051,111.717 431.051 C 111.541 431.051,110.000 431.577,108.293 432.220 M134.189 434.136 C 133.777 434.295,133.296 434.424,133.119 434.424 C 132.943 434.424,133.135 434.295,133.547 434.136 C 133.959 433.977,134.441 433.847,134.617 433.847 C 134.794 433.847,134.601 433.977,134.189 434.136 M254.361 434.029 C 254.630 434.145,254.670 434.213,254.468 434.213 C 254.291 434.213,253.954 434.130,253.719 434.029 C 253.449 433.913,253.409 433.845,253.612 433.845 C 253.788 433.845,254.125 433.928,254.361 434.029 M132.049 434.758 C 132.049 434.888,130.064 435.539,129.966 435.442 C 129.920 435.395,130.298 435.211,130.805 435.031 C 131.806 434.677,132.049 434.624,132.049 434.758 M271.821 435.395 C 272.039 435.594,274.585 436.806,274.585 436.710 C 274.585 436.590,272.113 435.313,271.881 435.313 C 271.799 435.313,271.772 435.350,271.821 435.395 M114.874 435.970 C 114.433 436.203,114.072 436.441,114.072 436.500 C 114.072 436.595,115.762 435.805,115.980 435.608 C 116.226 435.385,115.583 435.595,114.874 435.970 M128.518 436.120 C 127.812 436.430,126.617 437.002,125.862 437.391 C 125.108 437.780,124.449 438.057,124.397 438.005 C 124.228 437.836,129.102 435.527,129.588 435.547 C 129.706 435.551,129.224 435.809,128.518 436.120 M197.806 436.543 C 195.776 436.578,192.453 436.578,190.423 436.543 C 188.392 436.508,190.054 436.479,194.114 436.479 C 198.175 436.479,199.837 436.508,197.806 436.543 M185.714 436.753 C 185.273 436.799,184.551 436.799,184.109 436.753 C 183.668 436.707,184.029 436.669,184.912 436.669 C 185.795 436.669,186.156 436.707,185.714 436.753 M204.115 436.753 C 203.671 436.800,202.997 436.799,202.617 436.752 C 202.237 436.704,202.600 436.666,203.424 436.667 C 204.248 436.668,204.559 436.707,204.115 436.753 M182.504 436.964 C 182.180 437.013,181.651 437.013,181.327 436.964 C 181.003 436.915,181.268 436.875,181.915 436.875 C 182.563 436.875,182.828 436.915,182.504 436.964 M206.902 436.964 C 206.578 437.013,206.049 437.013,205.725 436.964 C 205.401 436.915,205.666 436.875,206.314 436.875 C 206.961 436.875,207.226 436.915,206.902 436.964 M192.146 437.185 C 193.359 437.223,195.285 437.223,196.427 437.185 C 197.568 437.146,196.576 437.115,194.222 437.115 C 191.867 437.115,190.933 437.147,192.146 437.185 M212.150 437.483 C 214.007 437.736,215.482 437.986,215.430 438.039 C 215.353 438.116,210.708 437.566,208.026 437.164 C 207.557 437.093,207.570 437.080,208.133 437.053 C 208.486 437.036,210.294 437.229,212.150 437.483 M275.227 437.079 C 275.227 437.215,276.884 438.309,277.090 438.309 C 277.177 438.309,277.059 438.180,276.827 438.021 C 275.806 437.324,275.227 436.983,275.227 437.079 M187.052 437.479 C 188.121 437.568,187.656 437.595,185.661 437.560 C 183.677 437.525,183.099 437.558,183.949 437.658 C 185.024 437.785,185.094 437.815,184.377 437.847 C 183.906 437.867,182.895 437.921,182.129 437.965 C 180.994 438.031,180.915 438.017,181.701 437.890 L 182.665 437.734 181.701 437.717 C 181.172 437.707,179.920 437.823,178.919 437.974 C 177.309 438.216,177.922 438.234,184.270 438.132 C 193.487 437.983,195.534 437.985,204.043 438.156 C 207.914 438.234,211.044 438.262,210.998 438.218 C 210.515 437.758,203.655 437.397,194.971 437.372 C 189.732 437.358,186.169 437.406,187.052 437.479 M111.610 437.881 C 111.257 438.115,111.065 438.305,111.182 438.303 C 111.397 438.300,112.561 437.466,112.360 437.459 C 112.301 437.458,111.964 437.647,111.610 437.881 M202.087 437.610 C 201.586 437.655,200.768 437.655,200.268 437.610 C 199.767 437.565,200.177 437.528,201.177 437.528 C 202.178 437.528,202.587 437.565,202.087 437.610 M206.635 437.873 C 207.795 438.017,207.826 438.033,206.956 438.039 C 206.426 438.042,205.367 437.975,204.601 437.889 C 203.282 437.741,203.266 437.732,204.280 437.723 C 204.869 437.718,205.928 437.785,206.635 437.873 " stroke="none" fill="#4c8cbe" fill-rule="evenodd"></path><path id="path7" d="M181.900 0.076 C 181.850 0.121,180.006 0.224,177.803 0.304 C 175.601 0.384,173.626 0.481,173.416 0.520 C 173.206 0.559,171.974 0.657,170.680 0.738 C 165.756 1.046,153.912 2.406,151.691 2.917 C 151.423 2.978,150.867 3.063,150.455 3.105 C 150.043 3.146,149.272 3.252,148.743 3.339 C 148.213 3.426,147.707 3.481,147.619 3.461 C 147.531 3.441,147.459 3.516,147.459 3.628 C 147.459 3.740,147.170 3.795,146.816 3.751 C 146.463 3.706,146.174 3.735,146.174 3.814 C 146.174 3.894,145.674 3.983,145.064 4.011 C 144.454 4.040,143.886 4.174,143.802 4.310 C 143.718 4.446,143.498 4.499,143.314 4.428 C 143.129 4.357,142.929 4.378,142.869 4.475 C 142.809 4.572,142.517 4.605,142.220 4.548 C 141.911 4.489,141.680 4.544,141.680 4.677 C 141.680 4.804,141.512 4.855,141.306 4.789 C 141.022 4.697,141.001 4.718,141.220 4.875 C 141.441 5.033,136.655 10.779,120.781 29.411 L 100.054 53.742 99.925 52.821 C 99.855 52.314,99.782 60.013,99.765 69.930 L 99.732 87.961 104.513 87.961 C 107.142 87.961,112.639 87.898,116.727 87.820 L 124.162 87.678 133.906 76.209 C 139.265 69.901,143.931 64.476,144.274 64.152 C 144.943 63.520,144.717 63.388,143.674 63.802 C 142.819 64.141,138.858 64.082,137.051 63.703 C 124.331 61.035,118.924 45.437,127.167 35.190 C 135.142 25.277,150.986 27.154,156.205 38.630 C 156.473 39.219,156.778 39.861,156.882 40.058 C 157.075 40.421,157.681 42.801,157.881 43.981 C 157.941 44.334,157.996 45.482,158.003 46.531 C 158.011 47.672,158.082 48.262,158.180 47.997 C 158.301 47.670,195.932 3.277,198.425 0.519 L 198.826 0.076 190.409 0.035 C 185.780 0.013,181.951 0.031,181.900 0.076 M62.382 99.787 C 61.678 99.875,60.999 99.909,60.873 99.861 C 60.747 99.814,60.529 99.958,60.389 100.182 C 60.250 100.406,55.148 106.440,49.052 113.590 C 4.765 165.544,2.184 168.601,2.039 169.261 C 1.890 169.941,1.757 170.873,1.609 172.285 C 1.566 172.697,1.463 173.371,1.380 173.783 C 1.297 174.195,1.191 174.917,1.143 175.388 C 1.096 175.859,1.024 176.581,0.983 176.993 C 0.942 177.405,0.842 178.162,0.762 178.674 C -0.698 187.933,-0.030 208.228,2.133 220.332 C 2.364 221.627,2.613 223.117,2.686 223.644 C 2.758 224.172,2.867 224.683,2.927 224.780 C 2.987 224.878,3.076 225.193,3.123 225.480 C 3.171 225.768,3.266 226.268,3.334 226.592 C 3.401 226.915,3.473 227.445,3.494 227.769 C 3.514 228.093,3.608 228.357,3.704 228.357 C 3.799 228.357,3.810 228.466,3.728 228.599 C 2.944 229.868,7.344 224.778,28.729 199.679 C 42.318 183.729,67.018 154.741,83.617 135.259 L 113.796 99.839 103.929 99.687 C 91.820 99.500,64.132 99.566,62.382 99.787 " stroke="none" fill="#448cbc" fill-rule="evenodd"></path><path id="path8" d="M190.423 436.543 C 192.453 436.578,195.776 436.578,197.806 436.543 C 199.837 436.508,198.175 436.479,194.114 436.479 C 190.054 436.479,188.392 436.508,190.423 436.543 M184.109 436.753 C 184.551 436.799,185.273 436.799,185.714 436.753 C 186.156 436.707,185.795 436.669,184.912 436.669 C 184.029 436.669,183.668 436.707,184.109 436.753 M202.617 436.752 C 202.997 436.799,203.671 436.800,204.115 436.753 C 204.559 436.707,204.248 436.668,203.424 436.667 C 202.600 436.666,202.237 436.704,202.617 436.752 M181.327 436.964 C 181.651 437.013,182.180 437.013,182.504 436.964 C 182.828 436.915,182.563 436.875,181.915 436.875 C 181.268 436.875,181.003 436.915,181.327 436.964 M185.448 437.036 C 182.519 437.237,177.368 437.795,175.855 438.073 C 175.246 438.186,175.848 438.233,177.742 438.223 C 179.272 438.214,180.091 438.154,179.561 438.088 C 178.700 437.982,178.798 437.951,180.480 437.792 C 181.516 437.695,182.423 437.675,182.496 437.748 C 182.569 437.821,182.163 437.881,181.594 437.881 C 181.026 437.881,180.613 437.935,180.678 438.000 C 180.744 438.065,181.795 438.041,183.015 437.947 C 185.214 437.776,185.222 437.774,183.949 437.641 C 183.223 437.566,183.967 437.530,185.661 437.560 C 187.656 437.595,188.121 437.568,187.052 437.479 C 186.169 437.406,189.395 437.346,194.222 437.346 C 199.048 437.346,202.178 437.397,201.177 437.460 C 199.944 437.537,200.633 437.582,203.317 437.599 C 205.495 437.613,207.806 437.726,208.454 437.851 L 209.631 438.078 208.240 437.977 C 207.475 437.921,206.030 437.835,205.029 437.784 L 203.210 437.692 204.708 437.885 C 205.532 437.991,207.844 438.118,209.845 438.169 L 213.483 438.261 211.664 437.973 C 205.790 437.041,192.347 436.561,185.448 437.036 M205.725 436.964 C 206.049 437.013,206.578 437.013,206.902 436.964 C 207.226 436.915,206.961 436.875,206.314 436.875 C 205.666 436.875,205.401 436.915,205.725 436.964 M175.423 437.566 C 173.559 437.844,171.922 438.118,171.785 438.174 C 171.319 438.364,172.473 438.310,173.505 438.094 C 174.070 437.975,175.928 437.695,177.635 437.472 C 179.342 437.248,180.305 437.065,179.775 437.063 C 179.246 437.062,177.287 437.289,175.423 437.566 M196.427 437.185 C 195.285 437.223,193.359 437.223,192.146 437.185 C 190.933 437.147,191.867 437.115,194.222 437.115 C 196.576 437.115,197.568 437.146,196.427 437.185 M208.240 437.176 C 208.652 437.222,210.663 437.498,212.710 437.791 C 214.756 438.083,216.482 438.271,216.544 438.209 C 216.607 438.146,216.569 438.094,216.462 438.093 C 216.354 438.092,214.628 437.851,212.627 437.559 C 210.626 437.266,208.652 437.042,208.240 437.060 L 207.491 437.094 208.240 437.176 M189.085 438.095 C 187.588 438.170,189.732 438.226,194.222 438.230 C 199.765 438.234,201.116 438.193,199.037 438.084 C 195.720 437.909,192.750 437.913,189.085 438.095 " stroke="none" fill="#4c94c4" fill-rule="evenodd"></path></g></svg>