<svg id="svg" version="1.1" xmlns="http://www.w3.org/2000/svg" xmlns:xlink="http://www.w3.org/1999/xlink" width="400" height="400" viewBox="0, 0, 400,400"><g id="svgg"><path id="path0" d="M231.300 111.816 C 230.585 112.565,230.000 113.452,230.000 113.789 C 230.000 114.125,229.820 114.400,229.600 114.400 C 229.380 114.400,229.200 114.749,229.200 115.176 C 229.200 115.603,229.020 116.064,228.800 116.200 C 228.580 116.336,228.400 116.876,228.400 117.400 C 228.400 117.924,228.220 118.464,228.000 118.600 C 227.780 118.736,227.600 119.456,227.600 120.200 C 227.600 120.944,227.420 121.664,227.200 121.800 C 226.980 121.936,226.800 122.847,226.800 123.824 C 226.800 124.801,226.636 125.600,226.436 125.600 C 226.235 125.600,225.969 126.635,225.844 127.900 C 224.918 137.275,224.617 139.600,224.329 139.600 C 224.148 139.600,224.000 140.500,224.000 141.600 C 224.000 142.700,223.820 143.600,223.600 143.600 C 223.380 143.600,223.200 144.590,223.200 145.800 C 223.200 147.010,223.020 148.000,222.800 148.000 C 222.559 148.000,222.400 149.659,222.400 152.176 C 222.400 154.529,222.575 156.461,222.800 156.600 C 223.020 156.736,223.200 157.197,223.200 157.624 C 223.200 158.051,223.380 158.400,223.600 158.400 C 223.820 158.400,224.000 158.670,224.000 159.000 C 224.000 159.330,224.180 159.600,224.400 159.600 C 224.620 159.600,224.800 159.878,224.800 160.218 C 224.800 160.914,226.540 162.800,227.182 162.800 C 227.412 162.800,227.600 162.980,227.600 163.200 C 227.600 163.420,227.960 163.600,228.400 163.600 C 228.840 163.600,229.200 163.780,229.200 164.000 C 229.200 164.220,229.549 164.400,229.976 164.400 C 230.403 164.400,230.864 164.580,231.000 164.800 C 231.159 165.057,237.337 165.200,248.224 165.200 C 257.561 165.200,265.200 165.295,265.200 165.411 C 265.200 165.911,261.564 169.200,261.011 169.200 C 260.675 169.200,260.400 169.380,260.400 169.600 C 260.400 170.235,222.457 170.138,221.083 169.500 C 220.491 169.225,220.005 168.865,220.003 168.700 C 220.001 168.535,219.717 168.400,219.371 168.400 C 218.563 168.400,217.600 167.437,217.600 166.629 C 217.600 166.283,217.420 166.000,217.200 166.000 C 216.980 166.000,216.800 165.640,216.800 165.200 C 216.800 164.760,216.620 164.400,216.400 164.400 C 216.165 164.400,216.000 163.008,216.000 161.024 C 216.000 159.167,216.180 157.536,216.400 157.400 C 216.620 157.264,216.800 156.173,216.800 154.976 C 216.800 153.779,216.980 152.800,217.200 152.800 C 217.422 152.800,217.600 151.733,217.600 150.400 C 217.600 149.067,217.778 148.000,218.000 148.000 C 218.222 148.000,218.400 146.933,218.400 145.600 C 218.400 144.267,218.578 143.200,218.800 143.200 C 219.041 143.200,219.200 141.533,219.200 139.000 C 219.200 136.467,219.041 134.800,218.800 134.800 C 218.580 134.800,218.400 134.440,218.400 134.000 C 218.400 133.560,218.220 133.200,218.000 133.200 C 217.780 133.200,217.600 132.922,217.600 132.582 C 217.600 131.782,215.818 130.000,215.018 130.000 C 214.678 130.000,214.400 129.820,214.400 129.600 C 214.400 129.380,213.860 129.200,213.200 129.200 C 212.540 129.200,212.000 129.020,212.000 128.800 C 212.000 128.535,182.733 128.400,125.000 128.400 C 67.267 128.400,38.000 128.535,38.000 128.800 C 38.000 129.020,37.526 129.200,36.947 129.200 C 36.368 129.200,35.600 129.515,35.241 129.900 C 34.882 130.285,34.231 130.795,33.794 131.033 C 33.357 131.271,32.822 131.856,32.605 132.333 C 32.388 132.810,32.073 133.200,31.905 133.200 C 31.737 133.200,31.600 133.520,31.600 133.912 C 31.600 134.303,31.240 134.883,30.800 135.200 C 30.360 135.517,30.000 136.057,30.000 136.400 C 30.000 136.743,29.640 137.283,29.200 137.600 C 28.760 137.917,28.400 138.457,28.400 138.800 C 28.400 139.143,28.040 139.683,27.600 140.000 C 27.160 140.317,26.800 140.897,26.800 141.288 C 26.800 141.680,26.661 142.000,26.491 142.000 C 26.321 142.000,25.843 142.630,25.428 143.400 C 25.013 144.170,24.522 144.800,24.337 144.800 C 24.152 144.800,24.000 145.120,24.000 145.512 C 24.000 145.903,23.640 146.483,23.200 146.800 C 22.760 147.117,22.400 147.657,22.400 148.000 C 22.400 148.343,22.040 148.883,21.600 149.200 C 21.160 149.517,20.800 150.057,20.800 150.400 C 20.800 150.743,20.440 151.283,20.000 151.600 C 19.560 151.917,19.200 152.457,19.200 152.800 C 19.200 153.143,18.840 153.683,18.400 154.000 C 17.960 154.317,17.600 154.897,17.600 155.288 C 17.600 155.680,17.420 156.000,17.200 156.000 C 16.980 156.000,16.800 156.320,16.800 156.712 C 16.800 157.103,16.440 157.683,16.000 158.000 C 15.560 158.317,15.200 158.724,15.200 158.905 C 15.200 159.086,14.840 159.620,14.400 160.092 C 13.960 160.564,13.600 161.187,13.600 161.475 C 13.600 161.764,13.450 162.000,13.268 162.000 C 13.085 162.000,12.680 162.495,12.368 163.100 C 12.055 163.705,11.485 164.549,11.100 164.975 C 10.715 165.402,10.400 165.987,10.400 166.275 C 10.400 166.564,10.247 166.800,10.061 166.800 C 9.874 166.800,9.397 167.520,9.000 168.400 C 8.603 169.280,8.126 170.000,7.939 170.000 C 7.753 170.000,7.600 170.320,7.600 170.712 C 7.600 171.103,7.240 171.683,6.800 172.000 C 6.360 172.317,6.000 172.857,6.000 173.200 C 6.000 173.543,5.640 174.083,5.200 174.400 C 4.760 174.717,4.400 175.207,4.400 175.488 C 4.400 175.770,4.220 176.000,4.000 176.000 C 3.780 176.000,3.600 176.270,3.600 176.600 C 3.600 176.930,3.420 177.200,3.200 177.200 C 2.980 177.200,2.800 177.470,2.800 177.800 C 2.800 178.130,2.620 178.400,2.400 178.400 C 2.180 178.400,2.000 178.694,2.000 179.053 C 2.000 179.412,1.613 180.042,1.140 180.452 C 0.449 181.051,0.244 181.769,0.097 184.099 L -0.086 187.000 2.157 189.309 C 3.391 190.579,4.400 191.710,4.400 191.823 C 4.400 191.935,5.024 192.651,5.787 193.413 C 7.134 194.761,9.600 195.399,9.600 194.400 C 9.600 194.180,9.888 194.000,10.240 194.000 C 10.591 194.000,11.383 193.460,12.000 192.800 C 12.617 192.140,13.371 191.600,13.677 191.600 C 13.983 191.600,14.901 190.970,15.718 190.200 C 16.534 189.430,17.355 188.800,17.542 188.800 C 17.728 188.800,18.446 188.260,19.137 187.600 C 19.828 186.940,20.530 186.400,20.699 186.400 C 20.867 186.400,21.769 185.680,22.703 184.800 C 23.637 183.920,24.505 183.200,24.632 183.200 C 24.759 183.200,25.554 182.480,26.400 181.600 C 27.246 180.720,28.182 180.000,28.480 180.000 C 28.779 180.000,29.283 179.640,29.600 179.200 C 29.917 178.760,30.317 178.400,30.488 178.400 C 30.660 178.400,30.800 201.980,30.800 230.800 C 30.800 265.467,30.935 283.200,31.200 283.200 C 31.420 283.200,31.600 283.621,31.600 284.136 C 31.600 285.226,34.789 288.800,35.760 288.800 C 36.112 288.800,36.400 288.980,36.400 289.200 C 36.400 289.463,46.000 289.600,64.400 289.600 C 82.800 289.600,92.400 289.463,92.400 289.200 C 92.400 288.980,92.760 288.800,93.200 288.800 C 93.640 288.800,94.000 288.663,94.000 288.495 C 94.000 288.327,94.405 288.012,94.900 287.795 C 95.395 287.578,95.978 286.995,96.195 286.500 C 96.412 286.005,96.727 285.600,96.895 285.600 C 97.063 285.600,97.200 285.240,97.200 284.800 C 97.200 284.360,97.380 284.000,97.600 284.000 C 97.861 284.000,98.000 276.933,98.000 263.600 C 98.000 250.267,98.139 243.200,98.400 243.200 C 98.620 243.200,98.800 242.838,98.800 242.395 C 98.800 240.286,102.671 236.400,104.771 236.400 C 105.201 236.400,105.664 236.220,105.800 236.000 C 105.963 235.736,126.596 235.600,166.400 235.600 C 206.204 235.600,226.837 235.736,227.000 236.000 C 227.136 236.220,227.775 236.400,228.421 236.400 C 230.249 236.400,234.000 239.899,234.000 241.605 C 234.000 242.042,234.180 242.400,234.400 242.400 C 234.661 242.400,234.800 249.467,234.800 262.800 C 234.800 276.133,234.939 283.200,235.200 283.200 C 235.420 283.200,235.600 283.621,235.600 284.136 C 235.600 285.226,238.789 288.800,239.760 288.800 C 240.112 288.800,240.400 288.980,240.400 289.200 C 240.400 289.463,250.000 289.600,268.400 289.600 C 286.800 289.600,296.400 289.463,296.400 289.200 C 296.400 288.980,296.675 288.800,297.011 288.800 C 297.804 288.800,301.200 285.404,301.200 284.611 C 301.200 284.275,301.380 284.000,301.600 284.000 C 301.862 284.000,302.000 276.600,302.000 262.600 L 302.000 241.200 288.600 241.200 C 279.933 241.200,275.200 241.059,275.200 240.800 C 275.200 240.580,274.581 240.400,273.824 240.400 C 273.067 240.400,272.336 240.220,272.200 240.000 C 272.064 239.780,271.513 239.600,270.976 239.600 C 270.439 239.600,270.000 239.420,270.000 239.200 C 270.000 238.980,269.726 238.800,269.391 238.800 C 268.599 238.800,264.400 234.601,264.400 233.809 C 264.400 233.474,264.220 233.200,264.000 233.200 C 263.780 233.200,263.600 232.840,263.600 232.400 C 263.600 231.960,263.420 231.600,263.200 231.600 C 262.980 231.600,262.800 231.161,262.800 230.624 C 262.800 230.087,262.620 229.536,262.400 229.400 C 262.145 229.242,262.000 223.663,262.000 213.976 C 262.000 204.125,262.140 198.800,262.400 198.800 C 262.620 198.800,262.800 198.260,262.800 197.600 C 262.800 196.940,262.980 196.400,263.200 196.400 C 263.420 196.400,263.600 196.122,263.600 195.782 C 263.600 195.206,265.295 193.200,265.782 193.200 C 265.902 193.200,266.000 199.410,266.000 207.000 C 266.000 215.933,266.141 220.800,266.400 220.800 C 266.620 220.800,266.800 221.790,266.800 223.000 C 266.800 224.210,266.980 225.200,267.200 225.200 C 267.420 225.200,267.600 225.560,267.600 226.000 C 267.600 226.440,267.780 226.800,268.000 226.800 C 268.220 226.800,268.400 227.120,268.400 227.512 C 268.400 227.903,268.760 228.483,269.200 228.800 C 269.640 229.117,270.000 229.620,270.000 229.917 C 270.000 230.613,270.987 231.600,271.683 231.600 C 271.980 231.600,272.483 231.960,272.800 232.400 C 273.117 232.840,273.697 233.200,274.088 233.200 C 274.480 233.200,274.801 233.335,274.803 233.500 C 274.809 234.048,276.937 234.800,278.480 234.800 C 279.316 234.800,280.000 234.980,280.000 235.200 C 280.000 235.462,287.392 235.600,301.376 235.600 C 315.196 235.600,322.840 235.459,323.000 235.200 C 323.136 234.980,324.047 234.800,325.024 234.800 C 326.001 234.800,326.800 234.620,326.800 234.400 C 326.800 234.180,327.160 234.000,327.600 234.000 C 328.040 234.000,328.400 233.820,328.400 233.600 C 328.400 233.380,328.674 233.200,329.009 233.200 C 329.343 233.200,330.603 232.214,331.809 231.009 C 333.014 229.803,334.000 228.543,334.000 228.209 C 334.000 227.874,334.180 227.600,334.400 227.600 C 334.620 227.600,334.800 227.240,334.800 226.800 C 334.800 226.360,334.980 226.000,335.200 226.000 C 335.420 226.000,335.600 225.460,335.600 224.800 C 335.600 224.140,335.780 223.600,336.000 223.600 C 336.264 223.600,336.400 209.467,336.400 182.000 C 336.400 154.533,336.264 140.400,336.000 140.400 C 335.780 140.400,335.600 139.860,335.600 139.200 C 335.600 138.540,335.420 138.000,335.200 138.000 C 334.980 138.000,334.800 137.640,334.800 137.200 C 334.800 136.760,334.620 136.400,334.400 136.400 C 334.180 136.400,334.000 136.142,334.000 135.826 C 334.000 135.079,329.721 130.800,328.974 130.800 C 328.658 130.800,328.400 130.620,328.400 130.400 C 328.400 130.180,328.040 130.000,327.600 130.000 C 327.160 130.000,326.800 129.820,326.800 129.600 C 326.800 129.380,326.181 129.200,325.424 129.200 C 324.667 129.200,323.936 129.020,323.800 128.800 C 323.638 128.537,309.138 128.400,281.603 128.400 L 239.653 128.400 239.446 124.500 C 239.149 118.900,238.780 116.000,238.363 116.000 C 238.163 116.000,238.000 115.404,238.000 114.675 C 238.000 113.904,237.666 112.992,237.200 112.492 C 236.760 112.020,236.400 111.465,236.400 111.260 C 236.400 109.812,232.844 110.200,231.300 111.816 M365.700 110.998 C 365.425 111.311,365.200 111.844,365.200 112.183 C 365.200 112.522,365.020 112.800,364.800 112.800 C 364.580 112.800,364.400 113.149,364.400 113.576 C 364.400 114.003,364.220 114.464,364.000 114.600 C 363.780 114.736,363.600 115.647,363.600 116.624 C 363.600 117.601,363.420 118.400,363.200 118.400 C 362.948 118.400,362.800 121.125,362.800 125.776 C 362.800 130.263,362.643 133.250,362.400 133.400 C 362.180 133.536,362.000 134.149,362.000 134.762 C 362.000 136.677,358.866 142.198,357.540 142.619 C 357.135 142.747,356.572 143.066,356.287 143.326 C 355.457 144.086,354.060 144.800,353.405 144.800 C 353.072 144.800,352.800 144.980,352.800 145.200 C 352.800 145.449,350.467 145.600,346.600 145.600 L 340.400 145.600 340.400 155.400 L 340.400 165.200 355.600 165.200 C 365.467 165.200,370.800 165.060,370.800 164.800 C 370.800 164.580,371.340 164.400,372.000 164.400 C 372.660 164.400,373.200 164.220,373.200 164.000 C 373.200 163.780,373.385 163.600,373.611 163.600 C 374.257 163.600,377.600 160.089,377.600 159.411 C 377.600 159.075,377.780 158.800,378.000 158.800 C 378.220 158.800,378.400 158.530,378.400 158.200 C 378.400 157.870,378.580 157.600,378.800 157.600 C 379.020 157.600,379.200 156.880,379.200 156.000 C 379.200 155.120,379.380 154.400,379.600 154.400 C 379.820 154.400,380.000 153.500,380.000 152.400 C 380.000 151.300,379.820 150.400,379.600 150.400 C 379.378 150.400,379.200 149.333,379.200 148.000 C 379.200 146.667,379.022 145.600,378.800 145.600 C 378.580 145.600,378.400 144.610,378.400 143.400 C 378.400 142.190,378.220 141.200,378.000 141.200 C 377.778 141.200,377.600 140.133,377.600 138.800 C 377.600 137.467,377.422 136.400,377.200 136.400 C 376.978 136.400,376.800 135.333,376.800 134.000 C 376.800 132.667,376.622 131.600,376.400 131.600 C 376.178 131.600,376.000 130.533,376.000 129.200 C 376.000 127.880,375.845 126.800,375.655 126.800 C 375.466 126.800,375.187 125.405,375.037 123.700 C 374.780 120.778,373.533 116.258,372.753 115.420 C 372.559 115.211,372.400 114.716,372.400 114.320 C 372.400 113.924,372.220 113.600,372.000 113.600 C 371.780 113.600,371.600 113.355,371.600 113.055 C 371.600 111.074,367.034 109.483,365.700 110.998 M387.200 110.800 C 387.200 111.020,386.785 111.200,386.278 111.200 C 385.196 111.200,382.400 113.618,382.400 114.554 C 382.400 114.909,382.220 115.200,382.000 115.200 C 381.780 115.200,381.600 115.560,381.600 116.000 C 381.600 116.440,381.420 116.800,381.200 116.800 C 380.965 116.800,380.800 118.192,380.800 120.176 C 380.800 122.033,380.980 123.664,381.200 123.800 C 381.420 123.936,381.600 124.401,381.600 124.834 C 381.600 125.759,384.902 129.200,385.789 129.200 C 386.125 129.200,386.400 129.380,386.400 129.600 C 386.400 129.841,388.067 130.000,390.600 130.000 C 393.133 130.000,394.800 129.841,394.800 129.600 C 394.800 129.380,395.160 129.200,395.600 129.200 C 396.040 129.200,396.400 129.020,396.400 128.800 C 396.400 128.580,396.683 128.400,397.029 128.400 C 397.761 128.400,398.800 127.462,398.800 126.800 C 398.800 126.549,399.087 126.056,399.438 125.704 C 399.972 125.171,400.054 124.234,399.938 120.022 L 399.800 114.978 398.000 113.189 C 395.578 110.782,387.200 108.929,387.200 110.800 M392.000 114.000 C 392.000 114.220,392.366 114.400,392.813 114.400 C 393.855 114.400,396.400 116.928,396.400 117.963 C 396.400 118.397,396.580 118.864,396.800 119.000 C 397.020 119.136,397.200 119.957,397.200 120.824 C 397.200 121.691,397.020 122.400,396.800 122.400 C 396.580 122.400,396.400 122.683,396.400 123.029 C 396.400 123.635,395.498 124.800,395.029 124.800 C 394.903 124.800,394.800 124.440,394.800 124.000 C 394.800 123.560,394.620 123.200,394.400 123.200 C 394.180 123.200,394.000 122.660,394.000 122.000 C 394.000 121.340,394.180 120.800,394.400 120.800 C 395.035 120.800,394.886 116.429,394.229 115.771 C 393.841 115.384,392.747 115.200,390.829 115.200 C 389.210 115.200,388.000 115.029,388.000 114.800 C 388.000 114.580,388.450 114.400,389.000 114.400 C 389.550 114.400,390.000 114.220,390.000 114.000 C 390.000 113.780,390.450 113.600,391.000 113.600 C 391.550 113.600,392.000 113.780,392.000 114.000 M387.200 120.200 L 387.200 125.200 388.800 125.200 C 390.133 125.200,390.400 125.067,390.400 124.400 C 390.400 123.960,390.580 123.600,390.800 123.600 C 391.020 123.600,391.200 123.851,391.200 124.157 C 391.200 124.830,392.030 125.185,393.733 125.243 L 395.000 125.285 393.900 125.720 C 393.295 125.959,392.800 126.300,392.800 126.477 C 392.800 126.961,388.888 126.866,388.585 126.375 C 388.440 126.142,387.890 125.786,387.361 125.585 C 386.833 125.384,386.400 124.985,386.400 124.698 C 386.400 124.411,386.040 123.917,385.600 123.600 C 384.940 123.124,384.800 122.565,384.800 120.400 C 384.800 118.235,384.940 117.676,385.600 117.200 C 386.040 116.883,386.400 116.303,386.400 115.912 C 386.400 115.520,386.580 115.200,386.800 115.200 C 387.045 115.200,387.200 117.133,387.200 120.200 M391.600 118.800 C 391.600 119.020,391.330 119.200,391.000 119.200 C 390.670 119.200,390.400 119.020,390.400 118.800 C 390.400 118.580,390.670 118.400,391.000 118.400 C 391.330 118.400,391.600 118.580,391.600 118.800 " stroke="none" fill="#040404" fill-rule="evenodd"></path><path id="path1" d="" stroke="none" fill="#080404" fill-rule="evenodd"></path><path id="path2" d="" stroke="none" fill="#080404" fill-rule="evenodd"></path><path id="path3" d="" stroke="none" fill="#080404" fill-rule="evenodd"></path><path id="path4" d="" stroke="none" fill="#080404" fill-rule="evenodd"></path><path id="path5" d="" stroke="none" fill="#080404" fill-rule="evenodd"></path><path id="path6" d="" stroke="none" fill="#080404" fill-rule="evenodd"></path><path id="path7" d="" stroke="none" fill="#080404" fill-rule="evenodd"></path><path id="path8" d="" stroke="none" fill="#080404" fill-rule="evenodd"></path></g></svg>