<svg id="svg" version="1.1" xmlns="http://www.w3.org/2000/svg" xmlns:xlink="http://www.w3.org/1999/xlink" width="400" height="400" viewBox="0, 0, 400,400"><g id="svgg"><path id="path0" d="M195.495 1.329 C 189.591 1.951,183.638 3.783,177.874 6.753 C 176.018 7.709,174.387 8.456,174.250 8.412 C 174.112 8.369,174.000 8.467,174.000 8.631 C 174.000 8.923,164.665 14.600,163.931 14.754 C 163.725 14.798,163.275 15.101,162.932 15.429 C 162.589 15.756,162.164 15.935,161.988 15.826 C 161.811 15.717,161.667 15.766,161.667 15.936 C 161.667 16.309,152.051 22.111,151.434 22.111 C 151.195 22.111,151.000 22.216,151.000 22.345 C 151.000 22.666,141.306 28.444,140.767 28.444 C 140.528 28.444,140.333 28.550,140.333 28.678 C 140.333 28.941,131.036 34.569,130.337 34.730 C 130.091 34.787,129.608 35.101,129.266 35.429 C 128.923 35.756,128.498 35.935,128.321 35.826 C 128.145 35.717,128.000 35.766,128.000 35.936 C 128.000 36.309,118.384 42.111,117.767 42.111 C 117.528 42.111,117.333 42.216,117.333 42.345 C 117.333 42.666,107.639 48.444,107.100 48.444 C 106.862 48.444,106.667 48.550,106.667 48.678 C 106.667 48.941,97.370 54.569,96.671 54.730 C 96.424 54.787,95.942 55.101,95.599 55.429 C 95.256 55.756,94.831 55.935,94.655 55.826 C 94.478 55.717,94.333 55.766,94.333 55.936 C 94.333 56.309,84.717 62.111,84.100 62.111 C 83.862 62.111,83.667 62.216,83.667 62.345 C 83.667 62.666,73.973 68.444,73.434 68.444 C 73.195 68.444,73.000 68.550,73.000 68.678 C 73.000 68.941,63.703 74.569,63.004 74.730 C 62.757 74.787,62.275 75.101,61.932 75.429 C 61.589 75.756,61.164 75.935,60.988 75.826 C 60.811 75.717,60.667 75.766,60.667 75.936 C 60.667 76.250,51.491 81.875,50.671 82.064 C 50.424 82.120,49.942 82.435,49.599 82.762 C 49.256 83.090,48.831 83.268,48.655 83.159 C 48.478 83.050,48.333 83.100,48.333 83.269 C 48.333 83.439,47.751 83.964,47.038 84.435 C 46.326 84.907,44.916 85.966,43.904 86.790 C 42.893 87.614,41.963 88.185,41.838 88.061 C 41.713 87.936,41.653 87.983,41.705 88.167 C 41.828 88.602,38.268 92.161,37.833 92.039 C 37.650 91.987,37.602 92.047,37.727 92.172 C 37.852 92.297,37.267 93.242,36.428 94.273 C 32.084 99.605,28.160 107.688,26.688 114.333 C 26.464 115.342,26.202 116.392,26.104 116.667 C 25.572 118.167,25.500 128.251,25.500 201.833 C 25.500 276.532,25.540 282.363,26.074 284.964 C 26.390 286.502,26.568 287.890,26.471 288.047 C 26.374 288.205,26.453 288.333,26.647 288.333 C 26.841 288.333,27.000 288.578,27.000 288.877 C 27.000 289.937,29.105 295.545,30.691 298.711 C 31.576 300.477,32.208 302.015,32.095 302.128 C 31.981 302.241,32.043 302.333,32.231 302.333 C 32.419 302.333,33.139 303.196,33.831 304.250 C 34.523 305.304,35.588 306.785,36.198 307.541 C 36.809 308.296,37.239 309.009,37.154 309.124 C 37.069 309.239,37.082 309.277,37.182 309.207 C 37.282 309.138,38.219 309.980,39.265 311.080 C 42.209 314.175,46.059 317.115,51.250 320.234 C 53.863 321.804,56.000 323.193,56.000 323.322 C 56.000 323.450,56.188 323.557,56.417 323.560 C 56.959 323.565,66.667 329.331,66.667 329.647 C 66.667 329.780,66.862 329.889,67.100 329.889 C 67.639 329.889,77.333 335.667,77.333 335.989 C 77.333 336.117,77.528 336.222,77.766 336.222 C 78.307 336.222,86.333 340.999,86.333 341.321 C 86.333 341.450,86.521 341.557,86.750 341.560 C 87.292 341.565,97.000 347.331,97.000 347.647 C 97.000 347.780,97.195 347.889,97.434 347.889 C 97.973 347.889,107.667 353.667,107.667 353.989 C 107.667 354.117,107.862 354.222,108.100 354.222 C 108.718 354.222,116.667 359.023,116.667 359.396 C 116.667 359.566,116.811 359.617,116.988 359.508 C 117.164 359.398,117.589 359.577,117.932 359.905 C 118.275 360.232,118.757 360.546,119.003 360.603 C 119.703 360.764,127.333 365.391,127.333 365.654 C 127.333 365.783,127.528 365.889,127.767 365.889 C 128.306 365.889,138.000 371.667,138.000 371.989 C 138.000 372.117,138.195 372.222,138.434 372.222 C 138.973 372.222,148.667 378.001,148.667 378.322 C 148.667 378.450,148.854 378.558,149.083 378.561 C 149.709 378.569,157.667 383.352,157.667 383.720 C 157.667 383.896,157.811 383.950,157.988 383.841 C 158.164 383.732,158.589 383.910,158.932 384.238 C 159.275 384.565,159.757 384.880,160.003 384.936 C 160.822 385.124,168.333 389.747,168.333 390.063 C 168.333 390.233,168.478 390.283,168.655 390.174 C 168.831 390.065,169.256 390.244,169.599 390.571 C 169.942 390.899,170.434 391.217,170.694 391.278 C 170.953 391.339,172.366 392.113,173.833 392.998 C 177.867 395.433,181.621 397.221,185.587 398.594 L 189.167 399.833 200.417 399.900 C 208.195 399.945,211.667 399.856,211.667 399.611 C 211.667 399.415,211.967 399.334,212.333 399.430 C 212.700 399.526,213.000 399.480,213.000 399.329 C 213.000 399.177,213.488 398.948,214.083 398.820 C 214.679 398.692,216.067 398.236,217.167 397.806 C 218.267 397.377,219.392 396.983,219.667 396.930 C 219.942 396.877,220.242 396.752,220.333 396.652 C 220.706 396.245,227.148 392.839,227.397 392.917 C 227.545 392.963,227.667 392.870,227.667 392.711 C 227.667 392.352,237.303 386.556,237.900 386.556 C 238.138 386.556,238.333 386.450,238.333 386.322 C 238.333 386.001,248.027 380.222,248.566 380.222 C 248.805 380.222,249.000 380.113,249.000 379.979 C 249.000 379.662,257.037 374.902,257.583 374.894 C 257.813 374.891,258.000 374.780,258.000 374.647 C 258.000 374.331,267.708 368.565,268.250 368.560 C 268.479 368.557,268.667 368.447,268.667 368.314 C 268.667 368.050,278.109 362.374,278.762 362.246 C 278.983 362.202,279.315 361.996,279.499 361.788 C 280.007 361.212,298.106 350.564,298.583 350.559 C 298.813 350.557,299.000 350.447,299.000 350.314 C 299.000 349.997,308.708 344.232,309.250 344.226 C 309.479 344.224,309.667 344.113,309.667 343.981 C 309.667 343.664,319.375 337.898,319.917 337.893 C 320.146 337.891,320.333 337.779,320.333 337.645 C 320.333 337.329,328.370 332.568,328.917 332.561 C 329.146 332.558,329.333 332.447,329.333 332.314 C 329.333 331.997,339.041 326.232,339.583 326.226 C 339.813 326.224,340.000 326.113,340.000 325.981 C 340.000 325.664,349.708 319.898,350.250 319.893 C 350.479 319.891,350.667 319.782,350.667 319.650 C 350.667 319.280,355.100 316.486,355.488 316.611 C 355.678 316.672,355.731 316.620,355.606 316.495 C 355.481 316.370,356.231 315.552,357.272 314.678 C 358.314 313.805,360.174 312.039,361.405 310.756 C 362.637 309.472,363.724 308.477,363.822 308.544 C 363.920 308.612,363.939 308.581,363.865 308.477 C 363.791 308.372,364.618 307.060,365.702 305.560 C 369.276 300.615,372.357 293.693,374.099 286.696 L 374.811 283.833 374.989 202.500 C 375.087 157.767,375.061 120.792,374.931 120.333 C 374.612 119.206,373.551 113.311,373.536 112.583 C 373.529 112.263,373.434 112.000,373.325 112.000 C 373.124 112.000,371.839 108.118,371.835 107.500 C 371.834 107.317,371.725 107.017,371.592 106.833 C 370.888 105.861,367.762 99.349,367.923 99.188 C 368.026 99.085,367.948 99.000,367.749 99.000 C 367.305 99.000,365.796 96.628,365.947 96.167 C 366.006 95.983,365.945 95.944,365.810 96.079 C 365.512 96.377,363.454 93.656,363.611 93.174 C 363.672 92.987,363.636 92.920,363.530 93.026 C 363.283 93.272,357.460 87.586,357.606 87.242 C 357.667 87.100,357.590 87.025,357.437 87.075 C 357.121 87.179,352.667 83.988,352.667 83.658 C 352.667 83.541,352.479 83.440,352.250 83.436 C 351.713 83.424,346.000 79.992,346.000 79.680 C 346.000 79.551,345.813 79.443,345.583 79.440 C 345.041 79.435,335.333 73.669,335.333 73.353 C 335.333 73.220,335.146 73.110,334.917 73.108 C 334.378 73.104,323.000 66.335,323.000 66.018 C 323.000 65.886,322.813 65.776,322.583 65.774 C 322.041 65.768,312.333 60.003,312.333 59.686 C 312.333 59.553,312.146 59.443,311.917 59.440 C 311.375 59.435,301.667 53.669,301.667 53.353 C 301.667 53.220,301.479 53.110,301.250 53.108 C 300.711 53.104,289.333 46.335,289.333 46.018 C 289.333 45.886,289.146 45.776,288.917 45.774 C 288.375 45.768,278.667 40.003,278.667 39.686 C 278.667 39.553,278.479 39.443,278.250 39.440 C 277.708 39.435,268.000 33.669,268.000 33.353 C 268.000 33.220,267.813 33.110,267.583 33.108 C 267.045 33.104,255.667 26.335,255.667 26.018 C 255.667 25.886,255.479 25.776,255.250 25.774 C 254.708 25.768,245.000 20.003,245.000 19.686 C 245.000 19.553,244.813 19.443,244.583 19.440 C 244.041 19.435,234.333 13.669,234.333 13.353 C 234.333 13.220,234.146 13.109,233.917 13.106 C 233.688 13.104,231.025 11.631,228.000 9.833 C 215.904 2.645,206.457 0.173,195.495 1.329 M209.771 11.117 C 211.570 11.588,214.208 12.476,215.634 13.093 C 218.112 14.164,343.563 88.372,348.599 91.746 C 356.364 96.947,362.547 105.856,365.007 115.389 C 365.954 119.057,365.838 119.332,364.308 117.041 C 360.074 110.701,352.334 109.147,344.103 112.984 C 342.969 113.513,322.569 125.982,298.770 140.692 C 274.972 155.402,247.475 172.383,237.667 178.427 C 216.213 191.649,213.291 193.548,209.462 196.763 C 202.940 202.240,198.778 208.578,196.925 215.853 L 196.167 218.833 196.167 298.000 C 196.167 372.529,196.201 377.294,196.753 379.333 C 198.205 384.695,201.076 388.680,204.874 390.606 L 206.833 391.600 205.500 391.883 C 199.883 393.076,189.360 391.363,183.167 388.247 C 180.233 386.772,54.599 312.196,51.733 310.230 C 42.648 303.996,36.173 293.557,34.498 282.447 C 33.742 277.426,33.754 124.381,34.512 119.667 C 36.311 108.472,42.681 98.045,51.338 92.127 C 54.607 89.893,179.746 15.639,183.000 14.003 C 190.814 10.075,201.412 8.932,209.771 11.117 M252.570 222.003 C 252.854 222.565,252.992 224.531,252.995 228.083 C 252.998 230.971,253.037 233.331,253.083 233.329 C 253.129 233.327,254.131 233.022,255.310 232.653 C 257.839 231.860,261.618 231.484,263.785 231.809 C 266.253 232.179,266.285 232.469,264.612 239.250 C 262.935 246.042,262.236 247.256,260.257 246.811 C 250.503 244.615,239.019 254.168,240.686 263.091 C 241.358 266.690,243.092 267.566,250.444 268.022 C 264.282 268.879,268.432 272.865,268.467 285.333 C 268.496 295.837,264.476 305.306,256.426 313.692 L 253.288 316.963 253.227 323.113 C 253.156 330.393,253.470 329.768,248.411 332.672 C 242.996 335.779,243.000 335.782,243.000 328.231 C 243.000 322.988,242.959 322.613,242.417 322.852 C 238.409 324.619,230.557 325.212,228.554 323.899 C 227.408 323.148,227.423 322.778,228.835 316.788 C 230.504 309.708,231.212 308.614,233.664 309.328 C 243.592 312.218,256.005 302.768,255.989 292.333 C 255.980 286.798,253.658 285.148,245.167 284.645 C 239.942 284.335,237.181 283.793,234.675 282.587 C 223.739 277.319,226.545 255.176,239.818 242.007 L 242.667 239.181 242.667 233.307 C 242.667 226.057,242.632 226.127,247.668 223.097 C 251.429 220.835,251.923 220.724,252.570 222.003 " stroke="none" fill="#242d34" fill-rule="evenodd"></path><path id="path1" d="M196.667 10.331 C 191.985 10.796,186.734 12.279,182.897 14.220 C 180.226 15.571,55.047 89.890,52.000 91.933 C 43.274 97.785,36.724 108.043,34.849 118.795 C 34.082 123.194,34.064 278.704,34.830 283.097 C 36.690 293.759,42.955 303.874,51.333 309.739 C 52.996 310.903,165.685 377.954,179.667 386.098 C 187.381 390.592,195.786 392.598,203.766 391.850 L 206.347 391.608 204.630 390.753 C 200.904 388.896,198.059 384.841,196.572 379.270 L 195.833 376.500 195.833 298.333 C 195.833 236.150,195.921 219.705,196.261 217.911 C 198.248 207.423,204.514 199.126,216.170 191.552 C 223.171 187.002,341.369 114.135,343.427 113.100 C 351.571 109.003,359.497 110.188,363.938 116.167 L 365.424 118.167 365.195 116.908 C 363.619 108.233,356.981 97.999,349.434 92.608 C 346.566 90.559,220.811 15.849,217.324 14.122 C 211.248 11.114,203.362 9.667,196.667 10.331 M247.833 223.197 C 246.183 224.215,244.421 225.490,243.917 226.029 L 243.000 227.011 243.000 233.048 L 243.000 239.086 240.006 242.066 C 232.513 249.523,228.354 259.011,228.339 268.680 C 228.323 279.509,233.265 284.326,244.403 284.336 C 253.771 284.344,257.300 287.487,256.060 294.716 C 254.326 304.830,244.041 311.432,233.100 309.455 C 231.253 309.121,230.643 310.187,229.221 316.230 C 227.828 322.153,227.717 323.483,228.583 323.827 C 231.147 324.847,236.474 324.578,240.650 323.216 C 243.581 322.261,243.333 321.786,243.333 328.348 C 243.333 335.551,243.158 335.388,247.992 332.671 C 253.211 329.738,253.000 330.149,253.000 322.902 L 253.000 316.894 256.267 313.530 C 265.230 304.304,269.739 291.704,268.030 280.667 C 266.727 272.255,262.331 269.009,251.333 268.341 C 241.874 267.766,239.924 266.296,240.420 260.117 C 241.032 252.491,249.481 246.058,258.459 246.381 C 262.628 246.531,262.593 246.572,264.349 239.639 C 265.845 233.734,265.928 232.830,265.022 232.345 C 263.471 231.515,256.561 232.197,253.250 233.507 C 252.708 233.722,252.667 233.333,252.667 228.063 C 252.667 220.179,252.687 220.200,247.833 223.197 " stroke="none" fill="#fbfbfb" fill-rule="evenodd"></path><path id="path2" d="M196.417 1.230 C 196.737 1.314,197.262 1.314,197.583 1.230 C 197.904 1.146,197.642 1.077,197.000 1.077 C 196.358 1.077,196.096 1.146,196.417 1.230 M203.083 1.230 C 203.404 1.314,203.929 1.314,204.250 1.230 C 204.571 1.146,204.308 1.077,203.667 1.077 C 203.025 1.077,202.762 1.146,203.083 1.230 M168.333 12.030 C 167.780 12.483,167.724 12.596,168.167 12.367 C 169.254 11.805,169.857 11.343,169.500 11.346 C 169.317 11.347,168.792 11.655,168.333 12.030 M360.167 90.000 C 360.883 90.733,361.544 91.333,361.635 91.333 C 361.727 91.333,361.216 90.733,360.500 90.000 C 359.784 89.267,359.123 88.667,359.031 88.667 C 358.940 88.667,359.451 89.267,360.167 90.000 M46.151 96.417 L 44.833 97.833 46.250 96.516 C 47.567 95.290,47.820 95.000,47.568 95.000 C 47.513 95.000,46.876 95.638,46.151 96.417 M352.088 110.906 C 352.595 110.982,353.345 110.980,353.755 110.901 C 354.165 110.822,353.750 110.760,352.833 110.762 C 351.917 110.765,351.581 110.829,352.088 110.906 M375.164 201.000 C 375.164 244.542,375.203 262.354,375.250 240.583 C 375.297 218.812,375.297 183.187,375.250 161.417 C 375.203 139.646,375.164 157.458,375.164 201.000 M25.164 201.000 C 25.164 243.258,25.203 260.546,25.250 239.417 C 25.297 218.287,25.297 183.712,25.250 162.583 C 25.203 141.454,25.164 158.742,25.164 201.000 M252.802 228.000 C 252.802 231.025,252.853 232.262,252.915 230.750 C 252.976 229.237,252.976 226.762,252.915 225.250 C 252.853 223.737,252.802 224.975,252.802 228.000 M242.664 236.735 C 242.574 238.331,242.619 239.517,242.765 239.370 C 242.911 239.223,242.984 237.918,242.929 236.468 L 242.828 233.833 242.664 236.735 M30.000 297.794 C 30.000 298.152,30.992 300.000,31.184 300.000 C 31.275 300.000,31.103 299.512,30.800 298.917 C 30.181 297.700,30.000 297.446,30.000 297.794 M250.812 304.083 L 249.833 305.167 250.917 304.188 C 251.512 303.649,252.000 303.162,252.000 303.104 C 252.000 302.847,251.725 303.074,250.812 304.083 M360.324 311.917 L 358.167 314.167 360.417 312.010 C 362.507 310.006,362.819 309.667,362.574 309.667 C 362.523 309.667,361.510 310.679,360.324 311.917 M39.500 311.667 C 40.216 312.400,40.877 313.000,40.969 313.000 C 41.060 313.000,40.549 312.400,39.833 311.667 C 39.117 310.933,38.456 310.333,38.365 310.333 C 38.273 310.333,38.784 310.933,39.500 311.667 M253.103 319.500 C 253.105 320.600,253.167 321.010,253.242 320.411 C 253.316 319.812,253.314 318.912,253.238 318.411 C 253.162 317.910,253.101 318.400,253.103 319.500 M170.333 391.150 C 170.333 391.241,170.783 391.549,171.333 391.833 C 171.883 392.118,172.333 392.275,172.333 392.184 C 172.333 392.092,171.883 391.784,171.333 391.500 C 170.783 391.216,170.333 391.058,170.333 391.150 " stroke="none" fill="#83868c" fill-rule="evenodd"></path><path id="path3" d="M195.830 298.167 C 195.830 339.417,195.869 356.242,195.917 335.557 C 195.964 314.871,195.964 281.121,195.917 260.557 C 195.869 239.992,195.830 256.917,195.830 298.167 " stroke="none" fill="#a8acae" fill-rule="evenodd"></path><path id="path4" d="" stroke="none" fill="#8c9094" fill-rule="evenodd"></path><path id="path5" d="M242.762 230.833 C 242.765 231.750,242.829 232.085,242.906 231.579 C 242.982 231.072,242.980 230.322,242.901 229.912 C 242.822 229.502,242.760 229.917,242.762 230.833 " stroke="none" fill="#94949c" fill-rule="evenodd"></path><path id="path6" d="M243.103 330.167 C 243.105 331.267,243.167 331.676,243.242 331.077 C 243.316 330.478,243.314 329.578,243.238 329.077 C 243.162 328.576,243.101 329.067,243.103 330.167 " stroke="none" fill="#c4c4c5" fill-rule="evenodd"></path><path id="path7" d="" stroke="none" fill="#c9cccc" fill-rule="evenodd"></path><path id="path8" d="M34.164 201.167 C 34.164 242.783,34.203 259.858,34.250 239.110 C 34.297 218.362,34.297 184.312,34.250 163.443 C 34.203 142.575,34.164 159.550,34.164 201.167 M206.146 199.417 L 205.167 200.500 206.250 199.521 C 206.846 198.983,207.333 198.495,207.333 198.438 C 207.333 198.180,207.058 198.407,206.146 199.417 M228.084 269.167 C 228.088 269.900,228.156 270.161,228.236 269.746 C 228.315 269.331,228.312 268.731,228.229 268.413 C 228.146 268.094,228.080 268.433,228.084 269.167 M243.109 324.833 C 243.111 326.117,243.171 326.601,243.243 325.909 C 243.315 325.218,243.314 324.168,243.241 323.576 C 243.167 322.984,243.108 323.550,243.109 324.833 " stroke="none" fill="#d1d2d5" fill-rule="evenodd"></path></g></svg>