<svg id="svg" version="1.1" xmlns="http://www.w3.org/2000/svg" xmlns:xlink="http://www.w3.org/1999/xlink" width="400" height="442.01438848920867" viewBox="0, 0, 400,442.01438848920867"><g id="svgg"><path id="path0" d="M193.719 0.700 C 193.301 1.313,193.188 1.326,192.813 0.800 C 192.432 0.267,192.330 0.267,191.892 0.800 C 191.622 1.130,191.220 1.409,191.000 1.421 C 189.559 1.496,187.646 2.151,187.859 2.496 C 187.998 2.720,187.865 2.822,187.564 2.721 C 187.263 2.621,186.660 2.872,186.223 3.279 C 185.786 3.687,185.212 3.937,184.947 3.835 C 184.683 3.734,184.367 3.909,184.246 4.225 C 184.124 4.541,183.764 4.800,183.446 4.800 C 183.127 4.800,182.807 4.935,182.733 5.100 C 182.660 5.265,181.970 5.738,181.200 6.151 C 180.430 6.564,178.450 7.627,176.800 8.513 C 175.150 9.399,173.690 10.292,173.555 10.496 C 173.421 10.701,173.192 10.847,173.047 10.820 C 172.811 10.777,168.729 13.002,167.200 14.007 C 166.870 14.224,166.154 14.593,165.608 14.826 C 165.063 15.059,164.523 15.377,164.408 15.533 C 164.231 15.773,162.225 16.822,161.600 17.000 C 160.880 17.206,158.910 18.277,158.458 18.708 C 157.680 19.453,154.944 20.799,154.650 20.583 C 154.512 20.482,154.491 20.521,154.602 20.669 C 154.713 20.816,153.548 21.581,152.013 22.369 C 150.478 23.156,148.902 24.070,148.510 24.400 C 148.118 24.730,146.853 25.436,145.699 25.968 C 144.544 26.501,143.600 27.116,143.600 27.335 C 143.600 27.554,143.492 27.626,143.361 27.494 C 143.230 27.363,142.265 27.783,141.217 28.428 C 140.169 29.072,139.106 29.600,138.856 29.600 C 138.605 29.600,138.400 29.736,138.400 29.902 C 138.400 30.069,137.545 30.618,136.500 31.123 C 135.455 31.628,133.712 32.586,132.627 33.252 C 131.542 33.917,129.382 35.143,127.827 35.976 C 122.895 38.617,122.249 38.988,121.670 39.520 C 121.358 39.805,120.579 40.144,119.938 40.272 C 119.297 40.401,118.861 40.594,118.970 40.703 C 119.078 40.811,118.229 41.373,117.083 41.950 C 115.938 42.528,114.910 43.100,114.800 43.221 C 114.366 43.701,111.600 45.250,111.600 45.013 C 111.600 44.875,110.835 45.285,109.900 45.925 C 107.462 47.592,105.750 48.412,105.387 48.084 C 105.213 47.928,105.198 48.020,105.352 48.288 C 105.531 48.600,105.265 48.869,104.616 49.032 C 104.057 49.172,103.600 49.428,103.600 49.600 C 103.600 49.772,103.155 50.025,102.610 50.162 C 102.066 50.298,100.965 50.855,100.163 51.399 C 99.361 51.943,98.502 52.272,98.253 52.130 C 98.004 51.988,97.935 52.021,98.101 52.203 C 98.421 52.557,95.477 54.400,94.593 54.400 C 94.303 54.400,94.007 54.538,93.933 54.706 C 93.758 55.110,88.752 58.070,88.068 58.175 C 87.775 58.220,87.415 58.424,87.268 58.628 C 86.765 59.327,82.122 61.588,81.796 61.294 C 81.618 61.132,81.581 61.192,81.714 61.427 C 81.944 61.831,77.752 64.235,77.100 64.074 C 76.935 64.033,76.800 64.168,76.800 64.373 C 76.800 64.792,75.217 65.420,74.600 65.246 C 74.380 65.184,74.334 65.267,74.498 65.431 C 74.813 65.746,74.575 65.903,70.915 67.799 C 69.642 68.458,68.362 69.223,68.071 69.499 C 67.781 69.774,67.299 70.000,67.000 70.000 C 66.701 70.000,66.218 70.240,65.925 70.533 C 65.632 70.825,64.878 71.194,64.249 71.352 C 63.620 71.510,63.203 71.737,63.323 71.856 C 63.571 72.104,59.255 74.494,58.518 74.518 C 58.252 74.526,58.116 74.664,58.215 74.824 C 58.314 74.984,57.946 75.227,57.397 75.365 C 56.849 75.503,56.400 75.792,56.400 76.008 C 56.400 76.223,56.099 76.400,55.731 76.400 C 55.364 76.400,54.779 76.654,54.431 76.964 C 53.822 77.507,48.477 80.503,45.600 81.914 C 44.830 82.291,44.140 82.735,44.067 82.900 C 43.993 83.065,43.578 83.200,43.143 83.200 C 42.708 83.200,42.465 83.382,42.603 83.605 C 42.742 83.830,42.308 84.118,41.627 84.255 C 40.952 84.390,40.400 84.620,40.400 84.766 C 40.400 84.913,39.413 85.533,38.207 86.143 C 37.001 86.754,35.908 87.425,35.779 87.633 C 35.650 87.842,35.377 87.909,35.172 87.783 C 34.968 87.656,34.800 87.743,34.800 87.976 C 34.800 88.209,34.543 88.400,34.229 88.400 C 33.914 88.400,33.419 88.632,33.129 88.916 C 32.838 89.199,31.880 89.807,31.000 90.267 C 27.387 92.153,26.594 92.614,26.467 92.900 C 26.393 93.065,26.123 93.202,25.867 93.205 C 25.610 93.207,24.060 94.006,22.423 94.980 C 20.785 95.955,19.272 96.645,19.061 96.514 C 18.849 96.383,18.802 96.479,18.955 96.726 C 19.125 97.003,18.802 97.279,18.116 97.442 C 17.502 97.588,16.730 97.925,16.400 98.192 C 16.070 98.458,14.180 99.634,12.200 100.806 C 10.220 101.977,7.628 103.895,6.439 105.068 C 5.251 106.240,4.115 107.200,3.916 107.200 C 3.716 107.200,3.647 107.353,3.763 107.539 C 3.878 107.726,3.612 108.266,3.171 108.739 C 2.730 109.213,2.494 109.600,2.646 109.600 C 2.799 109.600,2.647 109.915,2.309 110.300 C 1.797 110.883,1.116 112.408,1.014 113.200 C 0.999 113.310,0.835 113.641,0.649 113.935 C 0.452 114.245,0.486 114.646,0.729 114.889 C 1.022 115.182,0.975 115.482,0.575 115.882 C 0.163 116.294,0.112 116.662,0.394 117.188 C 0.651 117.668,0.649 118.314,0.389 119.061 C -0.173 120.675,0.117 320.121,0.686 323.470 C 1.671 329.267,2.919 330.314,6.354 328.228 C 7.647 327.442,8.835 326.800,8.994 326.800 C 9.154 326.800,10.084 326.260,11.062 325.600 C 12.040 324.940,12.932 324.400,13.045 324.400 C 13.158 324.400,15.221 323.230,17.630 321.800 C 20.039 320.370,22.107 319.200,22.225 319.200 C 22.344 319.200,24.570 317.940,27.172 316.400 C 29.775 314.860,32.106 313.600,32.352 313.600 C 32.598 313.600,32.800 313.459,32.800 313.288 C 32.800 313.116,33.295 312.762,33.900 312.502 C 34.505 312.242,35.270 311.845,35.600 311.620 C 36.583 310.951,45.232 306.000,45.418 306.000 C 45.586 306.000,54.003 301.151,55.200 300.365 C 55.530 300.148,56.295 299.758,56.900 299.498 C 57.505 299.238,58.000 298.884,58.000 298.712 C 58.000 298.541,58.190 298.400,58.422 298.400 C 58.654 298.400,60.527 297.410,62.583 296.200 C 64.639 294.990,66.519 294.000,66.760 294.000 C 67.002 294.000,67.200 293.838,67.200 293.640 C 67.200 293.441,67.998 292.949,68.972 292.546 C 69.947 292.143,70.602 291.720,70.428 291.607 C 69.762 291.172,62.000 274.489,62.000 273.491 C 62.000 273.288,61.747 272.554,61.438 271.860 C 61.129 271.167,60.471 269.340,59.974 267.800 C 59.478 266.260,58.926 264.640,58.748 264.200 C 58.569 263.760,57.963 261.510,57.400 259.200 C 56.838 256.890,56.194 254.370,55.970 253.600 C 55.745 252.830,55.407 251.300,55.217 250.200 C 55.028 249.100,54.683 247.120,54.450 245.800 C 51.526 229.222,51.881 208.248,55.371 191.400 C 56.430 186.288,58.267 178.991,58.795 177.800 C 58.990 177.360,59.269 176.550,59.414 176.000 C 59.559 175.450,60.397 173.020,61.276 170.600 C 69.708 147.388,83.896 126.637,102.435 110.400 C 110.557 103.286,116.054 99.301,125.635 93.579 C 135.276 87.822,156.692 78.800,160.717 78.800 C 161.115 78.800,161.611 78.645,161.820 78.456 C 162.029 78.267,163.190 77.915,164.400 77.674 C 165.610 77.432,168.760 76.788,171.400 76.243 C 176.061 75.280,179.994 74.698,186.600 73.992 C 190.799 73.544,209.765 73.545,213.600 73.995 C 215.250 74.188,218.310 74.545,220.400 74.789 C 222.490 75.033,225.460 75.501,227.000 75.830 C 228.540 76.159,231.510 76.795,233.600 77.244 C 235.690 77.692,237.713 78.226,238.095 78.430 C 238.477 78.633,239.031 78.800,239.327 78.800 C 240.845 78.800,255.096 83.810,259.872 86.022 C 266.557 89.118,274.915 93.525,275.133 94.068 C 275.207 94.251,275.439 94.400,275.649 94.400 C 276.028 94.400,281.571 97.985,286.200 101.224 C 300.720 111.385,317.264 129.142,325.754 143.680 L 326.852 145.559 329.487 143.946 C 330.937 143.059,332.500 142.169,332.961 141.968 C 333.423 141.767,334.070 141.430,334.400 141.220 C 336.039 140.177,346.763 134.000,346.935 134.000 C 347.044 134.000,349.116 132.830,351.540 131.400 C 353.964 129.970,356.139 128.800,356.373 128.800 C 356.608 128.800,356.800 128.641,356.800 128.447 C 356.800 128.252,357.115 127.993,357.500 127.871 C 357.885 127.749,358.650 127.378,359.200 127.046 C 361.554 125.626,369.083 121.335,370.000 120.890 C 370.550 120.624,371.270 120.230,371.600 120.014 C 373.250 118.938,381.185 114.400,381.417 114.400 C 381.564 114.400,382.484 113.860,383.462 113.200 C 384.440 112.540,385.331 112.000,385.442 112.000 C 385.553 112.000,387.327 111.010,389.383 109.800 C 391.439 108.590,393.319 107.600,393.560 107.600 C 394.475 107.600,392.983 104.640,391.341 103.197 C 389.996 102.015,384.651 98.800,384.030 98.800 C 383.794 98.800,383.600 98.647,383.600 98.461 C 383.600 98.274,382.925 97.825,382.100 97.463 C 380.147 96.605,376.153 94.309,375.208 93.500 C 374.801 93.151,374.353 92.981,374.212 93.121 C 374.072 93.262,373.827 93.168,373.669 92.912 C 373.511 92.657,372.445 92.013,371.299 91.482 C 370.153 90.952,369.332 90.401,369.475 90.259 C 369.617 90.116,369.356 90.000,368.895 90.000 C 368.434 90.000,367.813 89.775,367.515 89.500 C 367.216 89.225,365.899 88.460,364.586 87.800 C 363.274 87.140,362.110 86.485,362.000 86.344 C 361.890 86.203,360.495 85.416,358.900 84.594 C 357.305 83.773,356.000 82.943,356.000 82.750 C 356.000 82.558,355.865 82.428,355.700 82.462 C 355.376 82.528,353.099 81.496,351.800 80.694 C 351.360 80.422,350.252 79.722,349.338 79.139 C 348.423 78.555,347.253 77.946,346.738 77.785 C 346.222 77.624,345.710 77.381,345.600 77.246 C 345.215 76.773,339.327 73.571,338.947 73.629 C 338.806 73.651,338.579 73.518,338.445 73.334 C 338.310 73.150,337.345 72.554,336.300 72.008 C 335.255 71.463,334.400 70.907,334.400 70.772 C 334.400 70.638,333.686 70.292,332.813 70.004 C 331.941 69.716,331.321 69.328,331.437 69.140 C 331.553 68.953,331.289 68.800,330.852 68.800 C 330.415 68.800,329.811 68.554,329.510 68.253 C 329.209 67.952,328.566 67.580,328.081 67.426 C 327.597 67.272,327.200 66.993,327.200 66.805 C 327.200 66.617,326.696 66.353,326.081 66.218 C 325.465 66.083,324.495 65.539,323.924 65.010 C 323.353 64.480,322.797 64.136,322.688 64.245 C 322.579 64.354,321.931 64.103,321.247 63.687 C 320.563 63.271,320.092 62.841,320.201 62.732 C 320.311 62.623,320.175 62.531,319.900 62.527 C 319.625 62.524,317.569 61.504,315.331 60.261 C 313.093 59.017,311.068 58.000,310.831 58.000 C 310.594 58.000,310.400 57.863,310.400 57.695 C 310.400 57.392,309.811 57.043,307.300 55.856 C 306.585 55.517,306.000 55.022,306.000 54.754 C 306.000 54.486,305.883 54.383,305.741 54.526 C 305.439 54.828,301.600 52.823,301.600 52.363 C 301.600 52.193,301.105 51.996,300.500 51.927 C 299.843 51.851,299.444 51.587,299.510 51.270 C 299.570 50.979,299.434 50.855,299.207 50.996 C 298.980 51.136,298.512 50.970,298.168 50.626 C 297.824 50.281,297.196 50.000,296.771 50.000 C 296.347 50.000,296.000 49.859,296.000 49.688 C 296.000 49.516,295.505 49.153,294.900 48.881 C 294.295 48.610,293.080 47.965,292.200 47.449 C 291.320 46.933,289.755 46.055,288.723 45.499 C 287.690 44.943,286.955 44.378,287.090 44.244 C 287.224 44.110,287.039 44.000,286.679 44.000 C 286.319 44.000,285.406 43.653,284.650 43.228 C 283.895 42.804,283.169 42.564,283.038 42.695 C 282.907 42.826,282.800 42.723,282.800 42.467 C 282.800 42.210,282.500 42.000,282.133 42.000 C 281.767 42.000,281.590 41.877,281.740 41.727 C 282.015 41.451,279.998 40.400,278.703 40.144 C 278.320 40.068,277.645 39.645,277.203 39.203 C 276.761 38.761,276.192 38.400,275.938 38.400 C 275.684 38.400,274.888 37.952,274.170 37.404 C 273.253 36.705,272.804 36.556,272.664 36.904 C 272.542 37.206,272.451 37.136,272.432 36.726 C 272.413 36.333,271.816 35.840,271.000 35.546 C 270.230 35.267,269.600 34.876,269.600 34.677 C 269.600 34.478,269.330 34.418,269.000 34.545 C 268.635 34.685,268.400 34.545,268.400 34.187 C 268.400 33.476,267.605 33.390,267.588 34.100 C 267.581 34.377,267.394 34.288,267.168 33.900 C 266.944 33.515,266.518 33.200,266.223 33.200 C 265.927 33.200,265.567 32.890,265.421 32.511 C 265.195 31.921,265.104 31.907,264.785 32.411 C 264.494 32.871,264.411 32.793,264.406 32.051 C 264.401 31.253,264.305 31.181,263.800 31.600 C 263.306 32.010,263.200 31.975,263.200 31.400 C 263.200 30.875,263.072 30.808,262.684 31.131 C 262.299 31.450,262.036 31.350,261.656 30.741 C 261.375 30.290,261.040 30.027,260.912 30.155 C 260.784 30.283,260.442 30.075,260.152 29.694 C 259.720 29.125,259.619 29.108,259.587 29.600 C 259.566 29.930,259.371 29.754,259.154 29.210 C 258.831 28.401,258.690 28.328,258.386 28.810 C 258.134 29.208,258.010 29.237,258.006 28.900 C 258.003 28.625,257.724 28.400,257.387 28.400 C 257.051 28.400,256.667 28.120,256.536 27.777 C 256.404 27.434,256.050 27.249,255.748 27.364 C 255.447 27.480,255.200 27.401,255.200 27.187 C 255.200 26.974,254.930 26.800,254.600 26.800 C 254.270 26.800,254.000 26.626,254.000 26.413 C 254.000 26.199,253.730 26.129,253.400 26.255 C 253.023 26.400,252.800 26.251,252.800 25.855 C 252.800 25.486,252.573 25.312,252.252 25.436 C 251.950 25.551,251.431 25.374,251.099 25.042 C 250.767 24.710,250.384 24.550,250.248 24.686 C 250.111 24.822,250.000 24.723,250.000 24.467 C 250.000 24.210,249.730 24.000,249.400 24.000 C 249.070 24.000,248.800 23.801,248.800 23.557 C 248.800 23.314,248.510 23.226,248.155 23.362 C 247.701 23.536,247.577 23.436,247.735 23.025 C 247.893 22.612,247.769 22.514,247.310 22.690 C 246.824 22.876,246.726 22.771,246.918 22.269 C 247.059 21.901,247.001 21.600,246.787 21.600 C 246.574 21.600,246.400 21.772,246.400 21.981 C 246.400 22.382,243.986 21.255,243.545 20.649 C 243.404 20.456,243.122 20.401,242.918 20.527 C 242.713 20.654,242.300 20.416,242.000 20.000 C 241.700 19.584,241.307 19.334,241.127 19.445 C 240.947 19.556,240.800 19.471,240.800 19.255 C 240.800 19.040,240.260 18.745,239.600 18.600 C 238.940 18.455,238.400 18.171,238.400 17.968 C 238.400 17.766,238.143 17.600,237.829 17.600 C 237.514 17.600,237.019 17.362,236.729 17.071 C 236.438 16.781,236.020 16.466,235.800 16.371 C 235.580 16.277,235.430 16.110,235.466 16.000 C 235.503 15.890,235.059 15.772,234.479 15.737 C 233.899 15.702,233.359 15.477,233.279 15.237 C 233.199 14.997,232.891 14.800,232.595 14.800 C 232.299 14.800,231.774 14.517,231.429 14.171 C 231.083 13.826,230.800 13.658,230.800 13.799 C 230.800 13.939,230.285 13.688,229.655 13.239 C 229.025 12.791,228.395 12.538,228.255 12.678 C 228.115 12.819,228.000 12.723,228.000 12.467 C 228.000 12.210,227.743 12.000,227.429 12.000 C 227.114 12.000,226.542 11.685,226.157 11.300 C 225.772 10.915,225.354 10.627,225.229 10.659 C 225.103 10.692,223.799 10.017,222.330 9.159 C 220.862 8.302,219.467 7.600,219.230 7.600 C 218.994 7.600,218.800 7.420,218.800 7.200 C 218.800 6.980,218.565 6.800,218.278 6.800 C 217.991 6.800,216.911 6.264,215.878 5.609 C 214.845 4.954,213.997 4.549,213.994 4.709 C 213.991 4.869,213.856 4.818,213.694 4.596 C 213.444 4.252,208.987 1.870,208.400 1.766 C 208.290 1.747,207.930 1.618,207.600 1.479 C 207.270 1.341,205.830 1.048,204.400 0.828 C 202.970 0.607,201.197 0.308,200.461 0.163 C 199.688 0.010,198.448 0.120,197.527 0.424 C 196.285 0.834,195.765 0.845,195.172 0.475 C 194.217 -0.121,194.286 -0.132,193.719 0.700 M192.600 147.994 C 169.706 150.350,148.716 163.772,136.921 183.600 C 131.788 192.228,128.937 200.487,127.187 211.800 C 126.707 214.903,126.707 227.097,127.187 230.200 C 128.557 239.054,130.418 245.507,133.438 251.869 C 134.187 253.447,134.800 254.923,134.800 255.150 C 134.800 255.376,135.233 255.165,135.762 254.681 C 136.291 254.196,137.593 253.350,138.655 252.800 C 139.717 252.250,140.827 251.575,141.121 251.300 C 141.416 251.025,141.805 250.800,141.985 250.800 C 142.165 250.800,144.771 249.360,147.775 247.600 C 150.780 245.840,153.330 244.400,153.441 244.400 C 153.552 244.400,156.076 242.960,159.049 241.200 C 162.022 239.440,164.542 238.000,164.649 238.000 C 164.757 238.000,166.527 237.010,168.583 235.800 C 170.639 234.590,172.504 233.600,172.727 233.600 C 172.950 233.600,173.193 233.440,173.267 233.244 C 173.340 233.048,174.390 232.352,175.600 231.698 C 178.696 230.024,180.469 229.017,184.660 226.552 C 186.674 225.369,188.519 224.400,188.760 224.400 C 189.002 224.400,189.200 224.220,189.200 224.000 C 189.200 223.780,189.390 223.600,189.622 223.600 C 189.854 223.600,191.727 222.610,193.783 221.400 C 195.839 220.190,197.719 219.200,197.960 219.200 C 198.202 219.200,198.400 219.065,198.400 218.899 C 198.400 218.734,199.255 218.154,200.300 217.610 C 201.345 217.066,204.758 215.131,207.884 213.310 C 211.010 211.490,213.653 210.000,213.757 210.000 C 213.922 210.000,224.010 204.190,225.600 203.180 C 225.930 202.970,226.560 202.617,227.000 202.396 C 227.440 202.176,228.880 201.363,230.200 200.590 C 231.520 199.818,233.050 198.966,233.600 198.698 C 234.150 198.429,234.838 197.983,235.128 197.705 C 235.418 197.428,236.093 197.091,236.628 196.957 C 237.163 196.823,237.600 196.553,237.600 196.357 C 237.600 196.160,237.790 196.000,238.022 196.000 C 238.254 196.000,240.099 195.029,242.122 193.843 C 245.809 191.680,247.447 190.745,250.800 188.892 C 251.790 188.345,254.065 187.020,255.856 185.949 C 257.646 184.877,259.213 184.000,259.338 184.000 C 259.462 184.000,260.180 183.582,260.932 183.072 L 262.299 182.144 261.098 180.372 C 245.720 157.698,219.366 145.241,192.600 147.994 " stroke="none" fill="#649cd3" fill-rule="evenodd"></path><path id="path1" d="M196.200 73.864 C 181.200 74.639,169.141 76.484,159.400 79.494 C 155.546 80.685,149.380 82.763,147.200 83.605 C 145.990 84.073,144.318 84.708,143.483 85.016 C 138.848 86.729,127.223 92.873,120.190 97.327 C 106.307 106.119,90.172 121.396,80.823 134.600 C 78.618 137.715,73.200 145.954,73.200 146.192 C 73.200 146.294,72.393 147.742,71.407 149.410 C 64.718 160.723,59.298 175.341,55.614 192.000 C 43.455 246.988,69.030 310.215,116.248 341.905 C 122.964 346.412,129.929 350.429,136.457 353.560 C 141.536 355.997,143.470 356.820,149.200 358.982 C 149.970 359.272,151.320 359.788,152.200 360.129 C 153.080 360.469,155.150 361.133,156.800 361.604 C 158.450 362.074,160.250 362.622,160.800 362.821 C 162.647 363.488,171.307 365.327,176.800 366.218 C 184.856 367.525,187.789 367.718,199.800 367.733 C 211.832 367.748,214.810 367.556,223.400 366.210 C 228.349 365.434,237.323 363.512,239.200 362.825 C 239.750 362.624,241.550 362.069,243.200 361.592 C 246.461 360.649,253.044 358.312,255.060 357.382 C 255.754 357.062,256.416 356.800,256.531 356.800 C 256.720 356.800,261.431 354.713,264.000 353.491 C 268.380 351.408,281.380 343.808,283.800 341.915 C 284.020 341.743,286.270 340.042,288.800 338.136 C 299.870 329.793,309.557 320.049,317.766 309.000 C 322.356 302.823,327.926 294.181,327.549 293.823 C 327.413 293.695,321.581 290.466,317.200 288.093 C 315.269 287.047,307.466 282.750,305.261 281.518 C 304.525 281.107,302.365 279.938,300.461 278.920 C 298.557 277.903,296.329 276.650,295.508 276.135 C 294.687 275.621,293.909 275.200,293.778 275.200 C 293.647 275.200,292.338 274.504,290.870 273.652 C 288.308 272.168,273.994 264.280,269.000 261.602 C 267.680 260.894,266.414 260.164,266.187 259.981 C 264.433 258.561,263.621 258.751,262.237 260.906 C 255.149 271.939,243.455 282.308,232.200 287.541 C 230.353 288.399,229.525 288.768,226.800 289.949 C 225.000 290.729,219.858 292.287,217.000 292.919 C 215.460 293.259,213.210 293.756,212.000 294.022 C 202.038 296.217,183.972 294.261,173.000 289.801 C 111.496 264.795,110.619 179.155,171.600 152.987 C 189.556 145.281,212.408 145.457,229.536 153.433 C 231.150 154.185,232.563 154.800,232.675 154.800 C 233.285 154.800,241.104 159.699,244.200 162.021 C 250.983 167.108,257.273 173.784,261.786 180.687 L 262.889 182.374 264.945 181.228 C 266.075 180.597,269.665 178.533,272.923 176.641 C 276.181 174.748,278.911 173.200,278.990 173.200 C 279.070 173.200,280.994 172.100,283.267 170.756 C 285.540 169.412,287.760 168.149,288.200 167.950 C 288.640 167.751,289.540 167.241,290.200 166.816 C 290.860 166.392,291.899 165.777,292.508 165.449 C 293.789 164.761,300.784 160.764,308.000 156.597 C 310.750 155.009,314.230 153.038,315.733 152.215 C 321.079 149.291,326.136 146.193,326.282 145.753 C 326.921 143.836,311.761 124.491,302.715 115.678 C 284.770 98.197,265.822 87.173,240.400 79.425 C 228.626 75.836,208.075 73.251,196.200 73.864 " stroke="none" fill="#fbfbfb" fill-rule="evenodd"></path><path id="path2" d="M394.331 107.155 C 393.979 107.567,391.825 108.947,389.545 110.223 C 387.265 111.499,383.330 113.742,380.800 115.208 C 378.270 116.673,375.930 117.992,375.600 118.140 C 375.270 118.287,374.370 118.784,373.600 119.245 C 372.830 119.706,370.580 121.029,368.600 122.184 C 365.189 124.175,363.741 124.995,359.300 127.451 C 358.255 128.028,356.410 129.086,355.200 129.800 C 353.990 130.514,352.190 131.546,351.200 132.092 C 350.210 132.639,346.999 134.474,344.064 136.171 C 341.130 137.868,337.890 139.717,336.864 140.280 C 332.656 142.593,327.387 145.767,326.710 146.398 C 326.312 146.769,325.495 147.326,324.893 147.636 C 324.292 147.946,321.877 149.325,319.527 150.700 C 317.176 152.075,315.170 153.200,315.068 153.200 C 314.967 153.200,311.812 155.000,308.059 157.200 C 304.306 159.400,301.161 161.200,301.071 161.200 C 300.981 161.200,297.997 162.910,294.442 165.000 C 290.886 167.090,287.900 168.800,287.807 168.800 C 287.713 168.800,285.026 170.330,281.835 172.200 C 278.643 174.070,275.961 175.600,275.874 175.600 C 275.787 175.600,272.954 177.220,269.578 179.200 C 266.202 181.180,263.172 182.800,262.845 182.800 C 262.518 182.800,260.399 183.880,258.136 185.200 C 255.873 186.520,253.951 187.600,253.864 187.600 C 253.778 187.600,250.797 189.310,247.242 191.400 C 243.686 193.490,240.702 195.200,240.611 195.200 C 240.520 195.200,238.501 196.337,236.123 197.726 C 233.745 199.115,230.810 200.798,229.600 201.464 C 228.390 202.131,222.450 205.518,216.400 208.992 C 210.350 212.465,204.500 215.798,203.400 216.399 C 202.300 217.000,197.133 219.936,191.917 222.924 C 186.701 225.912,181.459 228.899,180.268 229.562 C 179.077 230.225,176.089 231.944,173.628 233.383 C 171.167 234.823,169.085 236.000,169.001 236.000 C 168.917 236.000,166.093 237.593,162.724 239.540 C 154.420 244.339,145.743 249.315,143.800 250.392 C 140.387 252.284,135.200 255.304,135.200 255.399 C 135.200 257.218,143.502 268.348,148.626 273.400 C 158.392 283.028,171.882 290.306,184.600 292.808 C 189.684 293.809,191.087 293.979,196.360 294.232 C 222.746 295.497,246.822 283.305,261.397 261.300 C 263.354 258.344,263.993 257.969,265.411 258.940 C 266.148 259.444,268.952 260.985,275.200 264.317 C 276.630 265.079,277.980 265.837,278.200 266.001 C 278.420 266.165,279.770 266.927,281.200 267.695 C 284.551 269.495,287.211 270.948,292.400 273.814 C 298.778 277.337,303.563 279.972,306.000 281.305 C 308.774 282.822,310.570 283.814,312.600 284.953 C 313.480 285.447,315.634 286.630,317.388 287.582 C 319.141 288.533,321.121 289.616,321.788 289.987 C 322.454 290.358,324.221 291.342,325.714 292.173 L 328.429 293.685 327.195 295.871 C 324.749 300.204,319.121 308.341,315.486 312.800 C 308.521 321.342,300.723 329.236,293.159 335.400 C 287.097 340.340,281.862 343.972,274.586 348.285 C 264.280 354.394,249.357 360.763,239.600 363.216 C 223.231 367.332,215.423 368.343,200.000 368.343 C 185.118 368.343,174.757 367.043,161.800 363.550 C 145.815 359.242,127.319 350.574,115.176 341.702 C 114.199 340.988,112.968 340.088,112.440 339.702 C 99.002 329.878,86.003 316.155,76.726 302.000 C 73.503 297.082,71.200 293.245,71.200 292.793 C 71.200 291.972,69.906 292.482,65.600 295.000 C 63.155 296.430,61.085 297.600,61.000 297.600 C 60.915 297.600,58.811 298.793,56.323 300.252 C 53.835 301.711,50.900 303.398,49.800 304.001 C 47.531 305.245,16.477 322.942,8.667 327.442 C 5.844 329.069,3.442 330.400,3.331 330.400 C 2.963 330.400,1.627 328.610,1.613 328.100 C 1.606 327.825,1.433 327.600,1.229 327.600 C 1.025 327.600,0.783 327.375,0.691 327.100 C 0.599 326.825,0.599 327.087,0.690 327.683 C 0.903 329.070,2.724 332.625,4.000 334.143 C 4.602 334.860,7.248 337.530,8.434 338.619 C 8.782 338.938,9.277 339.200,9.534 339.200 C 9.790 339.200,10.000 339.366,10.000 339.569 C 10.000 339.772,10.630 340.146,11.400 340.400 C 12.170 340.654,12.800 341.028,12.800 341.231 C 12.800 341.434,13.057 341.600,13.371 341.600 C 13.686 341.600,14.189 341.825,14.490 342.100 C 15.055 342.617,16.359 343.365,19.800 345.146 C 20.900 345.715,21.891 346.275,22.001 346.390 C 22.184 346.581,23.806 347.487,26.982 349.173 C 27.632 349.518,28.410 350.025,28.710 350.300 C 29.011 350.575,29.501 350.800,29.800 350.800 C 30.099 350.800,30.584 351.025,30.879 351.300 C 31.173 351.575,32.308 352.250,33.400 352.800 C 34.492 353.350,35.627 354.025,35.921 354.300 C 36.216 354.575,36.701 354.800,37.000 354.800 C 37.299 354.800,37.789 355.025,38.091 355.300 C 38.588 355.754,40.081 356.621,43.382 358.373 C 44.032 358.718,44.810 359.225,45.110 359.500 C 45.411 359.775,45.901 360.000,46.200 360.000 C 46.499 360.000,46.984 360.225,47.279 360.500 C 47.573 360.775,48.708 361.450,49.800 362.000 C 50.892 362.550,52.027 363.225,52.321 363.500 C 52.616 363.775,53.101 364.000,53.400 364.000 C 53.699 364.000,54.184 364.225,54.479 364.500 C 54.773 364.775,55.908 365.450,57.000 366.000 C 58.092 366.550,59.227 367.225,59.521 367.500 C 59.816 367.775,60.299 368.000,60.595 368.000 C 60.891 368.000,61.193 368.137,61.267 368.304 C 61.340 368.471,62.300 369.076,63.400 369.648 C 66.877 371.459,68.193 372.193,68.400 372.438 C 68.510 372.569,69.090 372.929,69.688 373.238 C 74.434 375.687,75.465 376.259,75.929 376.699 C 76.219 376.974,76.714 377.200,77.029 377.200 C 77.343 377.200,77.600 377.366,77.600 377.569 C 77.600 377.772,78.230 378.146,79.000 378.400 C 79.770 378.654,80.400 379.014,80.400 379.199 C 80.400 379.385,80.940 379.655,81.600 379.800 C 82.260 379.945,82.800 380.217,82.800 380.405 C 82.800 380.593,83.205 380.872,83.700 381.027 C 84.195 381.181,84.690 381.436,84.800 381.592 C 84.910 381.749,85.490 382.129,86.088 382.438 C 90.834 384.887,91.865 385.459,92.329 385.899 C 92.619 386.174,93.099 386.400,93.395 386.400 C 93.691 386.400,93.993 386.537,94.067 386.704 C 94.140 386.871,95.100 387.476,96.200 388.048 C 99.677 389.859,100.993 390.593,101.200 390.838 C 101.310 390.969,101.890 391.329,102.488 391.638 C 107.234 394.087,108.265 394.659,108.729 395.099 C 109.019 395.374,109.514 395.600,109.829 395.600 C 110.143 395.600,110.400 395.766,110.400 395.969 C 110.400 396.172,111.030 396.546,111.800 396.800 C 112.570 397.054,113.200 397.414,113.200 397.599 C 113.200 397.785,113.740 398.055,114.400 398.200 C 115.060 398.345,115.600 398.626,115.600 398.824 C 115.600 399.022,116.050 399.298,116.600 399.436 C 117.150 399.574,117.600 399.835,117.600 400.016 C 117.600 400.198,118.005 400.472,118.500 400.627 C 118.995 400.781,119.490 401.026,119.600 401.171 C 119.710 401.316,120.880 401.966,122.200 402.616 C 123.520 403.266,124.838 404.023,125.129 404.299 C 125.419 404.574,125.914 404.800,126.229 404.800 C 126.543 404.800,126.800 404.935,126.801 405.100 C 126.801 405.265,127.926 405.940,129.301 406.600 C 130.675 407.260,132.038 408.025,132.329 408.300 C 132.619 408.575,133.114 408.800,133.429 408.800 C 133.743 408.800,134.000 408.977,134.000 409.192 C 134.000 409.408,134.450 409.698,135.000 409.836 C 135.550 409.974,136.000 410.233,136.000 410.412 C 136.000 410.591,136.670 410.959,137.489 411.229 C 138.308 411.500,139.221 411.964,139.518 412.260 C 139.814 412.557,140.314 412.800,140.629 412.800 C 140.943 412.800,141.200 412.977,141.200 413.192 C 141.200 413.408,141.650 413.698,142.200 413.836 C 142.750 413.974,143.200 414.202,143.201 414.343 C 143.201 414.485,144.326 415.140,145.701 415.800 C 147.075 416.460,148.438 417.225,148.729 417.500 C 149.019 417.775,149.514 418.000,149.829 418.000 C 150.143 418.000,150.400 418.168,150.400 418.373 C 150.400 418.578,150.805 418.872,151.300 419.027 C 151.795 419.181,152.290 419.419,152.400 419.554 C 152.510 419.689,153.678 420.340,154.997 421.000 C 156.315 421.660,157.633 422.425,157.925 422.700 C 158.218 422.975,158.714 423.200,159.029 423.200 C 159.343 423.200,159.600 423.335,159.601 423.500 C 159.601 423.665,160.726 424.340,162.101 425.000 C 163.475 425.660,164.838 426.425,165.129 426.700 C 165.419 426.975,165.914 427.200,166.229 427.200 C 166.543 427.200,166.800 427.377,166.800 427.592 C 166.800 427.808,167.250 428.098,167.800 428.236 C 168.350 428.374,168.800 428.602,168.801 428.743 C 168.801 428.885,169.926 429.540,171.301 430.200 C 172.675 430.860,174.038 431.625,174.329 431.900 C 174.619 432.175,175.114 432.400,175.429 432.400 C 175.743 432.400,176.000 432.535,176.001 432.700 C 176.001 432.865,177.126 433.540,178.501 434.200 C 179.875 434.860,181.238 435.625,181.529 435.900 C 181.819 436.175,182.314 436.400,182.629 436.400 C 182.943 436.400,183.200 436.568,183.200 436.773 C 183.200 436.978,183.605 437.272,184.100 437.427 C 184.595 437.581,185.090 437.819,185.200 437.954 C 185.612 438.461,189.543 440.400,190.159 440.400 C 190.512 440.400,190.800 440.555,190.800 440.745 C 190.800 441.385,195.306 442.000,200.000 442.000 C 204.694 442.000,209.200 441.385,209.200 440.745 C 209.200 440.555,209.473 440.400,209.807 440.400 C 210.431 440.400,214.442 438.451,214.800 437.974 C 214.910 437.828,215.405 437.581,215.900 437.427 C 216.395 437.272,216.800 436.978,216.800 436.773 C 216.800 436.568,217.057 436.400,217.371 436.400 C 217.686 436.400,218.189 436.154,218.490 435.853 C 218.791 435.552,219.479 435.171,220.019 435.005 C 220.558 434.840,221.270 434.478,221.600 434.200 C 221.930 433.922,222.605 433.571,223.100 433.420 C 223.595 433.270,224.000 432.978,224.000 432.773 C 224.000 432.568,224.257 432.400,224.571 432.400 C 224.886 432.400,225.381 432.175,225.671 431.900 C 225.962 431.625,227.325 430.860,228.699 430.200 C 230.074 429.540,231.199 428.865,231.199 428.700 C 231.200 428.535,231.457 428.400,231.771 428.400 C 232.086 428.400,232.587 428.175,232.885 427.900 C 233.468 427.363,236.976 425.404,239.100 424.430 C 239.815 424.102,240.400 423.691,240.400 423.517 C 240.400 423.342,240.657 423.200,240.971 423.200 C 241.286 423.200,241.781 422.974,242.071 422.699 C 242.362 422.423,243.680 421.666,245.000 421.016 C 246.320 420.366,247.490 419.716,247.600 419.571 C 247.710 419.426,248.205 419.181,248.700 419.027 C 249.195 418.872,249.600 418.578,249.600 418.373 C 249.600 418.168,249.857 418.000,250.171 418.000 C 250.486 418.000,250.989 417.754,251.290 417.453 C 251.591 417.152,252.279 416.771,252.819 416.605 C 253.358 416.440,254.070 416.078,254.400 415.800 C 254.730 415.522,255.405 415.171,255.900 415.020 C 256.395 414.870,256.800 414.578,256.800 414.373 C 256.800 414.168,257.057 414.000,257.371 414.000 C 257.686 414.000,258.181 413.774,258.471 413.499 C 258.762 413.223,260.080 412.464,261.400 411.811 C 262.720 411.159,263.860 410.485,263.933 410.313 C 264.007 410.141,264.309 410.000,264.605 410.000 C 264.901 410.000,265.381 409.774,265.671 409.499 C 266.136 409.059,267.129 408.507,271.912 406.038 C 272.510 405.729,273.060 405.324,273.133 405.138 C 273.207 404.952,273.509 404.800,273.805 404.800 C 274.101 404.800,274.581 404.574,274.871 404.299 C 275.162 404.023,276.480 403.264,277.800 402.611 C 279.120 401.959,280.260 401.285,280.333 401.113 C 280.407 400.941,280.709 400.800,281.005 400.800 C 281.301 400.800,281.784 400.575,282.079 400.300 C 282.373 400.025,283.508 399.350,284.600 398.800 C 285.692 398.250,286.827 397.575,287.121 397.300 C 287.416 397.025,287.901 396.800,288.200 396.800 C 288.499 396.800,288.981 396.573,289.271 396.295 C 289.562 396.018,290.250 395.571,290.800 395.302 C 291.350 395.034,292.880 394.182,294.200 393.410 C 295.520 392.637,297.046 391.813,297.592 391.578 C 298.137 391.342,298.678 391.026,298.792 390.875 C 299.005 390.594,300.271 389.881,303.800 388.054 C 304.900 387.485,305.890 386.925,306.000 386.810 C 306.216 386.584,307.816 385.702,311.000 384.054 C 312.100 383.485,313.091 382.925,313.201 382.810 C 313.384 382.619,315.006 381.713,318.182 380.027 C 318.832 379.682,319.610 379.175,319.910 378.900 C 320.211 378.625,320.701 378.400,321.000 378.400 C 321.299 378.400,321.789 378.175,322.090 377.900 C 322.650 377.388,323.884 376.679,327.400 374.848 C 328.500 374.276,329.460 373.671,329.533 373.504 C 329.607 373.337,329.909 373.200,330.205 373.200 C 330.501 373.200,330.984 372.975,331.279 372.700 C 331.573 372.425,332.708 371.750,333.800 371.200 C 334.892 370.650,336.027 369.975,336.321 369.700 C 336.616 369.425,337.101 369.200,337.400 369.200 C 337.699 369.200,338.189 368.975,338.491 368.700 C 338.995 368.239,340.788 367.202,343.800 365.627 C 344.460 365.282,345.090 364.906,345.200 364.790 C 345.310 364.675,346.300 364.115,347.400 363.546 C 350.841 361.765,352.145 361.017,352.710 360.500 C 353.011 360.225,353.501 360.000,353.800 360.000 C 354.099 360.000,354.589 359.775,354.890 359.500 C 355.190 359.225,355.968 358.718,356.618 358.373 C 359.794 356.687,361.416 355.781,361.599 355.590 C 361.709 355.475,362.700 354.915,363.800 354.346 C 366.984 352.698,368.584 351.816,368.800 351.590 C 368.910 351.475,369.900 350.915,371.000 350.346 C 374.441 348.565,375.745 347.817,376.310 347.300 C 376.611 347.025,377.099 346.800,377.395 346.800 C 377.691 346.800,377.993 346.663,378.067 346.496 C 378.140 346.329,379.100 345.724,380.200 345.152 C 383.716 343.321,384.950 342.612,385.510 342.100 C 385.811 341.825,386.314 341.600,386.629 341.600 C 386.943 341.600,387.200 341.456,387.200 341.280 C 387.200 341.105,387.830 340.733,388.600 340.454 C 389.370 340.176,390.000 339.780,390.000 339.574 C 390.000 339.368,390.210 339.200,390.466 339.200 C 390.976 339.200,391.348 338.889,393.919 336.319 C 396.489 333.748,396.800 333.376,396.800 332.866 C 396.800 332.610,396.973 332.400,397.184 332.400 C 397.395 332.400,397.784 331.680,398.047 330.800 C 398.311 329.920,398.653 329.200,398.808 329.200 C 399.928 329.200,400.000 322.652,400.000 221.000 C 400.000 119.168,399.935 113.280,398.810 112.400 C 398.670 112.290,398.320 111.620,398.033 110.911 C 397.747 110.202,397.091 109.168,396.577 108.613 C 396.063 108.058,395.491 107.335,395.307 107.006 C 395.019 106.490,394.882 106.511,394.331 107.155 " stroke="none" fill="#044e8e" fill-rule="evenodd"></path><path id="path3" d="M185.656 74.032 C 183.817 74.209,182.197 74.473,182.056 74.617 C 181.915 74.762,183.150 74.756,184.800 74.604 C 186.450 74.453,190.230 74.192,193.200 74.024 L 198.600 73.720 193.800 73.715 C 191.160 73.712,187.495 73.854,185.656 74.032 M206.800 73.992 C 209.770 74.177,213.550 74.426,215.200 74.545 C 217.509 74.712,217.877 74.675,216.800 74.383 C 216.030 74.174,212.250 73.925,208.400 73.829 L 201.400 73.655 206.800 73.992 M176.240 75.242 C 174.942 75.431,173.787 75.679,173.674 75.793 C 173.328 76.138,175.243 75.981,178.200 75.420 C 181.313 74.830,179.926 74.704,176.240 75.242 M222.000 75.400 C 223.650 75.702,225.360 75.950,225.800 75.950 L 226.600 75.949 225.800 75.625 C 225.360 75.447,223.650 75.199,222.000 75.075 L 219.000 74.850 222.000 75.400 M169.600 76.526 C 168.390 76.763,167.760 77.010,168.200 77.076 C 168.640 77.141,169.990 76.946,171.200 76.641 C 173.803 75.987,172.743 75.910,169.600 76.526 M229.200 76.648 C 230.630 76.981,233.226 77.601,234.969 78.025 C 236.711 78.449,238.222 78.711,238.326 78.608 C 238.430 78.504,238.264 78.344,237.957 78.252 C 236.229 77.734,229.939 76.410,228.400 76.241 C 227.009 76.087,227.191 76.180,229.200 76.648 M164.128 77.745 C 161.824 78.251,160.664 78.963,162.829 78.542 C 164.696 78.179,167.542 77.278,166.800 77.284 C 166.470 77.287,165.267 77.495,164.128 77.745 M158.456 79.259 C 157.717 79.472,157.204 79.737,157.316 79.849 C 157.545 80.079,160.800 79.271,160.800 78.985 C 160.800 78.720,160.003 78.814,158.456 79.259 M239.600 79.137 C 239.930 79.341,240.830 79.627,241.600 79.771 C 242.530 79.946,242.799 79.910,242.400 79.663 C 242.070 79.459,241.170 79.173,240.400 79.029 C 239.470 78.854,239.201 78.890,239.600 79.137 M154.600 80.586 C 153.940 80.888,153.670 81.142,154.000 81.149 C 154.330 81.157,155.140 80.917,155.800 80.614 C 156.460 80.312,156.730 80.058,156.400 80.051 C 156.070 80.043,155.260 80.283,154.600 80.586 M243.202 80.112 C 243.473 80.414,250.930 82.803,251.093 82.640 C 251.247 82.487,245.913 80.577,244.200 80.171 C 243.540 80.015,243.091 79.989,243.202 80.112 M151.600 81.488 C 146.015 83.582,142.783 84.917,142.934 85.068 C 143.038 85.171,144.085 84.866,145.261 84.389 C 146.438 83.913,148.030 83.285,148.800 82.996 C 152.670 81.539,153.352 81.242,152.800 81.252 C 152.470 81.258,151.930 81.364,151.600 81.488 M251.637 82.970 C 251.730 83.064,253.425 83.799,255.403 84.604 C 260.946 86.860,261.045 86.895,260.600 86.447 C 260.380 86.225,258.358 85.314,256.106 84.422 C 252.264 82.900,251.231 82.564,251.637 82.970 M139.300 86.418 C 136.716 87.629,135.801 88.429,138.100 87.467 C 140.041 86.655,142.657 85.235,142.200 85.241 C 141.980 85.244,140.675 85.774,139.300 86.418 M261.265 86.998 C 261.480 87.213,269.294 91.155,270.600 91.707 C 272.807 92.640,270.114 91.031,266.131 89.037 C 262.097 87.017,260.698 86.431,261.265 86.998 M131.145 90.510 C 128.585 91.879,126.065 93.329,125.545 93.730 L 124.600 94.461 125.600 93.889 C 126.150 93.575,128.760 92.184,131.400 90.798 C 136.557 88.092,136.723 87.995,136.167 88.010 C 135.965 88.015,133.705 89.140,131.145 90.510 M271.800 92.286 C 272.609 93.067,275.200 94.454,275.200 94.107 C 275.200 93.910,274.525 93.405,273.700 92.985 C 271.647 91.939,271.314 91.817,271.800 92.286 M121.562 96.041 C 119.065 97.640,117.205 99.142,119.200 97.948 C 121.355 96.658,124.400 94.658,124.400 94.533 C 124.400 94.260,124.062 94.439,121.562 96.041 M275.600 94.533 C 275.600 94.647,276.848 95.476,280.700 97.921 C 281.195 98.235,281.600 98.380,281.600 98.243 C 281.600 97.996,276.170 94.400,275.796 94.400 C 275.688 94.400,275.600 94.460,275.600 94.533 M115.658 99.900 C 104.623 107.766,91.207 120.217,85.997 127.426 C 85.669 127.881,86.466 127.071,87.768 125.626 C 96.128 116.357,106.366 107.019,114.500 101.245 C 117.552 99.079,118.359 98.400,117.881 98.400 C 117.815 98.400,116.815 99.075,115.658 99.900 M282.000 98.567 C 282.000 98.674,282.855 99.323,283.900 100.009 C 285.511 101.067,285.618 101.098,284.600 100.209 C 283.303 99.076,282.000 98.253,282.000 98.567 M286.000 101.352 C 286.000 101.435,287.358 102.525,289.017 103.774 C 292.956 106.739,297.793 110.903,301.900 114.866 C 303.715 116.617,305.200 117.897,305.200 117.711 C 305.200 117.524,303.445 115.739,301.300 113.745 C 294.206 107.149,286.000 100.502,286.000 101.352 M305.606 118.238 C 305.603 118.479,305.982 119.019,306.448 119.438 C 309.534 122.210,317.287 131.766,321.668 138.200 C 326.322 145.034,326.570 145.502,325.962 146.311 C 325.476 146.957,325.489 146.959,326.178 146.330 C 326.886 145.683,326.873 145.594,325.784 143.730 C 322.719 138.482,316.077 129.479,311.376 124.200 C 306.491 118.714,305.611 117.806,305.606 118.238 M83.200 130.697 C 80.416 134.406,80.545 134.793,83.368 131.200 C 84.405 129.880,85.106 128.807,84.927 128.816 C 84.747 128.824,83.970 129.671,83.200 130.697 M79.909 135.300 C 76.620 139.634,69.329 151.463,69.711 151.844 C 69.885 152.018,73.200 146.605,73.200 146.147 C 73.200 145.974,79.276 136.797,80.647 134.900 C 81.665 133.492,81.012 133.846,79.909 135.300 M193.200 147.560 C 192.210 147.692,195.270 147.800,200.000 147.800 C 204.730 147.800,207.700 147.681,206.600 147.535 C 204.170 147.213,195.684 147.229,193.200 147.560 M186.426 148.454 C 185.230 148.652,184.165 148.901,184.059 149.007 C 183.701 149.366,186.187 149.126,188.200 148.609 C 190.518 148.013,189.578 147.931,186.426 148.454 M210.877 148.380 C 211.470 148.566,212.910 148.823,214.077 148.951 C 215.424 149.098,215.834 149.063,215.200 148.855 C 214.650 148.674,213.210 148.417,212.000 148.284 C 210.545 148.124,210.165 148.156,210.877 148.380 M178.800 150.376 C 176.710 150.999,174.190 151.893,173.200 152.363 C 170.985 153.415,171.953 153.207,176.400 151.674 C 178.270 151.029,180.700 150.226,181.800 149.889 C 182.900 149.552,183.530 149.269,183.200 149.260 C 182.870 149.251,180.890 149.754,178.800 150.376 M217.600 149.667 C 219.728 150.332,226.894 152.690,227.800 153.024 C 228.353 153.227,228.477 153.188,228.200 152.898 C 227.722 152.395,219.590 149.744,217.600 149.442 L 216.200 149.229 217.600 149.667 M68.814 153.174 C 68.307 154.121,68.284 154.519,68.752 154.230 C 69.105 154.012,69.655 152.400,69.377 152.400 C 69.295 152.400,69.042 152.748,68.814 153.174 M167.271 154.987 C 165.252 155.969,163.600 156.864,163.600 156.974 C 163.600 157.084,163.915 157.034,164.300 156.863 C 168.591 154.955,171.836 153.200,171.071 153.200 C 171.000 153.200,169.290 154.004,167.271 154.987 M228.800 153.420 C 228.800 153.665,231.393 154.810,231.887 154.783 C 232.253 154.764,229.545 153.242,229.100 153.217 C 228.935 153.208,228.800 153.299,228.800 153.420 M67.836 155.142 C 67.325 155.969,66.835 157.625,67.162 157.424 C 67.359 157.301,67.710 156.661,67.940 156.001 C 68.340 154.854,68.286 154.414,67.836 155.142 M232.976 155.413 C 233.404 155.736,233.944 155.994,234.176 155.987 C 234.409 155.980,234.251 155.710,233.824 155.387 C 233.396 155.064,232.856 154.806,232.624 154.813 C 232.391 154.820,232.549 155.090,232.976 155.413 M235.339 156.478 C 235.745 156.765,237.727 158.080,239.742 159.400 C 247.358 164.388,253.332 169.968,258.585 177.000 C 262.863 182.726,262.939 182.819,262.400 181.695 C 259.698 176.056,249.041 165.056,241.290 159.906 C 238.813 158.260,233.654 155.289,235.339 156.478 M159.790 159.232 C 146.045 168.205,133.149 184.999,129.821 198.259 C 129.338 200.184,129.895 199.137,131.137 195.790 C 136.620 181.001,146.225 168.865,159.600 159.825 C 163.206 157.388,163.457 157.200,163.118 157.200 C 163.000 157.200,161.502 158.115,159.790 159.232 M65.448 160.208 C 63.671 164.089,61.524 169.658,61.727 169.860 C 61.833 169.966,62.147 169.367,62.424 168.527 C 62.700 167.687,63.796 165.033,64.859 162.629 C 65.921 160.224,66.721 158.188,66.636 158.103 C 66.552 158.018,66.017 158.966,65.448 160.208 M60.481 172.690 C 60.023 173.961,59.546 175.540,59.420 176.200 C 59.295 176.860,59.732 175.883,60.392 174.029 C 61.052 172.176,61.530 170.596,61.453 170.520 C 61.377 170.443,60.939 171.420,60.481 172.690 M58.598 178.100 C 58.228 179.148,57.652 182.185,57.796 182.330 C 57.879 182.413,58.150 181.698,58.398 180.740 C 58.645 179.783,58.939 178.685,59.051 178.300 C 59.280 177.509,58.871 177.328,58.598 178.100 M56.831 184.831 C 56.248 187.546,56.562 187.860,57.200 185.200 C 57.470 184.076,57.597 183.064,57.484 182.951 C 57.371 182.838,57.077 183.683,56.831 184.831 M55.866 188.670 C 55.480 190.029,55.107 193.002,55.351 192.769 C 55.666 192.471,56.455 188.322,56.238 188.105 C 56.147 188.014,55.980 188.268,55.866 188.670 M54.692 194.403 C 54.558 194.951,54.356 196.570,54.242 198.000 L 54.035 200.600 54.610 197.400 C 55.156 194.367,55.213 192.268,54.692 194.403 M128.852 201.359 C 128.584 202.425,128.450 203.384,128.556 203.489 C 128.822 203.755,129.682 200.446,129.494 199.881 C 129.409 199.628,129.121 200.293,128.852 201.359 M53.156 204.881 C 52.137 212.676,52.700 242.234,53.846 241.087 C 53.929 241.004,53.730 237.801,53.404 233.968 C 52.650 225.124,52.650 216.876,53.404 208.032 C 54.073 200.166,53.961 198.729,53.156 204.881 M127.606 206.571 C 127.351 207.799,127.211 209.119,127.295 209.502 C 127.379 209.886,127.670 208.964,127.943 207.453 C 128.542 204.143,128.262 203.411,127.606 206.571 M126.581 213.300 C 126.220 216.339,126.308 227.601,126.710 229.758 C 126.869 230.615,127.000 226.700,127.000 221.058 C 127.000 215.416,126.973 210.800,126.939 210.800 C 126.906 210.800,126.745 211.925,126.581 213.300 M127.416 233.904 C 127.533 235.061,127.800 236.411,128.009 236.904 C 128.283 237.548,128.319 237.241,128.136 235.808 C 127.764 232.893,127.149 231.268,127.416 233.904 M128.634 239.600 C 129.050 241.758,129.665 242.927,129.371 241.000 C 129.237 240.120,128.956 239.130,128.746 238.800 C 128.487 238.392,128.452 238.649,128.634 239.600 M54.221 244.093 C 54.331 245.575,54.594 247.195,54.806 247.693 C 55.236 248.708,54.965 245.841,54.362 243.000 C 54.096 241.750,54.066 241.989,54.221 244.093 M129.872 243.800 C 130.003 244.460,130.362 245.450,130.670 246.000 L 131.229 247.000 130.965 246.000 C 130.820 245.450,130.461 244.460,130.167 243.800 L 129.633 242.600 129.872 243.800 M131.226 247.600 C 131.227 247.930,131.499 248.650,131.831 249.200 L 132.433 250.200 132.168 249.200 C 131.784 247.748,131.224 246.797,131.226 247.600 M55.442 251.000 C 55.571 252.100,55.843 253.270,56.046 253.600 C 56.463 254.275,56.096 251.662,55.542 250.000 C 55.322 249.343,55.288 249.686,55.442 251.000 M132.419 250.700 C 132.448 251.162,134.760 255.444,134.781 255.075 C 134.806 254.653,132.795 250.400,132.571 250.400 C 132.477 250.400,132.408 250.535,132.419 250.700 M56.681 256.200 C 56.809 257.080,57.057 258.160,57.232 258.600 L 57.549 259.400 57.544 258.600 C 57.541 258.160,57.293 257.080,56.993 256.200 L 56.448 254.600 56.681 256.200 M136.415 258.600 C 136.417 258.820,136.786 259.450,137.236 260.000 C 137.779 260.664,137.915 260.731,137.640 260.200 C 136.966 258.895,136.412 258.172,136.415 258.600 M57.600 259.823 C 57.600 260.583,58.575 263.868,58.899 264.200 C 59.155 264.462,59.214 264.324,59.069 263.800 C 58.947 263.360,58.650 262.235,58.408 261.300 C 58.035 259.854,57.600 259.060,57.600 259.823 M59.230 265.264 C 59.214 265.630,59.580 266.980,60.045 268.264 C 60.509 269.549,60.964 270.851,61.054 271.157 C 61.145 271.464,61.303 271.630,61.406 271.528 C 61.508 271.425,61.068 269.824,60.426 267.971 C 59.785 266.117,59.247 264.899,59.230 265.264 M143.494 268.600 C 144.393 269.700,145.816 271.230,146.656 272.000 C 147.496 272.770,147.121 272.230,145.823 270.800 C 142.460 267.096,141.601 266.285,143.494 268.600 M254.581 270.500 L 253.000 272.200 254.700 270.619 C 256.281 269.148,256.584 268.800,256.281 268.800 C 256.216 268.800,255.451 269.565,254.581 270.500 M61.878 272.997 C 62.020 273.655,62.930 275.995,63.901 278.197 C 64.872 280.399,65.837 282.630,66.045 283.155 C 66.252 283.681,66.502 284.031,66.599 283.934 C 66.697 283.836,65.780 281.426,64.563 278.578 C 61.530 271.485,61.573 271.574,61.878 272.997 M150.383 275.700 C 152.041 277.466,152.400 277.784,152.400 277.483 C 152.400 277.419,151.545 276.564,150.500 275.583 L 148.600 273.800 150.383 275.700 M249.200 275.800 C 248.228 276.790,247.523 277.600,247.633 277.600 C 247.743 277.600,248.628 276.790,249.600 275.800 C 250.572 274.810,251.277 274.000,251.167 274.000 C 251.057 274.000,250.172 274.810,249.200 275.800 M156.400 280.546 C 156.400 280.656,156.940 281.130,157.600 281.600 C 158.260 282.070,158.800 282.364,158.800 282.254 C 158.800 282.144,158.260 281.670,157.600 281.200 C 156.940 280.730,156.400 280.436,156.400 280.546 M66.800 284.596 C 66.800 284.961,67.995 287.200,68.189 287.200 C 68.478 287.200,67.542 284.811,67.161 284.576 C 66.962 284.453,66.800 284.462,66.800 284.596 M68.400 287.900 C 68.400 288.091,68.661 288.596,68.980 289.024 C 69.540 289.773,69.552 289.768,69.332 288.894 C 69.104 287.991,68.400 287.240,68.400 287.900 M225.400 290.214 C 224.395 290.698,224.363 290.753,225.200 290.551 C 225.750 290.419,226.371 290.150,226.580 289.955 C 227.098 289.471,226.814 289.533,225.400 290.214 M69.613 290.238 C 69.606 290.479,70.067 291.199,70.638 291.838 C 71.250 292.523,71.509 292.671,71.268 292.200 C 70.622 290.937,69.627 289.757,69.613 290.238 M182.400 292.782 C 182.730 293.005,183.345 293.191,183.767 293.194 C 184.790 293.202,184.471 292.973,183.000 292.644 C 182.124 292.448,181.962 292.485,182.400 292.782 M189.905 294.283 C 190.402 294.379,191.122 294.375,191.505 294.275 C 191.887 294.175,191.480 294.096,190.600 294.101 C 189.720 294.105,189.407 294.187,189.905 294.283 M208.705 294.283 C 209.202 294.379,209.922 294.375,210.305 294.275 C 210.687 294.175,210.280 294.096,209.400 294.101 C 208.520 294.105,208.207 294.187,208.705 294.283 M193.100 294.682 C 193.595 294.778,194.405 294.778,194.900 294.682 C 195.395 294.587,194.990 294.509,194.000 294.509 C 193.010 294.509,192.605 294.587,193.100 294.682 M205.100 294.682 C 205.595 294.778,206.405 294.778,206.900 294.682 C 207.395 294.587,206.990 294.509,206.000 294.509 C 205.010 294.509,204.605 294.587,205.100 294.682 M312.175 316.100 L 311.000 317.400 312.300 316.225 C 313.015 315.579,313.600 314.994,313.600 314.925 C 313.600 314.616,313.270 314.888,312.175 316.100 M89.200 318.125 C 89.200 318.194,89.785 318.779,90.500 319.425 L 91.800 320.600 90.625 319.300 C 89.530 318.088,89.200 317.816,89.200 318.125 M309.375 319.300 L 308.200 320.600 309.500 319.425 C 310.215 318.779,310.800 318.194,310.800 318.125 C 310.800 317.816,310.470 318.088,309.375 319.300 M304.000 325.000 C 302.361 326.650,301.110 328.000,301.220 328.000 C 301.330 328.000,302.761 326.650,304.400 325.000 C 306.039 323.350,307.290 322.000,307.180 322.000 C 307.070 322.000,305.639 323.350,304.000 325.000 M95.583 324.900 C 96.564 325.945,97.419 326.800,97.483 326.800 C 97.784 326.800,97.466 326.441,95.700 324.783 L 93.800 323.000 95.583 324.900 M100.783 329.700 C 102.441 331.466,102.800 331.784,102.800 331.483 C 102.800 331.419,101.945 330.564,100.900 329.583 L 99.000 327.800 100.783 329.700 M297.978 330.700 L 296.600 332.200 298.100 330.822 C 298.925 330.063,299.600 329.388,299.600 329.322 C 299.600 329.016,299.262 329.304,297.978 330.700 M103.600 332.125 C 103.600 332.194,104.185 332.779,104.900 333.425 L 106.200 334.600 105.025 333.300 C 103.930 332.088,103.600 331.816,103.600 332.125 M288.000 338.849 C 286.606 340.071,286.605 340.072,287.888 339.219 C 288.596 338.748,289.282 338.191,289.412 337.981 C 289.797 337.357,289.477 337.554,288.000 338.849 M164.600 364.000 C 165.040 364.189,165.760 364.338,166.200 364.332 C 166.843 364.323,166.804 364.257,166.000 364.000 C 164.632 363.562,163.581 363.562,164.600 364.000 M232.800 364.418 C 232.362 364.715,232.524 364.752,233.400 364.556 C 234.871 364.227,235.190 363.998,234.167 364.006 C 233.745 364.009,233.130 364.195,232.800 364.418 M227.200 365.606 C 226.778 365.882,227.015 365.923,228.000 365.742 C 229.725 365.425,230.051 365.198,228.767 365.206 C 228.235 365.209,227.530 365.389,227.200 365.606 M177.700 366.676 C 178.085 366.776,178.715 366.776,179.100 366.676 C 179.485 366.575,179.170 366.493,178.400 366.493 C 177.630 366.493,177.315 366.575,177.700 366.676 M220.900 366.676 C 221.285 366.776,221.915 366.776,222.300 366.676 C 222.685 366.575,222.370 366.493,221.600 366.493 C 220.830 366.493,220.515 366.575,220.900 366.676 M189.300 367.887 C 189.905 367.978,190.895 367.978,191.500 367.887 C 192.105 367.795,191.610 367.720,190.400 367.720 C 189.190 367.720,188.695 367.795,189.300 367.887 M208.500 367.887 C 209.105 367.978,210.095 367.978,210.700 367.887 C 211.305 367.795,210.810 367.720,209.600 367.720 C 208.390 367.720,207.895 367.795,208.500 367.887 M196.480 368.298 C 198.394 368.371,201.634 368.371,203.680 368.298 C 205.726 368.226,204.160 368.166,200.200 368.165 C 196.240 368.165,194.566 368.224,196.480 368.298 " stroke="none" fill="#9bbddc" fill-rule="evenodd"></path><path id="path4" d="M195.000 0.400 C 195.314 0.907,196.815 0.907,197.600 0.400 C 198.039 0.116,197.737 0.011,196.476 0.006 C 195.428 0.002,194.850 0.157,195.000 0.400 M201.600 0.361 C 201.930 0.546,203.368 0.824,204.796 0.979 C 206.224 1.135,207.574 1.412,207.796 1.597 C 208.018 1.781,208.344 1.930,208.519 1.928 C 209.039 1.922,213.374 4.157,213.694 4.596 C 213.856 4.818,213.991 4.869,213.994 4.709 C 213.997 4.549,214.845 4.954,215.878 5.609 C 216.911 6.264,217.991 6.800,218.278 6.800 C 218.565 6.800,218.800 6.980,218.800 7.200 C 218.800 7.420,218.994 7.600,219.230 7.600 C 219.467 7.600,220.952 8.354,222.530 9.276 C 224.109 10.198,225.413 10.873,225.429 10.776 C 225.444 10.679,225.772 10.915,226.157 11.300 C 226.542 11.685,227.114 12.000,227.429 12.000 C 227.743 12.000,228.000 12.210,228.000 12.467 C 228.000 12.723,228.115 12.819,228.255 12.678 C 228.395 12.538,229.025 12.791,229.655 13.239 C 230.285 13.688,230.800 13.939,230.800 13.799 C 230.800 13.658,231.083 13.826,231.429 14.171 C 231.774 14.517,232.314 14.800,232.629 14.800 C 232.943 14.800,233.200 14.941,233.200 15.112 C 233.200 15.372,234.017 15.772,235.911 16.441 C 236.070 16.497,236.438 16.781,236.729 17.071 C 237.019 17.362,237.514 17.600,237.829 17.600 C 238.143 17.600,238.400 17.766,238.400 17.968 C 238.400 18.171,238.940 18.455,239.600 18.600 C 240.260 18.745,240.800 19.040,240.800 19.255 C 240.800 19.471,240.947 19.556,241.127 19.445 C 241.307 19.334,241.700 19.584,242.000 20.000 C 242.300 20.416,242.713 20.654,242.918 20.527 C 243.122 20.401,243.404 20.456,243.545 20.649 C 244.012 21.291,246.400 22.374,246.400 21.944 C 246.400 21.714,246.040 21.431,245.600 21.316 C 245.160 21.201,244.800 20.962,244.800 20.785 C 244.800 20.608,244.260 20.345,243.600 20.200 C 242.940 20.055,242.400 19.812,242.400 19.660 C 242.400 19.508,241.545 18.937,240.500 18.392 C 239.455 17.846,238.540 17.264,238.466 17.098 C 238.392 16.931,238.187 16.884,238.011 16.993 C 237.835 17.102,237.468 16.923,237.196 16.596 C 236.924 16.268,236.353 16.000,235.927 16.000 C 235.501 16.000,235.255 15.835,235.380 15.633 C 235.505 15.430,235.065 15.146,234.403 15.001 C 233.742 14.855,233.200 14.592,233.200 14.415 C 233.200 14.238,232.885 13.980,232.500 13.842 C 232.115 13.705,230.540 12.869,229.000 11.985 C 227.460 11.101,225.705 10.163,225.100 9.901 C 224.495 9.639,224.000 9.284,224.000 9.112 C 224.000 8.941,223.754 8.800,223.454 8.800 C 223.154 8.800,222.479 8.465,221.954 8.055 C 221.429 7.645,220.558 7.172,220.019 7.002 C 219.479 6.833,218.791 6.448,218.490 6.147 C 218.189 5.846,217.686 5.600,217.371 5.600 C 217.057 5.600,216.800 5.432,216.800 5.227 C 216.800 5.022,216.416 4.732,215.946 4.583 C 215.477 4.434,214.052 3.702,212.779 2.956 C 211.507 2.210,210.181 1.600,209.833 1.600 C 209.485 1.600,209.200 1.446,209.200 1.259 C 209.200 0.874,204.345 -0.006,202.323 0.012 C 201.394 0.021,201.179 0.125,201.600 0.361 M246.800 22.229 C 246.800 22.720,247.833 23.456,248.304 23.299 C 248.577 23.208,248.800 23.328,248.800 23.567 C 248.800 23.805,249.070 24.000,249.400 24.000 C 249.730 24.000,250.000 24.210,250.000 24.467 C 250.000 24.723,250.111 24.822,250.248 24.686 C 250.384 24.550,250.757 24.700,251.076 25.019 C 251.855 25.798,252.653 25.787,252.005 25.006 C 251.734 24.680,250.677 24.005,249.656 23.506 C 248.635 23.008,247.740 22.465,247.667 22.300 C 247.511 21.950,246.800 21.892,246.800 22.229 M252.800 26.043 C 252.800 26.286,253.070 26.382,253.400 26.255 C 253.730 26.129,254.000 26.199,254.000 26.413 C 254.000 26.626,254.270 26.800,254.600 26.800 C 254.930 26.800,255.200 26.974,255.200 27.187 C 255.200 27.401,255.447 27.480,255.748 27.364 C 256.050 27.249,256.404 27.434,256.536 27.777 C 256.667 28.120,257.036 28.400,257.354 28.400 C 257.673 28.400,258.024 28.625,258.135 28.900 C 258.264 29.220,258.348 29.236,258.368 28.946 C 258.402 28.463,257.081 27.485,254.815 26.315 C 253.209 25.486,252.800 25.430,252.800 26.043 M260.254 29.798 C 260.381 30.126,260.633 30.303,260.815 30.191 C 260.996 30.079,261.399 30.348,261.709 30.791 C 262.018 31.233,262.388 31.478,262.531 31.336 C 262.673 31.194,262.217 30.655,261.517 30.139 C 260.018 29.033,259.954 29.016,260.254 29.798 M274.624 37.787 C 275.051 38.110,275.580 38.375,275.800 38.375 C 276.020 38.375,275.851 38.110,275.424 37.787 C 274.996 37.464,274.467 37.200,274.247 37.200 C 274.027 37.200,274.196 37.464,274.624 37.787 M392.054 103.784 C 392.413 104.233,393.060 105.299,393.490 106.154 C 394.087 107.340,394.332 107.553,394.524 107.053 C 394.694 106.612,394.224 105.837,393.088 104.683 C 392.160 103.740,391.694 103.335,392.054 103.784 M5.578 105.425 C 4.820 106.208,4.470 106.736,4.800 106.597 C 5.352 106.365,7.455 104.000,7.109 104.000 C 7.025 104.000,6.337 104.641,5.578 105.425 M390.600 109.072 C 389.280 109.864,387.480 110.903,386.600 111.380 C 385.720 111.856,384.239 112.731,383.308 113.323 C 382.377 113.915,381.509 114.400,381.378 114.400 C 380.913 114.400,375.577 117.710,375.754 117.888 C 375.854 117.987,378.065 116.825,380.668 115.306 C 383.270 113.786,387.245 111.511,389.500 110.249 C 391.755 108.987,393.600 107.875,393.600 107.777 C 393.600 107.389,392.896 107.692,390.600 109.072 M0.038 118.200 C 0.049 119.599,0.098 119.683,0.426 118.865 C 0.662 118.275,0.657 117.684,0.412 117.265 C 0.116 116.758,0.027 116.980,0.038 118.200 M373.000 119.208 C 371.900 119.858,370.550 120.611,370.000 120.882 C 369.068 121.341,361.439 125.695,359.200 127.046 C 358.650 127.378,357.885 127.749,357.500 127.871 C 357.115 127.993,356.800 128.262,356.800 128.468 C 356.800 128.673,357.790 128.292,359.000 127.621 C 360.210 126.949,362.208 125.841,363.440 125.157 C 364.672 124.474,367.476 122.854,369.672 121.557 C 371.868 120.261,373.808 119.200,373.984 119.200 C 374.159 119.200,374.526 118.930,374.800 118.600 C 375.475 117.787,375.312 117.842,373.000 119.208 M351.468 131.418 C 349.086 132.838,347.046 134.000,346.936 134.000 C 346.826 134.000,344.186 135.501,341.068 137.334 C 337.951 139.168,335.130 140.789,334.800 140.936 C 333.937 141.320,330.281 143.413,328.405 144.597 C 327.522 145.154,326.803 145.833,326.806 146.105 C 326.810 146.446,326.904 146.464,327.106 146.163 C 327.376 145.761,332.379 142.745,336.864 140.280 C 337.890 139.717,341.130 137.868,344.064 136.171 C 346.999 134.475,350.030 132.735,350.800 132.305 C 354.984 129.967,356.400 129.124,356.400 128.971 C 356.400 128.563,355.550 128.984,351.468 131.418 M260.691 183.200 C 260.131 183.640,259.554 184.000,259.407 184.000 C 258.925 184.000,253.569 187.302,253.753 187.486 C 253.852 187.585,255.673 186.641,257.801 185.389 C 259.929 184.137,262.149 182.967,262.735 182.790 L 263.800 182.469 262.754 182.434 C 262.179 182.415,261.250 182.760,260.691 183.200 M251.000 188.755 C 249.900 189.376,248.280 190.289,247.400 190.785 C 246.520 191.280,244.145 192.656,242.122 193.843 C 240.099 195.029,238.254 196.000,238.022 196.000 C 237.790 196.000,237.600 196.190,237.600 196.422 C 237.600 196.654,238.815 196.179,240.300 195.367 C 244.468 193.087,253.200 187.937,253.200 187.759 C 253.200 187.518,253.147 187.542,251.000 188.755 M235.800 197.278 C 235.360 197.527,234.910 197.841,234.800 197.974 C 234.690 198.107,234.150 198.434,233.600 198.701 C 233.050 198.968,231.520 199.818,230.200 200.590 C 228.880 201.363,227.440 202.176,227.000 202.396 C 226.560 202.617,225.930 202.970,225.600 203.180 C 224.010 204.190,213.922 210.000,213.757 210.000 C 213.653 210.000,211.010 211.490,207.884 213.310 C 204.758 215.131,201.345 217.066,200.300 217.610 C 199.255 218.154,198.400 218.749,198.400 218.932 C 198.400 219.115,198.985 218.908,199.700 218.472 C 200.415 218.036,201.990 217.145,203.200 216.493 C 204.410 215.840,210.350 212.466,216.400 208.994 C 222.450 205.522,228.210 202.232,229.200 201.683 C 233.550 199.270,237.200 197.117,237.200 196.965 C 237.200 196.680,236.630 196.807,235.800 197.278 M193.800 221.395 C 191.820 222.588,189.975 223.572,189.700 223.582 C 189.425 223.592,189.200 223.797,189.200 224.038 C 189.200 224.279,189.965 224.035,190.900 223.497 C 191.835 222.958,193.815 221.846,195.300 221.024 C 197.830 219.625,198.418 219.181,197.700 219.213 C 197.535 219.221,195.780 220.203,193.800 221.395 M184.082 226.865 C 181.817 228.203,180.039 229.373,180.131 229.465 C 180.292 229.626,187.795 225.424,188.580 224.734 C 189.647 223.796,187.785 224.678,184.082 226.865 M178.656 229.910 C 178.550 230.080,177.280 230.833,175.832 231.583 C 174.384 232.333,173.200 233.109,173.200 233.306 C 173.200 233.504,173.785 233.314,174.500 232.885 C 175.215 232.456,176.655 231.615,177.700 231.015 C 178.745 230.415,179.600 229.851,179.600 229.762 C 179.600 229.474,178.853 229.591,178.656 229.910 M169.317 235.334 C 167.731 236.269,166.291 237.186,166.117 237.374 C 165.734 237.785,172.039 234.444,172.580 233.948 C 173.482 233.122,172.011 233.747,169.317 235.334 M164.385 238.135 C 162.155 239.299,154.800 243.685,154.800 243.851 C 154.800 244.093,155.858 243.532,161.100 240.513 C 163.575 239.087,165.600 237.848,165.600 237.760 C 165.600 237.523,165.495 237.555,164.385 238.135 M153.613 244.294 C 153.290 244.421,150.637 245.924,147.717 247.634 C 144.798 249.344,142.047 250.858,141.605 250.999 C 141.162 251.139,140.800 251.431,140.800 251.648 C 140.800 251.865,141.745 251.523,142.900 250.889 C 146.847 248.723,154.400 244.295,154.400 244.147 C 154.400 243.982,154.415 243.979,153.613 244.294 M137.800 253.253 C 134.869 255.067,134.626 255.534,137.400 254.021 C 139.938 252.637,140.824 251.995,140.180 252.008 C 139.971 252.012,138.900 252.572,137.800 253.253 M68.500 292.698 C 67.785 293.054,67.200 293.499,67.200 293.687 C 67.200 293.874,67.605 293.810,68.100 293.542 C 68.595 293.275,69.450 292.820,70.000 292.531 C 71.443 291.772,70.049 291.927,68.500 292.698 M62.600 296.195 C 60.620 297.388,58.775 298.372,58.500 298.382 C 58.225 298.392,58.000 298.590,58.000 298.822 C 58.000 299.205,60.611 297.914,65.100 295.310 C 66.733 294.363,67.141 293.985,66.500 294.013 C 66.335 294.021,64.580 295.003,62.600 296.195 M193.300 294.276 C 193.685 294.376,194.315 294.376,194.700 294.276 C 195.085 294.175,194.770 294.093,194.000 294.093 C 193.230 294.093,192.915 294.175,193.300 294.276 M205.300 294.276 C 205.685 294.376,206.315 294.376,206.700 294.276 C 207.085 294.175,206.770 294.093,206.000 294.093 C 205.230 294.093,204.915 294.175,205.300 294.276 M198.700 294.689 C 199.415 294.778,200.585 294.778,201.300 294.689 C 202.015 294.601,201.430 294.528,200.000 294.528 C 198.570 294.528,197.985 294.601,198.700 294.689 M55.891 300.000 C 55.331 300.440,54.754 300.800,54.607 300.800 C 54.132 300.800,48.768 304.101,48.949 304.282 C 49.128 304.462,57.600 299.638,57.600 299.356 C 57.600 298.973,56.825 299.265,55.891 300.000 M46.000 305.645 C 43.487 307.039,38.469 309.929,36.400 311.174 C 35.630 311.637,34.505 312.232,33.900 312.496 C 33.295 312.760,32.800 313.129,32.800 313.317 C 32.800 313.505,33.835 313.077,35.100 312.365 C 44.537 307.057,49.091 304.314,48.300 304.413 C 48.245 304.419,47.210 304.974,46.000 305.645 M27.400 316.256 C 24.980 317.704,22.730 318.991,22.400 319.117 C 22.070 319.242,19.876 320.482,17.525 321.873 C 15.174 323.263,13.157 324.400,13.043 324.400 C 12.808 324.400,9.933 326.317,9.610 326.688 C 9.226 327.131,31.505 314.548,32.180 313.942 C 33.265 312.966,31.347 313.895,27.400 316.256 M0.000 321.714 C 0.000 324.034,0.747 327.600,1.233 327.600 C 1.435 327.600,1.606 327.825,1.613 328.100 C 1.627 328.609,2.963 330.400,3.329 330.400 C 3.800 330.400,9.223 327.089,9.044 326.910 C 8.936 326.802,7.757 327.375,6.426 328.184 C 2.830 330.368,1.527 329.204,0.764 323.124 C 0.341 319.756,0.000 319.126,0.000 321.714 M184.700 367.882 C 185.195 367.978,186.005 367.978,186.500 367.882 C 186.995 367.787,186.590 367.709,185.600 367.709 C 184.610 367.709,184.205 367.787,184.700 367.882 M213.500 367.882 C 213.995 367.978,214.805 367.978,215.300 367.882 C 215.795 367.787,215.390 367.709,214.400 367.709 C 213.410 367.709,213.005 367.787,213.500 367.882 M189.700 368.276 C 190.085 368.376,190.715 368.376,191.100 368.276 C 191.485 368.175,191.170 368.093,190.400 368.093 C 189.630 368.093,189.315 368.175,189.700 368.276 M208.900 368.276 C 209.285 368.376,209.915 368.376,210.300 368.276 C 210.685 368.175,210.370 368.093,209.600 368.093 C 208.830 368.093,208.515 368.175,208.900 368.276 " stroke="none" fill="#528cc7" fill-rule="evenodd"></path></g></svg>