<svg id="svg" version="1.1" xmlns="http://www.w3.org/2000/svg" xmlns:xlink="http://www.w3.org/1999/xlink" width="400" height="449.615806805708" viewBox="0, 0, 400,449.615806805708"><g id="svgg"><path id="path0" d="M194.402 0.251 C 192.276 0.521,188.833 1.373,186.608 2.180 C 184.602 2.907,182.691 3.950,171.899 10.212 C 170.269 11.158,167.700 12.640,166.191 13.505 C 163.587 14.999,161.526 16.189,151.811 21.812 C 147.667 24.211,144.446 26.068,139.188 29.090 C 137.678 29.958,135.110 31.441,133.480 32.386 C 131.850 33.331,129.627 34.615,128.540 35.239 C 127.453 35.863,125.231 37.148,123.600 38.093 C 121.970 39.039,119.402 40.521,117.892 41.386 C 115.288 42.880,113.227 44.070,103.513 49.694 C 99.220 52.178,95.827 54.135,90.946 56.939 C 89.405 57.825,86.811 59.322,85.181 60.267 C 83.551 61.212,81.328 62.496,80.241 63.120 C 79.155 63.744,76.932 65.029,75.302 65.975 C 73.672 66.920,71.103 68.402,69.594 69.268 C 66.989 70.761,64.929 71.952,55.214 77.575 C 50.767 80.149,47.303 82.146,42.700 84.791 C 41.131 85.692,38.513 87.203,36.883 88.149 C 35.252 89.094,33.030 90.377,31.943 91.002 C 30.856 91.626,28.633 92.910,27.003 93.854 C 25.373 94.799,22.409 96.507,20.417 97.649 C 9.563 103.872,3.612 111.589,0.596 123.350 L 0.110 125.247 0.110 224.918 C 0.110 336.081,-0.044 324.980,1.568 329.967 C 2.299 332.226,4.708 337.431,5.023 337.431 C 5.130 337.431,20.468 328.629,39.107 317.870 C 57.746 307.110,75.587 296.815,78.754 294.990 C 84.228 291.836,84.497 291.651,84.221 291.226 C 80.219 285.060,74.272 270.838,71.466 260.725 C 54.465 199.435,83.193 134.618,140.066 105.947 C 201.568 74.943,276.502 95.953,313.210 154.493 C 314.481 156.520,315.628 158.147,315.759 158.109 C 316.057 158.024,394.298 112.874,394.680 112.567 C 395.992 111.513,386.984 101.770,382.355 99.235 C 381.645 98.847,380.559 98.230,379.940 97.864 C 378.867 97.230,376.671 95.960,367.508 90.674 C 365.274 89.385,361.767 87.361,359.715 86.175 C 357.662 84.989,354.748 83.306,353.238 82.436 C 351.729 81.565,349.555 80.309,348.408 79.645 C 347.261 78.980,343.952 77.074,341.054 75.407 C 338.156 73.741,335.416 72.147,334.966 71.864 C 334.516 71.581,334.104 71.350,334.051 71.350 C 333.998 71.350,333.181 70.892,332.235 70.333 C 331.290 69.773,328.886 68.375,326.894 67.225 C 324.901 66.076,321.443 64.081,319.210 62.793 C 316.976 61.504,313.469 59.479,311.416 58.294 C 309.363 57.108,306.449 55.425,304.940 54.554 C 303.430 53.683,301.257 52.427,300.110 51.763 C 298.963 51.099,295.653 49.192,292.755 47.526 C 289.857 45.860,287.118 44.265,286.667 43.983 C 286.217 43.700,285.805 43.469,285.752 43.469 C 285.700 43.469,284.883 43.011,283.937 42.451 C 282.991 41.892,280.587 40.493,278.595 39.344 C 276.603 38.195,273.145 36.200,270.911 34.911 C 268.677 33.623,265.170 31.598,263.117 30.412 C 261.065 29.226,258.150 27.544,256.641 26.673 C 255.132 25.802,252.958 24.546,251.811 23.882 C 250.664 23.217,247.355 21.311,244.457 19.645 C 241.559 17.978,238.819 16.384,238.369 16.101 C 237.918 15.819,237.507 15.587,237.454 15.587 C 237.401 15.587,236.584 15.129,235.638 14.570 C 225.162 8.372,215.310 2.875,213.510 2.223 C 208.055 0.250,200.524 -0.528,194.402 0.251 M194.512 158.658 C 152.997 161.761,124.344 203.520,136.113 243.768 C 137.410 248.204,140.781 256.131,142.090 257.825 C 142.395 258.220,143.916 257.372,172.468 240.892 C 188.999 231.350,214.874 216.415,229.967 207.704 C 245.060 198.993,257.440 191.777,257.477 191.669 C 257.514 191.561,257.047 190.680,256.440 189.711 C 243.310 168.760,219.445 156.794,194.512 158.658 M388.902 225.027 C 388.902 229.072,388.932 230.727,388.968 228.705 C 389.004 226.682,389.004 223.373,388.968 221.350 C 388.932 219.328,388.902 220.982,388.902 225.027 " stroke="none" fill="#649cd3" fill-rule="evenodd"></path><path id="path1" d="M192.019 91.986 C 112.623 97.211,55.388 169.247,68.607 247.311 C 80.611 318.205,147.417 367.056,218.551 356.956 C 253.162 352.042,284.679 333.604,305.963 305.818 C 309.326 301.426,315.270 292.473,315.254 291.822 C 315.242 291.364,257.843 258.440,257.629 258.768 C 257.508 258.953,256.662 260.254,255.748 261.659 C 238.150 288.722,202.726 299.184,173.106 286.067 C 133.067 268.335,120.608 217.287,148.028 183.315 C 176.570 147.953,231.166 150.702,255.926 188.747 L 257.818 191.654 258.492 191.263 C 258.862 191.047,271.786 183.569,287.212 174.645 C 302.637 165.722,315.258 158.316,315.258 158.189 C 315.257 157.863,311.553 151.993,309.330 148.797 C 283.146 111.143,237.417 88.998,192.019 91.986 M303.790 210.263 L 303.732 217.673 296.323 217.731 L 288.913 217.788 288.913 225.027 L 288.913 232.266 296.323 232.324 L 303.732 232.382 303.790 239.791 L 303.848 247.201 311.199 247.201 L 318.551 247.201 318.551 239.737 L 318.551 232.272 325.906 232.272 L 333.260 232.272 333.260 225.027 L 333.260 217.783 325.906 217.783 L 318.551 217.783 318.551 210.318 L 318.551 202.854 311.199 202.854 L 303.848 202.854 303.790 210.263 M359.333 210.263 L 359.276 217.673 351.866 217.731 L 344.457 217.788 344.457 225.027 L 344.457 232.266 351.866 232.324 L 359.276 232.382 359.333 239.791 L 359.391 247.201 366.743 247.201 L 374.094 247.201 374.094 239.737 L 374.094 232.272 381.449 232.272 L 388.804 232.272 388.804 225.027 L 388.804 217.783 381.449 217.783 L 374.094 217.783 374.094 210.318 L 374.094 202.854 366.743 202.854 L 359.391 202.854 359.333 210.263 " stroke="none" fill="#fbfbfb" fill-rule="evenodd"></path><path id="path2" d="M394.512 112.852 C 394.210 113.068,387.146 117.171,378.814 121.970 C 364.954 129.955,308.828 162.352,272.338 183.432 C 258.254 191.569,239.176 202.567,171.250 241.712 C 155.430 250.829,142.486 258.375,142.484 258.483 C 142.465 259.632,148.933 267.969,152.996 272.032 C 183.214 302.250,234.165 296.480,256.464 260.315 L 257.786 258.171 258.476 258.591 C 258.855 258.822,267.662 263.927,278.046 269.935 C 304.526 285.256,309.954 288.398,312.898 290.108 C 314.317 290.932,315.477 291.672,315.477 291.753 C 315.477 291.834,314.756 293.080,313.873 294.523 C 287.136 338.238,237.266 362.961,186.389 357.725 C 144.868 353.451,107.886 330.015,85.857 294.018 C 84.976 292.578,84.389 291.824,84.227 291.924 C 84.088 292.011,66.290 302.290,44.676 314.768 C 23.063 327.245,5.301 337.532,5.206 337.626 C 4.431 338.400,11.257 346.360,15.148 349.220 C 16.367 350.115,181.857 445.704,184.303 446.925 C 188.788 449.164,191.376 449.606,200.000 449.606 C 208.692 449.606,211.214 449.168,215.828 446.857 C 218.976 445.280,383.744 350.037,385.199 348.953 C 388.806 346.266,395.553 338.361,394.987 337.485 C 394.946 337.422,395.008 337.310,395.124 337.236 C 395.896 336.744,398.618 330.002,399.484 326.438 C 400.047 324.119,400.240 128.349,399.682 125.026 C 399.361 123.112,398.440 119.702,398.096 119.150 C 398.003 119.002,397.899 118.698,397.864 118.476 C 397.763 117.826,395.554 113.282,395.339 113.282 C 395.232 113.282,395.193 113.203,395.252 113.107 C 395.533 112.654,395.031 112.481,394.512 112.852 M318.551 210.099 L 318.551 217.563 326.015 217.563 L 333.480 217.563 333.480 225.027 L 333.480 232.492 326.015 232.492 L 318.551 232.492 318.551 239.956 L 318.551 247.420 311.087 247.420 L 303.622 247.420 303.622 239.956 L 303.622 232.492 296.158 232.492 L 288.694 232.492 288.694 225.027 L 288.694 217.563 296.158 217.563 L 303.622 217.563 303.622 210.099 L 303.622 202.634 311.087 202.634 L 318.551 202.634 318.551 210.099 M374.094 210.099 L 374.094 217.563 381.559 217.563 L 389.023 217.563 389.023 225.027 L 389.023 232.492 381.559 232.492 L 374.094 232.492 374.094 239.956 L 374.094 247.420 366.630 247.420 L 359.166 247.420 359.166 239.956 L 359.166 232.492 351.701 232.492 L 344.237 232.492 344.237 225.027 L 344.237 217.563 351.701 217.563 L 359.166 217.563 359.166 210.099 L 359.166 202.634 366.630 202.634 L 374.094 202.634 374.094 210.099 " stroke="none" fill="#044d8d" fill-rule="evenodd"></path><path id="path3" d="M199.616 91.705 C 199.948 91.755,200.491 91.755,200.823 91.705 C 201.155 91.655,200.884 91.614,200.220 91.614 C 199.555 91.614,199.284 91.655,199.616 91.705 M294.393 130.900 C 295.302 131.869,295.499 132.044,295.499 131.879 C 295.499 131.844,295.030 131.374,294.457 130.836 L 293.414 129.857 294.393 130.900 M247.201 178.156 C 247.857 178.820,248.443 179.363,248.503 179.363 C 248.563 179.363,248.076 178.820,247.420 178.156 C 246.765 177.492,246.179 176.948,246.118 176.948 C 246.058 176.948,246.545 177.492,247.201 178.156 M152.676 178.101 L 152.031 178.814 152.744 178.170 C 153.137 177.815,153.458 177.494,153.458 177.456 C 153.458 177.287,153.277 177.436,152.676 178.101 M303.721 210.209 C 303.721 214.314,303.751 215.962,303.787 213.872 C 303.823 211.781,303.823 208.422,303.787 206.407 C 303.750 204.393,303.721 206.103,303.721 210.209 M359.264 210.209 C 359.264 214.314,359.294 215.962,359.330 213.872 C 359.366 211.781,359.366 208.422,359.330 206.407 C 359.294 204.393,359.264 206.103,359.264 210.209 M66.608 225.027 C 66.608 226.778,66.642 227.495,66.683 226.619 C 66.725 225.744,66.725 224.311,66.683 223.436 C 66.642 222.560,66.608 223.277,66.608 225.027 M133.330 225.027 C 133.330 225.812,133.370 226.133,133.419 225.741 C 133.468 225.349,133.468 224.706,133.419 224.314 C 133.370 223.922,133.330 224.243,133.330 225.027 M303.721 239.846 C 303.721 243.952,303.751 245.600,303.787 243.510 C 303.823 241.419,303.823 238.060,303.787 236.045 C 303.750 234.030,303.721 235.741,303.721 239.846 M359.264 239.846 C 359.264 243.952,359.294 245.600,359.330 243.510 C 359.366 241.419,359.366 238.060,359.330 236.045 C 359.294 234.030,359.264 235.741,359.264 239.846 " stroke="none" fill="#99bcdb" fill-rule="evenodd"></path><path id="path4" d="M307.395 247.365 C 309.410 247.401,312.769 247.401,314.860 247.365 C 316.950 247.329,315.302 247.300,311.196 247.299 C 307.091 247.299,305.381 247.329,307.395 247.365 M362.939 247.365 C 364.954 247.401,368.312 247.401,370.403 247.365 C 372.494 247.329,370.845 247.300,366.740 247.299 C 362.634 247.299,360.924 247.329,362.939 247.365 " stroke="none" fill="#4586b5" fill-rule="evenodd"></path><path id="path5" d="M333.359 225.027 C 333.359 229.072,333.388 230.727,333.424 228.705 C 333.461 226.682,333.461 223.373,333.424 221.350 C 333.388 219.328,333.359 220.982,333.359 225.027 " stroke="none" fill="#4d8cc5" fill-rule="evenodd"></path><path id="path6" d="M288.792 225.027 C 288.792 229.193,288.822 230.897,288.858 228.814 C 288.894 226.732,288.894 223.323,288.858 221.240 C 288.822 219.158,288.792 220.862,288.792 225.027 M344.336 225.027 C 344.336 229.193,344.365 230.897,344.401 228.814 C 344.437 226.732,344.437 223.323,344.401 221.240 C 344.365 219.158,344.336 220.862,344.336 225.027 " stroke="none" fill="#1368a8" fill-rule="evenodd"></path><path id="path7" d="M193.581 91.923 C 193.854 91.975,194.249 91.973,194.459 91.918 C 194.669 91.863,194.446 91.820,193.963 91.823 C 193.480 91.825,193.308 91.870,193.581 91.923 M205.656 91.923 C 205.929 91.975,206.324 91.973,206.534 91.918 C 206.744 91.863,206.520 91.820,206.037 91.823 C 205.554 91.825,205.383 91.870,205.656 91.923 M108.001 128.595 L 107.245 129.418 108.068 128.662 C 108.834 127.957,108.992 127.772,108.825 127.772 C 108.788 127.772,108.417 128.142,108.001 128.595 M103.391 133.205 L 102.634 134.029 103.458 133.272 C 104.224 132.568,104.382 132.382,104.214 132.382 C 104.178 132.382,103.807 132.752,103.391 133.205 M197.750 158.446 C 198.142 158.495,198.784 158.495,199.177 158.446 C 199.569 158.398,199.248 158.358,198.463 158.358 C 197.678 158.358,197.357 158.398,197.750 158.446 M200.827 158.447 C 201.222 158.496,201.815 158.495,202.144 158.444 C 202.474 158.394,202.151 158.354,201.427 158.356 C 200.703 158.357,200.433 158.398,200.827 158.447 M154.105 176.674 L 153.348 177.497 154.171 176.741 C 154.938 176.036,155.095 175.851,154.928 175.851 C 154.891 175.851,154.521 176.221,154.105 176.674 M151.358 179.418 L 150.714 180.132 151.427 179.487 C 151.819 179.132,152.141 178.811,152.141 178.773 C 152.141 178.604,151.959 178.753,151.358 179.418 M292.467 217.727 C 294.482 217.764,297.840 217.764,299.931 217.727 C 302.022 217.691,300.373 217.662,296.268 217.662 C 292.162 217.662,290.452 217.691,292.467 217.727 M322.104 217.727 C 324.119 217.764,327.478 217.764,329.569 217.727 C 331.659 217.691,330.011 217.662,325.906 217.662 C 321.800 217.662,320.090 217.691,322.104 217.727 M348.010 217.727 C 350.025 217.764,353.384 217.764,355.474 217.727 C 357.565 217.691,355.917 217.662,351.811 217.662 C 347.706 217.662,345.995 217.691,348.010 217.727 M377.648 217.727 C 379.663 217.764,383.022 217.764,385.112 217.727 C 387.203 217.691,385.554 217.662,381.449 217.662 C 377.344 217.662,375.633 217.691,377.648 217.727 M66.791 218.441 C 66.791 218.864,66.836 219.037,66.891 218.825 C 66.946 218.614,66.946 218.268,66.891 218.057 C 66.836 217.846,66.791 218.019,66.791 218.441 M133.323 222.722 C 133.325 223.326,133.367 223.547,133.418 223.213 C 133.468 222.880,133.467 222.386,133.415 222.116 C 133.363 221.846,133.321 222.119,133.323 222.722 M133.323 227.333 C 133.325 227.936,133.367 228.157,133.418 227.824 C 133.468 227.490,133.467 226.996,133.415 226.726 C 133.363 226.456,133.321 226.729,133.323 227.333 M66.791 231.614 C 66.791 232.036,66.836 232.209,66.891 231.998 C 66.946 231.786,66.946 231.441,66.891 231.229 C 66.836 231.018,66.791 231.191,66.791 231.614 M292.467 232.436 C 294.482 232.473,297.840 232.473,299.931 232.437 C 302.022 232.400,300.373 232.371,296.268 232.371 C 292.162 232.371,290.452 232.400,292.467 232.436 M322.104 232.436 C 324.119 232.473,327.478 232.473,329.569 232.437 C 331.659 232.400,330.011 232.371,325.906 232.371 C 321.800 232.371,320.090 232.400,322.104 232.436 M348.010 232.436 C 350.025 232.473,353.384 232.473,355.474 232.437 C 357.565 232.400,355.917 232.371,351.811 232.371 C 347.706 232.371,345.995 232.400,348.010 232.436 M377.648 232.436 C 379.663 232.473,383.022 232.473,385.112 232.437 C 387.203 232.400,385.554 232.371,381.449 232.371 C 377.344 232.371,375.633 232.400,377.648 232.436 M104.391 317.892 C 104.985 318.496,105.521 318.990,105.582 318.990 C 105.642 318.990,105.205 318.496,104.610 317.892 C 104.016 317.289,103.480 316.795,103.419 316.795 C 103.359 316.795,103.796 317.289,104.391 317.892 M107.126 320.582 C 107.664 321.155,108.133 321.625,108.169 321.625 C 108.334 321.625,108.159 321.427,107.190 320.518 L 106.147 319.539 107.126 320.582 " stroke="none" fill="#b4c4dc" fill-rule="evenodd"></path><path id="path8" d="M307.409 202.799 C 309.432 202.835,312.741 202.835,314.764 202.799 C 316.786 202.763,315.132 202.733,311.087 202.733 C 307.042 202.733,305.387 202.763,307.409 202.799 M362.953 202.799 C 364.975 202.835,368.285 202.835,370.307 202.799 C 372.330 202.763,370.675 202.733,366.630 202.733 C 362.585 202.733,360.930 202.763,362.953 202.799 M247.081 272.064 L 246.213 272.997 247.146 272.129 C 248.014 271.322,248.180 271.131,248.014 271.131 C 247.978 271.131,247.558 271.550,247.081 272.064 M294.285 319.265 L 292.975 320.637 294.347 319.326 C 295.102 318.606,295.719 317.988,295.719 317.954 C 295.719 317.792,295.502 317.990,294.285 319.265 M198.957 358.450 C 199.651 358.493,200.788 358.493,201.482 358.450 C 202.176 358.406,201.608 358.371,200.220 358.371 C 198.831 358.371,198.263 358.406,198.957 358.450 " stroke="none" fill="#3b72a4" fill-rule="evenodd"></path></g></svg>