<svg id="svg" version="1.1" xmlns="http://www.w3.org/2000/svg" xmlns:xlink="http://www.w3.org/1999/xlink" width="400" height="400" viewBox="0, 0, 400,400"><g id="svgg"><path id="path0" d="M180.900 57.010 L 180.000 57.971 180.000 75.404 L 180.000 92.836 180.982 93.818 L 181.964 94.800 201.482 94.787 C 216.194 94.778,221.156 94.655,221.635 94.287 C 223.144 93.129,223.200 92.439,223.200 75.126 L 223.199 58.200 222.253 57.100 L 221.307 56.000 201.553 56.024 L 181.800 56.049 180.900 57.010 M82.500 102.210 L 81.600 103.171 81.600 120.543 L 81.600 137.915 82.760 139.158 L 83.921 140.400 103.130 140.400 L 122.339 140.400 123.569 139.364 L 124.800 138.329 124.800 120.746 L 124.800 103.164 123.818 102.182 L 122.836 101.200 103.118 101.224 L 83.400 101.249 82.500 102.210 M132.100 101.798 C 131.825 102.111,131.600 102.644,131.600 102.983 C 131.600 103.322,131.420 103.600,131.200 103.600 C 130.940 103.600,130.800 109.440,130.800 120.320 C 130.800 137.728,130.905 138.912,132.500 139.428 C 132.885 139.552,133.200 139.822,133.200 140.027 C 133.200 140.253,140.839 140.400,152.525 140.400 L 171.850 140.400 172.925 139.278 L 174.000 138.156 174.000 120.711 C 174.000 102.996,173.944 102.000,172.957 102.000 C 172.651 102.000,172.400 101.820,172.400 101.600 C 172.400 100.901,132.718 101.097,132.100 101.798 M180.900 102.210 L 180.000 103.171 180.013 120.686 C 180.022 133.823,180.147 138.359,180.513 138.835 C 181.680 140.355,182.287 140.400,201.743 140.400 L 220.738 140.400 221.969 139.169 L 223.200 137.938 223.200 120.669 L 223.199 103.400 222.253 102.300 L 221.307 101.200 201.553 101.224 L 181.800 101.249 180.900 102.210 M310.664 112.301 C 310.259 112.906,309.989 113.532,310.064 113.692 C 310.139 113.853,309.795 114.268,309.300 114.615 C 308.805 114.962,308.400 115.555,308.400 115.934 C 308.400 116.313,308.040 116.883,307.600 117.200 C 307.160 117.517,306.800 118.097,306.800 118.488 C 306.800 118.880,306.620 119.200,306.400 119.200 C 306.180 119.200,306.000 119.478,306.000 119.817 C 306.000 120.156,305.640 120.820,305.200 121.292 C 304.760 121.764,304.400 122.387,304.400 122.675 C 304.400 122.964,304.220 123.200,304.000 123.200 C 303.780 123.200,303.600 123.560,303.600 124.000 C 303.600 124.440,303.420 124.800,303.200 124.800 C 302.980 124.800,302.800 125.351,302.800 126.024 C 302.800 126.737,302.633 127.144,302.400 127.000 C 302.180 126.864,302.000 127.123,302.000 127.576 C 302.000 128.029,301.820 128.400,301.600 128.400 C 301.380 128.400,301.200 128.749,301.200 129.176 C 301.200 129.603,301.020 130.064,300.800 130.200 C 300.580 130.336,300.400 130.887,300.400 131.424 C 300.400 131.961,300.220 132.400,300.000 132.400 C 299.780 132.400,299.600 132.940,299.600 133.600 C 299.600 134.260,299.420 134.800,299.200 134.800 C 298.980 134.800,298.800 135.340,298.800 136.000 C 298.800 136.660,298.620 137.200,298.400 137.200 C 298.180 137.200,298.000 137.920,298.000 138.800 C 298.000 139.680,297.820 140.400,297.600 140.400 C 297.380 140.400,297.200 141.199,297.200 142.176 C 297.200 143.153,297.020 144.064,296.800 144.200 C 296.580 144.336,296.400 145.596,296.400 147.000 C 296.400 148.404,296.220 149.664,296.000 149.800 C 295.763 149.946,295.600 152.396,295.600 155.800 C 295.600 159.204,295.763 161.654,296.000 161.800 C 296.220 161.936,296.400 163.196,296.400 164.600 C 296.400 166.004,296.580 167.264,296.800 167.400 C 297.020 167.536,297.200 168.357,297.200 169.224 C 297.200 170.091,297.380 170.800,297.600 170.800 C 297.820 170.800,298.000 171.329,298.000 171.976 C 298.000 172.623,298.144 173.242,298.321 173.351 C 298.497 173.460,298.890 174.461,299.193 175.575 C 299.496 176.689,299.892 177.600,300.072 177.600 C 300.253 177.600,300.400 177.960,300.400 178.400 C 300.400 178.840,300.580 179.200,300.800 179.200 C 301.020 179.200,301.200 179.560,301.200 180.000 C 301.200 180.440,301.380 180.800,301.600 180.800 C 301.820 180.800,302.000 181.160,302.000 181.600 C 302.000 182.040,302.180 182.400,302.400 182.400 C 302.620 182.400,302.800 182.760,302.800 183.200 C 302.800 183.640,302.980 184.000,303.200 184.000 C 303.420 184.000,303.600 184.360,303.600 184.800 C 303.600 185.333,303.333 185.600,302.800 185.600 C 302.360 185.600,302.000 185.780,302.000 186.000 C 302.000 186.220,301.460 186.400,300.800 186.400 C 300.140 186.400,299.600 186.580,299.600 186.800 C 299.600 187.020,299.150 187.200,298.600 187.200 C 298.050 187.200,297.600 187.380,297.600 187.600 C 297.600 187.820,297.060 188.000,296.400 188.000 C 295.740 188.000,295.200 188.180,295.200 188.400 C 295.200 188.620,294.671 188.800,294.024 188.800 C 293.377 188.800,292.736 188.980,292.600 189.200 C 292.464 189.420,291.553 189.600,290.576 189.600 C 289.599 189.600,288.800 189.780,288.800 190.000 C 288.800 190.220,287.915 190.400,286.833 190.400 C 285.616 190.400,284.803 190.590,284.700 190.900 C 284.567 191.298,256.459 191.441,146.652 191.600 C 35.007 191.762,8.710 191.898,8.453 192.314 C 8.279 192.596,7.859 192.721,7.520 192.591 C 7.181 192.460,6.631 192.626,6.299 192.958 C 5.967 193.290,5.584 193.450,5.448 193.314 C 5.311 193.178,5.200 193.255,5.200 193.485 C 5.200 193.715,4.684 194.117,4.053 194.378 C 3.423 194.639,2.659 195.336,2.356 195.926 C 2.053 196.517,1.444 197.331,1.003 197.735 C 0.027 198.630,-0.238 230.722,0.723 231.683 C 0.991 231.951,1.200 233.263,1.200 234.680 C 1.200 236.093,1.376 237.200,1.600 237.200 C 1.820 237.200,2.000 238.190,2.000 239.400 C 2.000 240.610,2.180 241.600,2.400 241.600 C 2.620 241.600,2.800 242.489,2.800 243.576 C 2.800 244.663,2.980 245.664,3.200 245.800 C 3.420 245.936,3.600 246.847,3.600 247.824 C 3.600 248.801,3.780 249.600,4.000 249.600 C 4.220 249.600,4.400 250.320,4.400 251.200 C 4.400 252.080,4.580 252.800,4.800 252.800 C 5.020 252.800,5.200 253.509,5.200 254.376 C 5.200 255.243,5.380 256.064,5.600 256.200 C 5.820 256.336,6.000 256.977,6.000 257.624 C 6.000 258.271,6.180 258.800,6.400 258.800 C 6.620 258.800,6.800 259.329,6.800 259.976 C 6.800 260.623,6.980 261.264,7.200 261.400 C 7.420 261.536,7.600 262.267,7.600 263.024 C 7.600 263.781,7.757 264.400,7.948 264.400 C 8.140 264.400,8.415 265.292,8.560 266.383 C 8.705 267.474,9.099 268.642,9.437 268.980 C 9.775 269.318,9.959 269.742,9.847 269.923 C 9.632 270.273,10.462 272.995,10.926 273.459 C 11.077 273.610,11.200 274.063,11.200 274.467 C 11.200 274.870,11.380 275.200,11.600 275.200 C 11.820 275.200,12.000 275.639,12.000 276.176 C 12.000 276.713,12.180 277.264,12.400 277.400 C 12.620 277.536,12.800 277.997,12.800 278.424 C 12.800 278.851,12.980 279.200,13.200 279.200 C 13.420 279.200,13.600 279.560,13.600 280.000 C 13.600 280.440,13.780 280.800,14.000 280.800 C 14.220 280.800,14.400 281.160,14.400 281.600 C 14.400 282.040,14.580 282.400,14.800 282.400 C 15.020 282.400,15.200 282.672,15.200 283.005 C 15.200 283.651,15.471 284.286,16.564 286.200 C 16.941 286.860,17.349 287.715,17.471 288.100 C 17.593 288.485,17.852 288.800,18.047 288.800 C 18.241 288.800,18.400 289.160,18.400 289.600 C 18.400 290.040,18.580 290.400,18.800 290.400 C 19.020 290.400,19.200 290.670,19.200 291.000 C 19.200 291.330,19.380 291.600,19.600 291.600 C 19.820 291.600,20.000 291.878,20.000 292.217 C 20.000 292.556,20.360 293.220,20.800 293.692 C 21.240 294.164,21.600 294.787,21.600 295.075 C 21.600 295.364,21.780 295.600,22.000 295.600 C 22.220 295.600,22.400 295.920,22.400 296.312 C 22.400 296.703,22.760 297.283,23.200 297.600 C 23.640 297.917,24.000 298.497,24.000 298.888 C 24.000 299.280,24.147 299.600,24.326 299.600 C 24.506 299.600,25.036 300.275,25.505 301.100 C 26.607 303.042,27.718 304.460,30.300 307.224 C 31.455 308.461,32.400 309.602,32.400 309.761 C 32.400 310.186,39.209 316.800,39.647 316.800 C 39.853 316.800,40.799 317.565,41.750 318.500 C 44.108 320.818,46.099 322.384,46.700 322.393 C 46.975 322.397,47.200 322.550,47.200 322.732 C 47.200 322.915,47.695 323.320,48.300 323.632 C 48.905 323.945,49.638 324.425,49.929 324.700 C 50.219 324.975,50.804 325.200,51.229 325.200 C 51.653 325.200,52.000 325.380,52.000 325.600 C 52.000 325.820,52.236 326.000,52.525 326.000 C 52.813 326.000,53.436 326.360,53.908 326.800 C 54.380 327.240,55.044 327.600,55.383 327.600 C 55.722 327.600,56.000 327.780,56.000 328.000 C 56.000 328.220,56.360 328.400,56.800 328.400 C 57.240 328.400,57.600 328.580,57.600 328.800 C 57.600 329.020,57.960 329.200,58.400 329.200 C 58.840 329.200,59.200 329.380,59.200 329.600 C 59.200 329.820,59.549 330.000,59.976 330.000 C 60.403 330.000,60.864 330.180,61.000 330.400 C 61.136 330.620,61.597 330.800,62.024 330.800 C 62.451 330.800,62.800 330.980,62.800 331.200 C 62.800 331.420,63.160 331.600,63.600 331.600 C 64.040 331.600,64.400 331.780,64.400 332.000 C 64.400 332.220,64.940 332.400,65.600 332.400 C 66.260 332.400,66.800 332.580,66.800 332.800 C 66.800 333.020,67.149 333.200,67.576 333.200 C 68.003 333.200,68.464 333.380,68.600 333.600 C 68.736 333.820,69.287 334.000,69.824 334.000 C 70.361 334.000,70.800 334.180,70.800 334.400 C 70.800 334.620,71.340 334.800,72.000 334.800 C 72.660 334.800,73.200 334.980,73.200 335.200 C 73.200 335.420,73.729 335.600,74.376 335.600 C 75.023 335.600,75.664 335.780,75.800 336.000 C 75.936 336.220,76.566 336.400,77.200 336.400 C 77.834 336.400,78.464 336.580,78.600 336.800 C 78.736 337.020,79.467 337.200,80.224 337.200 C 80.981 337.200,81.600 337.380,81.600 337.600 C 81.600 337.820,82.320 338.000,83.200 338.000 C 84.080 338.000,84.800 338.180,84.800 338.400 C 84.800 338.620,85.520 338.800,86.400 338.800 C 87.280 338.800,88.000 338.980,88.000 339.200 C 88.000 339.420,88.900 339.600,90.000 339.600 C 91.100 339.600,92.000 339.780,92.000 340.000 C 92.000 340.220,92.732 340.400,93.626 340.400 C 94.521 340.400,95.572 340.571,95.962 340.780 C 96.353 340.989,98.771 341.285,101.336 341.439 C 103.901 341.592,106.000 341.871,106.000 342.059 C 106.000 342.246,107.429 342.400,109.176 342.400 C 110.923 342.400,112.464 342.580,112.600 342.800 C 112.742 343.031,114.871 343.200,117.624 343.200 C 120.541 343.200,122.400 343.356,122.400 343.600 C 122.400 343.861,128.467 344.000,139.800 344.000 C 151.133 344.000,157.200 343.861,157.200 343.600 C 157.200 343.356,159.067 343.200,162.000 343.200 C 164.933 343.200,166.800 343.044,166.800 342.800 C 166.800 342.565,168.200 342.400,170.200 342.400 C 172.070 342.400,173.600 342.251,173.600 342.069 C 173.600 341.887,175.985 341.539,178.900 341.296 C 181.815 341.054,185.280 340.656,186.600 340.412 C 187.920 340.168,189.720 339.867,190.600 339.743 C 191.480 339.619,192.371 339.356,192.580 339.159 C 192.789 338.962,193.723 338.800,194.656 338.800 C 195.589 338.800,196.464 338.620,196.600 338.400 C 196.736 338.180,197.456 338.000,198.200 338.000 C 198.944 338.000,199.664 337.820,199.800 337.600 C 199.936 337.380,200.656 337.200,201.400 337.200 C 202.144 337.200,202.864 337.020,203.000 336.800 C 203.136 336.580,203.867 336.400,204.624 336.400 C 205.381 336.400,206.000 336.220,206.000 336.000 C 206.000 335.780,206.630 335.600,207.400 335.600 C 208.170 335.600,208.800 335.420,208.800 335.200 C 208.800 334.980,209.340 334.800,210.000 334.800 C 210.660 334.800,211.200 334.620,211.200 334.400 C 211.200 334.180,211.819 334.000,212.576 334.000 C 213.333 334.000,214.064 333.820,214.200 333.600 C 214.336 333.380,214.876 333.200,215.400 333.200 C 215.924 333.200,216.464 333.020,216.600 332.800 C 216.736 332.580,217.199 332.400,217.629 332.400 C 218.059 332.400,218.768 332.220,219.205 332.000 C 219.642 331.780,220.358 331.420,220.795 331.200 C 221.232 330.980,221.952 330.800,222.395 330.800 C 222.838 330.800,223.200 330.620,223.200 330.400 C 223.200 330.180,223.650 330.000,224.200 330.000 C 224.750 330.000,225.200 329.820,225.200 329.600 C 225.200 329.380,225.560 329.200,226.000 329.200 C 226.440 329.200,226.800 329.020,226.800 328.800 C 226.800 328.580,227.340 328.400,228.000 328.400 C 228.660 328.400,229.200 328.220,229.200 328.000 C 229.200 327.780,229.560 327.600,230.000 327.600 C 230.440 327.600,230.800 327.420,230.800 327.200 C 230.800 326.980,231.340 326.800,232.000 326.800 C 232.660 326.800,233.200 326.620,233.200 326.400 C 233.200 326.180,233.560 326.000,234.000 326.000 C 234.440 326.000,234.800 325.820,234.800 325.600 C 234.800 325.380,235.097 325.200,235.461 325.200 C 236.335 325.200,247.200 319.951,247.200 319.528 C 247.200 319.348,247.560 319.200,248.000 319.200 C 248.440 319.200,248.800 319.020,248.800 318.800 C 248.800 318.580,249.160 318.400,249.600 318.400 C 250.040 318.400,250.400 318.220,250.400 318.000 C 250.400 317.780,250.760 317.600,251.200 317.600 C 251.640 317.600,252.000 317.420,252.000 317.200 C 252.000 316.980,252.236 316.800,252.525 316.800 C 252.813 316.800,253.436 316.440,253.908 316.000 C 254.380 315.560,255.044 315.200,255.383 315.200 C 255.722 315.200,256.000 315.020,256.000 314.800 C 256.000 314.580,256.270 314.400,256.600 314.400 C 256.930 314.400,257.200 314.220,257.200 314.000 C 257.200 313.780,257.470 313.600,257.800 313.600 C 258.130 313.600,258.400 313.420,258.400 313.200 C 258.400 312.980,258.630 312.800,258.912 312.800 C 259.193 312.800,259.683 312.440,260.000 312.000 C 260.317 311.560,260.857 311.200,261.200 311.200 C 261.543 311.200,262.083 310.840,262.400 310.400 C 262.717 309.960,263.297 309.600,263.688 309.600 C 264.080 309.600,264.400 309.442,264.400 309.249 C 264.400 309.055,264.905 308.688,265.521 308.433 C 266.138 308.177,267.120 307.525,267.704 306.984 C 268.287 306.443,268.926 306.000,269.123 306.000 C 269.320 306.000,270.021 305.484,270.682 304.853 C 271.342 304.222,272.061 303.637,272.280 303.553 C 272.884 303.321,275.823 300.853,278.298 298.500 C 279.513 297.345,280.653 296.400,280.832 296.400 C 281.181 296.400,287.045 290.907,289.745 288.049 C 290.655 287.086,292.705 284.952,294.300 283.308 C 295.895 281.664,297.200 280.145,297.200 279.933 C 297.200 279.721,298.100 278.671,299.200 277.600 C 300.300 276.529,301.200 275.549,301.200 275.423 C 301.200 275.213,302.682 273.429,303.900 272.173 C 304.175 271.889,304.400 271.464,304.400 271.229 C 304.400 270.993,304.535 270.799,304.700 270.797 C 304.865 270.796,305.450 270.121,306.000 269.297 C 306.550 268.474,307.405 267.352,307.900 266.804 C 308.395 266.256,308.800 265.531,308.800 265.192 C 308.800 264.854,309.160 264.317,309.600 264.000 C 310.040 263.683,310.400 263.143,310.400 262.800 C 310.400 262.457,310.760 261.917,311.200 261.600 C 311.640 261.283,312.000 260.743,312.000 260.400 C 312.000 260.057,312.360 259.517,312.800 259.200 C 313.240 258.883,313.600 258.393,313.600 258.112 C 313.600 257.830,313.780 257.600,314.000 257.600 C 314.220 257.600,314.400 257.330,314.400 257.000 C 314.400 256.670,314.580 256.400,314.800 256.400 C 315.020 256.400,315.200 256.130,315.200 255.800 C 315.200 255.470,315.380 255.200,315.600 255.200 C 315.820 255.200,316.000 254.930,316.000 254.600 C 316.000 254.270,316.180 254.000,316.400 254.000 C 316.620 254.000,316.800 253.730,316.800 253.400 C 316.800 253.070,316.980 252.800,317.200 252.800 C 317.420 252.800,317.600 252.522,317.600 252.183 C 317.600 251.844,317.960 251.180,318.400 250.708 C 318.840 250.236,319.200 249.613,319.200 249.325 C 319.200 249.036,319.380 248.800,319.600 248.800 C 319.820 248.800,320.000 248.440,320.000 248.000 C 320.000 247.560,320.180 247.200,320.400 247.200 C 320.620 247.200,320.800 246.855,320.800 246.433 C 320.800 246.012,320.955 245.607,321.144 245.533 C 321.624 245.347,325.200 238.527,325.200 237.797 C 325.200 237.469,325.380 237.200,325.600 237.200 C 325.820 237.200,326.000 236.840,326.000 236.400 C 326.000 235.960,326.180 235.600,326.400 235.600 C 326.620 235.600,326.800 235.240,326.800 234.800 C 326.800 234.360,326.980 234.000,327.200 234.000 C 327.420 234.000,327.600 233.640,327.600 233.200 C 327.600 232.760,327.780 232.400,328.000 232.400 C 328.220 232.400,328.400 232.040,328.400 231.600 C 328.400 231.160,328.580 230.800,328.800 230.800 C 329.020 230.800,329.200 230.440,329.200 230.000 C 329.200 229.560,329.380 229.200,329.600 229.200 C 329.820 229.200,330.000 228.840,330.000 228.400 C 330.000 227.960,330.180 227.600,330.400 227.600 C 330.620 227.600,330.800 227.240,330.800 226.800 C 330.800 226.360,330.980 226.000,331.200 226.000 C 331.420 226.000,331.600 225.550,331.600 225.000 C 331.600 224.450,331.780 224.000,332.000 224.000 C 332.220 224.000,332.400 223.640,332.400 223.200 C 332.400 222.760,332.580 222.400,332.800 222.400 C 333.020 222.400,333.200 222.040,333.200 221.600 C 333.200 221.160,333.380 220.800,333.600 220.800 C 333.820 220.800,334.000 220.451,334.000 220.024 C 334.000 219.597,334.180 219.136,334.400 219.000 C 334.620 218.864,334.800 218.313,334.800 217.776 C 334.800 217.239,334.980 216.800,335.200 216.800 C 335.420 216.800,335.600 216.440,335.600 216.000 C 335.600 215.560,335.780 215.200,336.000 215.200 C 336.220 215.200,336.400 214.761,336.400 214.224 C 336.400 213.687,336.580 213.136,336.800 213.000 C 337.020 212.864,337.200 212.403,337.200 211.976 C 337.200 211.549,337.341 211.200,337.513 211.200 C 337.685 211.200,338.062 210.398,338.352 209.418 L 338.878 207.636 345.539 207.444 C 353.212 207.224,357.200 206.868,357.200 206.405 C 357.200 206.226,357.965 205.981,358.900 205.859 C 362.263 205.420,363.600 205.106,363.600 204.756 C 363.600 204.560,364.140 204.400,364.800 204.400 C 365.460 204.400,366.000 204.220,366.000 204.000 C 366.000 203.780,366.540 203.600,367.200 203.600 C 367.860 203.600,368.400 203.420,368.400 203.200 C 368.400 202.980,368.760 202.800,369.200 202.800 C 369.640 202.800,370.000 202.620,370.000 202.400 C 370.000 202.180,370.349 202.000,370.776 202.000 C 371.203 202.000,371.664 201.820,371.800 201.600 C 371.936 201.380,372.397 201.200,372.824 201.200 C 373.251 201.200,373.600 201.020,373.600 200.800 C 373.600 200.580,373.836 200.400,374.125 200.400 C 374.413 200.400,375.036 200.040,375.508 199.600 C 375.980 199.160,376.644 198.800,376.983 198.800 C 377.322 198.800,377.600 198.620,377.600 198.400 C 377.600 198.180,377.843 198.000,378.141 198.000 C 378.438 198.000,379.246 197.460,379.937 196.800 C 380.628 196.140,381.372 195.600,381.590 195.600 C 382.646 195.600,393.200 184.966,393.200 183.903 C 393.200 183.613,393.560 183.117,394.000 182.800 C 394.440 182.483,394.800 181.986,394.800 181.695 C 394.800 181.404,395.160 180.780,395.600 180.308 C 396.040 179.836,396.400 179.213,396.400 178.925 C 396.400 178.636,396.580 178.400,396.800 178.400 C 397.020 178.400,397.200 178.040,397.200 177.600 C 397.200 177.160,397.380 176.800,397.600 176.800 C 397.820 176.800,398.000 176.528,398.000 176.195 C 398.000 175.862,398.180 175.232,398.400 174.795 C 398.620 174.358,398.992 173.623,399.226 173.163 C 400.872 169.934,399.484 164.400,397.029 164.400 C 396.780 164.400,396.317 164.040,396.000 163.600 C 395.683 163.160,395.103 162.800,394.712 162.800 C 394.320 162.800,394.000 162.620,394.000 162.400 C 394.000 162.180,393.640 162.000,393.200 162.000 C 392.760 162.000,392.400 161.862,392.400 161.694 C 392.400 161.386,389.340 159.857,388.600 159.796 C 388.380 159.778,387.777 159.530,387.259 159.246 C 386.742 158.961,385.977 158.817,385.559 158.927 C 385.142 159.036,384.800 158.962,384.800 158.763 C 384.800 158.563,384.260 158.400,383.600 158.400 C 382.940 158.400,382.400 158.220,382.400 158.000 C 382.400 157.780,381.680 157.600,380.800 157.600 C 379.920 157.600,379.200 157.420,379.200 157.200 C 379.200 156.978,378.133 156.800,376.800 156.800 C 375.467 156.800,374.400 156.622,374.400 156.400 C 374.400 156.143,370.400 156.000,363.200 156.000 C 356.000 156.000,352.000 156.143,352.000 156.400 C 352.000 156.622,350.933 156.800,349.600 156.800 L 347.200 156.800 347.200 155.600 C 347.200 154.940,347.020 154.400,346.800 154.400 C 346.580 154.400,346.400 153.680,346.400 152.800 C 346.400 151.920,346.220 151.200,346.000 151.200 C 345.780 151.200,345.600 150.480,345.600 149.600 C 345.600 148.720,345.420 148.000,345.200 148.000 C 344.980 148.000,344.800 147.561,344.800 147.024 C 344.800 146.487,344.620 145.936,344.400 145.800 C 344.180 145.664,344.000 145.203,344.000 144.776 C 344.000 144.349,343.820 144.000,343.600 144.000 C 343.380 144.000,343.200 143.550,343.200 143.000 C 343.200 142.450,343.020 142.000,342.800 142.000 C 342.580 142.000,342.400 141.640,342.400 141.200 C 342.400 140.760,342.220 140.400,342.000 140.400 C 341.780 140.400,341.600 140.136,341.600 139.814 C 341.600 139.001,340.324 136.400,339.926 136.400 C 339.747 136.400,339.600 136.040,339.600 135.600 C 339.600 135.160,339.442 134.800,339.249 134.800 C 339.055 134.800,338.673 134.260,338.400 133.600 C 338.127 132.940,337.775 132.400,337.619 132.400 C 337.463 132.400,337.080 131.905,336.768 131.300 C 336.455 130.695,335.705 129.723,335.100 129.140 C 334.495 128.556,334.000 127.969,334.000 127.835 C 334.000 127.529,325.691 119.200,325.386 119.200 C 325.264 119.200,324.727 118.763,324.193 118.229 C 323.659 117.695,322.677 116.936,322.011 116.543 C 321.345 116.149,320.800 115.686,320.800 115.514 C 320.800 115.341,320.530 115.200,320.200 115.200 C 319.870 115.200,319.600 115.020,319.600 114.800 C 319.600 114.580,319.330 114.400,319.000 114.400 C 318.670 114.400,318.400 114.220,318.400 114.000 C 318.400 113.780,318.040 113.600,317.600 113.600 C 317.160 113.600,316.800 113.420,316.800 113.200 C 316.800 112.980,316.575 112.796,316.300 112.791 C 316.025 112.786,315.350 112.430,314.800 112.000 C 313.313 110.837,311.559 110.965,310.664 112.301 M34.100 147.410 L 33.200 148.371 33.200 166.039 L 33.200 183.707 34.300 184.653 L 35.400 185.599 54.220 185.600 C 74.271 185.600,74.618 185.568,75.526 183.646 C 76.527 181.523,76.166 148.597,75.128 147.403 L 74.256 146.400 54.628 146.424 L 35.000 146.449 34.100 147.410 M82.500 147.410 L 81.600 148.371 81.600 165.506 C 81.600 183.379,81.724 184.790,83.300 184.797 C 83.685 184.799,84.000 184.980,84.000 185.200 C 84.000 185.461,90.668 185.600,103.203 185.600 L 122.407 185.600 123.603 184.534 L 124.800 183.468 124.800 166.034 L 124.799 148.600 123.853 147.500 L 122.907 146.400 103.153 146.424 L 83.400 146.449 82.500 147.410 M132.100 146.998 C 131.825 147.311,131.600 147.844,131.600 148.183 C 131.600 148.522,131.420 148.800,131.200 148.800 C 130.940 148.800,130.800 154.717,130.800 165.750 L 130.800 182.699 132.128 184.150 L 133.457 185.600 152.628 185.600 L 171.800 185.599 172.900 184.653 L 174.000 183.707 174.000 165.915 C 174.000 149.118,173.958 148.074,173.253 147.261 C 172.291 146.152,133.066 145.901,132.100 146.998 M180.900 147.410 L 180.000 148.371 180.000 166.039 L 180.000 183.707 181.100 184.653 L 182.200 185.599 201.500 185.600 C 214.100 185.600,220.800 185.461,220.800 185.200 C 220.800 184.980,221.049 184.800,221.354 184.800 C 223.098 184.800,223.200 183.746,223.200 165.714 L 223.199 148.600 222.253 147.500 L 221.307 146.400 201.553 146.424 L 181.800 146.449 180.900 147.410 M230.100 147.410 L 229.200 148.371 229.200 165.931 L 229.200 183.491 230.255 184.545 L 231.309 185.600 250.655 185.600 C 263.285 185.600,270.000 185.461,270.000 185.200 C 270.000 184.980,270.315 184.799,270.700 184.797 C 272.275 184.790,272.400 183.374,272.400 165.620 L 272.399 148.600 271.453 147.500 L 270.507 146.400 250.753 146.424 L 231.000 146.449 230.100 147.410 " stroke="none" fill="#2494ec" fill-rule="evenodd"></path><path id="path1" d="" stroke="none" fill="#2894ec" fill-rule="evenodd"></path><path id="path2" d="" stroke="none" fill="#2894ec" fill-rule="evenodd"></path><path id="path3" d="" stroke="none" fill="#2894ec" fill-rule="evenodd"></path><path id="path4" d="" stroke="none" fill="#2894ec" fill-rule="evenodd"></path><path id="path5" d="" stroke="none" fill="#2894ec" fill-rule="evenodd"></path><path id="path6" d="" stroke="none" fill="#2894ec" fill-rule="evenodd"></path><path id="path7" d="" stroke="none" fill="#2894ec" fill-rule="evenodd"></path><path id="path8" d="" stroke="none" fill="#2894ec" fill-rule="evenodd"></path></g></svg>