<svg id="svg" version="1.1" xmlns="http://www.w3.org/2000/svg" xmlns:xlink="http://www.w3.org/1999/xlink" width="400" height="600" viewBox="0, 0, 400,600"><g id="svgg"><path id="path0" d="M175.000 237.751 L 175.000 475.169 287.326 487.648 C 349.105 494.511,399.761 500.017,399.895 499.883 C 400.028 499.750,399.900 499.159,399.609 498.570 C 399.122 497.582,397.580 494.216,396.524 491.833 C 396.280 491.283,395.605 489.783,395.024 488.500 C 394.443 487.217,393.768 485.717,393.524 485.167 C 393.280 484.617,392.605 483.117,392.024 481.833 C 391.443 480.550,390.768 479.050,390.524 478.500 C 390.280 477.950,389.605 476.450,389.024 475.167 C 388.443 473.883,387.768 472.383,387.524 471.833 C 387.280 471.283,386.605 469.783,386.024 468.500 C 385.443 467.217,384.768 465.717,384.524 465.167 C 384.280 464.617,383.605 463.117,383.024 461.833 C 382.443 460.550,381.768 459.050,381.524 458.500 C 381.280 457.950,380.605 456.450,380.024 455.167 C 379.443 453.883,378.768 452.383,378.524 451.833 C 378.280 451.283,377.605 449.783,377.024 448.500 C 376.443 447.217,375.768 445.717,375.524 445.167 C 375.280 444.617,374.605 443.117,374.024 441.833 C 373.443 440.550,372.768 439.050,372.524 438.500 C 372.280 437.950,371.605 436.450,371.024 435.167 C 370.443 433.883,369.768 432.383,369.524 431.833 C 369.280 431.283,368.605 429.783,368.024 428.500 C 367.443 427.217,366.768 425.717,366.524 425.167 C 366.280 424.617,365.605 423.117,365.024 421.833 C 364.443 420.550,363.768 419.050,363.524 418.500 C 363.280 417.950,362.605 416.450,362.024 415.167 C 361.443 413.883,360.768 412.383,360.524 411.833 C 360.280 411.283,359.605 409.783,359.024 408.500 C 358.443 407.217,357.768 405.717,357.524 405.167 C 357.280 404.617,356.605 403.117,356.024 401.833 C 355.443 400.550,354.768 399.050,354.524 398.500 C 354.280 397.950,353.605 396.450,353.024 395.167 C 352.443 393.883,351.768 392.383,351.524 391.833 C 351.280 391.283,350.605 389.783,350.024 388.500 C 349.443 387.217,348.768 385.717,348.524 385.167 C 348.280 384.617,347.605 383.117,347.024 381.833 C 346.443 380.550,345.768 379.050,345.524 378.500 C 345.280 377.950,344.605 376.450,344.024 375.167 C 343.443 373.883,342.768 372.383,342.524 371.833 C 342.280 371.283,341.605 369.783,341.024 368.500 C 340.443 367.217,339.768 365.717,339.524 365.167 C 339.280 364.617,338.605 363.117,338.024 361.833 C 337.443 360.550,336.768 359.050,336.524 358.500 C 336.280 357.950,335.605 356.450,335.024 355.167 C 334.443 353.883,333.768 352.383,333.524 351.833 C 333.280 351.283,332.605 349.783,332.024 348.500 C 331.443 347.217,330.768 345.717,330.524 345.167 C 330.280 344.617,329.605 343.117,329.024 341.833 C 328.443 340.550,327.768 339.050,327.524 338.500 C 327.280 337.950,326.605 336.450,326.024 335.167 C 325.443 333.883,324.768 332.383,324.524 331.833 C 324.280 331.283,323.605 329.783,323.024 328.500 C 322.443 327.217,321.768 325.717,321.524 325.167 C 321.280 324.617,320.605 323.117,320.024 321.833 C 319.443 320.550,318.768 319.050,318.524 318.500 C 318.280 317.950,317.605 316.450,317.024 315.167 C 316.443 313.883,315.768 312.383,315.524 311.833 C 315.280 311.283,314.605 309.783,314.024 308.500 C 313.443 307.217,312.768 305.717,312.524 305.167 C 312.280 304.617,311.605 303.117,311.024 301.833 C 310.443 300.550,309.768 299.050,309.524 298.500 C 309.280 297.950,308.605 296.450,308.024 295.167 C 307.443 293.883,306.768 292.383,306.524 291.833 C 306.280 291.283,305.605 289.783,305.024 288.500 C 304.443 287.217,303.768 285.717,303.524 285.167 C 303.280 284.617,302.605 283.117,302.024 281.833 C 301.443 280.550,300.768 279.050,300.524 278.500 C 300.280 277.950,299.605 276.450,299.024 275.167 C 298.443 273.883,297.768 272.383,297.524 271.833 C 297.280 271.283,296.605 269.783,296.024 268.500 C 295.443 267.217,294.768 265.717,294.524 265.167 C 294.280 264.617,293.605 263.117,293.024 261.833 C 292.443 260.550,291.768 259.050,291.524 258.500 C 291.280 257.950,290.605 256.450,290.024 255.167 C 289.443 253.883,288.768 252.383,288.524 251.833 C 288.280 251.283,287.605 249.783,287.024 248.500 C 286.443 247.217,285.768 245.717,285.524 245.167 C 285.280 244.617,284.605 243.117,284.024 241.833 C 283.443 240.550,282.768 239.050,282.524 238.500 C 282.280 237.950,281.605 236.450,281.024 235.167 C 280.443 233.883,279.768 232.383,279.524 231.833 C 279.280 231.283,278.605 229.783,278.024 228.500 C 277.443 227.217,276.768 225.717,276.524 225.167 C 276.280 224.617,275.605 223.117,275.024 221.833 C 274.443 220.550,273.768 219.050,273.524 218.500 C 273.280 217.950,272.605 216.450,272.024 215.167 C 271.443 213.883,270.768 212.383,270.524 211.833 C 270.280 211.283,269.605 209.783,269.024 208.500 C 268.443 207.217,267.768 205.717,267.524 205.167 C 267.280 204.617,266.605 203.117,266.024 201.833 C 265.443 200.550,264.768 199.050,264.524 198.500 C 264.280 197.950,263.605 196.450,263.024 195.167 C 262.443 193.883,261.768 192.383,261.524 191.833 C 261.280 191.283,260.605 189.783,260.024 188.500 C 259.443 187.217,258.768 185.717,258.524 185.167 C 258.280 184.617,257.605 183.117,257.024 181.833 C 256.443 180.550,255.768 179.050,255.524 178.500 C 255.280 177.950,254.605 176.450,254.024 175.167 C 253.443 173.883,252.768 172.383,252.524 171.833 C 252.280 171.283,251.605 169.783,251.024 168.500 C 250.443 167.217,249.768 165.717,249.524 165.167 C 249.280 164.617,248.605 163.117,248.024 161.833 C 247.443 160.550,246.768 159.050,246.524 158.500 C 246.280 157.950,245.605 156.450,245.024 155.167 C 244.443 153.883,243.768 152.383,243.524 151.833 C 243.280 151.283,242.605 149.783,242.024 148.500 C 241.443 147.217,240.768 145.717,240.524 145.167 C 240.280 144.617,239.605 143.117,239.024 141.833 C 238.443 140.550,237.768 139.050,237.524 138.500 C 237.280 137.950,236.605 136.450,236.024 135.167 C 235.443 133.883,234.768 132.383,234.524 131.833 C 234.280 131.283,233.605 129.783,233.024 128.500 C 232.443 127.217,231.768 125.717,231.524 125.167 C 231.280 124.617,230.605 123.117,230.024 121.833 C 229.443 120.550,228.768 119.050,228.524 118.500 C 228.280 117.950,227.605 116.450,227.024 115.167 C 226.443 113.883,225.768 112.383,225.524 111.833 C 225.280 111.283,224.605 109.783,224.024 108.500 C 223.443 107.217,222.768 105.717,222.524 105.167 C 222.280 104.617,221.605 103.117,221.024 101.833 C 220.443 100.550,219.768 99.050,219.524 98.500 C 219.280 97.950,218.605 96.450,218.024 95.167 C 217.443 93.883,216.768 92.383,216.524 91.833 C 216.280 91.283,215.605 89.783,215.024 88.500 C 214.443 87.217,213.768 85.717,213.524 85.167 C 213.280 84.617,212.605 83.117,212.024 81.833 C 211.443 80.550,210.768 79.050,210.524 78.500 C 210.280 77.950,209.605 76.450,209.024 75.167 C 208.443 73.883,207.768 72.383,207.524 71.833 C 207.280 71.283,206.605 69.783,206.024 68.500 C 205.443 67.217,204.768 65.717,204.524 65.167 C 204.280 64.617,203.605 63.117,203.024 61.833 C 202.443 60.550,201.768 59.050,201.524 58.500 C 201.280 57.950,200.605 56.450,200.024 55.167 C 199.443 53.883,198.768 52.383,198.524 51.833 C 198.280 51.283,197.605 49.783,197.024 48.500 C 196.443 47.217,195.768 45.717,195.524 45.167 C 195.280 44.617,194.605 43.117,194.024 41.833 C 193.443 40.550,192.768 39.050,192.524 38.500 C 192.280 37.950,191.605 36.450,191.024 35.167 C 190.443 33.883,189.768 32.383,189.524 31.833 C 189.280 31.283,188.605 29.783,188.024 28.500 C 187.443 27.217,186.768 25.717,186.524 25.167 C 186.280 24.617,185.605 23.117,185.024 21.833 C 184.443 20.550,183.768 19.050,183.524 18.500 C 183.280 17.950,182.605 16.450,182.024 15.167 C 181.443 13.883,180.768 12.383,180.524 11.833 C 180.118 10.916,178.624 7.609,177.512 5.167 C 177.262 4.617,176.678 3.304,176.214 2.250 C 175.750 1.196,175.287 0.333,175.185 0.333 C 175.083 0.333,175.000 107.171,175.000 237.751 M74.917 350.167 C 33.712 432.575,0.188 500.003,0.417 500.007 C 0.646 500.010,34.396 494.423,75.417 487.591 L 150.000 475.169 150.000 337.751 C 150.000 262.171,149.962 200.333,149.916 200.333 C 149.871 200.333,116.121 267.758,74.917 350.167 M74.780 562.534 C 133.339 591.831,149.921 599.995,150.614 599.866 C 151.101 599.776,152.250 599.480,153.167 599.208 C 154.083 598.937,155.433 598.546,156.167 598.340 C 156.900 598.134,157.875 597.834,158.333 597.674 C 158.792 597.514,160.292 597.061,161.667 596.667 C 163.042 596.273,164.542 595.823,165.000 595.667 C 165.458 595.511,166.958 595.061,168.333 594.667 C 169.708 594.273,171.208 593.823,171.667 593.667 C 172.125 593.511,173.625 593.061,175.000 592.667 C 176.375 592.273,177.875 591.823,178.333 591.667 C 178.792 591.511,180.292 591.061,181.667 590.667 C 183.042 590.273,184.542 589.823,185.000 589.667 C 185.458 589.511,186.958 589.061,188.333 588.667 C 189.708 588.273,191.208 587.823,191.667 587.667 C 192.125 587.511,193.625 587.061,195.000 586.667 C 196.375 586.273,197.875 585.823,198.333 585.667 C 198.792 585.511,200.292 585.061,201.667 584.667 C 203.042 584.273,204.542 583.823,205.000 583.667 C 205.458 583.511,206.958 583.061,208.333 582.667 C 209.708 582.273,211.208 581.823,211.667 581.667 C 212.125 581.511,213.625 581.061,215.000 580.667 C 216.375 580.273,217.875 579.823,218.333 579.667 C 218.792 579.511,220.292 579.061,221.667 578.667 C 223.042 578.273,224.542 577.823,225.000 577.667 C 225.458 577.511,226.958 577.061,228.333 576.667 C 229.708 576.273,231.208 575.823,231.667 575.667 C 232.125 575.511,233.625 575.061,235.000 574.667 C 236.375 574.273,237.875 573.823,238.333 573.667 C 238.792 573.511,240.292 573.061,241.667 572.667 C 243.042 572.273,244.542 571.823,245.000 571.667 C 245.458 571.511,246.958 571.061,248.333 570.667 C 249.708 570.273,251.208 569.823,251.667 569.667 C 252.125 569.511,253.625 569.061,255.000 568.667 C 256.375 568.273,257.875 567.823,258.333 567.667 C 258.792 567.511,260.292 567.061,261.667 566.667 C 263.042 566.273,264.542 565.823,265.000 565.667 C 265.458 565.511,266.958 565.061,268.333 564.667 C 269.708 564.273,271.208 563.823,271.667 563.667 C 272.125 563.511,273.625 563.061,275.000 562.667 C 276.375 562.273,277.875 561.823,278.333 561.667 C 278.792 561.511,280.292 561.061,281.667 560.667 C 283.042 560.273,284.542 559.823,285.000 559.667 C 285.458 559.511,286.958 559.061,288.333 558.667 C 289.708 558.273,291.208 557.823,291.667 557.667 C 292.125 557.511,293.625 557.061,295.000 556.667 C 296.375 556.273,297.875 555.823,298.333 555.667 C 298.792 555.511,300.292 555.061,301.667 554.667 C 303.042 554.273,304.542 553.823,305.000 553.667 C 305.458 553.511,306.958 553.061,308.333 552.667 C 309.708 552.273,311.208 551.823,311.667 551.667 C 312.125 551.511,313.625 551.061,315.000 550.667 C 316.375 550.273,317.875 549.823,318.333 549.667 C 318.792 549.511,320.292 549.061,321.667 548.667 C 323.042 548.273,324.542 547.823,325.000 547.667 C 325.458 547.511,326.958 547.061,328.333 546.667 C 329.708 546.273,331.208 545.823,331.667 545.667 C 332.125 545.511,333.625 545.061,335.000 544.667 C 336.375 544.273,337.875 543.823,338.333 543.667 C 338.792 543.511,340.292 543.061,341.667 542.667 C 343.042 542.273,344.542 541.823,345.000 541.667 C 345.458 541.511,346.958 541.061,348.333 540.667 C 349.708 540.273,351.208 539.823,351.667 539.667 C 352.125 539.511,353.625 539.061,355.000 538.667 C 356.375 538.273,357.875 537.823,358.333 537.667 C 358.792 537.511,360.292 537.061,361.667 536.667 C 363.042 536.273,364.542 535.823,365.000 535.667 C 365.458 535.511,366.958 535.061,368.333 534.667 C 369.708 534.273,371.208 533.823,371.667 533.667 C 372.125 533.511,373.625 533.061,375.000 532.667 C 376.375 532.273,377.875 531.823,378.333 531.667 C 378.792 531.511,380.292 531.061,381.667 530.667 C 383.042 530.273,384.542 529.823,385.000 529.667 C 385.458 529.511,386.958 529.061,388.333 528.667 C 389.708 528.273,391.208 527.823,391.667 527.667 C 392.125 527.511,393.625 527.056,395.000 526.657 C 396.375 526.257,398.100 525.728,398.833 525.481 C 399.955 525.103,368.330 525.032,200.000 525.034 L -0.167 525.037 74.780 562.534 " stroke="none" fill="#446cb4" fill-rule="evenodd"></path><path id="path1" d="" stroke="none" fill="#486cb4" fill-rule="evenodd"></path><path id="path2" d="" stroke="none" fill="#486cb4" fill-rule="evenodd"></path><path id="path3" d="" stroke="none" fill="#486cb4" fill-rule="evenodd"></path><path id="path4" d="" stroke="none" fill="#486cb4" fill-rule="evenodd"></path><path id="path5" d="" stroke="none" fill="#486cb4" fill-rule="evenodd"></path><path id="path6" d="" stroke="none" fill="#486cb4" fill-rule="evenodd"></path><path id="path7" d="" stroke="none" fill="#486cb4" fill-rule="evenodd"></path><path id="path8" d="" stroke="none" fill="#486cb4" fill-rule="evenodd"></path></g></svg>