<svg id="svg" version="1.1" xmlns="http://www.w3.org/2000/svg" xmlns:xlink="http://www.w3.org/1999/xlink" width="400" height="552.3333333333334" viewBox="0, 0, 400,552.3333333333334"><g id="svgg"><path id="path0" d="M67.587 130.634 C 22.279 177.040,3.166 241.713,15.861 305.667 C 22.960 341.433,40.373 374.978,65.489 401.273 C 67.132 402.993,68.532 404.236,68.600 404.034 C 68.969 402.926,66.179 384.085,64.473 376.167 C 62.206 365.645,60.823 361.147,56.289 349.557 C 54.652 345.371,52.656 340.046,51.855 337.724 C 51.053 335.401,49.162 330.125,47.651 326.000 C 38.353 300.606,38.980 297.255,54.500 289.397 C 57.535 287.860,61.693 285.394,64.150 283.673 C 70.995 278.878,86.583 269.490,105.426 258.814 C 119.261 250.975,119.856 249.040,112.130 237.000 C 108.318 231.060,105.089 221.962,104.441 215.335 L 104.167 212.524 100.833 211.652 C 80.827 206.413,67.304 185.132,67.271 158.833 C 67.259 149.018,68.982 142.187,72.818 136.840 C 75.214 133.500,75.471 131.224,74.104 125.417 C 73.830 124.253,73.767 124.304,67.587 130.634 M335.886 138.003 C 335.783 139.560,335.539 143.833,335.344 147.500 C 333.693 178.491,325.552 211.918,315.535 228.833 C 310.460 237.403,309.479 240.226,310.652 242.877 C 311.569 244.952,316.786 250.122,325.667 257.756 C 352.927 281.193,352.600 280.389,344.844 305.000 C 343.486 309.308,340.703 318.308,338.660 325.000 C 333.083 343.261,324.280 369.459,319.773 381.204 C 319.679 381.449,321.604 380.694,324.051 379.527 C 336.756 373.466,348.015 369.774,355.808 369.116 C 358.930 368.852,358.516 369.211,361.313 364.333 C 397.001 302.091,395.560 224.004,357.608 163.557 C 351.637 154.046,346.768 147.589,337.120 136.388 L 336.073 135.173 335.886 138.003 M287.391 275.703 C 283.599 276.341,278.284 279.093,269.896 284.759 C 267.181 286.594,264.085 288.561,263.017 289.132 L 261.076 290.169 262.021 292.501 C 262.540 293.784,262.973 295.221,262.983 295.694 C 263.007 296.896,263.105 296.935,265.254 296.596 C 267.463 296.247,271.225 296.662,273.991 297.558 L 275.815 298.149 274.491 298.370 C 273.763 298.491,271.858 298.761,270.258 298.970 C 264.098 299.775,263.896 300.050,264.106 307.332 L 264.236 311.831 267.368 312.586 C 278.319 315.224,297.107 317.191,298.165 315.810 C 302.732 309.850,300.332 282.516,294.781 277.271 C 293.157 275.737,290.519 275.177,287.391 275.703 M189.974 279.122 C 185.227 280.819,183.651 285.179,183.409 297.282 C 183.175 308.965,183.884 313.585,187.329 322.833 C 188.285 325.400,189.788 329.573,190.670 332.107 C 193.181 339.326,194.080 339.602,204.282 336.283 C 215.369 332.676,219.426 330.313,230.500 321.016 C 233.250 318.707,236.213 316.308,237.083 315.686 L 238.667 314.554 238.670 312.193 C 238.672 310.895,238.763 309.298,238.871 308.644 C 239.066 307.462,239.056 307.450,237.117 306.598 C 233.386 304.959,228.178 303.667,225.304 303.667 C 222.210 303.667,223.867 302.956,231.116 301.172 C 237.116 299.695,238.000 299.157,238.000 296.979 C 238.000 296.242,237.822 295.978,237.250 295.868 C 232.188 294.893,231.241 294.488,224.969 290.624 C 214.577 284.222,194.327 277.566,189.974 279.122 M247.135 294.121 C 246.385 294.366,245.147 294.916,244.385 295.344 L 243.000 296.123 243.005 298.145 C 243.010 299.946,243.287 301.569,244.671 307.906 C 245.028 309.540,245.125 309.662,246.275 309.905 C 252.691 311.263,256.814 308.172,256.827 301.993 C 256.841 295.794,252.592 292.342,247.135 294.121 " stroke="none" fill="#d53433" fill-rule="evenodd"></path><path id="path1" d="M208.667 13.153 C 198.951 14.432,193.370 16.513,180.667 23.594 C 159.223 35.548,143.902 48.969,137.202 61.670 L 135.706 64.507 136.673 67.240 C 139.816 76.123,139.625 84.153,135.850 101.833 C 132.968 115.332,132.830 116.337,132.858 123.667 L 132.883 130.167 135.085 138.883 C 137.801 149.633,138.421 153.939,137.443 155.266 C 135.469 157.945,130.687 159.468,124.190 159.487 L 119.881 159.500 119.314 156.919 C 115.312 138.705,104.879 131.920,91.261 138.676 C 73.109 147.683,72.573 175.474,90.225 192.333 C 98.596 200.327,106.203 201.214,114.181 195.128 C 120.271 190.480,123.440 190.437,123.481 195.000 C 123.504 197.502,122.857 198.647,119.175 202.624 C 115.617 206.465,115.150 207.456,115.483 210.455 C 117.178 225.696,128.910 253.672,137.167 262.160 C 144.318 269.512,154.331 272.847,174.167 274.481 C 179.407 274.913,179.858 274.906,180.167 274.391 C 182.814 269.965,193.587 267.485,201.333 269.519 C 201.792 269.639,200.967 269.025,199.500 268.154 C 188.059 261.356,169.176 241.259,163.338 229.667 C 161.382 225.783,159.115 217.440,159.823 216.732 C 160.042 216.513,159.602 215.954,163.841 221.833 C 185.169 251.415,201.202 264.415,223.000 269.800 C 244.774 275.179,280.225 262.672,293.597 244.892 C 320.357 209.311,330.123 173.717,327.499 121.333 C 326.562 102.618,325.524 95.595,322.673 88.682 C 317.108 75.186,298.898 67.541,288.848 74.481 C 286.754 75.927,286.550 75.771,286.742 72.872 C 287.327 64.028,296.827 59.101,307.923 61.886 C 308.665 62.072,308.313 61.479,305.501 57.802 C 288.479 35.552,281.602 29.719,263.724 22.370 C 245.613 14.926,223.426 11.211,208.667 13.153 M157.000 24.453 C 135.087 31.916,115.525 45.105,106.405 58.565 C 104.681 61.110,102.880 64.324,103.071 64.516 C 103.309 64.753,107.786 63.513,112.000 62.043 L 115.833 60.705 117.598 58.436 C 125.302 48.532,138.305 38.992,152.475 32.850 C 155.422 31.572,157.827 30.298,158.586 29.613 C 159.274 28.991,160.750 28.149,161.866 27.742 C 165.131 26.552,166.043 24.989,164.318 23.538 C 162.972 22.406,163.033 22.398,157.000 24.453 M205.048 66.335 C 210.547 68.069,213.425 72.517,211.698 76.612 C 211.297 77.562,211.103 77.697,210.364 77.538 C 195.616 74.364,184.294 80.716,176.416 96.583 C 174.696 100.047,174.883 99.898,173.397 98.991 C 168.636 96.089,172.195 84.471,180.428 76.036 C 188.455 67.812,197.914 64.085,205.048 66.335 M124.833 68.236 C 113.205 69.824,102.617 74.999,94.664 82.983 C 89.298 88.369,87.267 92.327,85.762 100.333 C 84.839 105.244,85.090 128.534,86.077 129.521 C 86.576 130.021,88.358 128.463,88.199 127.667 C 82.915 101.272,97.901 80.179,125.997 74.464 C 130.999 73.447,130.528 73.932,129.655 70.698 L 128.927 68.000 127.380 68.050 C 126.529 68.077,125.383 68.161,124.833 68.236 M313.455 107.833 C 317.947 117.414,320.029 121.519,322.211 125.103 C 324.581 128.993,324.309 129.952,319.911 133.220 C 309.398 141.033,296.511 139.803,295.463 130.888 L 295.248 129.051 297.040 128.516 C 298.027 128.221,301.533 127.765,304.833 127.502 C 310.260 127.070,313.405 126.497,314.597 125.723 C 314.928 125.508,314.525 124.175,312.838 119.907 C 310.282 113.442,309.511 110.643,308.995 105.953 C 308.137 98.161,309.112 98.572,313.455 107.833 M223.897 106.023 C 229.098 118.142,229.613 119.015,234.524 124.022 C 238.460 128.036,239.315 129.539,239.326 132.461 C 239.356 140.628,229.799 145.418,216.908 143.697 C 207.339 142.419,203.126 138.313,205.720 132.794 L 206.440 131.262 208.137 131.480 C 209.070 131.600,211.858 132.058,214.333 132.499 C 222.663 133.983,225.747 133.896,229.083 132.086 C 231.056 131.016,231.090 131.305,228.469 126.793 C 222.696 116.851,219.801 107.551,220.808 102.183 C 221.174 100.234,221.687 100.872,223.897 106.023 M267.967 109.250 C 268.579 109.863,269.079 110.940,269.476 112.500 C 270.699 117.301,273.547 122.822,278.592 130.167 C 285.492 140.212,298.944 156.267,304.413 160.984 C 309.296 165.195,309.669 167.083,307.079 174.500 C 306.311 176.700,305.587 179.126,305.469 179.892 C 305.259 181.264,305.188 181.327,300.711 184.106 C 283.507 194.788,272.524 198.405,257.366 198.377 L 251.562 198.366 250.321 197.155 C 246.017 192.951,245.035 184.239,248.241 178.696 L 249.091 177.225 249.540 178.081 C 249.786 178.552,250.430 180.663,250.971 182.773 C 253.020 190.777,256.426 192.580,266.262 190.868 C 271.903 189.886,276.521 188.130,289.833 181.905 L 295.833 179.099 296.820 177.133 C 299.235 172.319,298.251 168.308,293.311 162.833 C 273.560 140.941,264.676 125.010,264.668 111.468 C 264.667 109.343,264.743 109.065,265.417 108.740 C 266.577 108.181,266.979 108.261,267.967 109.250 M101.769 146.164 C 110.254 148.374,115.799 156.348,115.795 166.333 C 115.792 173.017,114.475 172.562,110.554 164.524 C 107.421 158.100,105.829 156.572,103.049 157.320 C 99.455 158.288,98.340 162.144,98.336 173.624 C 98.333 181.461,98.307 181.529,96.454 178.594 C 93.103 173.286,92.493 161.617,95.225 155.080 C 95.790 153.726,95.772 153.696,94.224 153.445 C 92.781 153.211,90.852 154.237,88.849 156.306 C 87.173 158.036,87.021 158.014,87.380 156.091 C 88.784 148.578,94.883 144.370,101.769 146.164 M313.332 192.917 C 304.776 208.786,294.277 216.745,280.576 217.749 C 278.835 217.876,278.638 217.823,278.512 217.195 C 278.224 215.765,278.059 208.433,278.275 206.693 L 278.500 204.887 282.500 204.154 C 289.822 202.813,293.877 201.169,307.500 194.019 C 311.350 191.998,314.551 190.342,314.612 190.339 C 314.674 190.336,314.098 191.496,313.332 192.917 M225.758 200.956 C 234.380 203.995,252.431 205.998,267.692 205.610 C 272.906 205.477,272.965 205.484,273.149 206.213 C 273.506 207.639,273.989 213.196,273.994 215.961 L 274.000 218.755 266.083 218.576 C 243.440 218.063,226.868 211.666,221.346 201.307 C 220.015 198.809,220.050 198.509,221.583 199.289 C 222.271 199.639,224.150 200.389,225.758 200.956 M218.889 213.083 C 225.180 225.788,236.609 229.833,266.208 229.833 C 279.732 229.833,281.560 229.894,281.401 230.333 C 279.006 236.955,271.165 240.030,255.333 240.558 C 237.908 241.139,231.051 238.052,222.155 225.623 C 220.145 222.814,217.196 219.148,215.602 217.474 C 211.181 212.833,211.419 211.144,216.512 211.030 C 217.838 211.000,217.871 211.029,218.889 213.083 M149.345 276.978 C 147.049 281.269,158.955 288.858,171.833 291.312 C 172.933 291.521,174.171 291.765,174.583 291.853 C 175.155 291.975,175.333 291.861,175.333 291.376 C 175.333 291.025,175.791 288.975,176.351 286.820 C 177.966 280.600,178.492 281.071,169.112 280.350 C 158.726 279.551,154.560 278.800,151.262 277.130 C 149.727 276.353,149.682 276.349,149.345 276.978 M263.833 276.720 C 262.917 276.891,258.902 277.779,254.912 278.693 C 242.410 281.556,236.764 281.946,231.065 280.340 C 227.100 279.223,226.974 279.847,230.674 282.285 C 236.207 285.930,241.278 287.333,248.916 287.333 L 253.078 287.333 259.289 282.391 C 262.705 279.672,265.871 277.197,266.324 276.891 L 267.148 276.333 266.324 276.371 C 265.871 276.391,264.750 276.548,263.833 276.720 M255.333 315.634 C 254.875 315.786,253.098 316.546,251.384 317.321 C 248.428 318.659,248.132 318.726,245.647 318.616 L 243.026 318.500 241.346 320.486 C 239.543 322.617,239.392 323.024,240.164 323.664 C 240.838 324.224,245.517 331.211,247.419 334.500 C 249.858 338.715,254.241 347.976,259.016 359.000 C 261.438 364.592,264.560 371.472,265.953 374.289 L 268.487 379.411 269.075 377.456 C 271.961 367.857,273.038 357.506,274.191 328.301 L 274.410 322.768 272.563 322.577 C 270.193 322.333,268.286 321.476,264.712 319.050 C 259.888 315.776,257.510 314.910,255.333 315.634 M263.326 327.938 C 264.659 328.925,265.235 330.954,264.631 332.540 C 263.378 335.832,259.149 336.234,257.320 333.234 C 255.018 329.459,259.746 325.290,263.326 327.938 M267.027 346.569 C 270.463 348.599,268.848 354.000,264.805 354.000 C 263.070 354.000,261.240 352.571,260.817 350.886 C 259.987 347.578,264.005 344.784,267.027 346.569 M357.000 379.212 C 356.725 379.321,355.375 380.057,354.000 380.849 C 350.781 382.702,345.996 384.628,336.667 387.826 C 322.312 392.747,317.165 395.908,318.162 399.190 C 319.887 404.870,321.526 415.685,323.185 432.333 C 323.851 439.025,324.471 444.575,324.562 444.667 C 324.878 444.985,333.212 444.731,341.167 444.160 C 352.835 443.322,360.147 443.751,364.188 445.510 L 365.500 446.081 363.833 446.539 C 362.917 446.791,358.963 447.603,355.048 448.344 C 348.646 449.556,342.634 451.149,341.361 451.970 C 340.615 452.452,343.902 453.278,348.253 453.703 C 355.042 454.366,366.024 453.064,370.500 451.064 C 379.644 446.981,385.143 434.828,383.198 423.000 C 381.278 411.321,376.407 393.700,373.590 388.244 C 370.382 382.031,361.751 377.332,357.000 379.212 M358.500 394.333 C 358.387 394.517,358.086 394.667,357.833 394.667 C 356.423 394.667,351.790 396.918,345.752 400.537 C 338.298 405.005,334.744 406.531,330.985 406.880 C 328.245 407.135,328.227 407.087,330.171 404.811 C 335.135 399.000,344.045 395.286,355.234 394.363 C 357.030 394.215,358.546 394.072,358.603 394.047 C 358.660 394.021,358.613 394.150,358.500 394.333 M218.000 397.889 C 207.689 398.206,195.786 399.084,184.500 400.359 C 174.234 401.520,152.320 404.903,151.817 405.405 C 151.631 405.591,152.756 415.576,154.195 426.500 C 159.203 464.537,166.198 496.969,176.203 528.546 L 177.696 533.258 181.594 534.331 C 209.534 542.019,241.417 542.629,266.707 535.959 L 270.582 534.937 270.280 533.592 C 268.489 525.624,267.470 512.534,266.664 487.167 C 266.239 473.796,265.855 467.189,265.006 458.667 C 264.189 450.464,263.773 443.912,263.334 432.333 C 262.806 418.412,262.231 410.343,261.287 403.599 L 260.928 401.032 259.214 400.692 C 251.956 399.252,244.175 398.422,234.000 398.003 C 226.571 397.697,224.692 397.684,218.000 397.889 M298.546 397.914 L 296.593 398.035 296.825 400.268 C 297.197 403.841,298.225 410.989,300.166 423.500 C 301.751 433.725,302.768 441.109,303.503 447.750 L 303.715 449.667 304.948 449.667 C 306.320 449.667,309.075 448.922,313.333 447.400 L 316.167 446.387 316.140 438.110 C 316.094 423.478,313.975 411.378,309.783 401.806 C 307.829 397.344,307.812 397.338,298.546 397.914 M354.740 409.826 C 358.244 410.354,363.343 411.563,363.756 411.963 C 364.224 412.418,349.603 413.734,342.083 413.914 C 334.000 414.108,333.894 414.080,335.892 412.326 C 339.025 409.576,346.502 408.584,354.740 409.826 M353.716 423.855 C 357.859 424.433,364.108 425.958,366.167 426.894 L 367.500 427.500 361.667 427.607 C 355.173 427.726,336.250 427.098,334.822 426.716 L 333.906 426.472 334.703 425.952 C 338.631 423.391,345.197 422.667,353.716 423.855 M277.833 470.681 C 275.817 471.199,273.733 471.633,273.202 471.645 L 272.238 471.667 272.435 481.750 C 272.544 487.296,272.938 496.708,273.312 502.667 C 273.686 508.625,273.993 513.634,273.996 513.798 C 274.008 514.669,282.020 513.309,287.167 511.563 L 290.500 510.432 290.456 506.132 C 290.400 500.700,289.785 496.506,287.335 484.833 C 286.258 479.700,285.186 474.188,284.955 472.583 L 284.533 469.667 283.017 469.703 C 282.182 469.723,279.850 470.163,277.833 470.681 " stroke="none" fill="#f3dfd0" fill-rule="evenodd"></path><path id="path2" d="M208.864 0.364 C 197.137 1.034,185.590 3.087,175.833 6.235 C 162.733 10.463,151.653 15.130,143.167 19.994 C 141.333 21.044,136.383 23.822,132.167 26.167 C 107.799 39.715,98.431 48.865,93.794 63.648 L 92.833 66.711 90.547 67.916 C 84.684 71.006,79.468 77.852,76.517 86.331 C 74.632 91.746,73.710 96.908,72.816 107.050 L 72.621 109.266 69.227 112.202 C -22.321 191.408,-23.005 340.001,67.808 420.582 L 70.117 422.630 70.539 428.732 C 70.771 432.088,71.052 438.508,71.164 443.000 C 71.618 461.189,71.811 461.515,85.323 466.844 C 88.892 468.252,95.267 471.133,99.490 473.246 C 123.524 485.276,133.707 488.429,148.158 488.313 L 153.482 488.270 158.264 504.552 C 163.241 521.497,167.458 534.612,170.167 541.570 L 171.752 545.640 174.293 546.473 C 193.224 552.676,229.697 554.211,261.762 550.154 C 274.273 548.571,281.305 542.993,280.371 535.394 C 279.878 531.378,279.500 525.000,279.756 525.000 C 279.861 525.000,281.721 524.620,283.890 524.156 C 301.851 520.315,303.974 515.487,298.334 491.309 C 296.122 481.825,295.544 477.774,295.746 473.149 C 295.944 468.586,296.103 468.276,298.631 467.511 C 303.184 466.132,305.333 463.611,305.333 459.648 L 305.333 458.062 307.750 457.071 C 313.961 454.525,320.746 453.354,329.393 453.339 L 332.285 453.333 333.454 455.250 C 336.347 459.992,338.459 460.735,351.754 461.687 C 362.085 462.427,374.629 460.670,379.531 457.797 C 390.104 451.601,396.962 427.624,392.723 411.673 C 386.270 387.384,380.168 374.945,372.996 371.457 L 371.742 370.847 373.220 368.173 C 417.561 287.957,404.507 187.777,341.294 123.167 L 335.750 117.500 335.527 114.500 C 332.339 71.531,320.865 48.474,289.729 22.472 C 270.166 6.134,242.109 -1.536,208.864 0.364 M223.833 12.669 C 250.661 14.564,277.188 25.303,290.945 39.836 C 295.028 44.149,309.271 61.865,308.915 62.188 C 308.870 62.229,307.858 62.057,306.667 61.805 C 296.067 59.566,287.449 64.413,287.060 72.833 L 286.922 75.833 287.711 75.128 C 297.604 66.290,318.017 74.965,323.492 90.333 C 326.051 97.517,326.866 103.949,327.866 124.833 C 330.229 174.175,318.654 214.039,292.525 246.548 C 284.046 257.097,261.917 268.151,243.957 270.809 C 228.937 273.032,213.772 269.004,198.242 258.667 C 186.500 250.852,178.254 241.993,162.218 219.967 L 159.937 216.833 160.148 218.888 C 160.997 227.129,165.599 235.067,176.734 247.500 C 186.930 258.883,196.076 266.722,202.250 269.369 C 204.206 270.207,204.032 270.298,201.417 269.804 C 191.822 267.992,183.498 269.674,180.833 273.962 L 180.167 275.036 176.667 274.834 C 155.825 273.632,144.245 269.846,136.640 261.746 C 129.182 253.803,118.752 229.850,115.839 213.976 C 114.681 207.661,114.951 206.715,119.172 202.328 C 123.143 198.200,124.062 195.857,122.956 192.685 C 122.275 190.730,118.666 191.820,114.167 195.338 C 109.033 199.353,105.064 200.189,99.500 198.427 C 83.919 193.492,72.401 167.266,78.960 151.656 C 82.981 142.084,91.069 136.527,101.000 136.512 C 110.740 136.497,115.839 141.834,119.192 155.556 C 120.276 159.992,120.054 159.869,126.037 159.345 C 133.621 158.680,137.668 156.604,137.665 153.382 C 137.663 150.861,136.799 146.261,134.996 139.167 C 131.691 126.171,131.589 121.426,134.329 108.231 C 134.869 105.629,135.900 100.650,136.620 97.167 C 139.375 83.827,139.371 76.298,136.604 67.612 L 135.578 64.391 136.985 61.779 C 146.718 43.714,180.948 18.774,202.500 14.044 C 209.189 12.577,216.163 12.127,223.833 12.669 M164.455 23.358 C 166.266 24.782,164.926 27.134,161.805 28.008 C 160.814 28.285,159.562 29.047,158.372 30.095 C 157.343 31.003,154.775 33.038,152.667 34.618 C 147.114 38.779,145.314 40.763,141.856 46.532 C 134.312 59.122,132.535 60.704,126.578 60.134 C 120.676 59.569,119.187 59.767,112.706 61.979 C 105.231 64.530,102.524 65.191,102.823 64.393 C 104.939 58.738,113.858 48.635,122.366 42.256 C 136.359 31.763,161.048 20.678,164.455 23.358 M196.833 66.210 C 187.071 68.257,175.284 79.159,172.532 88.687 C 171.020 93.922,171.106 96.505,172.850 98.250 C 174.409 99.809,174.662 99.667,176.404 96.248 C 184.255 80.841,194.536 74.875,209.373 77.116 L 211.245 77.399 211.623 76.316 C 213.891 69.810,205.855 64.319,196.833 66.210 M129.678 69.917 C 131.938 77.135,131.767 85.366,128.991 103.000 C 126.302 120.086,126.375 126.340,129.390 136.833 C 132.021 145.993,131.682 148.940,127.928 149.549 L 126.760 149.739 126.534 147.443 C 124.868 130.534,103.674 120.307,88.043 128.868 C 85.470 130.278,85.816 130.786,85.303 124.833 C 84.000 109.720,85.188 97.273,88.579 90.500 C 93.907 79.855,108.670 70.605,124.176 68.196 C 129.171 67.420,128.866 67.324,129.678 69.917 M309.000 103.123 C 309.000 108.043,310.388 113.566,313.618 121.499 C 315.147 125.251,315.210 125.524,314.650 125.916 C 313.542 126.692,310.190 127.309,305.167 127.662 C 295.454 128.343,294.853 128.668,295.991 132.635 C 298.220 140.408,312.664 139.872,321.446 131.690 C 324.103 129.214,324.276 128.608,322.913 126.551 C 320.802 123.367,317.431 116.879,313.663 108.750 C 309.530 99.833,309.000 99.194,309.000 103.123 M221.239 101.550 C 219.152 104.927,222.810 116.991,229.146 127.627 C 231.262 131.179,231.262 131.175,228.521 132.589 C 225.845 133.969,222.016 134.000,214.436 132.702 C 205.892 131.240,205.881 131.243,205.155 135.111 C 203.673 143.010,225.130 147.221,234.197 140.811 C 241.023 135.985,241.093 130.732,234.420 124.120 C 229.806 119.548,228.593 117.601,224.997 108.992 C 222.793 103.718,221.492 101.141,221.239 101.550 M265.217 109.045 C 264.072 109.711,265.049 117.479,267.055 123.667 C 270.503 134.296,277.077 143.966,294.362 163.833 C 298.501 168.590,299.299 172.397,297.122 177.000 L 296.098 179.167 288.299 182.805 C 272.924 189.978,265.738 192.126,259.339 191.464 C 253.840 190.895,252.475 189.490,250.737 182.612 C 249.447 177.510,249.300 177.270,248.401 178.793 C 245.283 184.078,246.024 191.931,250.097 196.772 L 251.167 198.043 255.500 198.233 C 270.547 198.892,283.976 194.547,301.831 183.246 C 305.098 181.179,305.167 181.108,305.377 179.652 C 305.495 178.835,306.223 176.314,306.994 174.050 C 309.482 166.751,309.182 165.280,304.358 161.147 C 292.655 151.118,272.120 123.083,269.661 113.775 C 268.685 110.080,268.727 110.190,267.983 109.392 C 267.253 108.608,266.197 108.476,265.217 109.045 M74.104 125.417 C 75.471 131.224,75.214 133.500,72.818 136.840 C 66.754 145.291,65.483 160.446,69.534 175.990 C 74.609 195.463,85.232 207.567,100.833 211.652 L 104.167 212.524 104.441 215.335 C 105.089 221.962,108.318 231.060,112.130 237.000 C 119.856 249.040,119.261 250.975,105.426 258.814 C 86.583 269.490,70.995 278.878,64.150 283.673 C 61.693 285.394,57.535 287.860,54.500 289.397 C 38.980 297.255,38.353 300.606,47.651 326.000 C 49.162 330.125,51.053 335.401,51.855 337.724 C 52.656 340.046,54.652 345.371,56.289 349.557 C 60.823 361.147,62.206 365.645,64.473 376.167 C 66.179 384.085,68.969 402.926,68.600 404.034 C 68.460 404.453,63.950 399.816,59.476 394.655 C -6.835 318.158,-3.305 203.243,67.587 130.634 C 73.767 124.304,73.830 124.253,74.104 125.417 M341.371 141.385 C 394.009 203.497,402.041 293.300,361.313 364.333 C 358.516 369.211,358.930 368.852,355.808 369.116 C 348.015 369.774,336.756 373.466,324.051 379.527 C 321.604 380.694,319.679 381.449,319.773 381.204 C 324.280 369.459,333.083 343.261,338.660 325.000 C 340.703 318.308,343.486 309.308,344.844 305.000 C 348.419 293.655,349.099 290.642,349.136 285.986 C 349.196 278.395,348.002 276.959,325.667 257.756 C 316.786 250.122,311.569 244.952,310.652 242.877 C 309.479 240.226,310.460 237.403,315.535 228.833 C 325.552 211.918,333.693 178.491,335.344 147.500 C 335.539 143.833,335.783 139.560,335.886 138.003 L 336.073 135.173 337.120 136.388 C 337.696 137.057,339.609 139.305,341.371 141.385 M94.758 146.551 C 91.685 147.639,88.692 151.417,87.702 155.457 C 87.165 157.647,87.340 157.677,89.398 155.749 C 91.545 153.737,92.278 153.333,93.784 153.333 C 95.947 153.333,96.008 153.450,95.145 155.937 C 92.582 163.324,93.450 173.910,97.051 179.174 L 97.833 180.319 98.034 172.743 C 98.349 160.866,99.795 157.006,103.933 157.001 C 106.538 156.998,107.569 158.152,110.947 164.847 C 114.616 172.117,115.361 172.495,115.597 167.206 C 116.184 154.002,105.006 142.923,94.758 146.551 M308.167 193.854 C 294.925 200.864,289.554 203.097,283.333 204.181 C 281.592 204.485,279.838 204.794,279.437 204.868 C 278.428 205.054,278.186 206.960,278.435 212.775 C 278.673 218.335,278.261 217.859,282.400 217.358 C 294.267 215.920,303.280 209.339,311.141 196.375 C 312.934 193.418,314.441 190.661,314.257 190.672 C 314.207 190.675,311.467 192.107,308.167 193.854 M221.362 201.003 C 225.990 209.687,238.816 215.878,256.167 217.805 C 262.318 218.488,268.609 218.774,271.381 218.495 L 273.759 218.256 273.547 213.045 C 273.431 210.179,273.246 207.365,273.136 206.793 L 272.937 205.752 260.718 205.559 C 253.998 205.452,247.150 205.211,245.500 205.021 C 233.905 203.690,227.787 202.229,220.702 199.097 C 220.435 198.979,220.716 199.792,221.362 201.003 M213.667 211.763 C 211.971 212.616,212.342 213.716,215.408 216.921 C 216.941 218.523,219.804 222.098,221.771 224.866 C 231.227 238.170,238.597 241.378,257.249 240.304 C 271.263 239.497,277.758 237.078,280.514 231.638 L 281.321 230.047 267.244 230.107 C 236.931 230.236,224.199 225.674,218.440 212.621 C 217.812 211.197,215.586 210.797,213.667 211.763 M304.903 256.320 C 306.578 257.780,311.222 262.220,315.224 266.188 C 319.753 270.679,324.613 275.099,328.099 277.897 C 338.994 286.644,339.305 287.668,335.869 303.500 C 331.350 324.322,326.069 340.862,315.593 367.000 C 308.364 385.036,308.713 384.759,292.486 385.335 C 283.898 385.641,280.340 386.116,277.486 387.339 L 275.986 387.982 276.373 387.241 C 277.430 385.216,282.381 376.975,291.391 362.242 C 300.019 348.131,306.510 337.264,310.258 330.649 L 311.307 328.799 310.613 327.658 C 310.231 327.030,308.905 325.388,307.666 324.008 C 306.428 322.629,305.104 320.884,304.724 320.131 L 304.035 318.761 304.997 316.283 C 309.141 305.612,308.787 286.028,304.252 275.000 C 300.915 266.886,295.222 263.309,289.167 265.521 C 288.015 265.942,290.903 263.141,295.016 259.849 C 297.133 258.155,299.458 256.075,300.183 255.228 C 301.819 253.316,301.326 253.202,304.903 256.320 M124.673 266.417 C 126.691 268.414,133.334 275.966,136.833 280.243 C 140.074 284.203,151.492 290.923,169.000 299.174 C 177.193 303.034,176.274 302.201,177.039 306.465 C 178.851 316.569,185.208 337.384,187.867 341.920 C 191.033 347.323,195.704 348.818,201.568 346.304 C 202.407 345.944,203.148 345.704,203.214 345.769 C 203.475 346.030,201.694 349.050,199.379 352.270 C 193.627 360.271,194.282 363.964,202.284 368.646 C 206.036 370.841,230.762 382.681,236.167 384.871 L 241.833 387.167 239.667 387.239 C 209.911 388.237,179.445 390.754,155.398 394.202 C 151.062 394.824,151.160 394.868,150.190 391.872 C 148.807 387.601,148.625 370.473,149.824 357.333 C 150.958 344.901,150.397 340.000,147.840 340.000 C 143.931 340.000,142.794 347.524,144.364 363.000 C 145.212 371.369,145.383 382.281,144.719 385.667 C 144.094 388.848,143.248 391.387,142.749 391.579 C 142.076 391.837,138.455 389.922,135.321 387.650 C 132.264 385.434,128.730 383.493,128.383 383.839 C 127.662 384.560,128.190 388.582,129.167 389.806 C 134.024 395.896,133.489 397.394,125.833 399.141 C 122.692 399.857,121.025 401.180,120.547 403.336 C 120.158 405.087,120.493 405.182,126.408 405.000 C 140.956 404.553,146.333 404.973,146.333 406.558 C 146.333 411.324,149.416 437.686,152.820 462.039 C 153.836 469.302,154.667 475.510,154.667 475.835 C 154.667 476.510,152.605 476.422,146.000 475.465 C 131.720 473.396,121.351 469.409,97.167 456.690 C 92.400 454.183,87.205 451.539,85.622 450.816 C 82.301 449.297,82.345 449.385,82.335 444.167 C 82.260 401.766,70.529 343.534,55.307 310.000 L 53.718 306.500 54.442 305.913 C 72.410 291.345,97.765 274.930,113.167 267.894 C 122.495 263.632,121.932 263.704,124.673 266.417 M293.000 276.067 C 299.634 278.527,303.564 308.765,298.165 315.810 C 297.107 317.191,278.319 315.224,267.368 312.586 L 264.236 311.831 264.106 307.332 C 263.896 300.050,264.098 299.775,270.258 298.970 C 271.858 298.761,273.763 298.491,274.491 298.370 L 275.815 298.149 273.991 297.558 C 271.225 296.662,267.463 296.247,265.254 296.596 C 263.105 296.935,263.007 296.896,262.983 295.694 C 262.973 295.221,262.540 293.784,262.021 292.501 L 261.076 290.169 263.017 289.132 C 264.085 288.561,267.181 286.594,269.896 284.759 C 282.113 276.506,288.106 274.251,293.000 276.067 M267.639 276.132 C 267.563 276.204,266.271 277.172,264.769 278.283 C 263.267 279.393,260.101 281.867,257.733 283.780 C 252.434 288.060,250.344 288.469,241.500 286.953 C 236.015 286.012,226.896 281.164,228.034 279.793 C 228.257 279.523,228.679 279.398,228.970 279.513 C 234.789 281.823,242.041 281.572,254.403 278.633 C 261.400 276.970,268.088 275.706,267.639 276.132 M152.539 277.476 C 155.613 278.754,158.580 279.263,167.260 280.000 C 179.111 281.005,178.116 280.361,176.694 286.109 C 176.129 288.392,175.667 290.652,175.667 291.130 C 175.667 294.594,153.933 286.249,149.876 281.228 C 148.431 279.440,148.631 275.790,150.137 276.466 C 150.337 276.556,151.417 277.010,152.539 277.476 M196.763 279.488 C 205.390 281.445,218.421 286.590,224.969 290.624 C 231.241 294.488,232.188 294.893,237.250 295.868 C 237.822 295.978,238.000 296.242,238.000 296.979 C 238.000 299.157,237.116 299.695,231.116 301.172 C 223.867 302.956,222.210 303.667,225.304 303.667 C 228.178 303.667,233.386 304.959,237.117 306.598 C 239.056 307.450,239.066 307.462,238.871 308.644 C 238.763 309.298,238.672 310.895,238.670 312.193 L 238.667 314.554 237.083 315.686 C 236.213 316.308,233.250 318.707,230.500 321.016 C 219.426 330.313,215.369 332.676,204.282 336.283 C 194.080 339.602,193.181 339.326,190.670 332.107 C 189.788 329.573,188.285 325.400,187.329 322.833 C 183.884 313.585,183.175 308.965,183.409 297.282 C 183.733 281.099,186.661 277.197,196.763 279.488 M253.734 294.858 C 259.949 299.226,256.957 310.023,249.500 310.135 C 245.727 310.191,245.107 309.905,244.671 307.906 C 243.287 301.569,243.010 299.946,243.005 298.145 L 243.000 296.123 244.385 295.344 C 247.893 293.373,251.363 293.192,253.734 294.858 M259.806 315.800 C 260.421 316.057,262.507 317.343,264.441 318.658 C 268.256 321.251,270.291 322.172,272.992 322.530 L 274.732 322.761 274.529 325.964 C 274.418 327.725,274.177 332.767,273.995 337.167 C 273.127 358.061,270.974 375.198,268.709 379.245 C 268.262 380.044,264.925 373.161,257.937 357.027 C 250.459 339.764,245.653 330.838,239.938 323.600 L 239.227 322.699 241.170 320.433 C 242.283 319.134,243.337 318.203,243.639 318.251 C 247.269 318.835,247.999 318.698,252.833 316.535 C 255.771 315.220,257.884 314.998,259.806 315.800 M294.346 322.791 C 297.977 324.274,304.884 330.447,304.212 331.608 C 287.849 359.891,282.466 368.590,275.506 378.000 C 272.195 382.477,272.229 382.445,272.831 380.489 C 276.065 369.988,278.584 352.713,279.683 333.500 C 279.893 329.833,280.163 326.008,280.282 325.000 L 280.500 323.167 282.667 322.408 C 285.778 321.319,291.175 321.496,294.346 322.791 M258.133 328.467 C 257.166 329.434,257.000 329.829,257.000 331.167 C 257.000 332.504,257.166 332.899,258.133 333.867 C 260.627 336.360,264.667 334.691,264.667 331.167 C 264.667 329.829,264.501 329.434,263.533 328.467 C 262.566 327.499,262.171 327.333,260.833 327.333 C 259.496 327.333,259.101 327.499,258.133 328.467 M234.908 330.917 C 239.316 336.869,245.600 348.157,250.163 358.322 C 251.384 361.040,259.455 379.941,260.237 381.910 C 260.940 383.682,234.503 372.974,219.667 365.477 C 203.835 357.478,204.519 358.091,206.296 353.482 C 209.112 346.181,214.877 340.249,227.333 331.840 C 233.502 327.675,232.590 327.786,234.908 330.917 M263.105 346.488 C 260.077 347.805,260.430 352.736,263.621 353.692 C 266.353 354.511,268.667 352.863,268.667 350.100 C 268.667 346.898,266.058 345.204,263.105 346.488 M363.406 379.328 C 372.596 382.167,375.602 388.239,382.386 417.667 C 386.476 435.408,379.840 449.671,366.106 452.659 C 357.668 454.495,344.660 454.375,341.183 452.429 C 339.981 451.757,345.945 449.804,353.167 448.505 C 360.322 447.218,364.667 446.272,364.667 446.000 C 364.667 445.709,361.632 444.848,358.855 444.353 C 356.013 443.846,347.108 443.918,339.087 444.514 C 335.281 444.797,330.373 444.984,328.180 444.931 L 324.193 444.833 323.102 433.500 C 321.509 416.966,319.933 406.386,318.051 399.600 L 317.432 397.368 318.466 396.399 C 321.838 393.239,326.241 391.188,339.073 386.801 C 346.768 384.170,351.385 382.276,353.737 380.785 C 357.189 378.596,359.775 378.207,363.406 379.328 M354.500 394.549 C 342.595 395.929,333.763 399.913,329.577 405.792 L 328.880 406.772 331.395 406.582 C 334.932 406.314,337.999 404.991,345.519 400.489 C 351.801 396.729,352.914 396.151,356.167 394.965 C 357.936 394.320,357.472 394.205,354.500 394.549 M307.273 397.664 C 307.921 397.666,308.278 398.165,309.485 400.750 C 313.990 410.395,316.643 425.657,316.662 442.028 L 316.667 446.557 314.917 447.075 C 313.954 447.360,311.882 448.056,310.311 448.622 C 308.657 449.217,306.633 449.688,305.501 449.742 L 303.548 449.833 302.946 444.500 C 302.271 438.519,301.384 432.314,299.182 418.167 C 297.449 407.033,296.303 398.253,296.551 398.005 C 296.814 397.741,302.960 397.392,304.833 397.534 C 305.750 397.604,306.848 397.662,307.273 397.664 M238.167 397.994 C 246.908 398.526,260.404 400.265,261.048 400.941 C 261.728 401.656,262.833 415.426,263.499 431.500 C 264.041 444.574,264.498 452.136,265.010 456.500 C 265.681 462.210,266.320 471.932,266.654 481.500 C 267.803 514.386,268.361 522.319,270.213 532.129 C 270.803 535.254,270.965 535.053,267.000 536.120 C 242.723 542.653,210.030 542.141,182.676 534.799 C 177.131 533.311,177.745 533.990,175.508 526.866 C 164.518 491.858,155.021 443.966,151.606 406.333 L 151.500 405.167 157.500 404.105 C 185.803 399.098,217.222 396.718,238.167 397.994 M284.650 400.123 C 286.260 404.358,288.052 418.710,289.504 439.000 C 289.786 442.942,290.238 448.531,290.508 451.422 C 290.779 454.312,291.000 456.958,291.000 457.302 C 291.000 457.836,290.427 458.037,287.083 458.674 C 281.813 459.678,271.530 461.301,271.378 461.153 C 270.664 460.455,268.516 415.929,268.726 406.171 L 268.833 401.176 271.000 400.581 C 273.113 400.001,278.050 399.475,282.258 399.380 C 284.173 399.337,284.375 399.400,284.650 400.123 M343.333 409.675 C 339.673 410.187,335.000 412.226,335.000 413.311 C 335.000 414.239,342.876 414.100,354.833 412.960 C 363.986 412.088,364.274 411.988,360.306 411.068 C 354.108 409.631,347.518 409.090,343.333 409.675 M342.333 423.522 C 338.381 424.211,335.091 425.378,334.528 426.288 C 334.217 426.790,338.194 426.982,352.667 427.160 C 365.562 427.319,366.421 427.294,365.333 426.794 C 361.023 424.813,346.654 422.769,342.333 423.522 M284.254 469.610 C 284.485 469.757,284.968 471.667,285.327 473.855 C 285.686 476.043,286.666 481.045,287.505 484.970 C 289.871 496.045,290.376 499.369,290.574 505.175 L 290.755 510.517 286.294 511.938 C 281.394 513.498,278.870 513.995,275.827 513.998 L 273.821 514.000 273.060 500.417 C 272.642 492.946,272.209 483.432,272.098 479.275 L 271.896 471.716 273.198 471.514 C 273.914 471.402,276.075 470.947,278.000 470.501 C 283.589 469.208,283.614 469.204,284.254 469.610 " stroke="none" fill="#212a31" fill-rule="evenodd"></path><path id="path3" d="M300.183 255.228 C 299.458 256.075,297.133 258.155,295.016 259.849 C 290.903 263.141,288.015 265.942,289.167 265.521 C 295.222 263.309,300.915 266.886,304.252 275.000 C 308.787 286.028,309.141 305.612,304.997 316.283 L 304.035 318.761 304.724 320.131 C 305.104 320.884,306.428 322.629,307.666 324.008 C 308.905 325.388,310.231 327.030,310.613 327.658 L 311.307 328.799 310.258 330.649 C 306.510 337.264,300.019 348.131,291.391 362.242 C 282.381 376.975,277.430 385.216,276.373 387.241 L 275.986 387.982 277.486 387.339 C 280.340 386.116,283.898 385.641,292.486 385.335 C 308.713 384.759,308.364 385.036,315.593 367.000 C 326.069 340.862,331.350 324.322,335.869 303.500 C 339.305 287.668,338.994 286.644,328.099 277.897 C 324.613 275.099,319.753 270.679,315.224 266.188 C 308.609 259.630,302.135 253.650,301.679 253.678 C 301.581 253.684,300.907 254.381,300.183 255.228 M119.167 265.229 C 101.186 272.758,75.150 289.124,54.442 305.913 L 53.718 306.500 55.307 310.000 C 70.529 343.534,82.260 401.766,82.335 444.167 C 82.345 449.385,82.301 449.297,85.622 450.816 C 87.205 451.539,92.400 454.183,97.167 456.690 C 121.351 469.409,131.720 473.396,146.000 475.465 C 152.605 476.422,154.667 476.510,154.667 475.835 C 154.667 475.510,153.836 469.302,152.820 462.039 C 149.416 437.686,146.333 411.324,146.333 406.558 C 146.333 404.973,140.956 404.553,126.408 405.000 C 120.493 405.182,120.158 405.087,120.547 403.336 C 121.025 401.180,122.692 399.857,125.833 399.141 C 133.489 397.394,134.024 395.896,129.167 389.806 C 128.190 388.582,127.662 384.560,128.383 383.839 C 128.730 383.493,132.264 385.434,135.321 387.650 C 138.455 389.922,142.076 391.837,142.749 391.579 C 143.248 391.387,144.094 388.848,144.719 385.667 C 145.383 382.281,145.212 371.369,144.364 363.000 C 142.794 347.524,143.931 340.000,147.840 340.000 C 150.397 340.000,150.958 344.901,149.824 357.333 C 148.625 370.473,148.807 387.601,150.190 391.872 C 151.160 394.868,151.062 394.824,155.398 394.202 C 179.445 390.754,209.911 388.237,239.667 387.239 L 241.833 387.167 236.167 384.871 C 230.762 382.681,206.036 370.841,202.284 368.646 C 194.282 363.964,193.627 360.271,199.379 352.270 C 201.694 349.050,203.475 346.030,203.214 345.769 C 203.148 345.704,202.407 345.944,201.568 346.304 C 195.704 348.818,191.033 347.323,187.867 341.920 C 185.208 337.384,178.851 316.569,177.039 306.465 C 176.274 302.201,177.193 303.034,169.000 299.174 C 151.492 290.923,140.074 284.203,136.833 280.243 C 133.334 275.966,126.691 268.414,124.673 266.417 C 122.297 264.066,122.064 264.015,119.167 265.229 M300.000 326.438 C 300.000 326.495,300.487 326.983,301.083 327.521 L 302.167 328.500 301.188 327.417 C 300.275 326.407,300.000 326.180,300.000 326.438 M276.667 399.707 C 274.742 399.861,272.192 400.254,271.000 400.581 L 268.833 401.176 268.726 406.171 C 268.516 415.929,270.664 460.455,271.378 461.153 C 271.530 461.301,281.813 459.678,287.083 458.674 C 290.427 458.037,291.000 457.836,291.000 457.302 C 291.000 456.958,290.779 454.312,290.508 451.422 C 290.238 448.531,289.786 442.942,289.504 439.000 C 288.052 418.710,286.260 404.358,284.650 400.123 C 284.308 399.224,283.338 399.174,276.667 399.707 " stroke="none" fill="#517080" fill-rule="evenodd"></path><path id="path4" d="M93.812 83.417 L 92.833 84.500 93.917 83.521 C 94.926 82.608,95.153 82.333,94.896 82.333 C 94.838 82.333,94.351 82.821,93.812 83.417 M98.812 87.750 L 97.833 88.833 98.917 87.854 C 99.513 87.316,100.000 86.828,100.000 86.771 C 100.000 86.513,99.725 86.740,98.812 87.750 M87.453 118.000 C 87.453 119.742,87.510 120.454,87.578 119.583 C 87.647 118.712,87.647 117.287,87.578 116.417 C 87.510 115.546,87.453 116.258,87.453 118.000 M284.500 322.021 C 283.767 322.202,282.558 322.581,281.814 322.862 L 280.462 323.375 280.045 330.771 C 278.944 350.297,276.451 368.617,273.535 378.623 C 273.087 380.157,272.835 381.282,272.973 381.123 C 277.446 375.989,286.805 361.344,298.528 341.133 C 304.819 330.289,304.569 331.373,301.532 328.092 C 296.986 323.182,289.952 320.674,284.500 322.021 M227.320 332.029 C 213.976 341.047,208.297 347.258,205.670 355.707 L 205.087 357.581 210.960 360.761 C 222.375 366.940,233.195 372.062,243.333 376.084 C 249.164 378.398,259.686 382.092,259.883 381.895 C 260.011 381.767,253.942 367.233,250.724 359.961 C 245.858 348.965,239.655 337.670,235.050 331.420 L 232.780 328.340 227.320 332.029 M229.587 397.902 C 230.002 397.982,230.602 397.979,230.921 397.896 C 231.239 397.812,230.900 397.747,230.167 397.751 C 229.433 397.754,229.173 397.823,229.587 397.902 M350.250 427.569 C 350.662 427.648,351.337 427.648,351.750 427.569 C 352.162 427.489,351.825 427.424,351.000 427.424 C 350.175 427.424,349.837 427.489,350.250 427.569 M316.331 443.235 C 316.241 445.106,316.285 446.517,316.430 446.372 C 316.575 446.226,316.649 444.695,316.594 442.970 L 316.496 439.833 316.331 443.235 M266.744 491.333 C 266.744 491.975,266.813 492.238,266.896 491.917 C 266.980 491.596,266.980 491.071,266.896 490.750 C 266.813 490.429,266.744 490.692,266.744 491.333 " stroke="none" fill="#85b2c2" fill-rule="evenodd"></path><path id="path5" d="M289.319 38.417 C 290.137 39.287,290.849 40.000,290.903 40.000 C 291.153 40.000,290.888 39.701,289.417 38.319 L 287.833 36.833 289.319 38.417 M125.479 50.083 L 124.500 51.167 125.583 50.188 C 126.593 49.275,126.820 49.000,126.562 49.000 C 126.505 49.000,126.017 49.487,125.479 50.083 M120.812 54.750 L 119.833 55.833 120.917 54.854 C 121.926 53.942,122.153 53.667,121.896 53.667 C 121.838 53.667,121.351 54.154,120.812 54.750 M301.088 61.239 C 301.595 61.316,302.345 61.314,302.755 61.235 C 303.165 61.156,302.750 61.093,301.833 61.095 C 300.917 61.098,300.581 61.163,301.088 61.239 M212.077 74.000 C 212.077 74.642,212.146 74.904,212.230 74.583 C 212.314 74.262,212.314 73.737,212.230 73.417 C 212.146 73.096,212.077 73.358,212.077 74.000 M138.776 80.833 C 138.778 82.117,138.838 82.601,138.910 81.909 C 138.982 81.218,138.981 80.168,138.907 79.576 C 138.834 78.984,138.775 79.550,138.776 80.833 M308.762 102.833 C 308.765 103.750,308.829 104.085,308.906 103.579 C 308.982 103.072,308.980 102.322,308.901 101.912 C 308.822 101.502,308.760 101.917,308.762 102.833 M84.779 112.000 C 84.779 113.375,84.838 113.938,84.909 113.250 C 84.981 112.563,84.981 111.438,84.909 110.750 C 84.838 110.063,84.779 110.625,84.779 112.000 M327.417 120.167 C 327.421 120.900,327.489 121.161,327.569 120.746 C 327.649 120.331,327.646 119.731,327.562 119.413 C 327.479 119.094,327.414 119.433,327.417 120.167 M132.445 123.667 C 132.445 125.042,132.504 125.604,132.576 124.917 C 132.648 124.229,132.648 123.104,132.576 122.417 C 132.504 121.729,132.445 122.292,132.445 123.667 M232.000 121.771 C 232.000 121.828,232.487 122.316,233.083 122.854 L 234.167 123.833 233.188 122.750 C 232.275 121.740,232.000 121.513,232.000 121.771 M327.744 127.333 C 327.744 127.975,327.813 128.237,327.896 127.917 C 327.980 127.596,327.980 127.071,327.896 126.750 C 327.813 126.429,327.744 126.692,327.744 127.333 M328.122 138.500 C 328.123 140.333,328.179 141.041,328.246 140.072 C 328.314 139.104,328.313 137.604,328.245 136.739 C 328.176 135.874,328.121 136.667,328.122 138.500 M93.437 165.500 C 93.438 166.600,93.501 167.010,93.575 166.411 C 93.649 165.812,93.648 164.912,93.572 164.411 C 93.495 163.910,93.435 164.400,93.437 165.500 M115.773 166.000 C 115.773 167.192,115.834 167.679,115.908 167.083 C 115.982 166.487,115.982 165.512,115.908 164.917 C 115.834 164.321,115.773 164.808,115.773 166.000 M98.133 173.500 C 98.134 176.250,98.185 177.331,98.248 175.901 C 98.311 174.472,98.310 172.222,98.247 170.901 C 98.184 169.581,98.133 170.750,98.133 173.500 M104.254 199.236 C 104.669 199.315,105.269 199.312,105.587 199.229 C 105.906 199.146,105.567 199.080,104.833 199.084 C 104.100 199.088,103.839 199.156,104.254 199.236 M118.667 202.833 C 117.857 203.658,117.270 204.333,117.361 204.333 C 117.453 204.333,118.190 203.658,119.000 202.833 C 119.810 202.008,120.397 201.333,120.305 201.333 C 120.214 201.333,119.476 202.008,118.667 202.833 M255.421 205.573 C 255.928 205.649,256.678 205.647,257.088 205.568 C 257.498 205.489,257.083 205.426,256.167 205.429 C 255.250 205.431,254.915 205.496,255.421 205.573 M302.667 207.500 C 301.857 208.325,301.270 209.000,301.361 209.000 C 301.453 209.000,302.190 208.325,303.000 207.500 C 303.810 206.675,304.397 206.000,304.305 206.000 C 304.214 206.000,303.476 206.675,302.667 207.500 M278.095 209.833 C 278.098 210.750,278.163 211.085,278.239 210.579 C 278.316 210.072,278.314 209.322,278.235 208.912 C 278.156 208.502,278.093 208.917,278.095 209.833 M273.773 214.333 C 273.773 215.525,273.834 216.012,273.908 215.417 C 273.982 214.821,273.982 213.846,273.908 213.250 C 273.834 212.654,273.773 213.142,273.773 214.333 M261.417 218.563 C 261.737 218.647,262.262 218.647,262.583 218.563 C 262.904 218.479,262.642 218.411,262.000 218.411 C 261.358 218.411,261.096 218.479,261.417 218.563 M276.917 229.908 C 277.512 229.982,278.487 229.982,279.083 229.908 C 279.679 229.834,279.192 229.773,278.000 229.773 C 276.808 229.773,276.321 229.834,276.917 229.908 M261.909 230.241 C 262.501 230.314,263.551 230.315,264.243 230.243 C 264.934 230.171,264.450 230.111,263.167 230.109 C 261.883 230.108,261.317 230.167,261.909 230.241 M179.667 251.104 C 179.667 251.162,180.154 251.649,180.750 252.188 L 181.833 253.167 180.854 252.083 C 179.942 251.074,179.667 250.847,179.667 251.104 M181.479 272.750 L 180.500 273.833 181.583 272.854 C 182.179 272.316,182.667 271.828,182.667 271.771 C 182.667 271.513,182.392 271.740,181.479 272.750 M274.077 330.667 C 274.077 331.308,274.146 331.571,274.230 331.250 C 274.314 330.929,274.314 330.404,274.230 330.083 C 274.146 329.762,274.077 330.025,274.077 330.667 M217.254 397.902 C 217.669 397.982,218.269 397.979,218.587 397.896 C 218.906 397.812,218.567 397.747,217.833 397.751 C 217.100 397.754,216.839 397.823,217.254 397.902 M353.750 427.578 C 354.621 427.647,356.046 427.647,356.917 427.578 C 357.787 427.510,357.075 427.453,355.333 427.453 C 353.592 427.453,352.879 427.510,353.750 427.578 M361.583 427.579 C 362.546 427.646,364.121 427.646,365.083 427.579 C 366.046 427.512,365.258 427.457,363.333 427.457 C 361.408 427.457,360.621 427.512,361.583 427.579 M316.424 438.667 C 316.424 439.492,316.489 439.829,316.569 439.417 C 316.648 439.004,316.648 438.329,316.569 437.917 C 316.489 437.504,316.424 437.842,316.424 438.667 M272.091 474.667 C 272.091 475.492,272.156 475.829,272.235 475.417 C 272.315 475.004,272.315 474.329,272.235 473.917 C 272.156 473.504,272.091 473.842,272.091 474.667 M272.103 478.500 C 272.105 479.600,272.167 480.010,272.242 479.411 C 272.316 478.812,272.314 477.912,272.238 477.411 C 272.162 476.910,272.101 477.400,272.103 478.500 M266.411 479.333 C 266.411 479.975,266.479 480.238,266.563 479.917 C 266.647 479.596,266.647 479.071,266.563 478.750 C 266.479 478.429,266.411 478.692,266.411 479.333 M266.751 489.167 C 266.754 489.900,266.823 490.161,266.902 489.746 C 266.982 489.331,266.979 488.731,266.896 488.413 C 266.812 488.094,266.747 488.433,266.751 489.167 M267.077 499.333 C 267.077 499.975,267.146 500.238,267.230 499.917 C 267.314 499.596,267.314 499.071,267.230 498.750 C 267.146 498.429,267.077 498.692,267.077 499.333 " stroke="none" fill="#93877e" fill-rule="evenodd"></path><path id="path6" d="M216.417 12.578 C 217.287 12.647,218.713 12.647,219.583 12.578 C 220.454 12.510,219.742 12.453,218.000 12.453 C 216.258 12.453,215.546 12.510,216.417 12.578 M151.833 33.318 C 137.743 39.673,125.878 48.366,118.328 57.867 C 116.052 60.731,116.041 60.786,117.821 60.294 C 119.503 59.830,122.761 59.770,126.578 60.134 C 132.535 60.703,134.312 59.121,141.856 46.532 C 145.329 40.738,147.122 38.769,152.750 34.566 C 158.094 30.577,158.049 30.515,151.833 33.318 M286.751 73.500 C 286.754 74.233,286.823 74.494,286.902 74.079 C 286.982 73.665,286.979 73.065,286.896 72.746 C 286.812 72.427,286.747 72.767,286.751 73.500 M126.789 74.516 C 98.940 80.009,84.987 98.045,88.037 124.610 C 88.498 128.624,88.275 128.464,91.756 127.292 C 107.597 121.957,125.017 132.050,126.534 147.443 L 126.760 149.739 127.928 149.549 C 131.682 148.940,132.021 145.993,129.390 136.833 C 126.325 126.163,126.286 120.433,129.156 101.833 C 129.778 97.800,130.479 93.075,130.714 91.333 C 131.192 87.787,131.243 77.232,130.793 75.142 L 130.500 73.784 126.789 74.516 M84.751 115.500 C 84.754 116.233,84.823 116.494,84.902 116.079 C 84.982 115.665,84.979 115.065,84.896 114.746 C 84.812 114.427,84.747 114.767,84.751 115.500 M327.744 125.333 C 327.744 125.975,327.813 126.237,327.896 125.917 C 327.980 125.596,327.980 125.071,327.896 124.750 C 327.813 124.429,327.744 124.692,327.744 125.333 M328.100 133.667 C 328.100 134.675,328.162 135.087,328.239 134.583 C 328.315 134.079,328.315 133.254,328.239 132.750 C 328.162 132.246,328.100 132.658,328.100 133.667 M328.103 143.500 C 328.105 144.600,328.167 145.010,328.242 144.411 C 328.316 143.812,328.314 142.912,328.238 142.411 C 328.162 141.910,328.101 142.400,328.103 143.500 M219.583 143.902 C 219.996 143.981,220.671 143.981,221.083 143.902 C 221.496 143.822,221.158 143.757,220.333 143.757 C 219.508 143.757,219.171 143.822,219.583 143.902 M222.921 143.902 C 223.335 143.982,223.935 143.979,224.254 143.896 C 224.573 143.812,224.233 143.747,223.500 143.751 C 222.767 143.754,222.506 143.823,222.921 143.902 M300.667 157.771 C 300.667 157.828,301.154 158.316,301.750 158.854 L 302.833 159.833 301.854 158.750 C 300.942 157.740,300.667 157.513,300.667 157.771 M124.417 159.563 C 124.737 159.647,125.263 159.647,125.583 159.563 C 125.904 159.479,125.642 159.411,125.000 159.411 C 124.358 159.411,124.096 159.479,124.417 159.563 M98.077 179.333 C 98.077 179.975,98.146 180.237,98.230 179.917 C 98.314 179.596,98.314 179.071,98.230 178.750 C 98.146 178.429,98.077 178.692,98.077 179.333 M260.587 191.569 C 261.002 191.649,261.602 191.646,261.921 191.562 C 262.239 191.479,261.900 191.414,261.167 191.417 C 260.433 191.421,260.173 191.489,260.587 191.569 M253.083 205.563 C 253.404 205.647,253.929 205.647,254.250 205.563 C 254.571 205.479,254.308 205.411,253.667 205.411 C 253.025 205.411,252.762 205.479,253.083 205.563 M215.667 217.500 C 216.848 218.692,217.889 219.667,217.981 219.667 C 218.072 219.667,217.181 218.692,216.000 217.500 C 214.819 216.308,213.778 215.333,213.686 215.333 C 213.594 215.333,214.486 216.308,215.667 217.500 M273.712 217.230 C 273.671 218.203,273.561 218.304,272.417 218.424 L 271.167 218.555 272.427 218.611 C 273.794 218.671,274.157 218.262,273.905 216.941 C 273.791 216.340,273.747 216.405,273.712 217.230 M263.417 218.563 C 263.737 218.647,264.262 218.647,264.583 218.563 C 264.904 218.479,264.642 218.411,264.000 218.411 C 263.358 218.411,263.096 218.479,263.417 218.563 M257.576 230.241 C 258.168 230.314,259.218 230.315,259.909 230.243 C 260.601 230.171,260.117 230.111,258.833 230.109 C 257.550 230.108,256.984 230.167,257.576 230.241 M266.583 230.244 C 267.362 230.314,268.637 230.314,269.417 230.244 C 270.196 230.174,269.558 230.116,268.000 230.116 C 266.442 230.116,265.804 230.174,266.583 230.244 M249.421 240.573 C 249.928 240.649,250.678 240.647,251.088 240.568 C 251.498 240.489,251.083 240.426,250.167 240.429 C 249.250 240.431,248.915 240.496,249.421 240.573 M254.421 240.573 C 254.928 240.649,255.678 240.647,256.088 240.568 C 256.498 240.489,256.083 240.426,255.167 240.429 C 254.250 240.431,253.915 240.496,254.421 240.573 M184.500 256.000 C 186.142 257.650,187.561 259.000,187.653 259.000 C 187.744 259.000,186.476 257.650,184.833 256.000 C 183.191 254.350,181.772 253.000,181.681 253.000 C 181.589 253.000,182.858 254.350,184.500 256.000 M238.921 281.236 C 239.335 281.315,239.935 281.312,240.254 281.229 C 240.573 281.146,240.233 281.080,239.500 281.084 C 238.767 281.088,238.506 281.156,238.921 281.236 M247.592 287.578 C 248.376 287.648,249.576 287.647,250.259 287.576 C 250.941 287.504,250.300 287.446,248.833 287.448 C 247.367 287.449,246.808 287.507,247.592 287.578 M280.077 326.667 C 280.077 327.308,280.146 327.571,280.230 327.250 C 280.314 326.929,280.314 326.404,280.230 326.083 C 280.146 325.762,280.077 326.025,280.077 326.667 M303.587 397.569 C 304.002 397.649,304.602 397.646,304.921 397.562 C 305.239 397.479,304.900 397.414,304.167 397.417 C 303.433 397.421,303.173 397.489,303.587 397.569 M263.411 432.333 C 263.411 432.975,263.479 433.238,263.563 432.917 C 263.647 432.596,263.647 432.071,263.563 431.750 C 263.479 431.429,263.411 431.692,263.411 432.333 M349.750 443.912 C 350.621 443.980,352.046 443.980,352.917 443.912 C 353.787 443.843,353.075 443.787,351.333 443.787 C 349.592 443.787,348.879 443.843,349.750 443.912 M303.626 449.760 C 303.787 449.921,304.350 449.998,304.876 449.933 C 305.757 449.823,305.734 449.800,304.584 449.640 C 303.867 449.541,303.459 449.592,303.626 449.760 M266.411 477.333 C 266.411 477.975,266.479 478.238,266.563 477.917 C 266.647 477.596,266.647 477.071,266.563 476.750 C 266.479 476.429,266.411 476.692,266.411 477.333 M272.077 481.333 C 272.077 481.975,272.146 482.238,272.230 481.917 C 272.314 481.596,272.314 481.071,272.230 480.750 C 272.146 480.429,272.077 480.692,272.077 481.333 M266.751 486.833 C 266.754 487.567,266.823 487.827,266.902 487.413 C 266.982 486.998,266.979 486.398,266.896 486.079 C 266.812 485.761,266.747 486.100,266.751 486.833 " stroke="none" fill="#817464" fill-rule="evenodd"></path><path id="path7" d="" stroke="none" fill="#648c98" fill-rule="evenodd"></path><path id="path8" d="" stroke="none" fill="#6c94a4" fill-rule="evenodd"></path></g></svg>